<svg width="396" height="336" viewBox="0 0 396 336" fill="none" xmlns="http://www.w3.org/2000/svg">
<g filter="url(#filter0_bd_0_1)">
<path d="M8 18C8 12.4772 12.4772 8 18 8H378C383.523 8 388 12.4772 388 18V318C388 323.523 383.523 328 378 328H18C12.4772 328 8 323.523 8 318V18Z" fill="white" fill-opacity="0.8" shape-rendering="crispEdges"/>
<path d="M41.796 53.1462H44.708V56.1422C44.708 60.5382 42.944 64.9342 38.716 66.7262L36.756 63.8422C40.368 62.2462 41.796 59.0542 41.796 56.1422V53.1462ZM42.468 53.1462H45.38V56.1422C45.38 58.9142 46.78 61.7142 50.196 63.0582L48.208 65.8862C44.176 64.2902 42.468 60.3702 42.468 56.1422V53.1462ZM55.684 51.6062H59.212V67.4262H55.684V51.6062ZM52.576 57.8782H56.692V60.8742H52.576V57.8782ZM50.196 52.0822H53.668V66.6142H50.196V52.0822ZM50.42 67.7902C55.852 67.7902 59.352 69.6102 59.352 72.6622C59.352 75.6862 55.852 77.5062 50.42 77.5062C44.96 77.5062 41.516 75.6862 41.516 72.6622C41.516 69.6102 44.96 67.7902 50.42 67.7902ZM50.42 70.5902C47.088 70.5902 45.212 71.2902 45.212 72.6622C45.212 74.0342 47.088 74.7062 50.42 74.7062C53.752 74.7062 55.6 74.0342 55.6 72.6622C55.6 71.2902 53.752 70.5902 50.42 70.5902ZM68.3378 52.9222H71.4458V55.2462C71.4458 60.4542 69.1218 65.0182 64.0258 66.7262L62.0938 63.7302C66.5178 62.3022 68.3378 58.8022 68.3378 55.2462V52.9222ZM69.1218 52.9222H72.1178V55.0782C72.1178 58.5222 73.7978 61.7142 77.9138 63.0302L75.9818 65.9422C71.1938 64.2902 69.1218 60.1182 69.1218 55.0782V52.9222ZM80.2938 51.5782H84.0178V66.7542H80.2938V51.5782ZM75.2258 67.4262C80.7138 67.4262 84.1018 69.3022 84.1018 72.4662C84.1018 75.6582 80.7138 77.5062 75.2258 77.5062C69.7378 77.5062 66.3498 75.6582 66.3498 72.4662C66.3498 69.3022 69.7378 67.4262 75.2258 67.4262ZM75.2258 70.3102C71.8658 70.3102 70.0738 71.0102 70.0738 72.4662C70.0738 73.9222 71.8658 74.6502 75.2258 74.6502C78.6138 74.6502 80.4058 73.9222 80.4058 72.4662C80.4058 71.0102 78.6138 70.3102 75.2258 70.3102ZM75.5618 56.2822H80.8258V59.3062H75.5618V56.2822ZM104.204 51.6062H107.928V70.9822H104.204V51.6062ZM106.864 59.5022H111.372V62.5542H106.864V59.5022ZM87.5156 54.2942H102.776V57.2062H87.5156V54.2942ZM95.1596 58.1302C98.8836 58.1302 101.516 60.1742 101.516 63.1422C101.516 66.1102 98.8836 68.1262 95.1596 68.1262C91.4076 68.1262 88.7756 66.1102 88.7756 63.1422C88.7756 60.1742 91.4076 58.1302 95.1596 58.1302ZM95.1596 60.9582C93.5076 60.9582 92.3596 61.7422 92.3596 63.1422C92.3596 64.5422 93.5076 65.2982 95.1596 65.2982C96.8116 65.2982 97.9596 64.5422 97.9596 63.1422C97.9596 61.7422 96.8116 60.9582 95.1596 60.9582ZM93.2836 51.5502H97.0076V55.7222H93.2836V51.5502ZM91.2116 74.0902H108.852V77.0582H91.2116V74.0902ZM91.2116 69.5262H94.9356V75.3782H91.2116V69.5262ZM119.362 54.2382H129.61V71.0382H119.362V54.2382ZM126.138 57.1502H122.834V68.1262H126.138V57.1502ZM137.366 51.5782H140.922V77.5062H137.366V51.5782ZM127.734 60.9862H133.558V63.9822H127.734V60.9862ZM132.074 51.9702H135.574V76.3302H132.074V51.9702ZM151.14 52.3342C155.088 52.3342 158.056 54.7982 158.056 58.2702C158.056 61.7142 155.088 64.1782 151.14 64.1782C147.192 64.1782 144.224 61.7142 144.224 58.2702C144.224 54.7982 147.192 52.3342 151.14 52.3342ZM151.14 55.3582C149.236 55.3582 147.808 56.4222 147.808 58.2702C147.808 60.1182 149.236 61.1822 151.14 61.1822C153.044 61.1822 154.444 60.1182 154.444 58.2702C154.444 56.4222 153.044 55.3582 151.14 55.3582ZM161.64 51.5782H165.392V64.5422H161.64V51.5782ZM148.088 65.6062H165.392V72.7182H151.784V75.8542H148.144V70.0302H161.696V68.4902H148.088V65.6062ZM148.144 74.3422H166.036V77.2262H148.144V74.3422ZM188.838 58.2702H194.886V61.2662H188.838V58.2702ZM192.926 51.6062H196.65V70.5062H192.926V51.6062ZM179.542 74.0902H197.238V77.0582H179.542V74.0902ZM179.542 68.9102H183.266V75.8542H179.542V68.9102ZM180.942 54.9942H183.966V56.6182C183.966 61.4902 181.67 65.9982 176.686 67.6502L174.81 64.6822C179.094 63.2822 180.942 59.8942 180.942 56.6182V54.9942ZM181.726 54.9942H184.722V56.6182C184.722 59.6422 186.486 62.8622 190.574 64.2342L188.754 67.1462C183.938 65.5502 181.726 61.2382 181.726 56.6182V54.9942ZM175.818 53.3422H189.762V56.2822H175.818V53.3422ZM209.976 60.7622H213.672V65.4102H209.976V60.7622ZM209.92 52.0262H213.112V52.8102C213.112 57.5982 209.304 61.3502 202.696 62.3022L201.324 59.3902C207.148 58.6902 209.92 55.7222 209.92 52.8102V52.0262ZM210.536 52.0262H213.728V52.8102C213.728 55.8342 216.444 58.6902 222.324 59.3902L220.952 62.3022C214.344 61.3222 210.536 57.7102 210.536 52.8102V52.0262ZM200.148 63.9542H223.584V66.8662H200.148V63.9542ZM211.824 68.2942C217.452 68.2942 220.812 69.9742 220.812 72.9142C220.812 75.8822 217.452 77.5062 211.824 77.5062C206.196 77.5062 202.808 75.8822 202.808 72.9142C202.808 69.9742 206.196 68.2942 211.824 68.2942ZM211.824 71.0942C208.324 71.0942 206.588 71.6542 206.588 72.9142C206.588 74.1742 208.324 74.7342 211.824 74.7342C215.324 74.7342 217.06 74.1742 217.06 72.9142C217.06 71.6542 215.324 71.0942 211.824 71.0942Z" fill="#3C3C3F"/>
<path d="M39.346 103.04H40.27V104.734C40.27 105.359 40.1533 105.98 39.92 106.596C39.6867 107.212 39.3507 107.767 38.912 108.262C38.4827 108.756 37.9553 109.144 37.33 109.424L36.7 108.528C37.2507 108.285 37.722 107.958 38.114 107.548C38.5153 107.128 38.8187 106.67 39.024 106.176C39.2387 105.681 39.346 105.2 39.346 104.734V103.04ZM39.542 103.04H40.466V104.734C40.466 105.191 40.564 105.648 40.76 106.106C40.9653 106.554 41.2593 106.96 41.642 107.324C42.034 107.678 42.496 107.963 43.028 108.178L42.412 109.074C41.8053 108.831 41.2873 108.486 40.858 108.038C40.4287 107.59 40.102 107.081 39.878 106.512C39.654 105.942 39.542 105.35 39.542 104.734V103.04ZM46.262 102.256H47.368V110.068H46.262V102.256ZM44.246 105.644H46.626V106.596H44.246V105.644ZM43.546 102.494H44.638V109.662H43.546V102.494ZM43.21 110.348C44.078 110.348 44.8247 110.436 45.45 110.614C46.0847 110.791 46.5747 111.052 46.92 111.398C47.2653 111.734 47.438 112.14 47.438 112.616C47.438 113.092 47.2653 113.498 46.92 113.834C46.5747 114.179 46.0847 114.44 45.45 114.618C44.8247 114.795 44.078 114.884 43.21 114.884C42.342 114.884 41.5907 114.795 40.956 114.618C40.3213 114.44 39.8313 114.179 39.486 113.834C39.15 113.498 38.982 113.092 38.982 112.616C38.982 112.14 39.15 111.734 39.486 111.398C39.8313 111.052 40.3213 110.791 40.956 110.614C41.5907 110.436 42.342 110.348 43.21 110.348ZM43.21 111.244C42.258 111.244 41.5067 111.365 40.956 111.608C40.4053 111.85 40.13 112.186 40.13 112.616C40.13 113.045 40.4053 113.381 40.956 113.624C41.5067 113.866 42.258 113.988 43.21 113.988C43.8447 113.988 44.3907 113.932 44.848 113.82C45.3053 113.717 45.6553 113.563 45.898 113.358C46.15 113.152 46.276 112.905 46.276 112.616C46.276 112.186 46.0007 111.85 45.45 111.608C44.9087 111.365 44.162 111.244 43.21 111.244ZM52.4909 102.956H53.4569V104.258C53.4569 105.079 53.3076 105.835 53.0089 106.526C52.7196 107.216 52.3089 107.823 51.7769 108.346C51.2542 108.859 50.6289 109.251 49.9009 109.522L49.2849 108.584C49.9382 108.35 50.5029 108.019 50.9789 107.59C51.4549 107.16 51.8236 106.661 52.0849 106.092C52.3556 105.513 52.4909 104.902 52.4909 104.258V102.956ZM52.7009 102.956H53.6389V104.216C53.6389 104.813 53.7696 105.378 54.0309 105.91C54.2922 106.442 54.6516 106.913 55.1089 107.324C55.5756 107.725 56.1169 108.028 56.7329 108.234L56.1029 109.144C55.4216 108.882 54.8242 108.514 54.3109 108.038C53.7976 107.562 53.4009 106.997 53.1209 106.344C52.8409 105.69 52.7009 104.981 52.7009 104.216V102.956ZM58.5529 102.242H59.7149V109.732H58.5529V102.242ZM55.5429 110.11C56.8496 110.11 57.8762 110.32 58.6229 110.74C59.3789 111.16 59.7569 111.748 59.7569 112.504C59.7569 113.25 59.3789 113.834 58.6229 114.254C57.8762 114.674 56.8496 114.884 55.5429 114.884C54.2362 114.884 53.2049 114.674 52.4489 114.254C51.7022 113.834 51.3289 113.25 51.3289 112.504C51.3289 111.748 51.7022 111.16 52.4489 110.74C53.2049 110.32 54.2362 110.11 55.5429 110.11ZM55.5429 111.034C54.9082 111.034 54.3622 111.094 53.9049 111.216C53.4476 111.328 53.0929 111.496 52.8409 111.72C52.5982 111.934 52.4769 112.196 52.4769 112.504C52.4769 112.802 52.5982 113.064 52.8409 113.288C53.0929 113.502 53.4476 113.67 53.9049 113.792C54.3622 113.904 54.9082 113.96 55.5429 113.96C56.1869 113.96 56.7329 113.904 57.1809 113.792C57.6382 113.67 57.9882 113.502 58.2309 113.288C58.4829 113.064 58.6089 112.802 58.6089 112.504C58.6089 112.196 58.4829 111.934 58.2309 111.72C57.9882 111.496 57.6382 111.328 57.1809 111.216C56.7329 111.094 56.1869 111.034 55.5429 111.034ZM55.7949 104.916H58.7909V105.882H55.7949V104.916ZM63.0878 106.386H69.1918V107.324H63.0878V106.386ZM65.5238 106.96H66.6858V109.48H65.5238V106.96ZM63.0878 103.068H69.0938V104.02H64.2498V106.792H63.0878V103.068ZM71.0958 102.256H72.2578V111.72H71.0958V102.256ZM64.0678 113.68H72.6778V114.632H64.0678V113.68ZM64.0678 111.09H65.2298V114.086H64.0678V111.09ZM62.1218 110.124L61.9538 109.172C62.7658 109.162 63.6338 109.148 64.5578 109.13C65.4818 109.111 66.4151 109.078 67.3578 109.032C68.3005 108.976 69.2058 108.901 70.0738 108.808L70.1578 109.662C69.2618 109.783 68.3425 109.881 67.3998 109.956C66.4665 110.021 65.5471 110.068 64.6418 110.096C63.7458 110.114 62.9058 110.124 62.1218 110.124ZM78.6022 103.712H83.4322V111.51H78.6022V103.712ZM82.3402 104.636H79.6942V110.586H82.3402V104.636ZM87.8002 102.242H88.9202V114.912H87.8002V102.242ZM82.8582 107.016H85.7702V107.968H82.8582V107.016ZM85.2802 102.508H86.3862V114.268H85.2802V102.508ZM94.3091 102.704C94.9438 102.704 95.5038 102.825 95.9891 103.068C96.4838 103.301 96.8711 103.628 97.1511 104.048C97.4311 104.468 97.5711 104.958 97.5711 105.518C97.5711 106.068 97.4311 106.558 97.1511 106.988C96.8711 107.408 96.4838 107.734 95.9891 107.968C95.5038 108.201 94.9438 108.318 94.3091 108.318C93.6838 108.318 93.1238 108.201 92.6291 107.968C92.1345 107.734 91.7425 107.408 91.4531 106.988C91.1731 106.558 91.0331 106.068 91.0331 105.518C91.0331 104.958 91.1731 104.468 91.4531 104.048C91.7425 103.628 92.1345 103.301 92.6291 103.068C93.1238 102.825 93.6838 102.704 94.3091 102.704ZM94.3091 103.67C93.8985 103.67 93.5298 103.749 93.2031 103.908C92.8858 104.057 92.6338 104.272 92.4471 104.552C92.2605 104.832 92.1671 105.154 92.1671 105.518C92.1671 105.882 92.2605 106.204 92.4471 106.484C92.6338 106.754 92.8858 106.969 93.2031 107.128C93.5298 107.286 93.8985 107.366 94.3091 107.366C94.7198 107.366 95.0838 107.286 95.4011 107.128C95.7278 106.969 95.9845 106.754 96.1711 106.484C96.3578 106.204 96.4511 105.882 96.4511 105.518C96.4511 105.154 96.3578 104.832 96.1711 104.552C95.9845 104.272 95.7278 104.057 95.4011 103.908C95.0838 103.749 94.7198 103.67 94.3091 103.67ZM99.9651 102.242H101.127V108.724H99.9651V102.242ZM92.9371 109.354H101.127V112.42H94.0991V114.324H92.9791V111.552H99.9791V110.278H92.9371V109.354ZM92.9791 113.806H101.561V114.744H92.9791V113.806ZM103.352 108.906H114.79V109.844H103.352V108.906ZM104.822 113.68H113.516V114.632H104.822V113.68ZM104.822 110.964H105.984V113.96H104.822V110.964ZM109.064 102.676C109.969 102.676 110.753 102.778 111.416 102.984C112.088 103.18 112.606 103.469 112.97 103.852C113.334 104.225 113.516 104.673 113.516 105.196C113.516 105.718 113.334 106.171 112.97 106.554C112.606 106.936 112.088 107.23 111.416 107.436C110.753 107.632 109.969 107.73 109.064 107.73C108.159 107.73 107.37 107.632 106.698 107.436C106.035 107.23 105.522 106.936 105.158 106.554C104.794 106.171 104.612 105.718 104.612 105.196C104.612 104.673 104.794 104.225 105.158 103.852C105.522 103.469 106.035 103.18 106.698 102.984C107.37 102.778 108.159 102.676 109.064 102.676ZM109.064 103.614C108.411 103.614 107.837 103.679 107.342 103.81C106.857 103.931 106.479 104.113 106.208 104.356C105.937 104.589 105.802 104.869 105.802 105.196C105.802 105.522 105.937 105.807 106.208 106.05C106.479 106.283 106.857 106.465 107.342 106.596C107.837 106.717 108.411 106.778 109.064 106.778C109.736 106.778 110.315 106.717 110.8 106.596C111.285 106.465 111.659 106.283 111.92 106.05C112.191 105.807 112.326 105.522 112.326 105.196C112.326 104.869 112.191 104.589 111.92 104.356C111.659 104.113 111.285 103.931 110.8 103.81C110.315 103.679 109.736 103.614 109.064 103.614ZM128.26 102.242H129.436V111.496H128.26V102.242ZM129.072 106.078H131.298V107.058H129.072V106.078ZM124.802 103.222H126.034C126.034 104.314 125.792 105.303 125.306 106.19C124.83 107.076 124.149 107.846 123.262 108.5C122.376 109.153 121.326 109.671 120.112 110.054L119.622 109.116C120.686 108.78 121.606 108.346 122.38 107.814C123.155 107.282 123.752 106.67 124.172 105.98C124.592 105.289 124.802 104.542 124.802 103.74V103.222ZM120.14 103.222H125.404V104.188H120.14V103.222ZM121.54 113.68H129.982V114.632H121.54V113.68ZM121.54 110.558H122.702V114.058H121.54V110.558ZM141.461 102.242H142.623V111.664H141.461V102.242ZM132.585 103.264H139.249V104.216H132.585V103.264ZM132.375 109.76L132.235 108.78C132.935 108.78 133.705 108.775 134.545 108.766C135.395 108.747 136.258 108.714 137.135 108.668C138.013 108.621 138.848 108.556 139.641 108.472L139.697 109.34C138.895 109.47 138.055 109.564 137.177 109.62C136.309 109.676 135.46 109.713 134.629 109.732C133.808 109.75 133.057 109.76 132.375 109.76ZM133.831 104.09H134.965V108.948H133.831V104.09ZM136.869 104.09H137.989V108.948H136.869V104.09ZM139.347 104.65H142.063V105.602H139.347V104.65ZM139.347 107.058H142.063V108.024H139.347V107.058ZM134.517 113.68H142.959V114.632H134.517V113.68ZM134.517 110.894H135.679V114.282H134.517V110.894ZM153.388 102.242H154.536V114.912H153.388V102.242ZM154.27 107.45H156.608V108.43H154.27V107.45ZM144.736 104.272H152.198V105.224H144.736V104.272ZM148.53 106.26C149.128 106.26 149.655 106.386 150.112 106.638C150.579 106.89 150.943 107.235 151.204 107.674C151.475 108.103 151.61 108.602 151.61 109.172C151.61 109.741 151.475 110.245 151.204 110.684C150.943 111.122 150.579 111.468 150.112 111.72C149.655 111.962 149.128 112.084 148.53 112.084C147.933 112.084 147.401 111.962 146.934 111.72C146.477 111.468 146.113 111.122 145.842 110.684C145.572 110.245 145.436 109.741 145.436 109.172C145.436 108.602 145.572 108.103 145.842 107.674C146.113 107.235 146.477 106.89 146.934 106.638C147.401 106.386 147.933 106.26 148.53 106.26ZM148.53 107.226C148.148 107.226 147.807 107.31 147.508 107.478C147.21 107.646 146.972 107.874 146.794 108.164C146.626 108.453 146.542 108.789 146.542 109.172C146.542 109.554 146.626 109.895 146.794 110.194C146.972 110.483 147.21 110.712 147.508 110.88C147.807 111.038 148.148 111.118 148.53 111.118C148.904 111.118 149.24 111.038 149.538 110.88C149.837 110.712 150.07 110.483 150.238 110.194C150.416 109.895 150.504 109.554 150.504 109.172C150.504 108.789 150.416 108.453 150.238 108.164C150.07 107.874 149.837 107.646 149.538 107.478C149.24 107.31 148.904 107.226 148.53 107.226ZM147.928 102.396H149.09V104.692H147.928V102.396ZM167.051 102.242H168.171V114.912H167.051V102.242ZM161.549 107.422H164.741V108.36H161.549V107.422ZM164.419 102.578H165.511V114.268H164.419V102.578ZM161.703 103.852H162.823C162.823 104.953 162.664 106.012 162.347 107.03C162.039 108.038 161.535 108.98 160.835 109.858C160.135 110.726 159.216 111.5 158.077 112.182L157.405 111.342C158.394 110.744 159.206 110.072 159.841 109.326C160.476 108.57 160.942 107.753 161.241 106.876C161.549 105.989 161.703 105.051 161.703 104.062V103.852ZM157.951 103.852H162.137V104.804H157.951V103.852ZM173.662 108.766H185.1V109.732H173.662V108.766ZM178.8 106.89H179.962V109.074H178.8V106.89ZM174.936 110.964H183.686V114.912H182.524V111.902H174.936V110.964ZM175.174 102.536H176.322V103.978H182.454V102.536H183.602V107.282H175.174V102.536ZM176.322 104.874V106.344H182.454V104.874H176.322ZM187.688 110.04H196.34V110.894H188.836V114.394H187.688V110.04ZM187.688 113.89H196.494V114.772H187.688V113.89ZM188.416 111.958H196.06V112.784H188.416V111.958ZM191.384 108.346H192.546V110.292H191.384V108.346ZM186.26 107.786H197.698V108.724H186.26V107.786ZM187.772 102.466H188.92V103.698H195.052V102.466H196.2V106.736H187.772V102.466ZM188.92 104.58V105.826H195.052V104.58H188.92ZM207.441 102.242H208.589V114.912H207.441V102.242ZM208.323 107.45H210.661V108.43H208.323V107.45ZM198.789 104.272H206.251V105.224H198.789V104.272ZM202.583 106.26C203.181 106.26 203.708 106.386 204.165 106.638C204.632 106.89 204.996 107.235 205.257 107.674C205.528 108.103 205.663 108.602 205.663 109.172C205.663 109.741 205.528 110.245 205.257 110.684C204.996 111.122 204.632 111.468 204.165 111.72C203.708 111.962 203.181 112.084 202.583 112.084C201.986 112.084 201.454 111.962 200.987 111.72C200.53 111.468 200.166 111.122 199.895 110.684C199.625 110.245 199.489 109.741 199.489 109.172C199.489 108.602 199.625 108.103 199.895 107.674C200.166 107.235 200.53 106.89 200.987 106.638C201.454 106.386 201.986 106.26 202.583 106.26ZM202.583 107.226C202.201 107.226 201.86 107.31 201.561 107.478C201.263 107.646 201.025 107.874 200.847 108.164C200.679 108.453 200.595 108.789 200.595 109.172C200.595 109.554 200.679 109.895 200.847 110.194C201.025 110.483 201.263 110.712 201.561 110.88C201.86 111.038 202.201 111.118 202.583 111.118C202.957 111.118 203.293 111.038 203.591 110.88C203.89 110.712 204.123 110.483 204.291 110.194C204.469 109.895 204.557 109.554 204.557 109.172C204.557 108.789 204.469 108.453 204.291 108.164C204.123 107.874 203.89 107.646 203.591 107.478C203.293 107.31 202.957 107.226 202.583 107.226ZM201.981 102.396H203.143V104.692H201.981V102.396ZM220.712 102.242H221.86V114.912H220.712V102.242ZM217.758 107.324H221.23V108.29H217.758V107.324ZM216.652 103.614H217.786C217.786 104.51 217.684 105.382 217.478 106.232C217.282 107.072 216.96 107.87 216.512 108.626C216.074 109.382 215.49 110.086 214.762 110.74C214.034 111.393 213.143 111.981 212.088 112.504L211.444 111.594C212.368 111.146 213.157 110.642 213.81 110.082C214.473 109.522 215.014 108.915 215.434 108.262C215.854 107.599 216.162 106.899 216.358 106.162C216.554 105.415 216.652 104.626 216.652 103.796V103.614ZM212.004 103.614H217.254V104.552H212.004V103.614ZM233.479 107.296H235.803V108.262H233.479V107.296ZM232.625 102.242H233.787V114.898H232.625V102.242ZM224.561 103.488H225.709V111.328H224.561V103.488ZM224.561 110.726H225.569C226.493 110.726 227.441 110.684 228.411 110.6C229.391 110.516 230.404 110.366 231.449 110.152L231.589 111.132C230.507 111.346 229.471 111.496 228.481 111.58C227.501 111.654 226.531 111.692 225.569 111.692H224.561V110.726ZM45.268 122.242H46.43V134.912H45.268V122.242ZM46.164 127.226H48.502V128.22H46.164V127.226ZM37.204 123.32H38.352V126.652H41.95V123.32H43.098V131.874H37.204V123.32ZM38.352 127.576V130.908H41.95V127.576H38.352ZM49.2989 132.378H60.7789V133.344H49.2989V132.378ZM54.4369 129.676H55.5849V132.784H54.4369V129.676ZM50.6989 123.18H59.3509V127.016H51.8749V129.55H50.7269V126.092H58.2029V124.132H50.6989V123.18ZM50.7269 129.06H59.6449V130.012H50.7269V129.06ZM72.2613 125.742H75.4673V126.694H72.2613V125.742ZM74.8093 122.256H75.9713V131.538H74.8093V122.256ZM67.8933 133.68H76.3213V134.632H67.8933V133.68ZM67.8933 130.712H69.0413V134.156H67.8933V130.712ZM68.7753 123.824H69.7273V124.846C69.7273 125.611 69.578 126.334 69.2793 127.016C68.99 127.688 68.5793 128.276 68.0473 128.78C67.5153 129.274 66.8993 129.657 66.1993 129.928L65.5973 128.99C66.064 128.822 66.4886 128.598 66.8713 128.318C67.2633 128.038 67.604 127.716 67.8933 127.352C68.1826 126.988 68.402 126.591 68.5513 126.162C68.7006 125.732 68.7753 125.294 68.7753 124.846V123.824ZM68.9993 123.824H69.9513V124.846C69.9513 125.387 70.0773 125.914 70.3293 126.428C70.5813 126.941 70.9406 127.398 71.4073 127.8C71.874 128.192 72.4106 128.495 73.0173 128.71L72.4293 129.634C71.7386 129.382 71.1366 129.018 70.6233 128.542C70.11 128.056 69.7086 127.496 69.4193 126.862C69.1393 126.227 68.9993 125.555 68.9993 124.846V123.824ZM65.9613 123.278H72.7233V124.23H65.9613V123.278ZM83.2922 126.68H84.4402V129.032H83.2922V126.68ZM83.2782 122.438H84.2722V123.012C84.2722 123.46 84.1836 123.884 84.0062 124.286C83.8289 124.687 83.5769 125.056 83.2502 125.392C82.9329 125.728 82.5642 126.026 82.1442 126.288C81.7242 126.54 81.2716 126.759 80.7862 126.946C80.3009 127.123 79.7969 127.254 79.2742 127.338L78.8402 126.414C79.2882 126.348 79.7269 126.246 80.1562 126.106C80.5949 125.956 81.0009 125.779 81.3742 125.574C81.7476 125.359 82.0742 125.116 82.3542 124.846C82.6436 124.575 82.8676 124.286 83.0262 123.978C83.1942 123.67 83.2782 123.348 83.2782 123.012V122.438ZM83.4602 122.438H84.4542V123.012C84.4542 123.348 84.5336 123.67 84.6922 123.978C84.8509 124.286 85.0749 124.575 85.3642 124.846C85.6536 125.107 85.9849 125.345 86.3582 125.56C86.7316 125.774 87.1329 125.956 87.5622 126.106C88.0009 126.246 88.4442 126.348 88.8922 126.414L88.4442 127.338C87.9309 127.254 87.4316 127.123 86.9462 126.946C86.4702 126.759 86.0176 126.535 85.5882 126.274C85.1682 126.012 84.7949 125.718 84.4682 125.392C84.1509 125.056 83.9036 124.692 83.7262 124.3C83.5489 123.898 83.4602 123.469 83.4602 123.012V122.438ZM78.1542 128.528H89.5922V129.466H78.1542V128.528ZM83.8662 130.502C85.2196 130.502 86.2789 130.693 87.0442 131.076C87.8096 131.458 88.1922 132 88.1922 132.7C88.1922 133.4 87.8096 133.936 87.0442 134.31C86.2789 134.692 85.2196 134.884 83.8662 134.884C82.5036 134.884 81.4396 134.692 80.6742 134.31C79.9089 133.936 79.5262 133.4 79.5262 132.7C79.5262 132 79.9089 131.458 80.6742 131.076C81.4396 130.693 82.5036 130.502 83.8662 130.502ZM83.8662 131.412C82.8676 131.412 82.0882 131.524 81.5282 131.748C80.9776 131.962 80.7022 132.28 80.7022 132.7C80.7022 133.11 80.9776 133.428 81.5282 133.652C82.0882 133.876 82.8676 133.988 83.8662 133.988C84.8556 133.988 85.6302 133.876 86.1902 133.652C86.7502 133.428 87.0302 133.11 87.0302 132.7C87.0302 132.28 86.7502 131.962 86.1902 131.748C85.6302 131.524 84.8556 131.412 83.8662 131.412ZM99.3351 122.242H100.483V134.912H99.3351V122.242ZM100.217 127.45H102.555V128.43H100.217V127.45ZM90.6831 124.272H98.1451V125.224H90.6831V124.272ZM94.4771 126.26C95.0745 126.26 95.6018 126.386 96.0591 126.638C96.5258 126.89 96.8898 127.235 97.1511 127.674C97.4218 128.103 97.5571 128.602 97.5571 129.172C97.5571 129.741 97.4218 130.245 97.1511 130.684C96.8898 131.122 96.5258 131.468 96.0591 131.72C95.6018 131.962 95.0745 132.084 94.4771 132.084C93.8798 132.084 93.3478 131.962 92.8811 131.72C92.4238 131.468 92.0598 131.122 91.7891 130.684C91.5185 130.245 91.3831 129.741 91.3831 129.172C91.3831 128.602 91.5185 128.103 91.7891 127.674C92.0598 127.235 92.4238 126.89 92.8811 126.638C93.3478 126.386 93.8798 126.26 94.4771 126.26ZM94.4771 127.226C94.0945 127.226 93.7538 127.31 93.4551 127.478C93.1565 127.646 92.9185 127.874 92.7411 128.164C92.5731 128.453 92.4891 128.789 92.4891 129.172C92.4891 129.554 92.5731 129.895 92.7411 130.194C92.9185 130.483 93.1565 130.712 93.4551 130.88C93.7538 131.038 94.0945 131.118 94.4771 131.118C94.8505 131.118 95.1865 131.038 95.4851 130.88C95.7838 130.712 96.0171 130.483 96.1851 130.194C96.3625 129.895 96.4511 129.554 96.4511 129.172C96.4511 128.789 96.3625 128.453 96.1851 128.164C96.0171 127.874 95.7838 127.646 95.4851 127.478C95.1865 127.31 94.8505 127.226 94.4771 127.226ZM93.8751 122.396H95.0371V124.692H93.8751V122.396ZM109.162 125.28H113.068V126.232H109.162V125.28ZM109.162 128.766H113.068V129.718H109.162V128.766ZM103.856 123.488H109.61V131.706H103.856V123.488ZM108.476 124.426H105.004V130.782H108.476V124.426ZM112.62 122.242H113.768V134.926H112.62V122.242ZM128.82 122.256H129.982V131.538H128.82V122.256ZM121.848 133.68H130.374V134.632H121.848V133.68ZM121.848 130.684H123.01V134.128H121.848V130.684ZM122.898 122.956H123.864V124.23C123.864 125.06 123.72 125.84 123.43 126.568C123.141 127.286 122.73 127.921 122.198 128.472C121.676 129.013 121.06 129.428 120.35 129.718L119.734 128.794C120.378 128.542 120.934 128.182 121.4 127.716C121.876 127.249 122.245 126.717 122.506 126.12C122.768 125.513 122.898 124.883 122.898 124.23V122.956ZM123.108 122.956H124.074V124.23C124.074 124.706 124.149 125.168 124.298 125.616C124.448 126.054 124.662 126.465 124.942 126.848C125.222 127.23 125.554 127.571 125.936 127.87C126.328 128.159 126.758 128.388 127.224 128.556L126.622 129.48C125.922 129.209 125.306 128.817 124.774 128.304C124.252 127.781 123.841 127.174 123.542 126.484C123.253 125.784 123.108 125.032 123.108 124.23V122.956ZM132.207 128.598H143.673V129.55H132.207V128.598ZM137.345 126.666H138.493V129.032H137.345V126.666ZM137.331 122.438H138.325V123.012C138.325 123.46 138.237 123.884 138.059 124.286C137.882 124.687 137.63 125.056 137.303 125.392C136.986 125.728 136.617 126.026 136.197 126.288C135.777 126.54 135.325 126.759 134.839 126.946C134.354 127.123 133.85 127.254 133.327 127.338L132.893 126.414C133.341 126.348 133.78 126.246 134.209 126.106C134.648 125.956 135.054 125.779 135.427 125.574C135.801 125.359 136.127 125.116 136.407 124.846C136.697 124.575 136.921 124.286 137.079 123.978C137.247 123.67 137.331 123.348 137.331 123.012V122.438ZM137.513 122.438H138.507V123.012C138.507 123.348 138.587 123.67 138.745 123.978C138.904 124.286 139.128 124.575 139.417 124.846C139.707 125.107 140.038 125.345 140.411 125.56C140.785 125.774 141.186 125.956 141.615 126.106C142.054 126.246 142.497 126.348 142.945 126.414L142.497 127.338C141.984 127.254 141.485 127.123 140.999 126.946C140.523 126.759 140.071 126.535 139.641 126.274C139.221 126.012 138.848 125.718 138.521 125.392C138.204 125.056 137.957 124.692 137.779 124.3C137.602 123.898 137.513 123.469 137.513 123.012V122.438ZM133.481 130.782H142.231V134.912H141.069V131.706H133.481V130.782ZM153.388 122.242H154.536V134.912H153.388V122.242ZM154.27 127.45H156.608V128.43H154.27V127.45ZM144.736 124.272H152.198V125.224H144.736V124.272ZM148.53 126.26C149.128 126.26 149.655 126.386 150.112 126.638C150.579 126.89 150.943 127.235 151.204 127.674C151.475 128.103 151.61 128.602 151.61 129.172C151.61 129.741 151.475 130.245 151.204 130.684C150.943 131.122 150.579 131.468 150.112 131.72C149.655 131.962 149.128 132.084 148.53 132.084C147.933 132.084 147.401 131.962 146.934 131.72C146.477 131.468 146.113 131.122 145.842 130.684C145.572 130.245 145.436 129.741 145.436 129.172C145.436 128.602 145.572 128.103 145.842 127.674C146.113 127.235 146.477 126.89 146.934 126.638C147.401 126.386 147.933 126.26 148.53 126.26ZM148.53 127.226C148.148 127.226 147.807 127.31 147.508 127.478C147.21 127.646 146.972 127.874 146.794 128.164C146.626 128.453 146.542 128.789 146.542 129.172C146.542 129.554 146.626 129.895 146.794 130.194C146.972 130.483 147.21 130.712 147.508 130.88C147.807 131.038 148.148 131.118 148.53 131.118C148.904 131.118 149.24 131.038 149.538 130.88C149.837 130.712 150.07 130.483 150.238 130.194C150.416 129.895 150.504 129.554 150.504 129.172C150.504 128.789 150.416 128.453 150.238 128.164C150.07 127.874 149.837 127.646 149.538 127.478C149.24 127.31 148.904 127.226 148.53 127.226ZM147.928 122.396H149.09V124.692H147.928V122.396ZM167.051 122.242H168.171V134.912H167.051V122.242ZM161.549 127.422H164.741V128.36H161.549V127.422ZM164.419 122.578H165.511V134.268H164.419V122.578ZM161.703 123.852H162.823C162.823 124.953 162.664 126.012 162.347 127.03C162.039 128.038 161.535 128.98 160.835 129.858C160.135 130.726 159.216 131.5 158.077 132.182L157.405 131.342C158.394 130.744 159.206 130.072 159.841 129.326C160.476 128.57 160.942 127.753 161.241 126.876C161.549 125.989 161.703 125.051 161.703 124.062V123.852ZM157.951 123.852H162.137V124.804H157.951V123.852ZM173.634 124.412H179.92V125.364H173.634V124.412ZM176.784 126.204C177.316 126.204 177.782 126.325 178.184 126.568C178.594 126.81 178.916 127.151 179.15 127.59C179.383 128.019 179.5 128.518 179.5 129.088C179.5 129.657 179.383 130.161 179.15 130.6C178.916 131.029 178.594 131.37 178.184 131.622C177.782 131.864 177.316 131.986 176.784 131.986C176.261 131.986 175.794 131.864 175.384 131.622C174.973 131.37 174.651 131.029 174.418 130.6C174.184 130.161 174.068 129.657 174.068 129.088C174.068 128.518 174.184 128.019 174.418 127.59C174.651 127.16 174.973 126.824 175.384 126.582C175.794 126.33 176.261 126.204 176.784 126.204ZM176.784 127.184C176.466 127.184 176.177 127.268 175.916 127.436C175.664 127.594 175.463 127.818 175.314 128.108C175.174 128.388 175.104 128.714 175.104 129.088C175.104 129.461 175.174 129.792 175.314 130.082C175.463 130.371 175.664 130.595 175.916 130.754C176.177 130.912 176.466 130.992 176.784 130.992C177.11 130.992 177.4 130.912 177.652 130.754C177.904 130.595 178.1 130.371 178.24 130.082C178.389 129.792 178.464 129.461 178.464 129.088C178.464 128.714 178.389 128.388 178.24 128.108C178.1 127.818 177.904 127.594 177.652 127.436C177.4 127.268 177.11 127.184 176.784 127.184ZM183.266 122.242H184.372V134.912H183.266V122.242ZM181.236 127.576H183.63V128.528H181.236V127.576ZM180.55 122.536H181.642V134.296H180.55V122.536ZM176.21 122.62H177.358V124.986H176.21V122.62ZM195.514 122.242H196.676V128.71H195.514V122.242ZM191.51 122.872H192.77C192.77 123.926 192.532 124.86 192.056 125.672C191.59 126.484 190.918 127.17 190.04 127.73C189.163 128.28 188.108 128.7 186.876 128.99L186.47 128.038C187.562 127.786 188.482 127.44 189.228 127.002C189.975 126.554 190.54 126.031 190.922 125.434C191.314 124.827 191.51 124.16 191.51 123.432V122.872ZM187.114 122.872H192.028V123.824H187.114V122.872ZM192.308 124.076H195.696V124.986H192.308V124.076ZM192.196 126.498H195.626V127.408H192.196V126.498ZM188.528 129.284H196.676V132.392H189.704V134.408H188.556V131.51H195.514V130.222H188.528V129.284ZM188.556 133.848H197.096V134.786H188.556V133.848ZM198.831 124.412H205.117V125.364H198.831V124.412ZM201.981 126.204C202.513 126.204 202.98 126.325 203.381 126.568C203.792 126.81 204.114 127.151 204.347 127.59C204.581 128.019 204.697 128.518 204.697 129.088C204.697 129.657 204.581 130.161 204.347 130.6C204.114 131.029 203.792 131.37 203.381 131.622C202.98 131.864 202.513 131.986 201.981 131.986C201.459 131.986 200.992 131.864 200.581 131.622C200.171 131.37 199.849 131.029 199.615 130.6C199.382 130.161 199.265 129.657 199.265 129.088C199.265 128.518 199.382 128.019 199.615 127.59C199.849 127.16 200.171 126.824 200.581 126.582C200.992 126.33 201.459 126.204 201.981 126.204ZM201.981 127.184C201.664 127.184 201.375 127.268 201.113 127.436C200.861 127.594 200.661 127.818 200.511 128.108C200.371 128.388 200.301 128.714 200.301 129.088C200.301 129.461 200.371 129.792 200.511 130.082C200.661 130.371 200.861 130.595 201.113 130.754C201.375 130.912 201.664 130.992 201.981 130.992C202.308 130.992 202.597 130.912 202.849 130.754C203.101 130.595 203.297 130.371 203.437 130.082C203.587 129.792 203.661 129.461 203.661 129.088C203.661 128.714 203.587 128.388 203.437 128.108C203.297 127.818 203.101 127.594 202.849 127.436C202.597 127.268 202.308 127.184 201.981 127.184ZM208.463 122.242H209.569V134.912H208.463V122.242ZM206.433 127.576H208.827V128.528H206.433V127.576ZM205.747 122.536H206.839V134.296H205.747V122.536ZM201.407 122.62H202.555V124.986H201.407V122.62ZM214.272 128.766H215.42V132.546H214.272V128.766ZM218.948 128.766H220.11V132.546H218.948V128.766ZM211.458 132.322H222.938V133.288H211.458V132.322ZM217.17 123.04C218.066 123.04 218.86 123.175 219.55 123.446C220.241 123.716 220.782 124.094 221.174 124.58C221.576 125.065 221.776 125.639 221.776 126.302C221.776 126.955 221.576 127.529 221.174 128.024C220.782 128.509 220.241 128.887 219.55 129.158C218.86 129.419 218.066 129.55 217.17 129.55C216.284 129.55 215.49 129.419 214.79 129.158C214.1 128.887 213.558 128.509 213.166 128.024C212.774 127.529 212.578 126.955 212.578 126.302C212.578 125.639 212.774 125.065 213.166 124.58C213.558 124.094 214.1 123.716 214.79 123.446C215.49 123.175 216.284 123.04 217.17 123.04ZM217.17 123.964C216.498 123.964 215.901 124.062 215.378 124.258C214.856 124.454 214.445 124.729 214.146 125.084C213.848 125.429 213.698 125.835 213.698 126.302C213.698 126.768 213.848 127.179 214.146 127.534C214.445 127.879 214.856 128.15 215.378 128.346C215.901 128.542 216.498 128.64 217.17 128.64C217.852 128.64 218.454 128.542 218.976 128.346C219.499 128.15 219.91 127.879 220.208 127.534C220.507 127.179 220.656 126.768 220.656 126.302C220.656 125.835 220.507 125.429 220.208 125.084C219.91 124.729 219.499 124.454 218.976 124.258C218.454 124.062 217.852 123.964 217.17 123.964ZM225.982 123.638L225.883 130.956H224.729L224.63 123.638H225.982ZM225.306 133.899C225.061 133.899 224.85 133.812 224.675 133.636C224.499 133.46 224.411 133.25 224.411 133.004C224.411 132.759 224.499 132.549 224.675 132.373C224.85 132.197 225.061 132.11 225.306 132.11C225.551 132.11 225.762 132.197 225.937 132.373C226.113 132.549 226.201 132.759 226.201 133.004C226.201 133.167 226.16 133.316 226.077 133.452C225.997 133.588 225.889 133.697 225.753 133.78C225.621 133.86 225.472 133.899 225.306 133.899Z" fill="#8E8E93"/>
<g clip-path="url(#clip0_0_1)">
<path d="M314.599 240.554L339.577 152.682L258.705 195.168L280.416 212.849L324.448 171.314L292.837 222.935L314.599 240.554Z" fill="#6AB9F2"/>
</g>
</g>
<path d="M65 219V226.2M65 226.2L73 224.04M65 226.2L69.75 233.4M65 226.2L59.9091 233.4M65 226.2L57 224.04" stroke="#6F6F71" stroke-width="4.8" stroke-linecap="round"/>
<path d="M116 255V262.2M116 262.2L124 260.04M116 262.2L120.75 269.4M116 262.2L110.909 269.4M116 262.2L108 260.04" stroke="#6F6F71" stroke-width="4.8" stroke-linecap="round"/>
<path d="M186 269.4V276.6M186 276.6L194 274.44M186 276.6L190.75 283.8M186 276.6L180.909 283.8M186 276.6L178 274.44" stroke="#6F6F71" stroke-width="4.8" stroke-linecap="round"/>
<path d="M246 241V248.2M246 248.2L254 246.04M246 248.2L250.75 255.4M246 248.2L240.909 255.4M246 248.2L238 246.04" stroke="#6F6F71" stroke-width="4.8" stroke-linecap="round"/>
<defs>
<filter id="filter0_bd_0_1" x="-52" y="-52" width="500" height="440" filterUnits="userSpaceOnUse" color-interpolation-filters="sRGB">
<feFlood flood-opacity="0" result="BackgroundImageFix"/>
<feGaussianBlur in="BackgroundImageFix" stdDeviation="30"/>
<feComposite in2="SourceAlpha" operator="in" result="effect1_backgroundBlur_0_1"/>
<feColorMatrix in="SourceAlpha" type="matrix" values="0 0 0 0 0 0 0 0 0 0 0 0 0 0 0 0 0 0 127 0" result="hardAlpha"/>
<feOffset/>
<feGaussianBlur stdDeviation="4"/>
<feComposite in2="hardAlpha" operator="out"/>
<feColorMatrix type="matrix" values="0 0 0 0 0.415724 0 0 0 0 0.724651 0 0 0 0 0.948356 0 0 0 0.3 0"/>
<feBlend mode="normal" in2="effect1_backgroundBlur_0_1" result="effect2_dropShadow_0_1"/>
<feBlend mode="normal" in="SourceGraphic" in2="effect2_dropShadow_0_1" result="shape"/>
</filter>
<clipPath id="clip0_0_1">
<rect width="96" height="96" fill="white" transform="translate(244.32 193.845) rotate(-50.9235)"/>
</clipPath>
</defs>
</svg>
