<svg width="396" height="336" viewBox="0 0 396 336" fill="none" xmlns="http://www.w3.org/2000/svg">
<g filter="url(#filter0_bd_174_230)">
<path d="M8 18C8 12.4772 12.4772 8 18 8H378C383.523 8 388 12.4772 388 18V318C388 323.523 383.523 328 378 328H18C12.4772 328 8 323.523 8 318V18Z" fill="white" fill-opacity="0.8" shape-rendering="crispEdges"/>
<path d="M37.848 53.224H48.096V70.024H37.848V53.224ZM44.624 56.136H41.32V67.112H44.624V56.136ZM55.852 50.564H59.408V76.492H55.852V50.564ZM46.22 59.972H52.044V62.968H46.22V59.972ZM50.56 50.956H54.06V75.316H50.56V50.956ZM69.6258 51.32C73.5738 51.32 76.5418 53.784 76.5418 57.256C76.5418 60.7 73.5738 63.164 69.6258 63.164C65.6778 63.164 62.7098 60.7 62.7098 57.256C62.7098 53.784 65.6778 51.32 69.6258 51.32ZM69.6258 54.344C67.7218 54.344 66.2938 55.408 66.2938 57.256C66.2938 59.104 67.7218 60.168 69.6258 60.168C71.5298 60.168 72.9298 59.104 72.9298 57.256C72.9298 55.408 71.5298 54.344 69.6258 54.344ZM80.1258 50.564H83.8778V63.528H80.1258V50.564ZM66.5738 64.592H83.8778V71.704H70.2698V74.84H66.6298V69.016H80.1818V67.476H66.5738V64.592ZM66.6298 73.328H84.5218V76.212H66.6298V73.328ZM98.1121 52.132H101.024V55.128C101.024 59.524 99.2601 63.92 95.0321 65.712L93.0721 62.828C96.6841 61.232 98.1121 58.04 98.1121 55.128V52.132ZM98.7841 52.132H101.696V55.128C101.696 57.9 103.096 60.7 106.512 62.044L104.524 64.872C100.492 63.276 98.7841 59.356 98.7841 55.128V52.132ZM112 50.592H115.528V66.412H112V50.592ZM108.892 56.864H113.008V59.86H108.892V56.864ZM106.512 51.068H109.984V65.6H106.512V51.068ZM106.736 66.776C112.168 66.776 115.668 68.596 115.668 71.648C115.668 74.672 112.168 76.492 106.736 76.492C101.276 76.492 97.8321 74.672 97.8321 71.648C97.8321 68.596 101.276 66.776 106.736 66.776ZM106.736 69.576C103.404 69.576 101.528 70.276 101.528 71.648C101.528 73.02 103.404 73.692 106.736 73.692C110.068 73.692 111.916 73.02 111.916 71.648C111.916 70.276 110.068 69.576 106.736 69.576ZM124.654 51.908H127.762V54.232C127.762 59.44 125.438 64.004 120.342 65.712L118.41 62.716C122.834 61.288 124.654 57.788 124.654 54.232V51.908ZM125.438 51.908H128.434V54.064C128.434 57.508 130.114 60.7 134.23 62.016L132.298 64.928C127.51 63.276 125.438 59.104 125.438 54.064V51.908ZM136.61 50.564H140.334V65.74H136.61V50.564ZM131.542 66.412C137.03 66.412 140.418 68.288 140.418 71.452C140.418 74.644 137.03 76.492 131.542 76.492C126.054 76.492 122.666 74.644 122.666 71.452C122.666 68.288 126.054 66.412 131.542 66.412ZM131.542 69.296C128.182 69.296 126.39 69.996 126.39 71.452C126.39 72.908 128.182 73.636 131.542 73.636C134.93 73.636 136.722 72.908 136.722 71.452C136.722 69.996 134.93 69.296 131.542 69.296ZM131.878 55.268H137.142V58.292H131.878V55.268ZM158.908 53.308H162.212V53.924C162.212 58.04 158.74 61.512 152.132 62.268L150.788 59.328C156.416 58.712 158.908 56.164 158.908 53.924V53.308ZM160.728 53.308H164.032V53.924C164.032 56.192 166.552 58.712 172.18 59.328L170.808 62.268C164.228 61.512 160.728 58.068 160.728 53.924V53.308ZM151.88 51.684H171.088V54.596H151.88V51.684ZM149.752 63.472H173.216V66.44H149.752V63.472ZM159.916 65.348H163.668V70.808H159.916V65.348ZM152.468 73.076H170.64V76.044H152.468V73.076ZM152.468 68.596H156.164V74.112H152.468V68.596ZM192.73 50.536H196.482V76.548H192.73V50.536ZM176.238 52.608H179.934V58.908H185.282V52.608H188.978V70.5H176.238V52.608ZM179.934 61.792V67.504H185.282V61.792H179.934ZM222.756 50.564H226.48V69.296H222.756V50.564ZM225.416 57.62H229.924V60.672H225.416V57.62ZM207.048 62.072H209.204C214.832 62.072 217.632 61.96 220.74 61.288L221.104 64.228C217.94 64.928 214.972 65.068 209.204 65.068H207.048V62.072ZM207.048 52.608H218.64V55.604H210.744V63.668H207.048V52.608ZM209.764 73.076H227.404V76.044H209.764V73.076ZM209.764 67.336H213.488V74.588H209.764V67.336ZM245.244 74.2784C243.759 74.2784 242.437 74.0232 241.277 73.5128C240.123 72.9957 239.212 72.2865 238.542 71.3849C237.88 70.4768 237.538 69.4295 237.518 68.2429H241.853C241.88 68.7401 242.042 69.1776 242.341 69.5554C242.646 69.9266 243.05 70.215 243.554 70.4205C244.058 70.6259 244.624 70.7287 245.254 70.7287C245.91 70.7287 246.49 70.6127 246.994 70.3807C247.498 70.1487 247.892 69.8272 248.177 69.4162C248.462 69.0052 248.605 68.5312 248.605 67.9943C248.605 67.4508 248.452 66.9702 248.148 66.5526C247.849 66.1283 247.418 65.7969 246.855 65.5582C246.298 65.3196 245.635 65.2003 244.866 65.2003H242.967V62.0384H244.866C245.516 62.0384 246.089 61.9257 246.586 61.7003C247.09 61.4749 247.481 61.1634 247.76 60.7656C248.038 60.3613 248.177 59.8906 248.177 59.3537C248.177 58.8433 248.055 58.3958 247.809 58.0114C247.571 57.6203 247.233 57.3153 246.795 57.0966C246.364 56.8778 245.861 56.7685 245.284 56.7685C244.701 56.7685 244.167 56.8745 243.683 57.0866C243.199 57.2921 242.811 57.5871 242.52 57.9716C242.228 58.3561 242.072 58.8068 242.052 59.3239H237.926C237.946 58.1506 238.281 57.1165 238.93 56.2216C239.58 55.3267 240.455 54.6274 241.555 54.1236C242.662 53.6132 243.912 53.358 245.304 53.358C246.709 53.358 247.939 53.6132 248.993 54.1236C250.047 54.634 250.865 55.3234 251.449 56.1918C252.039 57.0535 252.33 58.0213 252.324 59.0952C252.33 60.2353 251.976 61.1866 251.26 61.9489C250.55 62.7112 249.626 63.1951 248.486 63.4006V63.5597C249.984 63.7519 251.124 64.2723 251.906 65.1207C252.695 65.9626 253.086 67.0166 253.079 68.2827C253.086 69.4427 252.751 70.4735 252.075 71.375C251.406 72.2765 250.481 72.9858 249.301 73.5028C248.121 74.0199 246.769 74.2784 245.244 74.2784ZM263.599 74.4474C261.888 74.4408 260.417 74.0199 259.184 73.1847C257.957 72.3494 257.013 71.1397 256.35 69.5554C255.694 67.9711 255.369 66.0653 255.376 63.8381C255.376 61.6174 255.704 59.7249 256.36 58.1605C257.023 56.5961 257.967 55.4062 259.194 54.5909C260.427 53.7689 261.895 53.358 263.599 53.358C265.302 53.358 266.767 53.7689 267.993 54.5909C269.226 55.4129 270.174 56.6061 270.837 58.1705C271.5 59.7282 271.828 61.6174 271.822 63.8381C271.822 66.072 271.49 67.9811 270.827 69.5653C270.171 71.1496 269.23 72.3594 268.003 73.1946C266.777 74.0298 265.309 74.4474 263.599 74.4474ZM263.599 70.8778C264.765 70.8778 265.697 70.2912 266.393 69.1179C267.089 67.9446 267.433 66.1847 267.427 63.8381C267.427 62.2936 267.268 61.0076 266.949 59.9801C266.638 58.9527 266.194 58.1804 265.617 57.6634C265.047 57.1463 264.374 56.8878 263.599 56.8878C262.438 56.8878 261.51 57.4678 260.814 58.6278C260.118 59.7879 259.767 61.5246 259.76 63.8381C259.76 65.4025 259.916 66.7083 260.228 67.7557C260.546 68.7964 260.993 69.5786 261.57 70.1023C262.147 70.6193 262.823 70.8778 263.599 70.8778ZM273.829 70.528H297.293V73.552H273.829V70.528ZM283.685 65.544H287.409V72.096H283.685V65.544ZM283.657 55.968H286.961V56.528C286.961 61.484 283.013 65.488 275.901 66.412L274.557 63.472C280.857 62.716 283.657 59.496 283.657 56.528V55.968ZM284.161 55.968H287.437V56.528C287.437 59.496 290.237 62.716 296.537 63.472L295.193 66.412C288.081 65.488 284.161 61.484 284.161 56.528V55.968ZM275.817 54.064H295.277V57.06H275.817V54.064ZM283.685 50.9H287.409V55.296H283.685V50.9ZM304.63 53.6364L304.242 67.8949H300.603L300.205 53.6364H304.63ZM302.423 74.2585C301.767 74.2585 301.203 74.0265 300.732 73.5625C300.262 73.0919 300.03 72.5284 300.036 71.8722C300.03 71.2225 300.262 70.6657 300.732 70.2017C301.203 69.7377 301.767 69.5057 302.423 69.5057C303.053 69.5057 303.606 69.7377 304.083 70.2017C304.561 70.6657 304.803 71.2225 304.809 71.8722C304.803 72.3097 304.687 72.7107 304.461 73.0753C304.242 73.4332 303.954 73.7216 303.596 73.9403C303.238 74.1525 302.847 74.2585 302.423 74.2585Z" fill="#3C3C3F"/>
<path d="M45.352 101.228H46.528V110.482H45.352V101.228ZM46.164 105.064H48.39V106.044H46.164V105.064ZM41.894 102.208H43.126C43.126 103.3 42.8833 104.289 42.398 105.176C41.922 106.062 41.2407 106.832 40.354 107.486C39.4673 108.139 38.4173 108.657 37.204 109.04L36.714 108.102C37.778 107.766 38.6973 107.332 39.472 106.8C40.2467 106.268 40.844 105.656 41.264 104.966C41.684 104.275 41.894 103.528 41.894 102.726V102.208ZM37.232 102.208H42.496V103.174H37.232V102.208ZM38.632 112.666H47.074V113.618H38.632V112.666ZM38.632 109.544H39.794V113.044H38.632V109.544ZM57.9649 101.228H59.1269V110.398H57.9649V101.228ZM58.7629 104.98H61.0029V105.946H58.7629V104.98ZM49.8869 107.192H50.8669C51.7349 107.192 52.4956 107.182 53.1489 107.164C53.8022 107.145 54.4042 107.103 54.9549 107.038C55.5056 106.972 56.0609 106.884 56.6209 106.772L56.7609 107.724C56.1729 107.836 55.5942 107.924 55.0249 107.99C54.4649 108.055 53.8536 108.102 53.1909 108.13C52.5282 108.148 51.7536 108.158 50.8669 108.158H49.8869V107.192ZM49.8869 102.32H55.4729V103.272H51.0349V107.71H49.8869V102.32ZM51.2449 112.666H59.6869V113.618H51.2449V112.666ZM51.2449 109.474H52.3929V113.1H51.2449V109.474ZM70.5638 101.242H71.7258V110.734H70.5638V101.242ZM71.3618 105.4H73.5878V106.366H71.3618V105.4ZM61.9258 102.782H69.4018V103.72H61.9258V102.782ZM65.6638 104.406C66.2611 104.406 66.7885 104.508 67.2458 104.714C67.7031 104.91 68.0578 105.185 68.3098 105.54C68.5618 105.885 68.6878 106.296 68.6878 106.772C68.6878 107.248 68.5618 107.663 68.3098 108.018C68.0578 108.363 67.7031 108.634 67.2458 108.83C66.7885 109.026 66.2611 109.124 65.6638 109.124C65.0665 109.124 64.5391 109.026 64.0818 108.83C63.6245 108.634 63.2651 108.363 63.0038 108.018C62.7518 107.663 62.6258 107.248 62.6258 106.772C62.6258 106.296 62.7518 105.885 63.0038 105.54C63.2651 105.185 63.6245 104.91 64.0818 104.714C64.5391 104.508 65.0665 104.406 65.6638 104.406ZM65.6638 105.316C65.0945 105.316 64.6325 105.451 64.2778 105.722C63.9231 105.983 63.7458 106.333 63.7458 106.772C63.7458 107.21 63.9231 107.56 64.2778 107.822C64.6325 108.083 65.0945 108.214 65.6638 108.214C66.2425 108.214 66.7045 108.083 67.0498 107.822C67.4045 107.56 67.5818 107.21 67.5818 106.772C67.5818 106.333 67.4045 105.983 67.0498 105.722C66.7045 105.451 66.2425 105.316 65.6638 105.316ZM65.0898 101.242H66.2518V103.258H65.0898V101.242ZM63.8438 112.666H72.2858V113.618H63.8438V112.666ZM63.8438 109.978H64.9918V113.058H63.8438V109.978ZM87.3802 101.228H88.5422V107.794H87.3802V101.228ZM80.2962 108.41H88.5422V111.448H81.4722V113.352H80.3242V110.594H87.3942V109.334H80.2962V108.41ZM80.3242 112.82H89.0042V113.758H80.3242V112.82ZM78.7142 102.096H85.5182V103.006H78.7142V102.096ZM78.5042 107.36L78.3642 106.408C79.1202 106.398 79.9416 106.384 80.8282 106.366C81.7149 106.347 82.6109 106.314 83.5162 106.268C84.4309 106.212 85.2989 106.137 86.1202 106.044L86.1762 106.884C85.3456 107.014 84.4776 107.112 83.5722 107.178C82.6669 107.243 81.7802 107.29 80.9122 107.318C80.0536 107.346 79.2509 107.36 78.5042 107.36ZM79.9602 102.516H81.0802V106.814H79.9602V102.516ZM83.1382 102.516H84.2722V106.814H83.1382V102.516ZM95.8771 101.676H96.8991V102.39C96.8991 102.875 96.8058 103.332 96.6191 103.762C96.4325 104.182 96.1758 104.569 95.8491 104.924C95.5318 105.278 95.1585 105.596 94.7291 105.876C94.2998 106.156 93.8331 106.389 93.3291 106.576C92.8345 106.762 92.3258 106.898 91.8031 106.982L91.3271 106.044C91.7938 105.978 92.2465 105.866 92.6851 105.708C93.1331 105.549 93.5485 105.358 93.9311 105.134C94.3138 104.9 94.6498 104.639 94.9391 104.35C95.2378 104.06 95.4665 103.752 95.6251 103.426C95.7931 103.09 95.8771 102.744 95.8771 102.39V101.676ZM96.0731 101.676H97.0811V102.39C97.0811 102.744 97.1651 103.085 97.3331 103.412C97.5011 103.738 97.7298 104.046 98.0191 104.336C98.3178 104.625 98.6585 104.886 99.0411 105.12C99.4238 105.353 99.8345 105.549 100.273 105.708C100.721 105.866 101.174 105.978 101.631 106.044L101.169 106.982C100.646 106.898 100.138 106.762 99.6431 106.576C99.1485 106.38 98.6818 106.142 98.2431 105.862C97.8138 105.582 97.4358 105.264 97.1091 104.91C96.7918 104.555 96.5398 104.168 96.3531 103.748C96.1665 103.318 96.0731 102.866 96.0731 102.39V101.676ZM95.8771 109.082H97.0251V113.898H95.8771V109.082ZM90.7531 108.354H102.191V109.32H90.7531V108.354ZM113.772 104.518H116.614V105.484H113.772V104.518ZM116.264 101.228H117.426V108.774H116.264V101.228ZM113.254 109.166C114.131 109.166 114.882 109.259 115.508 109.446C116.142 109.632 116.628 109.903 116.964 110.258C117.3 110.603 117.468 111.028 117.468 111.532C117.468 112.278 117.09 112.857 116.334 113.268C115.587 113.678 114.56 113.884 113.254 113.884C111.947 113.884 110.916 113.678 110.16 113.268C109.413 112.857 109.04 112.278 109.04 111.532C109.04 111.028 109.208 110.603 109.544 110.258C109.889 109.903 110.374 109.632 111 109.446C111.634 109.259 112.386 109.166 113.254 109.166ZM113.254 110.076C112.619 110.076 112.073 110.132 111.616 110.244C111.158 110.356 110.804 110.519 110.552 110.734C110.309 110.948 110.188 111.214 110.188 111.532C110.188 111.83 110.309 112.087 110.552 112.302C110.804 112.516 111.158 112.684 111.616 112.806C112.073 112.918 112.619 112.974 113.254 112.974C113.898 112.974 114.444 112.918 114.892 112.806C115.349 112.684 115.699 112.516 115.942 112.302C116.194 112.087 116.32 111.83 116.32 111.532C116.32 111.214 116.194 110.948 115.942 110.734C115.699 110.519 115.349 110.356 114.892 110.244C114.444 110.132 113.898 110.076 113.254 110.076ZM110.23 102.516H111.182V103.538C111.182 104.312 111.032 105.04 110.734 105.722C110.444 106.394 110.034 106.986 109.502 107.5C108.97 108.004 108.354 108.391 107.654 108.662L107.052 107.738C107.528 107.57 107.957 107.341 108.34 107.052C108.732 106.762 109.068 106.431 109.348 106.058C109.637 105.684 109.856 105.283 110.006 104.854C110.155 104.424 110.23 103.986 110.23 103.538V102.516ZM110.454 102.516H111.406V103.524C111.406 104.065 111.532 104.592 111.784 105.106C112.036 105.619 112.395 106.072 112.862 106.464C113.328 106.856 113.865 107.164 114.472 107.388L113.884 108.312C113.193 108.06 112.591 107.696 112.078 107.22C111.564 106.734 111.163 106.174 110.874 105.54C110.594 104.905 110.454 104.233 110.454 103.524V102.516ZM107.416 102.152H114.178V103.104H107.416V102.152ZM119.608 111.322H131.088V112.288H119.608V111.322ZM124.746 108.284H125.894V111.602H124.746V108.284ZM120.952 102.124H122.114V104.378H128.554V102.124H129.702V108.606H120.952V102.124ZM122.114 105.33V107.654H128.554V105.33H122.114ZM132.725 102.376H138.549V108.228H132.725V102.376ZM137.415 103.314H133.859V107.29H137.415V103.314ZM140.873 101.228H142.035V110.51H140.873V101.228ZM141.671 105.078H143.897V106.044H141.671V105.078ZM134.153 112.666H142.595V113.618H134.153V112.666ZM134.153 109.628H135.301V113.072H134.153V109.628ZM157.676 101.228H158.838V108.032H157.676V101.228ZM150.69 108.662H151.824V110.188H157.69V108.662H158.838V113.73H150.69V108.662ZM151.824 111.112V112.778H157.69V111.112H151.824ZM152.048 101.83C152.692 101.83 153.261 101.956 153.756 102.208C154.25 102.45 154.638 102.791 154.918 103.23C155.207 103.668 155.352 104.177 155.352 104.756C155.352 105.325 155.207 105.834 154.918 106.282C154.638 106.72 154.25 107.061 153.756 107.304C153.261 107.546 152.692 107.668 152.048 107.668C151.413 107.668 150.844 107.546 150.34 107.304C149.845 107.061 149.453 106.72 149.164 106.282C148.884 105.834 148.744 105.325 148.744 104.756C148.744 104.177 148.884 103.668 149.164 103.23C149.453 102.791 149.845 102.45 150.34 102.208C150.844 101.956 151.413 101.83 152.048 101.83ZM152.048 102.81C151.628 102.81 151.254 102.894 150.928 103.062C150.601 103.22 150.344 103.449 150.158 103.748C149.971 104.037 149.878 104.373 149.878 104.756C149.878 105.129 149.971 105.465 150.158 105.764C150.344 106.053 150.601 106.282 150.928 106.45C151.254 106.618 151.628 106.702 152.048 106.702C152.468 106.702 152.841 106.618 153.168 106.45C153.494 106.282 153.751 106.053 153.938 105.764C154.124 105.465 154.218 105.129 154.218 104.756C154.218 104.373 154.124 104.037 153.938 103.748C153.751 103.449 153.494 103.22 153.168 103.062C152.841 102.894 152.468 102.81 152.048 102.81ZM161.595 107.514H162.491C163.321 107.514 164.031 107.509 164.619 107.5C165.216 107.481 165.757 107.448 166.243 107.402C166.737 107.355 167.237 107.285 167.741 107.192L167.853 108.144C167.47 108.209 167.092 108.265 166.719 108.312C166.345 108.349 165.953 108.377 165.543 108.396C165.132 108.414 164.679 108.428 164.185 108.438C163.69 108.447 163.125 108.452 162.491 108.452H161.595V107.514ZM161.567 101.998H167.013V105.582H162.743V108.074H161.595V104.686H165.865V102.936H161.567V101.998ZM170.317 101.242H171.479V109.026H170.317V101.242ZM167.853 103.118H170.583V104.056H167.853V103.118ZM167.853 105.736H170.583V106.688H167.853V105.736ZM163.009 109.698H171.479V113.912H170.317V110.65H163.009V109.698ZM182.244 101.228H183.392V113.898H182.244V101.228ZM183.126 106.436H185.464V107.416H183.126V106.436ZM173.592 103.258H181.054V104.21H173.592V103.258ZM177.386 105.246C177.983 105.246 178.51 105.372 178.968 105.624C179.434 105.876 179.798 106.221 180.06 106.66C180.33 107.089 180.466 107.588 180.466 108.158C180.466 108.727 180.33 109.231 180.06 109.67C179.798 110.108 179.434 110.454 178.968 110.706C178.51 110.948 177.983 111.07 177.386 111.07C176.788 111.07 176.256 110.948 175.79 110.706C175.332 110.454 174.968 110.108 174.698 109.67C174.427 109.231 174.292 108.727 174.292 108.158C174.292 107.588 174.427 107.089 174.698 106.66C174.968 106.221 175.332 105.876 175.79 105.624C176.256 105.372 176.788 105.246 177.386 105.246ZM177.386 106.212C177.003 106.212 176.662 106.296 176.364 106.464C176.065 106.632 175.827 106.86 175.65 107.15C175.482 107.439 175.398 107.775 175.398 108.158C175.398 108.54 175.482 108.881 175.65 109.18C175.827 109.469 176.065 109.698 176.364 109.866C176.662 110.024 177.003 110.104 177.386 110.104C177.759 110.104 178.095 110.024 178.394 109.866C178.692 109.698 178.926 109.469 179.094 109.18C179.271 108.881 179.36 108.54 179.36 108.158C179.36 107.775 179.271 107.439 179.094 107.15C178.926 106.86 178.692 106.632 178.394 106.464C178.095 106.296 177.759 106.212 177.386 106.212ZM176.784 101.382H177.946V103.678H176.784V101.382ZM192.336 103.454H195.864V104.42H192.336V103.454ZM192.336 106.17H195.892V107.122H192.336V106.17ZM186.848 102.334H192.616V108.256H186.848V102.334ZM191.482 103.272H187.982V107.332H191.482V103.272ZM195.514 101.242H196.676V110.482H195.514V101.242ZM188.542 112.666H196.97V113.618H188.542V112.666ZM188.542 109.656H189.704V113.1H188.542V109.656ZM207.487 102.432H208.509V102.81C208.509 103.342 208.378 103.832 208.117 104.28C207.856 104.728 207.496 105.129 207.039 105.484C206.591 105.829 206.073 106.118 205.485 106.352C204.906 106.576 204.29 106.734 203.637 106.828L203.203 105.904C203.651 105.838 204.085 105.74 204.505 105.61C204.934 105.479 205.326 105.32 205.681 105.134C206.036 104.938 206.348 104.718 206.619 104.476C206.89 104.233 207.1 103.972 207.249 103.692C207.408 103.412 207.487 103.118 207.487 102.81V102.432ZM207.963 102.432H208.985V102.81C208.985 103.108 209.06 103.398 209.209 103.678C209.368 103.958 209.582 104.224 209.853 104.476C210.124 104.718 210.436 104.938 210.791 105.134C211.155 105.32 211.547 105.479 211.967 105.61C212.387 105.74 212.821 105.838 213.269 105.904L212.835 106.828C212.191 106.734 211.575 106.576 210.987 106.352C210.399 106.118 209.881 105.829 209.433 105.484C208.985 105.129 208.626 104.728 208.355 104.28C208.094 103.832 207.963 103.342 207.963 102.81V102.432ZM203.567 101.858H212.919V102.796H203.567V101.858ZM202.503 107.738H213.983V108.69H202.503V107.738ZM207.739 108.34H208.901V111.252H207.739V108.34ZM203.959 112.666H212.709V113.618H203.959V112.666ZM203.959 110.02H205.121V113.016H203.959V110.02ZM224.314 101.228H225.476V113.912H224.314V101.228ZM215.83 102.306H216.992V105.638H220.646V102.306H221.794V110.86H215.83V102.306ZM216.992 106.562V109.894H220.646V106.562H216.992ZM234.648 106.492H235.81V108.41H234.648V106.492ZM235.194 101.816C235.801 101.816 236.338 101.923 236.804 102.138C237.28 102.343 237.649 102.632 237.91 103.006C238.181 103.379 238.316 103.813 238.316 104.308C238.316 104.802 238.181 105.241 237.91 105.624C237.649 105.997 237.28 106.291 236.804 106.506C236.338 106.711 235.801 106.814 235.194 106.814C234.588 106.814 234.046 106.711 233.57 106.506C233.104 106.291 232.735 105.997 232.464 105.624C232.203 105.241 232.072 104.802 232.072 104.308C232.072 103.813 232.203 103.379 232.464 103.006C232.735 102.632 233.104 102.343 233.57 102.138C234.046 101.923 234.588 101.816 235.194 101.816ZM235.194 102.712C234.802 102.712 234.452 102.777 234.144 102.908C233.836 103.038 233.594 103.225 233.416 103.468C233.248 103.71 233.164 103.99 233.164 104.308C233.164 104.625 233.248 104.905 233.416 105.148C233.594 105.39 233.836 105.582 234.144 105.722C234.452 105.852 234.802 105.918 235.194 105.918C235.596 105.918 235.946 105.852 236.244 105.722C236.552 105.582 236.79 105.39 236.958 105.148C237.136 104.905 237.224 104.625 237.224 104.308C237.224 103.99 237.136 103.71 236.958 103.468C236.79 103.225 236.552 103.038 236.244 102.908C235.946 102.777 235.596 102.712 235.194 102.712ZM240.024 101.242H241.186V110.93H240.024V101.242ZM240.696 105.512H243.034V106.492H240.696V105.512ZM233.178 112.652H241.634V113.604H233.178V112.652ZM233.178 110.104H234.34V113.072H233.178V110.104ZM231.498 109.054L231.358 108.088C232.096 108.088 232.908 108.083 233.794 108.074C234.69 108.055 235.605 108.018 236.538 107.962C237.472 107.896 238.368 107.798 239.226 107.668L239.31 108.522C238.433 108.68 237.528 108.797 236.594 108.872C235.67 108.946 234.77 108.998 233.892 109.026C233.024 109.044 232.226 109.054 231.498 109.054ZM247.177 108.648H248.311V111.756H247.177V108.648ZM251.223 108.634H252.357V111.742H251.223V108.634ZM243.971 111.364H255.451V112.33H243.971V111.364ZM245.371 102.166H254.023V106.002H246.547V108.536H245.399V105.064H252.875V103.118H245.371V102.166ZM245.399 108.032H254.317V108.984H245.399V108.032ZM258.495 102.624L258.396 109.942H257.242L257.143 102.624H258.495ZM257.819 112.885C257.574 112.885 257.363 112.797 257.187 112.622C257.012 112.446 256.924 112.236 256.924 111.99C256.924 111.745 257.012 111.535 257.187 111.359C257.363 111.183 257.574 111.095 257.819 111.095C258.064 111.095 258.275 111.183 258.45 111.359C258.626 111.535 258.714 111.745 258.714 111.99C258.714 112.153 258.672 112.302 258.589 112.438C258.51 112.574 258.402 112.683 258.266 112.766C258.134 112.845 257.985 112.885 257.819 112.885ZM39.794 122.32H40.746V124.588C40.746 125.288 40.6573 125.974 40.48 126.646C40.312 127.318 40.0693 127.948 39.752 128.536C39.4347 129.124 39.0613 129.646 38.632 130.104C38.2027 130.561 37.736 130.925 37.232 131.196L36.518 130.258C36.9847 130.024 37.414 129.712 37.806 129.32C38.2073 128.918 38.5573 128.461 38.856 127.948C39.1547 127.434 39.3833 126.893 39.542 126.324C39.71 125.745 39.794 125.166 39.794 124.588V122.32ZM40.004 122.32H40.942V124.588C40.942 125.148 41.0213 125.703 41.18 126.254C41.348 126.804 41.5813 127.322 41.88 127.808C42.1787 128.293 42.5193 128.727 42.902 129.11C43.294 129.492 43.714 129.796 44.162 130.02L43.448 130.944C42.9533 130.692 42.496 130.346 42.076 129.908C41.6653 129.469 41.3013 128.97 40.984 128.41C40.676 127.84 40.4333 127.234 40.256 126.59C40.088 125.936 40.004 125.269 40.004 124.588V122.32ZM45.268 121.228H46.43V133.898H45.268V121.228ZM46.164 126.352H48.502V127.346H46.164V126.352ZM52.1129 125.526H53.2749V127.906H52.1129V125.526ZM56.7609 125.526H57.9089V127.906H56.7609V125.526ZM49.2989 127.486H60.7369V128.424H49.2989V127.486ZM55.0109 129.39C56.3642 129.39 57.4236 129.581 58.1889 129.964C58.9542 130.346 59.3369 130.897 59.3369 131.616C59.3369 132.344 58.9542 132.899 58.1889 133.282C57.4236 133.674 56.3642 133.87 55.0109 133.87C53.6576 133.87 52.5936 133.674 51.8189 133.282C51.0536 132.899 50.6709 132.344 50.6709 131.616C50.6709 130.897 51.0536 130.346 51.8189 129.964C52.5936 129.581 53.6576 129.39 55.0109 129.39ZM55.0109 130.286C54.3482 130.286 53.7789 130.337 53.3029 130.44C52.8362 130.542 52.4769 130.696 52.2249 130.902C51.9729 131.098 51.8469 131.336 51.8469 131.616C51.8469 131.914 51.9729 132.166 52.2249 132.372C52.4769 132.568 52.8362 132.717 53.3029 132.82C53.7789 132.922 54.3482 132.974 55.0109 132.974C55.6736 132.974 56.2382 132.922 56.7049 132.82C57.1809 132.717 57.5449 132.568 57.7969 132.372C58.0489 132.166 58.1749 131.914 58.1749 131.616C58.1749 131.336 58.0489 131.098 57.7969 130.902C57.5449 130.696 57.1809 130.542 56.7049 130.44C56.2382 130.337 55.6736 130.286 55.0109 130.286ZM55.0109 121.466C55.9256 121.466 56.7142 121.559 57.3769 121.746C58.0489 121.932 58.5622 122.203 58.9169 122.558C59.2809 122.903 59.4629 123.323 59.4629 123.818C59.4629 124.303 59.2809 124.723 58.9169 125.078C58.5622 125.432 58.0489 125.703 57.3769 125.89C56.7142 126.067 55.9256 126.156 55.0109 126.156C54.0962 126.156 53.3029 126.067 52.6309 125.89C51.9682 125.703 51.4549 125.432 51.0909 125.078C50.7362 124.723 50.5589 124.303 50.5589 123.818C50.5589 123.323 50.7362 122.903 51.0909 122.558C51.4549 122.203 51.9682 121.932 52.6309 121.746C53.3029 121.559 54.0962 121.466 55.0109 121.466ZM55.0109 122.376C54.3482 122.376 53.7696 122.432 53.2749 122.544C52.7896 122.656 52.4116 122.819 52.1409 123.034C51.8796 123.248 51.7489 123.51 51.7489 123.818C51.7489 124.116 51.8796 124.378 52.1409 124.602C52.4116 124.816 52.7896 124.98 53.2749 125.092C53.7696 125.204 54.3482 125.26 55.0109 125.26C55.6922 125.26 56.2756 125.204 56.7609 125.092C57.2462 124.98 57.6196 124.816 57.8809 124.602C58.1422 124.378 58.2729 124.116 58.2729 123.818C58.2729 123.51 58.1422 123.248 57.8809 123.034C57.6196 122.819 57.2462 122.656 56.7609 122.544C56.2756 122.432 55.6922 122.376 55.0109 122.376ZM65.0198 123.048H65.9578V125.092C65.9578 125.754 65.8645 126.412 65.6778 127.066C65.4911 127.71 65.2298 128.321 64.8938 128.9C64.5671 129.469 64.1891 129.978 63.7598 130.426C63.3305 130.864 62.8685 131.21 62.3738 131.462L61.6878 130.538C62.1451 130.314 62.5698 130.01 62.9618 129.628C63.3631 129.236 63.7178 128.792 64.0258 128.298C64.3338 127.794 64.5765 127.271 64.7538 126.73C64.9311 126.179 65.0198 125.633 65.0198 125.092V123.048ZM65.2438 123.048H66.1678V125.092C66.1678 125.596 66.2471 126.104 66.4058 126.618C66.5738 127.131 66.8071 127.621 67.1058 128.088C67.4045 128.554 67.7498 128.974 68.1418 129.348C68.5431 129.712 68.9678 130.006 69.4158 130.23L68.7578 131.154C68.2631 130.902 67.8011 130.566 67.3718 130.146C66.9425 129.716 66.5691 129.231 66.2518 128.69C65.9345 128.148 65.6871 127.57 65.5098 126.954C65.3325 126.338 65.2438 125.717 65.2438 125.092V123.048ZM62.1358 122.53H68.9678V123.496H62.1358V122.53ZM70.4658 121.228H71.6278V133.898H70.4658V121.228ZM71.3618 126.338H73.6998V127.318H71.3618V126.338ZM81.0942 129.068H82.2842V133.898H81.0942V129.068ZM85.4482 129.068H86.6242V133.898H85.4482V129.068ZM78.1402 128.438H89.6202V129.39H78.1402V128.438ZM83.8522 121.732C84.7389 121.732 85.5136 121.848 86.1762 122.082C86.8389 122.306 87.3569 122.623 87.7302 123.034C88.1036 123.444 88.2902 123.934 88.2902 124.504C88.2902 125.054 88.1036 125.54 87.7302 125.96C87.3569 126.37 86.8389 126.688 86.1762 126.912C85.5136 127.136 84.7389 127.248 83.8522 127.248C82.9842 127.248 82.2142 127.136 81.5422 126.912C80.8796 126.688 80.3616 126.37 79.9882 125.96C79.6149 125.54 79.4282 125.054 79.4282 124.504C79.4282 123.934 79.6149 123.444 79.9882 123.034C80.3616 122.623 80.8796 122.306 81.5422 122.082C82.2142 121.848 82.9842 121.732 83.8522 121.732ZM83.8522 122.67C83.2176 122.67 82.6529 122.744 82.1582 122.894C81.6729 123.043 81.2949 123.258 81.0242 123.538C80.7536 123.808 80.6182 124.13 80.6182 124.504C80.6182 124.868 80.7536 125.19 81.0242 125.47C81.2949 125.74 81.6729 125.95 82.1582 126.1C82.6529 126.24 83.2176 126.31 83.8522 126.31C84.5056 126.31 85.0749 126.24 85.5602 126.1C86.0456 125.95 86.4236 125.74 86.6942 125.47C86.9649 125.19 87.1002 124.868 87.1002 124.504C87.1002 124.13 86.9649 123.808 86.6942 123.538C86.4236 123.258 86.0456 123.043 85.5602 122.894C85.0749 122.744 84.5056 122.67 83.8522 122.67ZM97.8651 124.266H100.455V125.218H97.8651V124.266ZM97.8511 126.73H100.427V127.682H97.8511V126.73ZM90.7671 122.628H97.8651V123.566H90.7671V122.628ZM94.3511 124.21C94.9205 124.21 95.4198 124.308 95.8491 124.504C96.2785 124.7 96.6145 124.975 96.8571 125.33C97.0998 125.675 97.2211 126.086 97.2211 126.562C97.2211 127.028 97.0998 127.439 96.8571 127.794C96.6145 128.139 96.2785 128.41 95.8491 128.606C95.4198 128.802 94.9205 128.9 94.3511 128.9C93.7911 128.9 93.2965 128.802 92.8671 128.606C92.4378 128.41 92.1018 128.139 91.8591 127.794C91.6165 127.439 91.4951 127.028 91.4951 126.562C91.4951 126.086 91.6165 125.675 91.8591 125.33C92.1018 124.975 92.4378 124.7 92.8671 124.504C93.2965 124.308 93.7911 124.21 94.3511 124.21ZM94.3511 125.106C93.8191 125.106 93.3898 125.236 93.0631 125.498C92.7458 125.759 92.5871 126.114 92.5871 126.562C92.5871 127 92.7458 127.355 93.0631 127.626C93.3898 127.887 93.8191 128.018 94.3511 128.018C94.8831 128.018 95.3125 127.887 95.6391 127.626C95.9751 127.355 96.1431 127 96.1431 126.562C96.1431 126.114 95.9751 125.759 95.6391 125.498C95.3125 125.236 94.8831 125.106 94.3511 125.106ZM93.7911 121.116H94.9391V123.272H93.7911V121.116ZM100.007 121.228H101.169V129.404H100.007V121.228ZM97.0251 129.544C97.9025 129.544 98.6538 129.628 99.2791 129.796C99.9045 129.964 100.385 130.211 100.721 130.538C101.066 130.864 101.239 131.256 101.239 131.714C101.239 132.162 101.066 132.549 100.721 132.876C100.385 133.202 99.9045 133.45 99.2791 133.618C98.6538 133.786 97.9025 133.87 97.0251 133.87C96.1478 133.87 95.3918 133.786 94.7571 133.618C94.1318 133.45 93.6465 133.202 93.3011 132.876C92.9651 132.549 92.7971 132.162 92.7971 131.714C92.7971 131.256 92.9651 130.864 93.3011 130.538C93.6465 130.211 94.1318 129.964 94.7571 129.796C95.3918 129.628 96.1478 129.544 97.0251 129.544ZM97.0251 130.454C96.0918 130.454 95.3545 130.561 94.8131 130.776C94.2718 130.99 94.0011 131.303 94.0011 131.714C94.0011 132.106 94.2718 132.414 94.8131 132.638C95.3545 132.862 96.0918 132.974 97.0251 132.974C97.9491 132.974 98.6771 132.862 99.2091 132.638C99.7505 132.414 100.021 132.106 100.021 131.714C100.021 131.303 99.7505 130.99 99.2091 130.776C98.6771 130.561 97.9491 130.454 97.0251 130.454ZM108.49 126.156H110.87V127.108H108.49V126.156ZM112.998 121.228H114.118V133.898H112.998V121.228ZM110.478 121.494H111.584V133.254H110.478V121.494ZM106.194 122.292C106.745 122.292 107.221 122.469 107.622 122.824C108.033 123.178 108.35 123.687 108.574 124.35C108.798 125.012 108.91 125.792 108.91 126.688C108.91 127.593 108.798 128.377 108.574 129.04C108.35 129.702 108.033 130.216 107.622 130.58C107.221 130.934 106.745 131.112 106.194 131.112C105.662 131.112 105.191 130.934 104.78 130.58C104.379 130.216 104.066 129.702 103.842 129.04C103.618 128.377 103.506 127.593 103.506 126.688C103.506 125.792 103.618 125.012 103.842 124.35C104.066 123.687 104.379 123.178 104.78 122.824C105.191 122.469 105.662 122.292 106.194 122.292ZM106.194 123.37C105.867 123.37 105.583 123.505 105.34 123.776C105.097 124.046 104.911 124.429 104.78 124.924C104.649 125.418 104.584 126.006 104.584 126.688C104.584 127.369 104.649 127.962 104.78 128.466C104.911 128.96 105.097 129.343 105.34 129.614C105.583 129.884 105.867 130.02 106.194 130.02C106.53 130.02 106.819 129.884 107.062 129.614C107.314 129.343 107.505 128.96 107.636 128.466C107.767 127.962 107.832 127.369 107.832 126.688C107.832 126.006 107.767 125.418 107.636 124.924C107.505 124.429 107.314 124.046 107.062 123.776C106.819 123.505 106.53 123.37 106.194 123.37ZM128.386 121.214H129.548V133.898H128.386V121.214ZM129.03 126.198H131.368V127.178H129.03V126.198ZM119.972 129.614H120.532C120.896 129.614 121.312 129.6 121.778 129.572C122.254 129.544 122.763 129.469 123.304 129.348L123.416 130.314C122.838 130.435 122.31 130.51 121.834 130.538C121.358 130.566 120.924 130.58 120.532 130.58H119.972V129.614ZM119.972 122.558H123.178V123.51H121.134V130.076H119.972V122.558ZM123.892 129.614H124.494C124.914 129.614 125.297 129.609 125.642 129.6C125.988 129.581 126.319 129.553 126.636 129.516C126.963 129.469 127.294 129.404 127.63 129.32L127.742 130.286C127.388 130.37 127.047 130.435 126.72 130.482C126.394 130.519 126.048 130.547 125.684 130.566C125.33 130.575 124.933 130.58 124.494 130.58H123.892V129.614ZM123.892 122.558H127.238V123.51H125.026V130.09H123.892V122.558ZM140.789 121.228H141.937V133.912H140.789V121.228ZM141.671 126.254H144.009V127.234H141.671V126.254ZM132.725 129.88H133.733C134.517 129.88 135.236 129.87 135.889 129.852C136.552 129.824 137.191 129.782 137.807 129.726C138.423 129.66 139.049 129.567 139.683 129.446L139.795 130.398C139.142 130.519 138.503 130.612 137.877 130.678C137.261 130.743 136.617 130.79 135.945 130.818C135.273 130.846 134.536 130.86 133.733 130.86H132.725V129.88ZM132.697 122.404H138.409V126.954H133.873V130.272H132.725V125.988H137.261V123.356H132.697V122.404ZM157.032 121.228H158.194V133.912H157.032V121.228ZM157.928 126.226H160.266V127.192H157.928V126.226ZM149.01 129.768H150.004C150.778 129.768 151.488 129.758 152.132 129.74C152.785 129.712 153.41 129.665 154.008 129.6C154.614 129.534 155.23 129.446 155.856 129.334L155.996 130.328C155.342 130.44 154.708 130.528 154.092 130.594C153.485 130.659 152.85 130.701 152.188 130.72C151.525 130.738 150.797 130.748 150.004 130.748H149.01V129.768ZM149.01 122.46H154.876V123.412H150.158V130.216H149.01V122.46ZM161.049 128.242H172.529V129.194H161.049V128.242ZM162.561 132.666H171.339V133.618H162.561V132.666ZM162.561 130.188H163.723V133.016H162.561V130.188ZM162.505 121.648H171.059V124.798H163.681V126.492H162.533V123.93H169.911V122.572H162.505V121.648ZM162.533 126.184H171.325V127.094H162.533V126.184ZM186.797 123.118H188.981V124.084H186.797V123.118ZM186.797 125.82H188.981V126.786H186.797V125.82ZM180.847 121.984C181.491 121.984 182.06 122.11 182.555 122.362C183.05 122.614 183.437 122.964 183.717 123.412C184.006 123.86 184.151 124.378 184.151 124.966C184.151 125.563 184.006 126.086 183.717 126.534C183.437 126.972 183.05 127.318 182.555 127.57C182.06 127.822 181.491 127.948 180.847 127.948C180.222 127.948 179.657 127.822 179.153 127.57C178.658 127.318 178.266 126.972 177.977 126.534C177.688 126.086 177.543 125.563 177.543 124.966C177.543 124.378 177.688 123.86 177.977 123.412C178.266 122.964 178.658 122.614 179.153 122.362C179.657 122.11 180.222 121.984 180.847 121.984ZM180.847 122.964C180.436 122.964 180.068 123.052 179.741 123.23C179.414 123.398 179.153 123.631 178.957 123.93C178.77 124.228 178.677 124.574 178.677 124.966C178.677 125.367 178.77 125.717 178.957 126.016C179.153 126.314 179.414 126.548 179.741 126.716C180.068 126.884 180.436 126.968 180.847 126.968C181.267 126.968 181.64 126.884 181.967 126.716C182.294 126.548 182.55 126.314 182.737 126.016C182.933 125.717 183.031 125.367 183.031 124.966C183.031 124.574 182.933 124.228 182.737 123.93C182.55 123.631 182.294 123.398 181.967 123.23C181.64 123.052 181.267 122.964 180.847 122.964ZM185.985 121.228H187.147V128.732H185.985V121.228ZM183.115 129.124C183.964 129.124 184.702 129.222 185.327 129.418C185.952 129.604 186.433 129.875 186.769 130.23C187.105 130.575 187.273 131 187.273 131.504C187.273 131.998 187.105 132.423 186.769 132.778C186.433 133.123 185.952 133.389 185.327 133.576C184.702 133.772 183.964 133.87 183.115 133.87C182.256 133.87 181.514 133.772 180.889 133.576C180.264 133.389 179.783 133.123 179.447 132.778C179.111 132.423 178.943 131.998 178.943 131.504C178.943 131 179.111 130.575 179.447 130.23C179.783 129.875 180.264 129.604 180.889 129.418C181.514 129.222 182.256 129.124 183.115 129.124ZM183.115 130.062C182.49 130.062 181.948 130.118 181.491 130.23C181.043 130.342 180.698 130.505 180.455 130.72C180.212 130.934 180.091 131.196 180.091 131.504C180.091 131.802 180.212 132.059 180.455 132.274C180.698 132.488 181.043 132.652 181.491 132.764C181.948 132.876 182.49 132.932 183.115 132.932C183.74 132.932 184.277 132.876 184.725 132.764C185.173 132.652 185.518 132.488 185.761 132.274C186.004 132.059 186.125 131.802 186.125 131.504C186.125 131.196 186.004 130.934 185.761 130.72C185.518 130.505 185.173 130.342 184.725 130.23C184.277 130.118 183.74 130.062 183.115 130.062ZM193.208 121.83H194.174V123.062C194.174 123.864 194.025 124.616 193.726 125.316C193.437 126.016 193.021 126.627 192.48 127.15C191.948 127.663 191.327 128.055 190.618 128.326L190.03 127.402C190.506 127.224 190.935 126.991 191.318 126.702C191.71 126.403 192.046 126.062 192.326 125.68C192.615 125.297 192.835 124.882 192.984 124.434C193.133 123.986 193.208 123.528 193.208 123.062V121.83ZM193.418 121.83H194.384V123.062C194.384 123.519 194.459 123.958 194.608 124.378C194.767 124.798 194.986 125.19 195.266 125.554C195.546 125.918 195.877 126.24 196.26 126.52C196.652 126.8 197.081 127.019 197.548 127.178L196.974 128.102C196.274 127.84 195.653 127.467 195.112 126.982C194.58 126.487 194.165 125.904 193.866 125.232C193.567 124.56 193.418 123.836 193.418 123.062V121.83ZM191.836 129.488H200.292V133.898H199.13V130.44H191.836V129.488ZM199.13 121.228H200.292V128.844H199.13V121.228ZM208.229 121.452C209.629 121.452 210.721 121.643 211.505 122.026C212.289 122.399 212.681 122.936 212.681 123.636C212.681 124.345 212.289 124.891 211.505 125.274C210.721 125.647 209.629 125.834 208.229 125.834C206.838 125.834 205.746 125.647 204.953 125.274C204.169 124.891 203.777 124.345 203.777 123.636C203.777 122.936 204.169 122.399 204.953 122.026C205.746 121.643 206.838 121.452 208.229 121.452ZM208.229 122.32C207.548 122.32 206.964 122.371 206.479 122.474C205.994 122.576 205.62 122.726 205.359 122.922C205.107 123.118 204.981 123.356 204.981 123.636C204.981 123.916 205.107 124.158 205.359 124.364C205.62 124.56 205.994 124.709 206.479 124.812C206.964 124.905 207.548 124.952 208.229 124.952C208.92 124.952 209.508 124.905 209.993 124.812C210.478 124.709 210.847 124.56 211.099 124.364C211.36 124.158 211.491 123.916 211.491 123.636C211.491 123.356 211.36 123.118 211.099 122.922C210.847 122.726 210.478 122.576 209.993 122.474C209.508 122.371 208.92 122.32 208.229 122.32ZM202.517 126.688H213.955V127.626H202.517V126.688ZM203.903 128.704H212.485V131.56H205.065V133.086H203.931V130.706H211.351V129.6H203.903V128.704ZM203.931 132.848H212.863V133.758H203.931V132.848ZM228.405 121.228H229.511V133.898H228.405V121.228ZM223.785 125.778H226.221V126.73H223.785V125.778ZM225.871 121.522H226.963V133.24H225.871V121.522ZM221.363 123.202H222.259V124.812C222.259 125.502 222.194 126.179 222.063 126.842C221.933 127.495 221.741 128.111 221.489 128.69C221.237 129.259 220.929 129.777 220.565 130.244C220.201 130.701 219.791 131.074 219.333 131.364L218.619 130.496C219.207 130.141 219.702 129.665 220.103 129.068C220.514 128.47 220.827 127.803 221.041 127.066C221.256 126.328 221.363 125.577 221.363 124.812V123.202ZM221.601 123.202H222.483V124.812C222.483 125.54 222.586 126.254 222.791 126.954C223.006 127.654 223.309 128.288 223.701 128.858C224.103 129.418 224.593 129.866 225.171 130.202L224.471 131.07C223.855 130.687 223.333 130.178 222.903 129.544C222.483 128.9 222.161 128.172 221.937 127.36C221.713 126.538 221.601 125.689 221.601 124.812V123.202ZM218.969 122.712H224.751V123.664H218.969V122.712ZM237.042 129.222C237.948 129.222 238.727 129.315 239.38 129.502C240.043 129.688 240.552 129.954 240.906 130.3C241.27 130.645 241.452 131.065 241.452 131.56C241.452 132.036 241.27 132.451 240.906 132.806C240.552 133.151 240.043 133.412 239.38 133.59C238.727 133.776 237.948 133.87 237.042 133.87C236.146 133.87 235.367 133.776 234.704 133.59C234.042 133.412 233.533 133.151 233.178 132.806C232.824 132.451 232.646 132.036 232.646 131.56C232.646 131.065 232.824 130.645 233.178 130.3C233.533 129.954 234.042 129.688 234.704 129.502C235.367 129.315 236.146 129.222 237.042 129.222ZM237.042 130.118C236.38 130.118 235.806 130.178 235.32 130.3C234.835 130.412 234.457 130.575 234.186 130.79C233.925 131.004 233.794 131.261 233.794 131.56C233.794 131.84 233.925 132.087 234.186 132.302C234.457 132.516 234.835 132.68 235.32 132.792C235.806 132.904 236.38 132.96 237.042 132.96C237.714 132.96 238.293 132.904 238.778 132.792C239.264 132.68 239.637 132.516 239.898 132.302C240.169 132.087 240.304 131.84 240.304 131.56C240.304 131.261 240.169 131.004 239.898 130.79C239.637 130.575 239.264 130.412 238.778 130.3C238.293 130.178 237.714 130.118 237.042 130.118ZM232.73 121.872H240.878V122.81H232.73V121.872ZM231.386 127.122H242.796V128.074H231.386V127.122ZM236.076 124.686H237.224V127.402H236.076V124.686ZM240.206 121.872H241.354V122.936C241.354 123.449 241.34 123.976 241.312 124.518C241.284 125.05 241.182 125.642 241.004 126.296L239.87 126.17C240.038 125.516 240.136 124.938 240.164 124.434C240.192 123.93 240.206 123.43 240.206 122.936V121.872ZM243.943 123.398H250.229V124.35H243.943V123.398ZM247.093 125.19C247.625 125.19 248.092 125.311 248.493 125.554C248.904 125.796 249.226 126.137 249.459 126.576C249.692 127.005 249.809 127.504 249.809 128.074C249.809 128.643 249.692 129.147 249.459 129.586C249.226 130.015 248.904 130.356 248.493 130.608C248.092 130.85 247.625 130.972 247.093 130.972C246.57 130.972 246.104 130.85 245.693 130.608C245.282 130.356 244.96 130.015 244.727 129.586C244.494 129.147 244.377 128.643 244.377 128.074C244.377 127.504 244.494 127.005 244.727 126.576C244.96 126.146 245.282 125.81 245.693 125.568C246.104 125.316 246.57 125.19 247.093 125.19ZM247.093 126.17C246.776 126.17 246.486 126.254 246.225 126.422C245.973 126.58 245.772 126.804 245.623 127.094C245.483 127.374 245.413 127.7 245.413 128.074C245.413 128.447 245.483 128.778 245.623 129.068C245.772 129.357 245.973 129.581 246.225 129.74C246.486 129.898 246.776 129.978 247.093 129.978C247.42 129.978 247.709 129.898 247.961 129.74C248.213 129.581 248.409 129.357 248.549 129.068C248.698 128.778 248.773 128.447 248.773 128.074C248.773 127.7 248.698 127.374 248.549 127.094C248.409 126.804 248.213 126.58 247.961 126.422C247.709 126.254 247.42 126.17 247.093 126.17ZM253.575 121.228H254.681V133.898H253.575V121.228ZM251.545 126.562H253.939V127.514H251.545V126.562ZM250.859 121.522H251.951V133.282H250.859V121.522ZM246.519 121.606H247.667V123.972H246.519V121.606ZM259.384 127.752H260.532V131.532H259.384V127.752ZM264.06 127.752H265.222V131.532H264.06V127.752ZM256.57 131.308H268.05V132.274H256.57V131.308ZM262.282 122.026C263.178 122.026 263.971 122.161 264.662 122.432C265.353 122.702 265.894 123.08 266.286 123.566C266.687 124.051 266.888 124.625 266.888 125.288C266.888 125.941 266.687 126.515 266.286 127.01C265.894 127.495 265.353 127.873 264.662 128.144C263.971 128.405 263.178 128.536 262.282 128.536C261.395 128.536 260.602 128.405 259.902 128.144C259.211 127.873 258.67 127.495 258.278 127.01C257.886 126.515 257.69 125.941 257.69 125.288C257.69 124.625 257.886 124.051 258.278 123.566C258.67 123.08 259.211 122.702 259.902 122.432C260.602 122.161 261.395 122.026 262.282 122.026ZM262.282 122.95C261.61 122.95 261.013 123.048 260.49 123.244C259.967 123.44 259.557 123.715 259.258 124.07C258.959 124.415 258.81 124.821 258.81 125.288C258.81 125.754 258.959 126.165 259.258 126.52C259.557 126.865 259.967 127.136 260.49 127.332C261.013 127.528 261.61 127.626 262.282 127.626C262.963 127.626 263.565 127.528 264.088 127.332C264.611 127.136 265.021 126.865 265.32 126.52C265.619 126.165 265.768 125.754 265.768 125.288C265.768 124.821 265.619 124.415 265.32 124.07C265.021 123.715 264.611 123.44 264.088 123.244C263.565 123.048 262.963 122.95 262.282 122.95ZM270.398 132.885C270.153 132.885 269.942 132.797 269.766 132.622C269.591 132.446 269.503 132.236 269.503 131.99C269.503 131.745 269.591 131.535 269.766 131.359C269.942 131.183 270.153 131.095 270.398 131.095C270.643 131.095 270.854 131.183 271.029 131.359C271.205 131.535 271.293 131.745 271.293 131.99C271.293 132.153 271.251 132.302 271.168 132.438C271.089 132.574 270.981 132.683 270.845 132.766C270.713 132.845 270.564 132.885 270.398 132.885Z" fill="#8E8E93"/>
<path d="M294.282 255.391H289.6L287.941 253.791C293.748 247.036 297.244 238.266 297.244 228.726C297.244 207.453 280.001 190.209 258.728 190.209C237.455 190.209 220.211 207.453 220.211 228.726C220.211 249.999 237.455 267.242 258.728 267.242C268.268 267.242 277.038 263.746 283.793 257.939L285.393 259.598V264.28L315.021 293.849L323.851 285.019L294.282 255.391ZM258.728 255.391C243.973 255.391 232.062 243.481 232.062 228.726C232.062 213.971 243.973 202.06 258.728 202.06C273.483 202.06 285.393 213.971 285.393 228.726C285.393 243.481 273.483 255.391 258.728 255.391Z" fill="#6AB9F2"/>
</g>
<defs>
<filter id="filter0_bd_174_230" x="-52" y="-52" width="500" height="440" filterUnits="userSpaceOnUse" color-interpolation-filters="sRGB">
<feFlood flood-opacity="0" result="BackgroundImageFix"/>
<feGaussianBlur in="BackgroundImageFix" stdDeviation="30"/>
<feComposite in2="SourceAlpha" operator="in" result="effect1_backgroundBlur_174_230"/>
<feColorMatrix in="SourceAlpha" type="matrix" values="0 0 0 0 0 0 0 0 0 0 0 0 0 0 0 0 0 0 127 0" result="hardAlpha"/>
<feOffset/>
<feGaussianBlur stdDeviation="4"/>
<feComposite in2="hardAlpha" operator="out"/>
<feColorMatrix type="matrix" values="0 0 0 0 0.415724 0 0 0 0 0.724651 0 0 0 0 0.948356 0 0 0 0.3 0"/>
<feBlend mode="normal" in2="effect1_backgroundBlur_174_230" result="effect2_dropShadow_174_230"/>
<feBlend mode="normal" in="SourceGraphic" in2="effect2_dropShadow_174_230" result="shape"/>
</filter>
</defs>
</svg>
