<svg width="494" height="120" viewBox="0 0 494 120" fill="none" xmlns="http://www.w3.org/2000/svg">
<path d="M41.5956 42.52L32.8756 80.44C27.7556 81.24 25.0356 81.48 21.5156 81.48C8.79563 81.48 2.47563 76.44 2.47563 66.44C2.47563 58.2 6.87563 50.92 14.4756 46.52C19.7556 43.48 25.9156 42.04 33.7556 42.04C36.3956 42.04 38.7956 42.2 41.5956 42.52ZM23.1956 72.12L27.9956 51.88C27.9156 51.88 27.8356 51.88 27.7556 51.88L27.0356 51.8C20.3156 51.56 14.3956 57.96 14.3956 65.56C14.3956 69.88 16.4756 72.04 20.7156 72.04C21.5156 72.04 21.9956 72.04 23.1956 72.12Z" fill="#7A89F0"/>
<path d="M42.6631 81L55.3831 21H67.5431L54.7431 81H42.6631ZM60.8337 100.84L73.1538 42.84C77.1538 42.2 80.6738 41.88 84.4338 41.88C97.2338 41.88 104.354 48.28 104.354 59.8C104.354 72.76 95.6338 81.48 82.6738 81.48C80.7538 81.48 79.3938 81.32 77.1538 80.92L72.9138 100.84H60.8337ZM83.3138 51.64L79.1538 71.4C80.5138 71.96 81.2338 72.04 82.5138 72.04C88.4338 72.04 92.4338 67 92.4338 59.32C92.4338 54.12 89.9538 51.32 85.4738 51.32C84.7538 51.32 84.1938 51.32 83.3138 51.64ZM107.254 81L119.974 21H132.134L127.414 43.24C130.614 41.88 132.534 41.48 135.334 41.48C142.374 41.48 146.694 45.48 146.694 52.12C146.694 53.96 146.454 55.96 146.054 57.88L141.174 81H129.094L134.294 56.52C134.614 55.8 134.774 55 134.774 54.36C134.774 52.28 133.094 51.16 130.374 51.16C128.694 51.16 127.494 51.4 125.494 52.2L119.334 81H107.254ZM190.777 42.52L182.057 80.44C176.937 81.24 174.217 81.48 170.697 81.48C157.977 81.48 151.657 76.44 151.657 66.44C151.657 58.2 156.057 50.92 163.657 46.52C168.937 43.48 175.097 42.04 182.937 42.04C185.577 42.04 187.977 42.2 190.777 42.52ZM172.377 72.12L177.177 51.88C177.097 51.88 177.017 51.88 176.937 51.88L176.217 51.8C169.497 51.56 163.577 57.96 163.577 65.56C163.577 69.88 165.657 72.04 169.897 72.04C170.697 72.04 171.177 72.04 172.377 72.12Z" fill="#3C3C3F"/>
<path d="M200.836 81L208.756 43.8C214.436 42.2 219.156 41.48 223.876 41.48C228.436 41.48 231.556 42.28 234.676 44.2C239.476 42.28 243.236 41.48 247.716 41.48C256.196 41.48 261.316 45.16 261.316 51.32C261.316 53 261.076 54.84 260.676 56.68L255.556 81H243.396L248.676 56.2C248.756 55.48 248.836 54.68 248.836 54.12C248.836 52.04 247.396 50.92 244.676 50.92C243.076 50.92 241.716 51.24 240.116 51.88C240.116 52.28 240.116 52.52 240.116 52.76C240.116 53.64 239.956 55.16 239.796 56.04L234.436 81H222.356L227.636 56.28C227.636 55.48 227.636 54.76 227.636 54.2C227.636 52.04 226.196 50.92 223.316 50.92C222.036 50.92 220.836 51.08 219.156 51.64L212.916 81H200.836ZM306.053 81L314.373 42.04H326.453L318.133 81H306.053ZM315.653 35.88L318.373 23.24H330.453L327.733 35.88H315.653ZM328.233 81L340.953 21H353.113L340.313 81H328.233Z" fill="#3C3C3F"/>
<path d="M305.066 42.52L296.346 80.44C291.226 81.24 288.506 81.48 284.986 81.48C272.266 81.48 265.946 76.44 265.946 66.44C265.946 58.2 270.346 50.92 277.946 46.52C283.226 43.48 289.386 42.04 297.226 42.04C299.866 42.04 302.266 42.2 305.066 42.52ZM286.666 72.12L291.466 51.88C291.386 51.88 291.306 51.88 291.226 51.88L290.506 51.8C283.786 51.56 277.866 57.96 277.866 65.56C277.866 69.88 279.946 72.04 284.186 72.04C284.986 72.04 285.466 72.04 286.666 72.12Z" fill="#6AB9F2"/>
<path d="M364.88 61.656H367.496V63.072C367.496 64.48 367.272 65.808 366.824 67.056C366.376 68.288 365.688 69.36 364.76 70.272C363.832 71.168 362.648 71.848 361.208 72.312L359.672 69.768C360.904 69.384 361.904 68.848 362.672 68.16C363.44 67.472 364 66.696 364.352 65.832C364.704 64.952 364.88 64.032 364.88 63.072V61.656ZM365.528 61.656H368.12V63C368.12 63.912 368.288 64.784 368.624 65.616C368.976 66.432 369.52 67.16 370.256 67.8C371.008 68.424 371.968 68.912 373.136 69.264L371.552 71.736C370.176 71.304 369.04 70.664 368.144 69.816C367.264 68.968 366.608 67.96 366.176 66.792C365.744 65.624 365.528 64.36 365.528 63V61.656ZM374.264 60.912H377.456V72.312H374.264V60.912ZM376.184 65.232H380.384V67.824H376.184V65.232ZM362.792 73.152H377.456V79.176H365.984V81.864H362.816V76.848H374.312V75.624H362.792V73.152ZM362.816 80.496H378.104V82.992H362.816V80.496ZM382.038 62.76H394.206V65.328H382.038V62.76ZM381.798 78.24L381.486 75.672C382.75 75.672 384.134 75.664 385.638 75.648C387.158 75.616 388.702 75.56 390.27 75.48C391.854 75.4 393.358 75.28 394.782 75.12L394.95 77.424C393.478 77.664 391.974 77.848 390.438 77.976C388.902 78.104 387.39 78.184 385.902 78.216C384.43 78.232 383.062 78.24 381.798 78.24ZM383.886 64.944H386.982V76.152H383.886V64.944ZM389.166 64.944H392.262V76.152H389.166V64.944ZM397.038 60.912H400.23V83.136H397.038V60.912ZM393.894 66.432H399.462V68.952H393.894V66.432ZM393.894 71.328H399.462V73.872H393.894V71.328ZM403.18 77.952H423.316V80.544H403.18V77.952ZM411.628 73.2H414.796V78.576H411.628V73.2ZM405.292 62.304H408.484V65.736H417.94V62.304H421.108V73.872H405.292V62.304ZM408.484 68.232V71.328H417.94V68.232H408.484ZM440.09 60.888H443.282V83.112H440.09V60.888ZM433.538 63.192H436.682C436.682 64.888 436.514 66.512 436.178 68.064C435.858 69.6 435.314 71.048 434.546 72.408C433.794 73.768 432.754 75.032 431.426 76.2C430.114 77.352 428.474 78.408 426.506 79.368L424.826 76.848C426.97 75.808 428.674 74.664 429.938 73.416C431.218 72.152 432.138 70.728 432.698 69.144C433.258 67.544 433.538 65.752 433.538 63.768V63.192ZM426.026 63.192H435.026V65.736H426.026V63.192Z" fill="#6F6F71"/>
</svg>
