<svg width="133" height="34" viewBox="0 0 133 34" fill="none" xmlns="http://www.w3.org/2000/svg">
<mask id="path-1-inside-1_413_419" fill="white">
<path fill-rule="evenodd" clip-rule="evenodd" d="M6 0C2.68629 0 0 2.68629 0 6V20C0 23.3137 2.68629 26 6 26H28.2265L34 34L39.7735 26H126C129.314 26 132 23.3137 132 20V6C132 2.68629 129.314 0 126 0H6Z"/>
</mask>
<path fill-rule="evenodd" clip-rule="evenodd" d="M6 0C2.68629 0 0 2.68629 0 6V20C0 23.3137 2.68629 26 6 26H28.2265L34 34L39.7735 26H126C129.314 26 132 23.3137 132 20V6C132 2.68629 129.314 0 126 0H6Z" fill="#3C3C3F"/>
<path d="M28.2265 26L29.0374 25.4148L28.738 25H28.2265V26ZM34 34L33.1891 34.5852L34 35.7088L34.8109 34.5852L34 34ZM39.7735 26V25H39.262L38.9626 25.4148L39.7735 26ZM1 6C1 3.23858 3.23858 1 6 1V-1C2.13401 -1 -1 2.13401 -1 6H1ZM1 20V6H-1V20H1ZM6 25C3.23858 25 1 22.7614 1 20H-1C-1 23.866 2.13401 27 6 27V25ZM28.2265 25H6V27H28.2265V25ZM27.4156 26.5852L33.1891 34.5852L34.8109 33.4148L29.0374 25.4148L27.4156 26.5852ZM34.8109 34.5852L40.5844 26.5852L38.9626 25.4148L33.1891 33.4148L34.8109 34.5852ZM126 25H39.7735V27H126V25ZM131 20C131 22.7614 128.761 25 126 25V27C129.866 27 133 23.866 133 20H131ZM131 6V20H133V6H131ZM126 1C128.761 1 131 3.23858 131 6H133C133 2.13401 129.866 -1 126 -1V1ZM6 1H126V-1H6V1Z" fill="url(#paint0_linear_413_419)" mask="url(#path-1-inside-1_413_419)"/>
<path d="M14.4 9.58H15.05V11.31C15.05 11.7833 15 12.2467 14.9 12.7C14.8 13.1467 14.66 13.57 14.48 13.97C14.3 14.37 14.0767 14.73 13.81 15.05C13.55 15.3633 13.2567 15.62 12.93 15.82L12.4 15.21C12.7133 15.0233 12.99 14.79 13.23 14.51C13.4767 14.23 13.6867 13.9167 13.86 13.57C14.04 13.2167 14.1733 12.85 14.26 12.47C14.3533 12.0833 14.4 11.6967 14.4 11.31V9.58ZM14.54 9.58H15.2V11.26C15.2 11.6333 15.24 12.0033 15.32 12.37C15.4067 12.7367 15.53 13.0833 15.69 13.41C15.8567 13.7367 16.0567 14.0333 16.29 14.3C16.5233 14.5667 16.79 14.78 17.09 14.94L16.59 15.59C16.2633 15.4033 15.97 15.16 15.71 14.86C15.4567 14.5533 15.2433 14.2067 15.07 13.82C14.8967 13.4333 14.7633 13.0233 14.67 12.59C14.5833 12.1567 14.54 11.7133 14.54 11.26V9.58ZM19.39 8.73H20.19V17.78H19.39V8.73ZM17.95 12.37H19.69V13.05H17.95V12.37ZM17.4 8.92H18.19V17.32H17.4V8.92ZM21.4492 15.97H29.6492V16.66H21.4492V15.97ZM25.1192 14.04H25.9392V16.26H25.1192V14.04ZM22.4492 9.4H28.6292V12.14H23.2892V13.95H22.4692V11.48H27.8092V10.08H22.4492V9.4ZM22.4692 13.6H28.8392V14.28H22.4692V13.6ZM30.3884 13.32H38.5884V14H30.3884V13.32ZM34.1384 13.75H34.9784V15.83H34.1384V13.75ZM31.4384 16.89H37.6784V17.58H31.4384V16.89ZM31.4384 14.94H32.2684V17.08H31.4384V14.94ZM34.4784 8.96C35.1184 8.96 35.6751 9.03333 36.1484 9.18C36.6218 9.32667 36.9884 9.53667 37.2484 9.81C37.5151 10.0767 37.6484 10.4 37.6484 10.78C37.6484 11.1467 37.5151 11.4667 37.2484 11.74C36.9884 12.0133 36.6218 12.2233 36.1484 12.37C35.6751 12.5167 35.1184 12.59 34.4784 12.59C33.8451 12.59 33.2884 12.5167 32.8084 12.37C32.3351 12.2233 31.9651 12.0133 31.6984 11.74C31.4384 11.4667 31.3084 11.1467 31.3084 10.78C31.3084 10.4 31.4384 10.0767 31.6984 9.81C31.9651 9.53667 32.3351 9.32667 32.8084 9.18C33.2884 9.03333 33.8451 8.96 34.4784 8.96ZM34.4784 9.63C34.0251 9.63 33.6251 9.67667 33.2784 9.77C32.9318 9.86333 32.6618 9.99667 32.4684 10.17C32.2818 10.3367 32.1884 10.54 32.1884 10.78C32.1884 11.0133 32.2818 11.2167 32.4684 11.39C32.6618 11.5567 32.9318 11.6867 33.2784 11.78C33.6251 11.8667 34.0251 11.91 34.4784 11.91C34.9451 11.91 35.3484 11.8667 35.6884 11.78C36.0284 11.6867 36.2918 11.5567 36.4784 11.39C36.6718 11.2167 36.7684 11.0133 36.7684 10.78C36.7684 10.54 36.6718 10.3367 36.4784 10.17C36.2918 9.99667 36.0284 9.86333 35.6884 9.77C35.3484 9.67667 34.9451 9.63 34.4784 9.63ZM45.5102 10.92H47.2802V11.6H45.5102V10.92ZM45.5102 13.67H47.2802V14.36H45.5102V13.67ZM48.8002 8.73H49.6002V17.78H48.8002V8.73ZM47.0202 8.92H47.8102V17.32H47.0202V8.92ZM43.9402 9.49C44.3335 9.49 44.6735 9.61667 44.9602 9.87C45.2535 10.1233 45.4802 10.4867 45.6402 10.96C45.8002 11.4333 45.8802 11.99 45.8802 12.63C45.8802 13.2767 45.8002 13.8367 45.6402 14.31C45.4802 14.7833 45.2535 15.15 44.9602 15.41C44.6735 15.6633 44.3335 15.79 43.9402 15.79C43.5602 15.79 43.2235 15.6633 42.9302 15.41C42.6435 15.15 42.4202 14.7833 42.2602 14.31C42.1002 13.8367 42.0202 13.2767 42.0202 12.63C42.0202 11.99 42.1002 11.4333 42.2602 10.96C42.4202 10.4867 42.6435 10.1233 42.9302 9.87C43.2235 9.61667 43.5602 9.49 43.9402 9.49ZM43.9402 10.26C43.7068 10.26 43.5002 10.3567 43.3202 10.55C43.1468 10.7433 43.0135 11.0167 42.9202 11.37C42.8268 11.7233 42.7802 12.1433 42.7802 12.63C42.7802 13.1167 42.8268 13.54 42.9202 13.9C43.0135 14.2533 43.1468 14.5267 43.3202 14.72C43.5002 14.9133 43.7068 15.01 43.9402 15.01C44.1868 15.01 44.3968 14.9133 44.5702 14.72C44.7435 14.5267 44.8768 14.2533 44.9702 13.9C45.0702 13.54 45.1202 13.1167 45.1202 12.63C45.1202 12.1433 45.0702 11.7233 44.9702 11.37C44.8768 11.0167 44.7435 10.7433 44.5702 10.55C44.3968 10.3567 44.1868 10.26 43.9402 10.26ZM53.2394 9.51H53.9294V11.13C53.9294 11.65 53.8627 12.1567 53.7294 12.65C53.6027 13.1367 53.4194 13.5933 53.1794 14.02C52.946 14.44 52.6694 14.8133 52.3494 15.14C52.036 15.46 51.6927 15.7133 51.3194 15.9L50.8094 15.21C51.1494 15.0567 51.466 14.8367 51.7594 14.55C52.0527 14.2633 52.3094 13.94 52.5294 13.58C52.7494 13.2133 52.9227 12.82 53.0494 12.4C53.176 11.98 53.2394 11.5567 53.2394 11.13V9.51ZM53.3794 9.51H54.0694V11.13C54.0694 11.5433 54.1294 11.95 54.2494 12.35C54.376 12.75 54.5494 13.13 54.7694 13.49C54.996 13.8433 55.2527 14.1567 55.5394 14.43C55.8327 14.6967 56.146 14.9067 56.4794 15.06L55.9794 15.72C55.6127 15.5467 55.2727 15.3033 54.9594 14.99C54.646 14.6767 54.3694 14.3167 54.1294 13.91C53.896 13.5033 53.7127 13.0633 53.5794 12.59C53.446 12.1167 53.3794 11.63 53.3794 11.13V9.51ZM57.4294 8.73H58.2594V17.79H57.4294V8.73ZM59.7986 12.93H67.9986V13.57H59.7986V12.93ZM60.7786 14.29H66.9786V16.22H61.6186V17.28H60.7986V15.65H66.1586V14.89H60.7786V14.29ZM60.7986 17.06H67.2686V17.66H60.7986V17.06ZM60.8386 9H66.9486V10.88H61.6786V11.86H60.8586V10.32H66.1286V9.59H60.8386V9ZM60.8586 11.66H67.1086V12.26H60.8586V11.66ZM72.4003 8.87H73.2203V9.72H77.6003V8.87H78.4203V11.86H72.4003V8.87ZM73.2203 10.35V11.21H77.6003V10.35H73.2203ZM71.3203 12.73H79.4903V13.4H71.3203V12.73ZM74.9803 11.55H75.8003V12.94H74.9803V11.55ZM72.3103 14.14H78.4403V16.16H73.1403V17.27H72.3303V15.56H77.6303V14.77H72.3103V14.14ZM72.3303 17.03H78.7103V17.68H72.3303V17.03ZM86.492 9.05H87.222V9.56C87.222 9.90667 87.1554 10.2333 87.022 10.54C86.8887 10.84 86.7054 11.1167 86.472 11.37C86.2454 11.6233 85.9787 11.85 85.672 12.05C85.3654 12.25 85.032 12.4167 84.672 12.55C84.3187 12.6833 83.9554 12.78 83.582 12.84L83.242 12.17C83.5754 12.1233 83.8987 12.0433 84.212 11.93C84.532 11.8167 84.8287 11.68 85.102 11.52C85.3754 11.3533 85.6154 11.1667 85.822 10.96C86.0354 10.7533 86.1987 10.5333 86.312 10.3C86.432 10.06 86.492 9.81333 86.492 9.56V9.05ZM86.632 9.05H87.352V9.56C87.352 9.81333 87.412 10.0567 87.532 10.29C87.652 10.5233 87.8154 10.7433 88.022 10.95C88.2354 11.1567 88.4787 11.3433 88.752 11.51C89.0254 11.6767 89.3187 11.8167 89.632 11.93C89.952 12.0433 90.2754 12.1233 90.602 12.17L90.272 12.84C89.8987 12.78 89.5354 12.6833 89.182 12.55C88.8287 12.41 88.4954 12.24 88.182 12.04C87.8754 11.84 87.6054 11.6133 87.372 11.36C87.1454 11.1067 86.9654 10.83 86.832 10.53C86.6987 10.2233 86.632 9.9 86.632 9.56V9.05ZM86.492 14.34H87.312V17.78H86.492V14.34ZM82.832 13.82H91.002V14.51H82.832V13.82ZM96.5938 14.3H97.2438V14.78C97.2438 15.1733 97.1638 15.56 97.0038 15.94C96.8438 16.32 96.6104 16.66 96.3038 16.96C96.0038 17.26 95.6338 17.49 95.1938 17.65L94.7838 17.04C95.1638 16.9 95.4871 16.7067 95.7538 16.46C96.0271 16.2133 96.2338 15.9467 96.3738 15.66C96.5204 15.3667 96.5938 15.0733 96.5938 14.78V14.3ZM96.7837 14.3H97.3938V14.78C97.3938 15.0867 97.4538 15.39 97.5738 15.69C97.6938 15.99 97.8738 16.2633 98.1138 16.51C98.3604 16.7567 98.6604 16.9533 99.0138 17.1L98.6738 17.73C98.2338 17.5567 97.8738 17.3167 97.5938 17.01C97.3204 16.7033 97.1171 16.3567 96.9838 15.97C96.8504 15.5767 96.7837 15.18 96.7837 14.78V14.3ZM99.9438 14.3H100.554V14.78C100.554 15.1333 100.484 15.5033 100.344 15.89C100.21 16.2767 100.004 16.6367 99.7237 16.97C99.4504 17.2967 99.1004 17.55 98.6738 17.73L98.3138 17.1C98.6738 16.9333 98.9738 16.72 99.2138 16.46C99.4538 16.1933 99.6338 15.9133 99.7538 15.62C99.8804 15.32 99.9438 15.04 99.9438 14.78V14.3ZM100.104 14.3H100.754V14.78C100.754 15.0933 100.824 15.3967 100.964 15.69C101.11 15.9833 101.317 16.25 101.584 16.49C101.857 16.7233 102.184 16.9067 102.564 17.04L102.154 17.65C101.714 17.49 101.34 17.2667 101.034 16.98C100.727 16.6867 100.494 16.3533 100.334 15.98C100.18 15.6 100.104 15.2 100.104 14.78V14.3ZM100.924 8.74H101.754V13.9H100.924V8.74ZM96.9038 9.26C97.3638 9.26 97.7704 9.35 98.1238 9.53C98.4771 9.71 98.7538 9.96 98.9538 10.28C99.1604 10.5933 99.2638 10.96 99.2638 11.38C99.2638 11.7933 99.1604 12.1567 98.9538 12.47C98.7538 12.7833 98.4771 13.03 98.1238 13.21C97.7704 13.39 97.3638 13.48 96.9038 13.48C96.4504 13.48 96.0438 13.39 95.6838 13.21C95.3304 13.03 95.0504 12.7833 94.8438 12.47C94.6438 12.1567 94.5438 11.7933 94.5438 11.38C94.5438 10.96 94.6438 10.5933 94.8438 10.28C95.0504 9.96 95.3304 9.71 95.6838 9.53C96.0438 9.35 96.4504 9.26 96.9038 9.26ZM96.9038 9.96C96.6104 9.96 96.3471 10.02 96.1138 10.14C95.8804 10.26 95.6938 10.4267 95.5538 10.64C95.4204 10.8467 95.3538 11.0933 95.3538 11.38C95.3538 11.66 95.4204 11.9067 95.5538 12.12C95.6938 12.3267 95.8804 12.49 96.1138 12.61C96.3471 12.73 96.6104 12.79 96.9038 12.79C97.2038 12.79 97.4704 12.73 97.7038 12.61C97.9371 12.49 98.1204 12.3267 98.2538 12.12C98.3871 11.9067 98.4538 11.66 98.4538 11.38C98.4538 11.0933 98.3871 10.8467 98.2538 10.64C98.1204 10.4267 97.9371 10.26 97.7038 10.14C97.4704 10.02 97.2038 9.96 96.9038 9.96ZM105.703 9.43C106.143 9.43 106.533 9.56 106.873 9.82C107.213 10.0733 107.476 10.4367 107.663 10.91C107.856 11.3833 107.953 11.94 107.953 12.58C107.953 13.22 107.856 13.7767 107.663 14.25C107.476 14.7233 107.213 15.09 106.873 15.35C106.533 15.61 106.143 15.74 105.703 15.74C105.27 15.74 104.88 15.61 104.533 15.35C104.193 15.09 103.926 14.7233 103.733 14.25C103.546 13.7767 103.453 13.22 103.453 12.58C103.453 11.94 103.546 11.3833 103.733 10.91C103.926 10.4367 104.193 10.0733 104.533 9.82C104.88 9.56 105.27 9.43 105.703 9.43ZM105.703 10.17C105.416 10.17 105.163 10.27 104.943 10.47C104.723 10.6633 104.55 10.9433 104.423 11.31C104.303 11.67 104.243 12.0933 104.243 12.58C104.243 13.0667 104.303 13.4933 104.423 13.86C104.55 14.22 104.723 14.5 104.943 14.7C105.163 14.9 105.416 15 105.703 15C105.996 15 106.253 14.9 106.473 14.7C106.693 14.5 106.863 14.22 106.983 13.86C107.11 13.4933 107.173 13.0667 107.173 12.58C107.173 12.0933 107.11 11.67 106.983 11.31C106.863 10.9433 106.693 10.6633 106.473 10.47C106.253 10.27 105.996 10.17 105.703 10.17ZM109.913 8.73H110.733V17.79H109.913V8.73ZM107.683 12.18H110.283V12.85H107.683V12.18ZM114.252 13.39H115.072V16.09H114.252V13.39ZM117.592 13.39H118.422V16.09H117.592V13.39ZM112.242 15.93H120.442V16.62H112.242V15.93ZM116.322 9.3C116.962 9.3 117.529 9.39667 118.022 9.59C118.516 9.78333 118.902 10.0533 119.182 10.4C119.469 10.7467 119.612 11.1567 119.612 11.63C119.612 12.0967 119.469 12.5067 119.182 12.86C118.902 13.2067 118.516 13.4767 118.022 13.67C117.529 13.8567 116.962 13.95 116.322 13.95C115.689 13.95 115.122 13.8567 114.622 13.67C114.129 13.4767 113.742 13.2067 113.462 12.86C113.182 12.5067 113.042 12.0967 113.042 11.63C113.042 11.1567 113.182 10.7467 113.462 10.4C113.742 10.0533 114.129 9.78333 114.622 9.59C115.122 9.39667 115.689 9.3 116.322 9.3ZM116.322 9.96C115.842 9.96 115.416 10.03 115.042 10.17C114.669 10.31 114.376 10.5067 114.162 10.76C113.949 11.0067 113.842 11.2967 113.842 11.63C113.842 11.9633 113.949 12.2567 114.162 12.51C114.376 12.7567 114.669 12.95 115.042 13.09C115.416 13.23 115.842 13.3 116.322 13.3C116.809 13.3 117.239 13.23 117.612 13.09C117.986 12.95 118.279 12.7567 118.492 12.51C118.706 12.2567 118.812 11.9633 118.812 11.63C118.812 11.2967 118.706 11.0067 118.492 10.76C118.279 10.5067 117.986 10.31 117.612 10.17C117.239 10.03 116.809 9.96 116.322 9.96Z" fill="white"/>
<defs>
<linearGradient id="paint0_linear_413_419" x1="0" y1="17" x2="174" y2="17" gradientUnits="userSpaceOnUse">
<stop stop-color="#6AB9F2"/>
<stop offset="1" stop-color="#7380EF"/>
</linearGradient>
</defs>
</svg>
