<svg width="21" height="20" viewBox="0 0 21 20" fill="none" xmlns="http://www.w3.org/2000/svg">
<path fill-rule="evenodd" clip-rule="evenodd" d="M20.1 10.2271C20.1 9.518 20.0364 8.83619 19.9182 8.18164H10.5V12.0498H15.8818C15.65 13.2998 14.9455 14.3589 13.8864 15.068V17.5771H17.1182C19.0091 15.8362 20.1 13.2726 20.1 10.2271Z" fill="#4285F4"/>
<path fill-rule="evenodd" clip-rule="evenodd" d="M10.4989 19.9999C13.1989 19.9999 15.4625 19.1044 17.117 17.5772L13.8852 15.0681C12.9898 15.6681 11.8443 16.0226 10.4989 16.0226C7.89432 16.0226 5.68977 14.2635 4.90341 11.8999H1.5625V14.4908C3.20795 17.759 6.58977 19.9999 10.4989 19.9999Z" fill="#34A853"/>
<path fill-rule="evenodd" clip-rule="evenodd" d="M4.90455 11.9002C4.70455 11.3002 4.59091 10.6593 4.59091 10.0002C4.59091 9.3411 4.70455 8.70019 4.90455 8.10019V5.50928H1.56364C0.886364 6.85928 0.5 8.38655 0.5 10.0002C0.5 11.6138 0.886364 13.1411 1.56364 14.4911L4.90455 11.9002Z" fill="#FBBC05"/>
<path fill-rule="evenodd" clip-rule="evenodd" d="M10.4989 3.97727C11.967 3.97727 13.2852 4.48182 14.3216 5.47273L17.1898 2.60455C15.458 0.990909 13.1943 0 10.4989 0C6.58977 0 3.20795 2.24091 1.5625 5.50909L4.90341 8.1C5.68977 5.73636 7.89432 3.97727 10.4989 3.97727Z" fill="#EA4335"/>
</svg>
