<svg width="174" height="35" viewBox="0 0 174 35" fill="none" xmlns="http://www.w3.org/2000/svg">
<rect width="174" height="35" fill="white"/>
<mask id="path-1-inside-1_192_59" fill="white">
<path fill-rule="evenodd" clip-rule="evenodd" d="M6 0C2.68629 0 0 2.68629 0 6V20C0 23.3137 2.68629 26 6 26H42.2265L48 34L53.7735 26H168C171.314 26 174 23.3137 174 20V6C174 2.68629 171.314 0 168 0H6Z"/>
</mask>
<path fill-rule="evenodd" clip-rule="evenodd" d="M6 0C2.68629 0 0 2.68629 0 6V20C0 23.3137 2.68629 26 6 26H42.2265L48 34L53.7735 26H168C171.314 26 174 23.3137 174 20V6C174 2.68629 171.314 0 168 0H6Z" fill="#3C3C3F"/>
<path d="M42.2265 26L43.0374 25.4148L42.738 25H42.2265V26ZM48 34L47.1891 34.5852L48 35.7088L48.8109 34.5852L48 34ZM53.7735 26V25H53.262L52.9626 25.4148L53.7735 26ZM1 6C1 3.23858 3.23858 1 6 1V-1C2.13401 -1 -1 2.13401 -1 6H1ZM1 20V6H-1V20H1ZM6 25C3.23858 25 1 22.7614 1 20H-1C-1 23.866 2.13401 27 6 27V25ZM42.2265 25H6V27H42.2265V25ZM41.4156 26.5852L47.1891 34.5852L48.8109 33.4148L43.0374 25.4148L41.4156 26.5852ZM48.8109 34.5852L54.5844 26.5852L52.9626 25.4148L47.1891 33.4148L48.8109 34.5852ZM168 25H53.7735V27H168V25ZM173 20C173 22.7614 170.761 25 168 25V27C171.866 27 175 23.866 175 20H173ZM173 6V20H175V6H173ZM168 1C170.761 1 173 3.23858 173 6H175C175 2.13401 171.866 -1 168 -1V1ZM6 1H168V-1H6V1Z" fill="url(#paint0_linear_192_59)" mask="url(#path-1-inside-1_192_59)"/>
<path d="M17.9 9.43C19.23 9.43 20.17 10.66 20.17 12.58C20.17 14.51 19.23 15.74 17.9 15.74C16.57 15.74 15.63 14.51 15.63 12.58C15.63 10.66 16.57 9.43 17.9 9.43ZM17.9 10.18C17.02 10.18 16.42 11.12 16.42 12.58C16.42 14.05 17.02 15.01 17.9 15.01C18.77 15.01 19.38 14.05 19.38 12.58C19.38 11.12 18.77 10.18 17.9 10.18ZM21.61 8.74H22.45V17.78H21.61V8.74ZM22.25 12.35H23.93V13.05H22.25V12.35ZM26.8492 9.67H27.5392V10.39C27.5392 12.05 26.5192 13.44 24.9992 13.98L24.5692 13.33C25.9292 12.85 26.8492 11.67 26.8492 10.39V9.67ZM27.0092 9.67H27.6992V10.39C27.6992 11.61 28.6392 12.71 29.9792 13.16L29.5492 13.81C28.0492 13.3 27.0092 11.97 27.0092 10.39V9.67ZM31.0192 8.74H31.8592V14.21H31.0192V8.74ZM25.8192 14.69H31.8592V17.78H31.0192V15.37H25.8192V14.69ZM24.7892 9.37H29.7392V10.04H24.7892V9.37ZM42.8209 8.74H43.6209V17.78H42.8209V8.74ZM41.3609 12.37H43.0909V13.05H41.3609V12.37ZM39.0209 9.9H39.8209C39.8209 12.23 39.0209 14.39 36.4409 15.84L35.9509 15.25C38.2209 13.98 39.0209 12.15 39.0209 10.06V9.9ZM36.3009 9.9H39.3009V10.59H36.3009V9.9ZM40.8109 8.98H41.6009V17.34H40.8109V8.98ZM45.2802 9.11H46.1002V10.41H48.6502V9.11H49.4602V13.06H45.2802V9.11ZM46.1002 11.06V12.39H48.6502V11.06H46.1002ZM51.0902 8.74H51.9202V13.4H51.0902V8.74ZM51.5602 10.68H53.2502V11.37H51.5602V10.68ZM46.1802 13.84H51.9202V16.03H47.0202V17.39H46.2002V15.41H51.1102V14.5H46.1802V13.84ZM46.2002 17.02H52.2502V17.68H46.2002V17.02ZM60.0819 13.26H60.9119V14.84H60.0819V13.26ZM56.4119 12.97H64.5819V13.64H56.4119V12.97ZM60.4919 14.59C62.4319 14.59 63.5919 15.16 63.5919 16.18C63.5919 17.19 62.4319 17.76 60.4919 17.76C58.5519 17.76 57.3919 17.19 57.3919 16.18C57.3919 15.16 58.5519 14.59 60.4919 14.59ZM60.4919 15.23C59.0819 15.23 58.2319 15.57 58.2319 16.18C58.2319 16.78 59.0819 17.12 60.4919 17.12C61.9119 17.12 62.7519 16.78 62.7519 16.18C62.7519 15.57 61.9119 15.23 60.4919 15.23ZM59.9619 9.48H60.7019V9.75C60.7019 11.21 59.0419 12.19 57.1719 12.42L56.8719 11.76C58.4919 11.59 59.9619 10.78 59.9619 9.75V9.48ZM60.3119 9.48H61.0419V9.75C61.0419 10.78 62.5119 11.59 64.1319 11.76L63.8319 12.42C61.9619 12.19 60.3119 11.21 60.3119 9.75V9.48ZM57.1619 9.15H63.8519V9.82H57.1619V9.15ZM66.2489 17.0568C66.0737 17.0568 65.9234 16.9941 65.7979 16.8686C65.6725 16.7431 65.6097 16.5928 65.6097 16.4176C65.6097 16.2424 65.6725 16.0921 65.7979 15.9666C65.9234 15.8411 66.0737 15.7784 66.2489 15.7784C66.4241 15.7784 66.5745 15.8411 66.6999 15.9666C66.8254 16.0921 66.8881 16.2424 66.8881 16.4176C66.8881 16.5336 66.8585 16.6402 66.7994 16.7372C66.7425 16.8343 66.6656 16.9124 66.5685 16.9716C66.4738 17.0284 66.3673 17.0568 66.2489 17.0568ZM68.7528 17.0568C68.5777 17.0568 68.4273 16.9941 68.3018 16.8686C68.1764 16.7431 68.1136 16.5928 68.1136 16.4176C68.1136 16.2424 68.1764 16.0921 68.3018 15.9666C68.4273 15.8411 68.5777 15.7784 68.7528 15.7784C68.928 15.7784 69.0784 15.8411 69.2038 15.9666C69.3293 16.0921 69.392 16.2424 69.392 16.4176C69.392 16.5336 69.3625 16.6402 69.3033 16.7372C69.2464 16.8343 69.1695 16.9124 69.0724 16.9716C68.9777 17.0284 68.8712 17.0568 68.7528 17.0568ZM72.9414 15.93H81.1314V16.62H72.9414V15.93ZM76.6214 13.74H77.4414V16.16H76.6214V13.74ZM76.6014 9.88H77.3014V10.44C77.3014 12.29 75.4514 13.69 73.6714 14.06L73.3314 13.4C74.8914 13.14 76.6014 11.87 76.6014 10.44V9.88ZM76.7514 9.88H77.4514V10.44C77.4514 11.87 79.1714 13.11 80.7514 13.37L80.4214 14.03C78.6114 13.67 76.7514 12.29 76.7514 10.44V9.88ZM73.6114 9.56H80.4414V10.24H73.6114V9.56ZM82.9306 9.21H88.7506V9.89H82.9306V9.21ZM81.8906 12.54H90.0806V13.22H81.8906V12.54ZM88.2106 9.21H89.0206V9.88C89.0206 10.65 89.0206 11.53 88.7206 12.78L87.9106 12.74C88.2106 11.5 88.2106 10.63 88.2106 9.88V9.21ZM82.8906 14.45H89.0506V17.66H82.8906V14.45ZM88.2406 15.11H83.7006V16.99H88.2406V15.11ZM91.2098 9.55H95.3598V13.74H91.2098V9.55ZM94.5498 10.22H92.0198V13.07H94.5498V10.22ZM97.0198 8.73H97.8498V15.36H97.0198V8.73ZM97.5898 11.49H99.1898V12.18H97.5898V11.49ZM92.2198 16.9H98.2598V17.58H92.2198V16.9ZM92.2198 14.73H93.0498V17.19H92.2198V14.73ZM108.932 8.74H109.762V17.78H108.932V8.74ZM106.282 9.71H107.102C107.102 12.33 105.922 14.62 102.902 16.1L102.462 15.43C105.072 14.17 106.282 12.25 106.282 9.85V9.71ZM102.872 9.71H106.642V10.39H102.872V9.71ZM117.411 8.73H118.251V17.79H117.411V8.73ZM118.051 12.3H119.731V13H118.051V12.3ZM111.681 14.84H112.391C114.061 14.84 115.231 14.78 116.581 14.53L116.671 15.23C115.281 15.49 114.091 15.54 112.391 15.54H111.681V14.84ZM111.681 9.61H115.881V10.29H112.501V15.15H111.681V9.61ZM126.85 8.73H127.68V17.79H126.85V8.73ZM125.07 10.8H127.07V11.48H125.07V10.8ZM120.58 14.99H121.25C122.65 14.99 123.8 14.95 125.18 14.73L125.26 15.42C123.84 15.64 122.68 15.69 121.25 15.69H120.58V14.99ZM120.56 9.55H124.51V12.79H121.4V15.15H120.58V12.11H123.69V10.24H120.56V9.55ZM125.01 13.27H127.01V13.95H125.01V13.27ZM132.819 9.63H133.539V10.01C133.539 11.63 131.819 12.82 129.999 13.13L129.679 12.47C131.269 12.24 132.819 11.2 132.819 10.01V9.63ZM133.029 9.63H133.739V10.01C133.739 11.2 135.299 12.24 136.879 12.47L136.569 13.13C134.739 12.82 133.029 11.63 133.029 10.01V9.63ZM132.849 14.33H133.669V17.78H132.849V14.33ZM129.199 13.89H137.369V14.57H129.199V13.89ZM129.959 9.3H136.579V9.97H129.959V9.3ZM141.708 11.97H143.438V12.66H141.708V11.97ZM140.018 9.59H140.668V11.31C140.668 13.2 139.878 15.03 138.558 15.84L138.038 15.21C139.278 14.48 140.018 12.86 140.018 11.31V9.59ZM140.178 9.59H140.818V11.28C140.818 12.73 141.498 14.27 142.688 14.99L142.208 15.64C140.908 14.84 140.178 13.04 140.178 11.28V9.59ZM145.028 8.74H145.828V17.78H145.028V8.74ZM143.198 8.93H143.978V17.33H143.198V8.93ZM149.098 13.39H149.918V16.1H149.098V13.39ZM152.438 13.39H153.268V16.1H152.438V13.39ZM147.098 15.94H155.288V16.63H147.098V15.94ZM151.178 9.31C153.088 9.31 154.458 10.22 154.458 11.64C154.458 13.05 153.088 13.96 151.178 13.96C149.258 13.96 147.888 13.05 147.888 11.64C147.888 10.22 149.258 9.31 151.178 9.31ZM151.178 9.97C149.728 9.97 148.688 10.63 148.688 11.64C148.688 12.64 149.728 13.3 151.178 13.3C152.628 13.3 153.658 12.64 153.658 11.64C153.658 10.63 152.628 9.97 151.178 9.97ZM157.422 9.72727L157.351 14.9545H156.527L156.456 9.72727H157.422ZM156.939 17.0568C156.764 17.0568 156.613 16.9941 156.488 16.8686C156.362 16.7431 156.3 16.5928 156.3 16.4176C156.3 16.2424 156.362 16.0921 156.488 15.9666C156.613 15.8411 156.764 15.7784 156.939 15.7784C157.114 15.7784 157.264 15.8411 157.39 15.9666C157.515 16.0921 157.578 16.2424 157.578 16.4176C157.578 16.5336 157.549 16.6402 157.489 16.7372C157.433 16.8343 157.356 16.9124 157.259 16.9716C157.164 17.0284 157.057 17.0568 156.939 17.0568Z" fill="white"/>
<defs>
<linearGradient id="paint0_linear_192_59" x1="0" y1="17" x2="174" y2="17" gradientUnits="userSpaceOnUse">
<stop stop-color="#6AB9F2"/>
<stop offset="1" stop-color="#7380EF"/>
</linearGradient>
</defs>
</svg>
