<svg width="595" height="372" viewBox="0 0 595 372" fill="none" xmlns="http://www.w3.org/2000/svg">
<rect y="145" width="595" height="115" fill="url(#paint0_linear_14_531)"/>
<path d="M194.856 207.048H197.472V208.56C197.472 212.712 195.48 216.504 191.184 217.872L189.576 215.352C193.296 214.176 194.856 211.32 194.856 208.56V207.048ZM195.48 207.048H198.096V208.536C198.096 211.128 199.608 213.744 203.208 214.872L201.672 217.392C197.448 216.096 195.48 212.472 195.48 208.536V207.048ZM190.416 206.208H202.44V208.728H190.416V206.208ZM204.264 204.912H207.456V217.776H204.264V204.912ZM206.568 209.928H210.408V212.52H206.568V209.928ZM193.008 218.664H207.456V226.896H193.008V218.664ZM204.336 221.16H196.152V224.376H204.336V221.16ZM217.462 206.616H220.054V209.856C220.054 215.568 218.086 220.728 213.67 222.768L211.774 220.128C215.638 218.448 217.462 214.176 217.462 209.856V206.616ZM218.086 206.616H220.678V209.856C220.678 213.96 222.43 218.04 226.222 219.672L224.35 222.24C220.054 220.272 218.086 215.328 218.086 209.856V206.616ZM227.278 204.888H230.494V227.184H227.278V204.888ZM234.764 206.736H245.348V217.464H234.764V206.736ZM242.204 209.256H237.908V214.944H242.204V209.256ZM248.42 204.912H251.612V221.112H248.42V204.912ZM250.7 211.32H254.564V213.936H250.7V211.32ZM237.284 224.208H252.404V226.752H237.284V224.208ZM237.284 219.528H240.476V225.48H237.284V219.528ZM277.061 204.912H280.277V227.136H277.061V204.912ZM270.509 207.216H273.677C273.677 214.008 271.373 219.576 263.477 223.392L261.821 220.848C268.205 217.776 270.509 213.744 270.509 207.792V207.216ZM262.997 207.216H272.021V209.736H262.997V207.216ZM298.035 204.888H301.251V227.184H298.035V204.888ZM300.531 213.12H304.467V215.736H300.531V213.12ZM284.691 219.192H286.563C290.307 219.192 293.259 219.072 296.523 218.496L296.835 221.136C293.475 221.736 290.427 221.832 286.563 221.832H284.691V219.192ZM284.691 206.952H295.059V209.52H287.859V220.464H284.691V206.952ZM321.313 204.888H324.505V227.184H321.313V204.888ZM317.665 209.616H321.841V212.184H317.665V209.616ZM306.673 219.624H308.425C311.713 219.624 314.449 219.552 317.641 219.072L317.905 221.664C314.641 222.168 311.809 222.24 308.425 222.24H306.673V219.624ZM306.625 206.76H316.561V215.376H309.841V220.2H306.673V212.856H313.417V209.304H306.625V206.76ZM317.617 215.664H321.793V218.232H317.617V215.664ZM341.77 207.384H344.53V208.032C344.53 211.944 341.338 215.136 335.698 215.904L334.522 213.408C339.418 212.808 341.77 210.312 341.77 208.032V207.384ZM342.682 207.384H345.442V208.032C345.442 210.312 347.794 212.808 352.69 213.408L351.538 215.904C345.874 215.136 342.682 211.944 342.682 208.032V207.384ZM341.938 219H345.106V227.16H341.938V219ZM333.562 217.176H353.65V219.72H333.562V217.176ZM335.338 206.04H351.826V208.56H335.338V206.04ZM364.376 212.376H368.048V214.968H364.376V212.376ZM359.624 206.832H362.072V210.576C362.072 215.616 360.68 220.536 357.128 222.72L355.208 220.32C358.472 218.304 359.624 214.344 359.624 210.576V206.832ZM360.32 206.832H362.72V210.432C362.72 214.056 363.656 217.752 366.68 219.72L364.952 222.216C361.424 220.032 360.32 215.232 360.32 210.432V206.832ZM371.672 204.912H374.72V227.136H371.672V204.912ZM367.16 205.248H370.136V226.128H367.16V205.248ZM382.134 216.192H385.302V222.432H382.134V216.192ZM390.198 216.192H393.39V222.432H390.198V216.192ZM377.718 221.976H397.83V224.568H377.718V221.976ZM387.75 205.992C392.526 205.992 396.054 208.344 396.054 211.968C396.054 215.592 392.526 217.92 387.75 217.92C382.95 217.92 379.446 215.592 379.446 211.968C379.446 208.344 382.95 205.992 387.75 205.992ZM387.75 208.488C384.654 208.488 382.59 209.76 382.59 211.968C382.59 214.152 384.654 215.448 387.75 215.448C390.846 215.448 392.91 214.152 392.91 211.968C392.91 209.76 390.846 208.488 387.75 208.488ZM404.599 207.545L404.267 219.767H401.148L400.807 207.545H404.599ZM402.707 225.222C402.145 225.222 401.662 225.023 401.259 224.625C400.855 224.222 400.656 223.739 400.662 223.176C400.656 222.619 400.855 222.142 401.259 221.744C401.662 221.347 402.145 221.148 402.707 221.148C403.247 221.148 403.722 221.347 404.131 221.744C404.54 222.142 404.747 222.619 404.753 223.176C404.747 223.551 404.648 223.895 404.455 224.207C404.267 224.514 404.02 224.761 403.713 224.949C403.406 225.131 403.071 225.222 402.707 225.222Z" fill="#1C1C1E"/>
<path d="M155.717 278.179C155.233 278.179 154.793 278.088 154.399 277.906C154.005 277.72 153.691 277.453 153.459 277.105C153.227 276.754 153.111 276.33 153.111 275.832C153.111 275.395 153.198 275.04 153.37 274.768C153.542 274.493 153.773 274.278 154.061 274.122C154.349 273.966 154.668 273.85 155.016 273.774C155.367 273.695 155.72 273.632 156.074 273.585C156.539 273.526 156.915 273.481 157.203 273.451C157.495 273.418 157.707 273.363 157.839 273.287C157.975 273.211 158.043 273.078 158.043 272.889V272.849C158.043 272.359 157.909 271.978 157.641 271.706C157.375 271.434 156.973 271.298 156.432 271.298C155.872 271.298 155.433 271.421 155.115 271.666C154.797 271.911 154.573 272.173 154.444 272.452L153.33 272.054C153.529 271.59 153.794 271.229 154.126 270.97C154.46 270.708 154.825 270.526 155.219 270.423C155.617 270.317 156.008 270.264 156.393 270.264C156.638 270.264 156.92 270.294 157.238 270.354C157.559 270.41 157.869 270.528 158.168 270.707C158.469 270.886 158.719 271.156 158.918 271.517C159.117 271.878 159.217 272.362 159.217 272.969V278H158.043V276.966H157.984C157.904 277.132 157.771 277.309 157.586 277.498C157.4 277.687 157.153 277.848 156.845 277.98C156.537 278.113 156.161 278.179 155.717 278.179ZM155.896 277.125C156.36 277.125 156.751 277.034 157.069 276.852C157.39 276.669 157.632 276.434 157.795 276.146C157.96 275.857 158.043 275.554 158.043 275.236V274.162C157.994 274.222 157.884 274.276 157.715 274.326C157.549 274.372 157.357 274.414 157.138 274.45C156.923 274.483 156.713 274.513 156.507 274.54C156.305 274.563 156.141 274.583 156.015 274.599C155.71 274.639 155.425 274.704 155.16 274.793C154.898 274.879 154.686 275.01 154.523 275.186C154.364 275.358 154.285 275.594 154.285 275.892C154.285 276.3 154.436 276.608 154.737 276.817C155.042 277.022 155.428 277.125 155.896 277.125ZM162.531 267.818V278H161.358V267.818H162.531ZM164.68 280.864V270.364H165.814V271.577H165.953C166.039 271.444 166.159 271.275 166.311 271.07C166.467 270.861 166.689 270.675 166.977 270.513C167.269 270.347 167.663 270.264 168.16 270.264C168.803 270.264 169.37 270.425 169.861 270.746C170.351 271.068 170.734 271.524 171.009 272.114C171.284 272.704 171.422 273.4 171.422 274.202C171.422 275.01 171.284 275.711 171.009 276.305C170.734 276.895 170.353 277.352 169.866 277.677C169.378 277.998 168.817 278.159 168.18 278.159C167.69 278.159 167.297 278.078 167.002 277.915C166.707 277.75 166.48 277.562 166.321 277.354C166.162 277.142 166.039 276.966 165.953 276.827H165.854V280.864H164.68ZM165.834 274.182C165.834 274.759 165.918 275.267 166.087 275.708C166.256 276.146 166.503 276.489 166.828 276.737C167.153 276.982 167.551 277.105 168.021 277.105C168.512 277.105 168.921 276.976 169.249 276.717C169.581 276.455 169.829 276.104 169.995 275.663C170.164 275.219 170.248 274.725 170.248 274.182C170.248 273.645 170.166 273.161 170 272.73C169.838 272.296 169.591 271.953 169.259 271.701C168.931 271.446 168.518 271.318 168.021 271.318C167.544 271.318 167.143 271.439 166.818 271.681C166.493 271.92 166.248 272.254 166.082 272.685C165.917 273.113 165.834 273.612 165.834 274.182ZM174.385 273.406V278H173.212V267.818H174.385V271.557H174.484C174.663 271.162 174.932 270.849 175.29 270.617C175.651 270.382 176.132 270.264 176.731 270.264C177.252 270.264 177.708 270.369 178.099 270.577C178.49 270.783 178.793 271.099 179.008 271.527C179.227 271.951 179.337 272.491 179.337 273.148V278H178.163V273.227C178.163 272.621 178.006 272.152 177.691 271.82C177.379 271.486 176.947 271.318 176.393 271.318C176.009 271.318 175.664 271.399 175.359 271.562C175.058 271.724 174.819 271.961 174.643 272.273C174.471 272.584 174.385 272.962 174.385 273.406ZM183.73 278.179C183.246 278.179 182.807 278.088 182.413 277.906C182.018 277.72 181.705 277.453 181.473 277.105C181.241 276.754 181.125 276.33 181.125 275.832C181.125 275.395 181.211 275.04 181.384 274.768C181.556 274.493 181.786 274.278 182.075 274.122C182.363 273.966 182.681 273.85 183.029 273.774C183.381 273.695 183.734 273.632 184.088 273.585C184.552 273.526 184.928 273.481 185.217 273.451C185.508 273.418 185.72 273.363 185.853 273.287C185.989 273.211 186.057 273.078 186.057 272.889V272.849C186.057 272.359 185.923 271.978 185.654 271.706C185.389 271.434 184.986 271.298 184.446 271.298C183.886 271.298 183.447 271.421 183.129 271.666C182.81 271.911 182.587 272.173 182.457 272.452L181.344 272.054C181.543 271.59 181.808 271.229 182.139 270.97C182.474 270.708 182.839 270.526 183.233 270.423C183.631 270.317 184.022 270.264 184.406 270.264C184.652 270.264 184.933 270.294 185.252 270.354C185.573 270.41 185.883 270.528 186.181 270.707C186.483 270.886 186.733 271.156 186.932 271.517C187.131 271.878 187.23 272.362 187.23 272.969V278H186.057V276.966H185.997C185.918 277.132 185.785 277.309 185.6 277.498C185.414 277.687 185.167 277.848 184.859 277.98C184.551 278.113 184.174 278.179 183.73 278.179ZM183.909 277.125C184.373 277.125 184.764 277.034 185.082 276.852C185.404 276.669 185.646 276.434 185.808 276.146C185.974 275.857 186.057 275.554 186.057 275.236V274.162C186.007 274.222 185.898 274.276 185.729 274.326C185.563 274.372 185.371 274.414 185.152 274.45C184.937 274.483 184.726 274.513 184.521 274.54C184.319 274.563 184.154 274.583 184.028 274.599C183.724 274.639 183.439 274.704 183.173 274.793C182.912 274.879 182.699 275.01 182.537 275.186C182.378 275.358 182.298 275.594 182.298 275.892C182.298 276.3 182.449 276.608 182.751 276.817C183.056 277.022 183.442 277.125 183.909 277.125ZM189.372 278V270.364H190.505V271.557H190.605C190.764 271.149 191.021 270.833 191.375 270.607C191.73 270.379 192.156 270.264 192.653 270.264C193.157 270.264 193.576 270.379 193.911 270.607C194.249 270.833 194.512 271.149 194.701 271.557H194.781C194.976 271.162 195.27 270.849 195.661 270.617C196.052 270.382 196.521 270.264 197.068 270.264C197.751 270.264 198.309 270.478 198.743 270.906C199.177 271.33 199.394 271.991 199.394 272.889V278H198.221V272.889C198.221 272.326 198.067 271.923 197.759 271.681C197.451 271.439 197.088 271.318 196.67 271.318C196.133 271.318 195.717 271.481 195.422 271.805C195.127 272.127 194.98 272.535 194.98 273.028V278H193.786V272.77C193.786 272.336 193.646 271.986 193.364 271.721C193.082 271.452 192.719 271.318 192.275 271.318C191.97 271.318 191.685 271.399 191.42 271.562C191.158 271.724 190.946 271.95 190.784 272.238C190.625 272.523 190.545 272.853 190.545 273.227V278H189.372ZM203.787 278.179C203.303 278.179 202.864 278.088 202.469 277.906C202.075 277.72 201.762 277.453 201.53 277.105C201.298 276.754 201.182 276.33 201.182 275.832C201.182 275.395 201.268 275.04 201.44 274.768C201.613 274.493 201.843 274.278 202.131 274.122C202.42 273.966 202.738 273.85 203.086 273.774C203.437 273.695 203.79 273.632 204.145 273.585C204.609 273.526 204.985 273.481 205.273 273.451C205.565 273.418 205.777 273.363 205.91 273.287C206.046 273.211 206.114 273.078 206.114 272.889V272.849C206.114 272.359 205.979 271.978 205.711 271.706C205.446 271.434 205.043 271.298 204.503 271.298C203.943 271.298 203.503 271.421 203.185 271.666C202.867 271.911 202.643 272.173 202.514 272.452L201.4 272.054C201.599 271.59 201.864 271.229 202.196 270.97C202.531 270.708 202.895 270.526 203.29 270.423C203.687 270.317 204.079 270.264 204.463 270.264C204.708 270.264 204.99 270.294 205.308 270.354C205.63 270.41 205.94 270.528 206.238 270.707C206.539 270.886 206.79 271.156 206.989 271.517C207.187 271.878 207.287 272.362 207.287 272.969V278H206.114V276.966H206.054C205.974 277.132 205.842 277.309 205.656 277.498C205.471 277.687 205.224 277.848 204.915 277.98C204.607 278.113 204.231 278.179 203.787 278.179ZM203.966 277.125C204.43 277.125 204.821 277.034 205.139 276.852C205.461 276.669 205.703 276.434 205.865 276.146C206.031 275.857 206.114 275.554 206.114 275.236V274.162C206.064 274.222 205.954 274.276 205.785 274.326C205.62 274.372 205.427 274.414 205.209 274.45C204.993 274.483 204.783 274.513 204.577 274.54C204.375 274.563 204.211 274.583 204.085 274.599C203.78 274.639 203.495 274.704 203.23 274.793C202.968 274.879 202.756 275.01 202.594 275.186C202.435 275.358 202.355 275.594 202.355 275.892C202.355 276.3 202.506 276.608 202.807 276.817C203.112 277.022 203.498 277.125 203.966 277.125ZM209.428 278V270.364H210.602V278H209.428ZM210.025 269.091C209.796 269.091 209.599 269.013 209.433 268.857C209.271 268.701 209.19 268.514 209.19 268.295C209.19 268.077 209.271 267.889 209.433 267.734C209.599 267.578 209.796 267.5 210.025 267.5C210.254 267.5 210.449 267.578 210.612 267.734C210.777 267.889 210.86 268.077 210.86 268.295C210.86 268.514 210.777 268.701 210.612 268.857C210.449 269.013 210.254 269.091 210.025 269.091ZM213.924 267.818V278H212.751V267.818H213.924ZM224.883 266.422H226.045V279.106H224.883V266.422ZM219.367 267.402C221.243 267.402 222.587 269.124 222.587 271.812C222.587 274.514 221.243 276.236 219.367 276.236C217.505 276.236 216.161 274.514 216.161 271.812C216.161 269.124 217.505 267.402 219.367 267.402ZM219.367 268.452C218.135 268.452 217.267 269.768 217.267 271.812C217.267 273.87 218.135 275.214 219.367 275.214C220.613 275.214 221.467 273.87 221.467 271.812C221.467 269.768 220.613 268.452 219.367 268.452ZM241.181 266.436H242.343V273.954H241.181V266.436ZM242.007 269.726H244.205V270.692H242.007V269.726ZM238.297 274.22C240.859 274.22 242.455 275.13 242.455 276.656C242.455 278.182 240.859 279.078 238.297 279.078C235.735 279.078 234.139 278.182 234.139 276.656C234.139 275.13 235.735 274.22 238.297 274.22ZM238.297 275.172C236.421 275.172 235.273 275.704 235.273 276.656C235.273 277.58 236.421 278.126 238.297 278.126C240.173 278.126 241.321 277.58 241.321 276.656C241.321 275.704 240.173 275.172 238.297 275.172ZM233.075 272.008H234.055C236.673 272.008 238.143 271.924 239.837 271.574L239.977 272.526C238.227 272.876 236.729 272.96 234.055 272.96H233.075V272.008ZM233.075 267.402H238.661V268.354H234.223V272.624H233.075V267.402ZM254.592 266.45H255.768V275.718H254.592V266.45ZM247.634 277.86H256.146V278.812H247.634V277.86ZM247.634 274.864H248.782V278.308H247.634V274.864ZM248.684 267.136H249.65V268.424C249.65 270.888 248.25 273.044 246.122 273.912L245.52 272.974C247.424 272.232 248.684 270.384 248.684 268.424V267.136ZM248.894 267.136H249.846V268.424C249.846 270.328 251.12 272.05 253.01 272.736L252.394 273.674C250.294 272.862 248.894 270.832 248.894 268.424V267.136ZM263.985 266.646C266.771 266.646 268.437 267.43 268.437 268.844C268.437 270.258 266.771 271.042 263.985 271.042C261.185 271.042 259.533 270.258 259.533 268.844C259.533 267.43 261.185 266.646 263.985 266.646ZM263.985 267.528C261.913 267.528 260.723 268.004 260.723 268.844C260.723 269.684 261.913 270.16 263.985 270.16C266.043 270.16 267.233 269.684 267.233 268.844C267.233 268.004 266.043 267.528 263.985 267.528ZM258.259 271.882H269.697V272.82H258.259V271.882ZM259.645 273.898H268.241V276.754H260.821V278.294H259.673V275.914H267.093V274.794H259.645V273.898ZM259.673 278.042H268.619V278.952H259.673V278.042ZM279.22 267.024C281.11 267.024 282.454 268.074 282.454 269.628C282.454 271.168 281.11 272.246 279.22 272.246C277.344 272.246 276 271.168 276 269.628C276 268.074 277.344 267.024 279.22 267.024ZM279.22 267.99C277.988 267.99 277.106 268.662 277.106 269.628C277.106 270.608 277.988 271.266 279.22 271.266C280.452 271.266 281.334 270.608 281.334 269.628C281.334 268.662 280.452 267.99 279.22 267.99ZM278.702 273.646H279.864V278.7H278.702V273.646ZM284.302 266.436H285.45V279.106H284.302V266.436ZM275.216 274.276L275.062 273.296C277.414 273.296 280.62 273.268 283.406 272.848L283.49 273.716C280.634 274.234 277.526 274.276 275.216 274.276ZM296.621 266.45H297.783V275.942H296.621V266.45ZM297.419 270.594H299.659V271.574H297.419V270.594ZM287.997 267.976H295.473V268.914H287.997V267.976ZM291.735 269.614C293.527 269.614 294.759 270.552 294.759 271.98C294.759 273.394 293.527 274.332 291.735 274.332C289.929 274.332 288.697 273.394 288.697 271.98C288.697 270.552 289.929 269.614 291.735 269.614ZM291.735 270.524C290.587 270.524 289.803 271.098 289.803 271.98C289.803 272.848 290.587 273.422 291.735 273.422C292.869 273.422 293.653 272.848 293.653 271.98C293.653 271.098 292.869 270.524 291.735 270.524ZM291.147 266.436H292.309V268.466H291.147V266.436ZM289.901 277.86H298.357V278.812H289.901V277.86ZM289.901 275.186H291.063V278.266H289.901V275.186ZM305.233 267.892H310.063V275.704H305.233V267.892ZM308.971 268.816H306.325V274.78H308.971V268.816ZM314.417 266.436H315.537V279.092H314.417V266.436ZM309.475 271.196H312.387V272.162H309.475V271.196ZM311.911 266.702H313.017V278.462H311.911V266.702ZM321.206 266.898C323.096 266.898 324.482 268.046 324.482 269.712C324.482 271.364 323.096 272.512 321.206 272.512C319.33 272.512 317.944 271.364 317.944 269.712C317.944 268.046 319.33 266.898 321.206 266.898ZM321.206 267.85C319.988 267.85 319.064 268.62 319.064 269.712C319.064 270.804 319.988 271.56 321.206 271.56C322.438 271.56 323.348 270.804 323.348 269.712C323.348 268.62 322.438 267.85 321.206 267.85ZM326.862 266.436H328.038V272.918H326.862V266.436ZM319.848 273.534H328.038V276.614H321.01V278.518H319.876V275.746H326.89V274.472H319.848V273.534ZM319.876 278H328.458V278.924H319.876V278ZM336.255 266.646C339.041 266.646 340.707 267.43 340.707 268.844C340.707 270.258 339.041 271.042 336.255 271.042C333.455 271.042 331.803 270.258 331.803 268.844C331.803 267.43 333.455 266.646 336.255 266.646ZM336.255 267.528C334.183 267.528 332.993 268.004 332.993 268.844C332.993 269.684 334.183 270.16 336.255 270.16C338.313 270.16 339.503 269.684 339.503 268.844C339.503 268.004 338.313 267.528 336.255 267.528ZM330.529 271.882H341.967V272.82H330.529V271.882ZM331.915 273.898H340.511V276.754H333.091V278.294H331.943V275.914H339.363V274.794H331.915V273.898ZM331.943 278.042H340.889V278.952H331.943V278.042ZM350.005 267.22H350.929V268.914C350.929 270.804 349.837 272.792 347.975 273.618L347.345 272.708C349.011 271.98 350.005 270.342 350.005 268.914V267.22ZM350.187 267.22H351.111V268.914C351.111 270.314 352.063 271.742 353.687 272.372L353.057 273.254C351.237 272.526 350.187 270.776 350.187 268.914V267.22ZM356.907 266.45H358.013V274.248H356.907V266.45ZM354.891 269.824H357.285V270.776H354.891V269.824ZM354.191 266.688H355.297V273.842H354.191V266.688ZM353.855 274.528C356.459 274.528 358.083 275.368 358.083 276.81C358.083 278.238 356.459 279.064 353.855 279.064C351.237 279.064 349.641 278.238 349.641 276.81C349.641 275.368 351.237 274.528 353.855 274.528ZM353.855 275.438C351.951 275.438 350.775 275.942 350.775 276.81C350.775 277.664 351.951 278.168 353.855 278.168C355.759 278.168 356.921 277.664 356.921 276.81C356.921 275.942 355.759 275.438 353.855 275.438ZM363.416 267.15H364.382V268.452C364.382 270.902 362.996 272.904 360.826 273.716L360.224 272.764C362.156 272.078 363.416 270.384 363.416 268.452V267.15ZM363.626 267.15H364.578V268.41C364.578 270.202 365.81 271.784 367.658 272.428L367.028 273.338C364.984 272.568 363.626 270.706 363.626 268.41V267.15ZM369.478 266.436H370.64V273.926H369.478V266.436ZM366.482 274.29C369.086 274.29 370.696 275.172 370.696 276.684C370.696 278.196 369.086 279.064 366.482 279.064C363.864 279.064 362.254 278.196 362.254 276.684C362.254 275.172 363.864 274.29 366.482 274.29ZM366.482 275.214C364.578 275.214 363.416 275.76 363.416 276.684C363.416 277.608 364.578 278.154 366.482 278.154C368.386 278.154 369.548 277.608 369.548 276.684C369.548 275.76 368.386 275.214 366.482 275.214ZM366.734 269.11H369.73V270.076H366.734V269.11ZM381.685 266.436H382.847V279.092H381.685V266.436ZM382.567 271.63H384.919V272.61H382.567V271.63ZM373.047 268.452H380.509V269.404H373.047V268.452ZM376.827 270.454C378.619 270.454 379.907 271.658 379.907 273.366C379.907 275.074 378.619 276.278 376.827 276.278C375.049 276.278 373.747 275.074 373.747 273.366C373.747 271.658 375.049 270.454 376.827 270.454ZM376.827 271.42C375.679 271.42 374.853 272.218 374.853 273.366C374.853 274.5 375.679 275.312 376.827 275.312C377.975 275.312 378.801 274.5 378.801 273.366C378.801 272.218 377.975 271.42 376.827 271.42ZM376.225 266.59H377.387V268.886H376.225V266.59ZM387.2 267.696H395.348V268.662H387.2V267.696ZM385.996 276.362H397.434V277.328H385.996V276.362ZM390.434 271.84H391.596V276.838H390.434V271.84ZM394.914 267.696H396.062V268.956C396.062 270.524 396.062 272.26 395.6 274.822L394.438 274.668C394.914 272.246 394.914 270.468 394.914 268.956V267.696ZM405.962 274.22H406.858V274.906C406.858 276.558 405.822 278.224 404.002 278.924L403.414 278.056C405.01 277.482 405.962 276.124 405.962 274.906V274.22ZM406.214 274.22H407.082V274.906C407.082 276.18 407.838 277.538 409.35 278.154L408.86 279.036C407.04 278.322 406.214 276.586 406.214 274.906V274.22ZM410.638 274.22H411.506V274.906C411.506 276.39 410.666 278.266 408.86 279.036L408.37 278.154C409.868 277.468 410.638 275.998 410.638 274.906V274.22ZM410.876 274.22H411.772V274.906C411.772 276.208 412.71 277.51 414.32 278.056L413.732 278.924C411.884 278.252 410.876 276.656 410.876 274.906V274.22ZM412.01 266.45H413.186V273.674H412.01V266.45ZM406.396 267.178C408.314 267.178 409.686 268.382 409.686 270.132C409.686 271.882 408.314 273.072 406.396 273.072C404.478 273.072 403.092 271.882 403.092 270.132C403.092 268.382 404.478 267.178 406.396 267.178ZM406.396 268.144C405.136 268.144 404.226 268.956 404.226 270.132C404.226 271.308 405.136 272.106 406.396 272.106C407.656 272.106 408.566 271.308 408.566 270.132C408.566 268.956 407.656 268.144 406.396 268.144ZM419.065 267.402C420.899 267.402 422.215 269.124 422.215 271.812C422.215 274.514 420.899 276.236 419.065 276.236C417.217 276.236 415.915 274.514 415.915 271.812C415.915 269.124 417.217 267.402 419.065 267.402ZM419.065 268.452C417.847 268.452 417.021 269.768 417.021 271.812C417.021 273.87 417.847 275.214 419.065 275.214C420.283 275.214 421.109 273.87 421.109 271.812C421.109 269.768 420.283 268.452 419.065 268.452ZM424.959 266.422H426.107V279.106H424.959V266.422ZM421.837 271.252H425.463V272.204H421.837V271.252ZM431.37 272.946H432.518V276.74H431.37V272.946ZM436.046 272.946H437.208V276.74H436.046V272.946ZM428.57 276.516H440.036V277.482H428.57V276.516ZM434.282 267.234C436.956 267.234 438.874 268.508 438.874 270.496C438.874 272.47 436.956 273.744 434.282 273.744C431.594 273.744 429.676 272.47 429.676 270.496C429.676 268.508 431.594 267.234 434.282 267.234ZM434.282 268.158C432.252 268.158 430.796 269.082 430.796 270.496C430.796 271.896 432.252 272.82 434.282 272.82C436.312 272.82 437.754 271.896 437.754 270.496C437.754 269.082 436.312 268.158 434.282 268.158ZM442.678 278.08C442.433 278.08 442.222 277.992 442.047 277.816C441.871 277.64 441.783 277.43 441.783 277.185C441.783 276.939 441.871 276.729 442.047 276.553C442.222 276.378 442.433 276.29 442.678 276.29C442.923 276.29 443.134 276.378 443.309 276.553C443.485 276.729 443.573 276.939 443.573 277.185C443.573 277.347 443.531 277.496 443.449 277.632C443.369 277.768 443.261 277.877 443.125 277.96C442.993 278.04 442.844 278.08 442.678 278.08ZM215.43 287.01H223.578V287.948H215.43V287.01ZM214.072 292.162H225.496V293.1H214.072V292.162ZM218.762 289.796H219.91V292.498H218.762V289.796ZM222.906 287.01H224.054V288.074C224.054 289.096 224.054 290.132 223.704 291.434L222.556 291.308C222.906 290.006 222.906 289.068 222.906 288.074V287.01ZM215.5 294.486H224.04V295.438H216.662V298.49H215.5V294.486ZM215.5 297.958H224.208V298.91H215.5V297.958ZM240.142 286.436H241.304V295.074H240.142V286.436ZM236.964 289.628H240.422V290.58H236.964V289.628ZM231.462 287.388H237.244V293.016H231.462V287.388ZM236.096 288.326H232.596V292.092H236.096V288.326ZM236.628 294.136H237.622V294.626C237.622 296.908 235.41 298.588 232.834 299.05L232.386 298.126C234.626 297.748 236.628 296.348 236.628 294.626V294.136ZM236.824 294.136H237.818V294.626C237.818 296.39 239.806 297.748 242.074 298.126L241.612 299.05C239.05 298.574 236.824 296.964 236.824 294.626V294.136ZM247.127 287.822H248.093V289.11C248.093 291.434 246.665 293.38 244.537 294.15L243.935 293.226C245.839 292.554 247.127 290.916 247.127 289.11V287.822ZM247.351 287.822H248.317V289.11C248.317 290.818 249.633 292.358 251.509 292.988L250.907 293.898C248.807 293.184 247.351 291.336 247.351 289.11V287.822ZM244.243 287.486H251.173V288.424H244.243V287.486ZM252.965 286.45H254.141V295.704H252.965V286.45ZM246.007 297.86H254.519V298.812H246.007V297.86ZM246.007 294.836H247.155V298.28H246.007V294.836ZM269.824 286.436H270.986V292.89H269.824V286.436ZM265.82 287.052H267.08C267.08 290.244 264.882 292.288 261.186 293.184L260.78 292.232C264.056 291.476 265.82 289.81 265.82 287.626V287.052ZM261.438 287.052H266.352V288.004H261.438V287.052ZM266.632 288.256H270.02V289.18H266.632V288.256ZM266.52 290.678H269.95V291.588H266.52V290.678ZM262.838 293.478H270.986V296.586H264.028V298.602H262.88V295.69H269.838V294.416H262.838V293.478ZM262.88 298.042H271.406V298.966H262.88V298.042ZM274.023 287.822H279.749V288.76H274.023V287.822ZM275.997 291.434H277.145V295.718H275.997V291.434ZM279.273 287.822H280.407V288.494C280.407 289.53 280.407 291.182 280.043 293.534L278.895 293.422C279.273 291.14 279.273 289.516 279.273 288.494V287.822ZM282.003 286.436H283.151V299.092H282.003V286.436ZM282.843 291.728H285.181V292.708H282.843V291.728ZM273.463 296.334L273.323 295.354C275.619 295.354 278.671 295.312 281.233 294.99L281.289 295.844C278.671 296.264 275.703 296.32 273.463 296.334ZM286.328 292.316H297.808V293.198H286.328V292.316ZM287.686 294.22H296.366V296.922H288.876V298.406H287.728V296.124H295.232V295.046H287.686V294.22ZM287.728 298.098H296.772V298.938H287.728V298.098ZM287.784 286.8H296.324V289.432H288.96V290.804H287.812V288.648H295.19V287.626H287.784V286.8ZM287.812 290.524H296.562V291.364H287.812V290.524ZM303.158 296.516H314.624V297.482H303.158V296.516ZM308.282 293.492H309.444V296.796H308.282V293.492ZM304.502 287.332H305.65V289.586H312.104V287.332H313.252V293.8H304.502V287.332ZM305.65 290.524V292.848H312.104V290.524H305.65ZM321.735 289.25H325.557V290.216H321.735V289.25ZM321.735 293.254H325.557V294.22H321.735V293.254ZM319.411 287.402C321.245 287.402 322.561 289.124 322.561 291.812C322.561 294.514 321.245 296.236 319.411 296.236C317.563 296.236 316.261 294.514 316.261 291.812C316.261 289.124 317.563 287.402 319.411 287.402ZM319.411 288.452C318.193 288.452 317.353 289.768 317.353 291.812C317.353 293.87 318.193 295.214 319.411 295.214C320.629 295.214 321.469 293.87 321.469 291.812C321.469 289.768 320.629 288.452 319.411 288.452ZM325.305 286.422H326.453V299.106H325.305V286.422ZM330.358 292.498H339.052V293.45H330.358V292.498ZM328.916 296.418H340.382V297.384H328.916V296.418ZM330.358 287.598H338.926V288.564H331.52V292.918H330.358V287.598ZM342.425 291.686H343.447C345.911 291.686 347.521 291.63 349.481 291.322L349.593 292.232C347.591 292.554 345.953 292.61 343.447 292.61H342.425V291.686ZM342.397 287.038H348.179V290.174H343.559V292.134H342.425V289.32H347.045V287.934H342.397V287.038ZM343.979 293.66H352.169V296.656H345.169V298.448H344.007V295.802H350.993V294.57H343.979V293.66ZM344.007 298.042H352.589V298.952H344.007V298.042ZM350.993 286.436H352.169V293.086H350.993V286.436ZM364.306 286.436H365.426V299.092H364.306V286.436ZM358.818 291.602H362.01V292.54H358.818V291.602ZM361.674 286.758H362.766V298.448H361.674V286.758ZM358.972 288.032H360.092C360.092 291.35 358.762 294.332 355.346 296.362L354.66 295.536C357.642 293.744 358.972 291.224 358.972 288.242V288.032ZM355.22 288.032H359.406V288.984H355.22V288.032ZM370.353 292.946H371.501V296.74H370.353V292.946ZM375.029 292.946H376.191V296.74H375.029V292.946ZM367.553 296.516H379.019V297.482H367.553V296.516ZM373.265 287.234C375.939 287.234 377.857 288.508 377.857 290.496C377.857 292.47 375.939 293.744 373.265 293.744C370.577 293.744 368.659 292.47 368.659 290.496C368.659 288.508 370.577 287.234 373.265 287.234ZM373.265 288.158C371.235 288.158 369.779 289.082 369.779 290.496C369.779 291.896 371.235 292.82 373.265 292.82C375.295 292.82 376.737 291.896 376.737 290.496C376.737 289.082 375.295 288.158 373.265 288.158ZM382.356 287.818L382.257 295.136H381.104L381.004 287.818H382.356ZM381.68 298.08C381.435 298.08 381.225 297.992 381.049 297.816C380.873 297.64 380.785 297.43 380.785 297.185C380.785 296.939 380.873 296.729 381.049 296.553C381.225 296.378 381.435 296.29 381.68 296.29C381.926 296.29 382.136 296.378 382.312 296.553C382.487 296.729 382.575 296.939 382.575 297.185C382.575 297.347 382.534 297.496 382.451 297.632C382.371 297.768 382.264 297.877 382.128 297.96C381.995 298.04 381.846 298.08 381.68 298.08Z" fill="#8E8E93"/>
<defs>
<linearGradient id="paint0_linear_14_531" x1="297.5" y1="145" x2="297.5" y2="260" gradientUnits="userSpaceOnUse">
<stop stop-color="white" stop-opacity="0"/>
<stop offset="1" stop-color="white"/>
</linearGradient>
</defs>
</svg>
