<svg width="243" height="40" viewBox="0 0 243 40" fill="none" xmlns="http://www.w3.org/2000/svg">
<path d="M19.4985 10.5734L15.1522 29.7766C12.6003 30.1818 11.2445 30.3032 9.49005 30.3032C3.15007 30.3032 0 27.7509 0 22.6868C0 18.514 2.19309 14.8273 5.98114 12.599C8.61285 11.0596 11.6832 10.3304 15.5908 10.3304C16.9067 10.3304 18.1029 10.4113 19.4985 10.5734ZM10.3275 25.5632L12.7199 15.3135C12.68 15.3135 12.6401 15.3135 12.6003 15.3135L12.2415 15.2729C8.89198 15.1514 5.94128 18.3924 5.94128 22.2412C5.94128 24.4289 6.978 25.5228 9.09134 25.5228C9.49005 25.5228 9.72937 25.5228 10.3275 25.5632Z" fill="#7A89F0"/>
<path d="M18.7368 30.0601L25.0091 0H31.0052L24.6935 30.0601H18.7368ZM26.3161 40L32.3912 10.9419C34.3636 10.6212 36.0993 10.4609 37.9534 10.4609C44.2651 10.4609 47.776 13.6673 47.776 19.4389C47.776 25.9319 43.4761 30.3006 37.0855 30.3006C36.1387 30.3006 35.4681 30.2204 34.3636 30.02L32.2728 40H26.3161ZM37.4011 15.3507L35.3498 25.2505C36.0204 25.5311 36.3754 25.5711 37.0066 25.5711C39.9258 25.5711 41.8982 23.0461 41.8982 19.1984C41.8982 16.5932 40.6753 15.1904 38.4662 15.1904C38.1112 15.1904 37.835 15.1904 37.4011 15.3507ZM47.8253 30.0601L54.0976 0H60.0937L57.7663 11.1423C59.3442 10.4609 60.2909 10.2605 61.6716 10.2605C65.1431 10.2605 67.2733 12.2645 67.2733 15.5912C67.2733 16.513 67.1549 17.515 66.9577 18.477L64.5514 30.0601H58.5947L61.1588 17.7956C61.3166 17.4349 61.3955 17.0341 61.3955 16.7134C61.3955 15.6713 60.5671 15.1102 59.2258 15.1102C58.3974 15.1102 57.8057 15.2305 56.8195 15.6313L53.782 30.0601H47.8253ZM87.6301 10.7816L83.3303 29.7796C80.8056 30.1804 79.4643 30.3006 77.7286 30.3006C71.4563 30.3006 68.3399 27.7755 68.3399 22.7655C68.3399 18.6373 70.5096 14.99 74.2571 12.7856C76.8607 11.2625 79.8983 10.5411 83.7642 10.5411C85.066 10.5411 86.2494 10.6212 87.6301 10.7816ZM78.557 25.6112L80.9239 15.4709C80.8845 15.4709 80.845 15.4709 80.8056 15.4709L80.4505 15.4309C77.1369 15.3106 74.2177 18.517 74.2177 22.3246C74.2177 24.489 75.2434 25.5711 77.3341 25.5711C77.7286 25.5711 77.9653 25.5711 78.557 25.6112Z" fill="#3C3C3F"/>
<path d="M91.9894 30.6168L95.8948 11.9796C98.6956 11.178 101.023 10.8172 103.351 10.8172C105.599 10.8172 107.138 11.218 108.676 12.18C111.043 11.218 112.897 10.8172 115.106 10.8172C119.287 10.8172 121.812 12.6609 121.812 15.7471C121.812 16.5888 121.694 17.5106 121.496 18.4325L118.972 30.6168H112.976L115.579 18.192C115.619 17.8313 115.658 17.4305 115.658 17.1499C115.658 16.1078 114.948 15.5467 113.607 15.5467C112.818 15.5467 112.147 15.707 111.358 16.0277C111.358 16.2281 111.358 16.3483 111.358 16.4685C111.358 16.9094 111.279 17.6709 111.2 18.1118L108.557 30.6168H102.601L105.205 18.2321C105.205 17.8313 105.205 17.4705 105.205 17.19C105.205 16.1078 104.495 15.5467 103.074 15.5467C102.443 15.5467 101.851 15.6269 101.023 15.9074L97.9461 30.6168H91.9894Z" fill="#3C3C3F"/>
<path d="M142.227 10.5736L137.881 29.7768C135.329 30.182 133.972 30.3034 132.218 30.3034C125.879 30.3034 122.729 27.7511 122.729 22.687C122.729 18.5142 124.921 14.8275 128.709 12.5992C131.341 11.0598 134.412 10.3306 138.319 10.3306C139.635 10.3306 140.831 10.4115 142.227 10.5736ZM133.055 25.5634L135.448 15.3137C135.408 15.3137 135.368 15.3137 135.329 15.3137L134.97 15.2731C131.62 15.1516 128.67 18.3926 128.67 22.2414C128.67 24.4291 129.706 25.523 131.819 25.523C132.218 25.523 132.458 25.523 133.055 25.5634Z" fill="#6AB9F2"/>
<path d="M141.175 30.6168L145.278 11.0978H151.235L147.132 30.6168H141.175ZM145.909 8.01164L147.25 1.67898H153.207L151.866 8.01164H145.909ZM150.732 30.6168L157.004 0.556732H163L156.688 30.6168H150.732Z" fill="#3C3C3F"/>
<path d="M173.984 28.096H194.12V30.688H173.984V28.096ZM182.432 23.872H185.6V29.128H182.432V23.872ZM176.264 12.328H191.84V19.744H179.456V23.464H176.288V17.248H188.672V14.872H176.264V12.328ZM176.288 22.216H192.344V24.76H176.288V22.216ZM197.646 12.928H211.71V15.472H197.646V12.928ZM195.582 27.64H215.694V30.232H195.582V27.64ZM210.03 12.928H213.222V15.568C213.222 16.608 213.206 17.664 213.174 18.736C213.158 19.808 213.094 20.952 212.982 22.168C212.886 23.384 212.694 24.76 212.406 26.296L209.214 26.008C209.502 24.584 209.694 23.272 209.79 22.072C209.902 20.872 209.966 19.744 209.982 18.688C210.014 17.616 210.03 16.576 210.03 15.568V12.928ZM232.444 10.912H235.636V26.872H232.444V10.912ZM220.828 30.184H236.212V32.752H220.828V30.184ZM220.828 25.288H224.02V31.24H220.828V25.288ZM223.54 12.328C224.676 12.328 225.7 12.568 226.612 13.048C227.524 13.528 228.244 14.192 228.772 15.04C229.316 15.888 229.588 16.864 229.588 17.968C229.588 19.04 229.316 20.008 228.772 20.872C228.244 21.72 227.524 22.392 226.612 22.888C225.7 23.368 224.676 23.608 223.54 23.608C222.404 23.608 221.38 23.368 220.468 22.888C219.556 22.392 218.828 21.72 218.284 20.872C217.756 20.008 217.492 19.04 217.492 17.968C217.492 16.864 217.756 15.888 218.284 15.04C218.828 14.192 219.556 13.528 220.468 13.048C221.38 12.568 222.404 12.328 223.54 12.328ZM223.54 15.064C222.996 15.064 222.5 15.184 222.052 15.424C221.604 15.648 221.252 15.976 220.996 16.408C220.74 16.824 220.612 17.344 220.612 17.968C220.612 18.56 220.74 19.072 220.996 19.504C221.252 19.92 221.604 20.248 222.052 20.488C222.5 20.712 222.996 20.824 223.54 20.824C224.084 20.824 224.58 20.712 225.028 20.488C225.476 20.248 225.828 19.92 226.084 19.504C226.34 19.072 226.468 18.56 226.468 17.968C226.468 17.344 226.34 16.824 226.084 16.408C225.828 15.976 225.476 15.648 225.028 15.424C224.58 15.184 224.084 15.064 223.54 15.064Z" fill="#1C1C1E"/>
</svg>
