<svg width="204" height="53" viewBox="0 0 204 53" fill="none" xmlns="http://www.w3.org/2000/svg">
<path d="M29.7978 21.76L25.4378 40.72C22.8778 41.12 21.5178 41.24 19.7578 41.24C13.3978 41.24 10.2378 38.72 10.2378 33.72C10.2378 29.6 12.4378 25.96 16.2378 23.76C18.8778 22.24 21.9578 21.52 25.8778 21.52C27.1978 21.52 28.3978 21.6 29.7978 21.76ZM20.5978 36.56L22.9978 26.44C22.9578 26.44 22.9178 26.44 22.8778 26.44L22.5178 26.4C19.1578 26.28 16.1978 29.48 16.1978 33.28C16.1978 35.44 17.2378 36.52 19.3578 36.52C19.7578 36.52 19.9978 36.52 20.5978 36.56ZM30.3316 41L36.6916 11H42.7716L36.3716 41H30.3316ZM39.4169 50.92L45.5769 21.92C47.5769 21.6 49.3369 21.44 51.2169 21.44C57.6169 21.44 61.1769 24.64 61.1769 30.4C61.1769 36.88 56.8169 41.24 50.3369 41.24C49.3769 41.24 48.6969 41.16 47.5769 40.96L45.4569 50.92H39.4169ZM50.6569 26.32L48.5769 36.2C49.2569 36.48 49.6169 36.52 50.2569 36.52C53.2169 36.52 55.2169 34 55.2169 30.16C55.2169 27.56 53.9769 26.16 51.7369 26.16C51.3769 26.16 51.0969 26.16 50.6569 26.32ZM62.6269 41L68.9869 11H75.0669L72.7069 22.12C74.3069 21.44 75.2669 21.24 76.6669 21.24C80.1869 21.24 82.3469 23.24 82.3469 26.56C82.3469 27.48 82.2269 28.48 82.0269 29.44L79.5869 41H73.5469L76.1469 28.76C76.3069 28.4 76.3869 28 76.3869 27.68C76.3869 26.64 75.5469 26.08 74.1869 26.08C73.3469 26.08 72.7469 26.2 71.7469 26.6L68.6669 41H62.6269ZM104.388 21.76L100.028 40.72C97.4684 41.12 96.1084 41.24 94.3484 41.24C87.9884 41.24 84.8284 38.72 84.8284 33.72C84.8284 29.6 87.0284 25.96 90.8284 23.76C93.4684 22.24 96.5484 21.52 100.468 21.52C101.788 21.52 102.988 21.6 104.388 21.76ZM95.1884 36.56L97.5884 26.44C97.5484 26.44 97.5084 26.44 97.4684 26.44L97.1084 26.4C93.7484 26.28 90.7884 29.48 90.7884 33.28C90.7884 35.44 91.8284 36.52 93.9484 36.52C94.3484 36.52 94.5884 36.52 95.1884 36.56Z" fill="#1C1C1E"/>
<path d="M114.668 41L118.628 22.4C121.468 21.6 123.828 21.24 126.188 21.24C128.468 21.24 130.028 21.64 131.588 22.6C133.988 21.64 135.868 21.24 138.108 21.24C142.348 21.24 144.908 23.08 144.908 26.16C144.908 27 144.788 27.92 144.588 28.84L142.028 41H135.948L138.588 28.6C138.628 28.24 138.668 27.84 138.668 27.56C138.668 26.52 137.948 25.96 136.588 25.96C135.788 25.96 135.108 26.12 134.308 26.44C134.308 26.64 134.308 26.76 134.308 26.88C134.308 27.32 134.228 28.08 134.148 28.52L131.468 41H125.428L128.068 28.64C128.068 28.24 128.068 27.88 128.068 27.6C128.068 26.52 127.348 25.96 125.908 25.96C125.268 25.96 124.668 26.04 123.828 26.32L120.708 41H114.668ZM166.783 21.76L162.423 40.72C159.863 41.12 158.503 41.24 156.743 41.24C150.383 41.24 147.223 38.72 147.223 33.72C147.223 29.6 149.423 25.96 153.223 23.76C155.863 22.24 158.943 21.52 162.863 21.52C164.183 21.52 165.383 21.6 166.783 21.76ZM157.583 36.56L159.983 26.44C159.943 26.44 159.903 26.44 159.863 26.44L159.503 26.4C156.143 26.28 153.183 29.48 153.183 33.28C153.183 35.44 154.223 36.52 156.343 36.52C156.743 36.52 156.983 36.52 157.583 36.56ZM167.277 41L171.437 21.52H177.477L173.317 41H167.277ZM172.077 18.44L173.437 12.12H179.477L178.117 18.44H172.077ZM178.367 41L184.727 11H190.807L184.407 41H178.367Z" fill="#1C1C1E"/>
</svg>
