<svg width="151" height="48" viewBox="0 0 151 48" fill="none" xmlns="http://www.w3.org/2000/svg">
<g filter="url(#filter0_dii_211_466)">
<path d="M19.1819 19.497L15.2155 36.7453C12.8867 37.1092 11.6494 37.2183 10.0483 37.2183C4.26251 37.2183 1.38779 34.9258 1.38779 30.3772C1.38779 26.6292 3.38918 23.3178 6.84611 21.3164C9.24778 19.9337 12.0497 19.2787 15.6158 19.2787C16.8166 19.2787 17.9083 19.3514 19.1819 19.497ZM10.8125 32.9608L12.9958 23.7545C12.9594 23.7545 12.923 23.7545 12.8867 23.7545L12.5592 23.7181C9.5025 23.6089 6.80973 26.52 6.80973 29.977C6.80973 31.942 7.75583 32.9245 9.68444 32.9245C10.0483 32.9245 10.2667 32.9245 10.8125 32.9608Z" fill="#7A89F0"/>
</g>
<path d="M18.4862 37L24.2102 10H29.6822L23.9222 37H18.4862ZM25.403 45.928L30.947 19.828C32.747 19.54 34.331 19.396 36.023 19.396C41.783 19.396 44.987 22.276 44.987 27.46C44.987 33.292 41.063 37.216 35.231 37.216C34.367 37.216 33.755 37.144 32.747 36.964L30.839 45.928H25.403ZM35.519 23.788L33.647 32.68C34.259 32.932 34.583 32.968 35.159 32.968C37.823 32.968 39.623 30.7 39.623 27.244C39.623 24.904 38.507 23.644 36.491 23.644C36.167 23.644 35.915 23.644 35.519 23.788ZM45.032 37L50.756 10H56.228L54.104 20.008C55.544 19.396 56.408 19.216 57.668 19.216C60.836 19.216 62.78 21.016 62.78 24.004C62.78 24.832 62.672 25.732 62.492 26.596L60.296 37H54.86L57.2 25.984C57.344 25.66 57.416 25.3 57.416 25.012C57.416 24.076 56.66 23.572 55.436 23.572C54.68 23.572 54.14 23.68 53.24 24.04L50.468 37H45.032ZM81.3574 19.684L77.4334 36.748C75.1294 37.108 73.9054 37.216 72.3214 37.216C66.5974 37.216 63.7534 34.948 63.7534 30.448C63.7534 26.74 65.7334 23.464 69.1534 21.484C71.5294 20.116 74.3014 19.468 77.8294 19.468C79.0174 19.468 80.0974 19.54 81.3574 19.684ZM73.0774 33.004L75.2374 23.896C75.2014 23.896 75.1654 23.896 75.1294 23.896L74.8054 23.86C71.7814 23.752 69.1174 26.632 69.1174 30.052C69.1174 31.996 70.0534 32.968 71.9614 32.968C72.3214 32.968 72.5374 32.968 73.0774 33.004Z" fill="#3C3C3F"/>
<path d="M85.3363 37.5L88.9003 20.76C91.4563 20.04 93.5803 19.716 95.7043 19.716C97.7563 19.716 99.1603 20.076 100.564 20.94C102.724 20.076 104.416 19.716 106.432 19.716C110.248 19.716 112.552 21.372 112.552 24.144C112.552 24.9 112.444 25.728 112.264 26.556L109.96 37.5H104.488L106.864 26.34C106.9 26.016 106.936 25.656 106.936 25.404C106.936 24.468 106.288 23.964 105.064 23.964C104.344 23.964 103.732 24.108 103.012 24.396C103.012 24.576 103.012 24.684 103.012 24.792C103.012 25.188 102.94 25.872 102.868 26.268L100.456 37.5H95.0203L97.3963 26.376C97.3963 26.016 97.3963 25.692 97.3963 25.44C97.3963 24.468 96.7483 23.964 95.4523 23.964C94.8763 23.964 94.3363 24.036 93.5803 24.288L90.7723 37.5H85.3363Z" fill="#3C3C3F"/>
<g filter="url(#filter1_dii_211_466)">
<path d="M131.182 19.497L127.216 36.7453C124.887 37.1092 123.649 37.2183 122.048 37.2183C116.263 37.2183 113.388 34.9258 113.388 30.3772C113.388 26.6292 115.389 23.3178 118.846 21.3164C121.248 19.9337 124.05 19.2787 127.616 19.2787C128.817 19.2787 129.908 19.3514 131.182 19.497ZM122.812 32.9608L124.996 23.7545C124.959 23.7545 124.923 23.7545 124.887 23.7545L124.559 23.7181C121.502 23.6089 118.81 26.52 118.81 29.977C118.81 31.942 119.756 32.9245 121.684 32.9245C122.048 32.9245 122.267 32.9245 122.812 32.9608Z" fill="#6AB9F2"/>
</g>
<path d="M130.223 37.5L133.967 19.968H139.403L135.659 37.5H130.223ZM134.543 17.196L135.767 11.508H141.203L139.979 17.196H134.543ZM138.944 37.5L144.668 10.5H150.14L144.38 37.5H138.944Z" fill="#3C3C3F"/>
<defs>
<filter id="filter0_dii_211_466" x="0.648548" y="18.5394" width="19.4997" height="19.6454" filterUnits="userSpaceOnUse" color-interpolation-filters="sRGB">
<feFlood flood-opacity="0" result="BackgroundImageFix"/>
<feColorMatrix in="SourceAlpha" type="matrix" values="0 0 0 0 0 0 0 0 0 0 0 0 0 0 0 0 0 0 127 0" result="hardAlpha"/>
<feOffset dx="0.113715" dy="0.113715"/>
<feGaussianBlur stdDeviation="0.426431"/>
<feComposite in2="hardAlpha" operator="out"/>
<feColorMatrix type="matrix" values="0 0 0 0 0 0 0 0 0 0 0 0 0 0 0 0 0 0 0.25 0"/>
<feBlend mode="normal" in2="BackgroundImageFix" result="effect1_dropShadow_211_466"/>
<feBlend mode="normal" in="SourceGraphic" in2="effect1_dropShadow_211_466" result="shape"/>
<feColorMatrix in="SourceAlpha" type="matrix" values="0 0 0 0 0 0 0 0 0 0 0 0 0 0 0 0 0 0 127 0" result="hardAlpha"/>
<feOffset dx="0.398002" dy="0.568575"/>
<feGaussianBlur stdDeviation="0.653861"/>
<feComposite in2="hardAlpha" operator="arithmetic" k2="-1" k3="1"/>
<feColorMatrix type="matrix" values="0 0 0 0 1 0 0 0 0 1 0 0 0 0 1 0 0 0 0.3 0"/>
<feBlend mode="normal" in2="shape" result="effect2_innerShadow_211_466"/>
<feColorMatrix in="SourceAlpha" type="matrix" values="0 0 0 0 0 0 0 0 0 0 0 0 0 0 0 0 0 0 127 0" result="hardAlpha"/>
<feOffset dx="-0.113715" dy="-0.113715"/>
<feGaussianBlur stdDeviation="0.568575"/>
<feComposite in2="hardAlpha" operator="arithmetic" k2="-1" k3="1"/>
<feColorMatrix type="matrix" values="0 0 0 0 0 0 0 0 0 0 0 0 0 0 0 0 0 0 0.2 0"/>
<feBlend mode="normal" in2="effect2_innerShadow_211_466" result="effect3_innerShadow_211_466"/>
</filter>
<filter id="filter1_dii_211_466" x="112.649" y="18.5394" width="19.4997" height="19.6454" filterUnits="userSpaceOnUse" color-interpolation-filters="sRGB">
<feFlood flood-opacity="0" result="BackgroundImageFix"/>
<feColorMatrix in="SourceAlpha" type="matrix" values="0 0 0 0 0 0 0 0 0 0 0 0 0 0 0 0 0 0 127 0" result="hardAlpha"/>
<feOffset dx="0.113715" dy="0.113715"/>
<feGaussianBlur stdDeviation="0.426431"/>
<feComposite in2="hardAlpha" operator="out"/>
<feColorMatrix type="matrix" values="0 0 0 0 0 0 0 0 0 0 0 0 0 0 0 0 0 0 0.25 0"/>
<feBlend mode="normal" in2="BackgroundImageFix" result="effect1_dropShadow_211_466"/>
<feBlend mode="normal" in="SourceGraphic" in2="effect1_dropShadow_211_466" result="shape"/>
<feColorMatrix in="SourceAlpha" type="matrix" values="0 0 0 0 0 0 0 0 0 0 0 0 0 0 0 0 0 0 127 0" result="hardAlpha"/>
<feOffset dx="0.398002" dy="0.568575"/>
<feGaussianBlur stdDeviation="0.653861"/>
<feComposite in2="hardAlpha" operator="arithmetic" k2="-1" k3="1"/>
<feColorMatrix type="matrix" values="0 0 0 0 1 0 0 0 0 1 0 0 0 0 1 0 0 0 0.3 0"/>
<feBlend mode="normal" in2="shape" result="effect2_innerShadow_211_466"/>
<feColorMatrix in="SourceAlpha" type="matrix" values="0 0 0 0 0 0 0 0 0 0 0 0 0 0 0 0 0 0 127 0" result="hardAlpha"/>
<feOffset dx="-0.113715" dy="-0.113715"/>
<feGaussianBlur stdDeviation="0.568575"/>
<feComposite in2="hardAlpha" operator="arithmetic" k2="-1" k3="1"/>
<feColorMatrix type="matrix" values="0 0 0 0 0 0 0 0 0 0 0 0 0 0 0 0 0 0 0.2 0"/>
<feBlend mode="normal" in2="effect2_innerShadow_211_466" result="effect3_innerShadow_211_466"/>
</filter>
</defs>
</svg>
