<svg width="388" height="278" viewBox="0 0 388 278" fill="none" xmlns="http://www.w3.org/2000/svg">
<g filter="url(#filter0_bd_413_290)">
<rect x="8" y="8" width="372" height="262" rx="10" fill="white" fill-opacity="0.6" shape-rendering="crispEdges"/>
<rect x="8" y="8" width="372" height="262" rx="10" fill="url(#paint0_linear_413_290)" shape-rendering="crispEdges"/>
<path d="M54.9858 61.5653C54.9176 60.8778 54.625 60.3437 54.108 59.9631C53.5909 59.5824 52.8892 59.392 52.0028 59.392C51.4006 59.392 50.892 59.4773 50.4773 59.6477C50.0625 59.8125 49.7443 60.0426 49.5227 60.3381C49.3068 60.6335 49.1989 60.9688 49.1989 61.3438C49.1875 61.6562 49.2528 61.929 49.3949 62.1619C49.5426 62.3949 49.7443 62.5966 50 62.767C50.2557 62.9318 50.5511 63.0767 50.8864 63.2017C51.2216 63.321 51.5795 63.4233 51.9602 63.5085L53.5284 63.8835C54.2898 64.054 54.9886 64.2812 55.625 64.5653C56.2614 64.8494 56.8125 65.1989 57.2784 65.6136C57.7443 66.0284 58.1051 66.517 58.3608 67.0795C58.6222 67.642 58.7557 68.2869 58.7614 69.0142C58.7557 70.0824 58.483 71.0085 57.9432 71.7926C57.4091 72.571 56.6364 73.1761 55.625 73.608C54.6193 74.0341 53.4063 74.2472 51.9858 74.2472C50.5767 74.2472 49.3494 74.0312 48.304 73.5994C47.2642 73.1676 46.4517 72.5284 45.8665 71.6818C45.2869 70.8295 44.983 69.7756 44.9545 68.5199H48.5256C48.5653 69.1051 48.733 69.5937 49.0284 69.9858C49.3295 70.3722 49.7301 70.6648 50.2301 70.8636C50.7358 71.0568 51.3068 71.1534 51.9432 71.1534C52.5682 71.1534 53.1108 71.0625 53.571 70.8807C54.0369 70.6989 54.3977 70.446 54.6534 70.1222C54.9091 69.7983 55.0369 69.4261 55.0369 69.0057C55.0369 68.6136 54.9205 68.2841 54.6875 68.017C54.4602 67.75 54.125 67.5227 53.6818 67.3352C53.2443 67.1477 52.7074 66.9773 52.071 66.8239L50.1705 66.3466C48.6989 65.9886 47.5369 65.429 46.6847 64.6676C45.8324 63.9062 45.4091 62.8807 45.4148 61.5909C45.4091 60.5341 45.6903 59.6108 46.2585 58.821C46.8324 58.0312 47.6193 57.4148 48.6193 56.9716C49.6193 56.5284 50.7557 56.3068 52.0284 56.3068C53.3239 56.3068 54.4545 56.5284 55.4205 56.9716C56.392 57.4148 57.1477 58.0312 57.6875 58.821C58.2273 59.6108 58.5057 60.5256 58.5227 61.5653H54.9858ZM60.7636 74V56.5455H64.4539V64.2415H64.6841L70.9653 56.5455H75.3886L68.9113 64.3608L75.4653 74H71.0505L66.2693 66.8239L64.4539 69.0398V74H60.7636ZM80.5208 56.5455V74H76.8305V56.5455H80.5208ZM83.077 74V56.5455H89.9634C91.2873 56.5455 92.4151 56.7983 93.3469 57.304C94.2788 57.804 94.989 58.5 95.4776 59.392C95.9719 60.2784 96.2191 61.3011 96.2191 62.4602C96.2191 63.6193 95.9691 64.642 95.4691 65.5284C94.9691 66.4148 94.2447 67.1051 93.2958 67.5994C92.3526 68.0937 91.2106 68.3409 89.8697 68.3409H85.4805V65.3835H89.2731C89.9833 65.3835 90.5685 65.2614 91.0288 65.017C91.4947 64.767 91.8413 64.4233 92.0685 63.9858C92.3015 63.5426 92.418 63.0341 92.418 62.4602C92.418 61.8807 92.3015 61.375 92.0685 60.9432C91.8413 60.5057 91.4947 60.1676 91.0288 59.929C90.5628 59.6847 89.9719 59.5625 89.256 59.5625H86.7674V74H83.077Z" fill="#3C3C3F"/>
<path d="M54.704 95.768H56.032V103.48H54.704V95.768ZM55.664 99.16H58.16V100.264H55.664V99.16ZM45.472 101.896H46.592C47.584 101.896 48.4533 101.885 49.2 101.864C49.9467 101.843 50.6347 101.795 51.264 101.72C51.8933 101.645 52.528 101.544 53.168 101.416L53.328 102.504C52.656 102.632 51.9947 102.733 51.344 102.808C50.704 102.883 50.0053 102.936 49.248 102.968C48.4907 102.989 47.6053 103 46.592 103H45.472V101.896ZM45.472 96.728H51.824V97.8H46.784V102.648H45.472V96.728ZM46.912 104.264H48.224V106.04H54.704V104.264H56.032V110.008H46.912V104.264ZM48.224 107.112V108.92H54.704V107.112H48.224ZM66.0308 98.424H70.1908V99.512H66.0308V98.424ZM66.0308 101.544H70.2228V102.632H66.0308V101.544ZM69.6948 95.784H71.0228V106.488H69.6948V95.784ZM61.7268 108.84H71.3588V109.928H61.7268V108.84ZM61.7268 105.448H63.0548V109.384H61.7268V105.448ZM59.8228 96.744H61.1508V99.288H65.0548V96.744H66.3668V104.024H59.8228V96.744ZM61.1508 100.328V102.952H65.0548V100.328H61.1508ZM79.9655 96.024C81.5655 96.024 82.8135 96.2427 83.7095 96.68C84.6055 97.1067 85.0535 97.72 85.0535 98.52C85.0535 99.3307 84.6055 99.9547 83.7095 100.392C82.8135 100.819 81.5655 101.032 79.9655 101.032C78.3762 101.032 77.1282 100.819 76.2215 100.392C75.3255 99.9547 74.8775 99.3307 74.8775 98.52C74.8775 97.72 75.3255 97.1067 76.2215 96.68C77.1282 96.2427 78.3762 96.024 79.9655 96.024ZM79.9655 97.016C79.1868 97.016 78.5202 97.0747 77.9655 97.192C77.4108 97.3093 76.9842 97.48 76.6855 97.704C76.3975 97.928 76.2535 98.2 76.2535 98.52C76.2535 98.84 76.3975 99.1173 76.6855 99.352C76.9842 99.576 77.4108 99.7467 77.9655 99.864C78.5202 99.9707 79.1868 100.024 79.9655 100.024C80.7548 100.024 81.4268 99.9707 81.9815 99.864C82.5362 99.7467 82.9575 99.576 83.2455 99.352C83.5442 99.1173 83.6935 98.84 83.6935 98.52C83.6935 98.2 83.5442 97.928 83.2455 97.704C82.9575 97.48 82.5362 97.3093 81.9815 97.192C81.4268 97.0747 80.7548 97.016 79.9655 97.016ZM73.4375 102.008H86.5095V103.08H73.4375V102.008ZM75.0215 104.312H84.8295V107.576H76.3495V109.32H75.0535V106.6H83.5335V105.336H75.0215V104.312ZM75.0535 109.048H85.2615V110.088H75.0535V109.048ZM94.8803 96.68H95.9363V98.616C95.9363 99.3307 95.8029 100.04 95.5363 100.744C95.2696 101.448 94.8856 102.083 94.3843 102.648C93.8936 103.213 93.2909 103.656 92.5763 103.976L91.8563 102.952C92.4856 102.675 93.0243 102.301 93.4723 101.832C93.9309 101.352 94.2776 100.829 94.5123 100.264C94.7576 99.6987 94.8803 99.1493 94.8803 98.616V96.68ZM95.1043 96.68H96.1603V98.616C96.1603 99.1387 96.2723 99.6613 96.4963 100.184C96.7309 100.696 97.0669 101.16 97.5043 101.576C97.9523 101.981 98.4803 102.307 99.0883 102.552L98.3843 103.576C97.6909 103.299 97.0989 102.904 96.6083 102.392C96.1176 101.88 95.7443 101.299 95.4883 100.648C95.2323 99.9973 95.1043 99.32 95.1043 98.616V96.68ZM102.784 95.784H104.048V104.712H102.784V95.784ZM100.48 99.656H103.2V100.744H100.48V99.656ZM99.6803 96.056H100.928V104.248H99.6803V96.056ZM99.2963 105.032C100.288 105.032 101.142 105.133 101.856 105.336C102.582 105.539 103.142 105.837 103.536 106.232C103.931 106.616 104.128 107.08 104.128 107.624C104.128 108.168 103.931 108.632 103.536 109.016C103.142 109.411 102.582 109.709 101.856 109.912C101.142 110.115 100.288 110.216 99.2963 110.216C98.3043 110.216 97.4456 110.115 96.7203 109.912C95.9949 109.709 95.4349 109.411 95.0403 109.016C94.6563 108.632 94.4643 108.168 94.4643 107.624C94.4643 107.08 94.6563 106.616 95.0403 106.232C95.4349 105.837 95.9949 105.539 96.7203 105.336C97.4456 105.133 98.3043 105.032 99.2963 105.032ZM99.2963 106.056C98.2083 106.056 97.3496 106.195 96.7203 106.472C96.0909 106.749 95.7763 107.133 95.7763 107.624C95.7763 108.115 96.0909 108.499 96.7203 108.776C97.3496 109.053 98.2083 109.192 99.2963 109.192C100.022 109.192 100.646 109.128 101.168 109C101.691 108.883 102.091 108.707 102.368 108.472C102.656 108.237 102.8 107.955 102.8 107.624C102.8 107.133 102.486 106.749 101.856 106.472C101.238 106.195 100.384 106.056 99.2963 106.056ZM116.991 98.072H119.535V99.176H116.991V98.072ZM116.991 101.112H119.535V102.216H116.991V101.112ZM106.799 102.712H107.935C108.81 102.712 109.615 102.701 110.351 102.68C111.098 102.648 111.818 102.6 112.511 102.536C113.215 102.461 113.94 102.36 114.687 102.232L114.815 103.336C114.047 103.464 113.306 103.565 112.591 103.64C111.887 103.704 111.156 103.752 110.399 103.784C109.652 103.805 108.831 103.816 107.935 103.816H106.799V102.712ZM106.767 96.632H113.279V100.648H108.111V103.256H106.799V99.608H111.983V97.72H106.767V96.632ZM116.079 95.784H117.407V104.568H116.079V95.784ZM107.999 105.336H117.407V110.232H116.079V106.424H107.999V105.336ZM130.302 95.768H131.614V110.248H130.302V95.768ZM131.31 101.72H133.982V102.84H131.31V101.72ZM120.414 98.088H128.942V99.176H120.414V98.088ZM124.75 100.36C125.432 100.36 126.035 100.504 126.558 100.792C127.091 101.08 127.507 101.475 127.806 101.976C128.115 102.467 128.27 103.037 128.27 103.688C128.27 104.339 128.115 104.915 127.806 105.416C127.507 105.917 127.091 106.312 126.558 106.6C126.035 106.877 125.432 107.016 124.75 107.016C124.067 107.016 123.459 106.877 122.926 106.6C122.403 106.312 121.987 105.917 121.678 105.416C121.368 104.915 121.214 104.339 121.214 103.688C121.214 103.037 121.368 102.467 121.678 101.976C121.987 101.475 122.403 101.08 122.926 100.792C123.459 100.504 124.067 100.36 124.75 100.36ZM124.75 101.464C124.312 101.464 123.923 101.56 123.582 101.752C123.24 101.944 122.968 102.205 122.766 102.536C122.574 102.867 122.478 103.251 122.478 103.688C122.478 104.125 122.574 104.515 122.766 104.856C122.968 105.187 123.24 105.448 123.582 105.64C123.923 105.821 124.312 105.912 124.75 105.912C125.176 105.912 125.56 105.821 125.902 105.64C126.243 105.448 126.51 105.187 126.702 104.856C126.904 104.515 127.006 104.125 127.006 103.688C127.006 103.251 126.904 102.867 126.702 102.536C126.51 102.205 126.243 101.944 125.902 101.752C125.56 101.56 125.176 101.464 124.75 101.464ZM124.062 95.944H125.39V98.568H124.062V95.944ZM136.204 97.224H145.516V98.312H136.204V97.224ZM134.812 107.112H147.884V108.216H134.812V107.112ZM139.9 101.944H141.212V107.672H139.9V101.944ZM145.004 97.224H146.332V98.648C146.332 99.2453 146.322 99.8747 146.3 100.536C146.29 101.197 146.247 101.923 146.172 102.712C146.108 103.501 145.986 104.381 145.804 105.352L144.46 105.192C144.738 103.805 144.898 102.589 144.94 101.544C144.983 100.488 145.004 99.5227 145.004 98.648V97.224ZM163.759 95.784H165.087V103.816H163.759V95.784ZM156.991 96.312H158.095V97.72C158.095 98.6053 157.925 99.4373 157.583 100.216C157.242 100.984 156.762 101.656 156.143 102.232C155.525 102.797 154.805 103.229 153.983 103.528L153.311 102.472C153.866 102.28 154.367 102.024 154.815 101.704C155.263 101.384 155.647 101.016 155.967 100.6C156.298 100.173 156.549 99.7147 156.719 99.224C156.901 98.7333 156.991 98.232 156.991 97.72V96.312ZM157.231 96.312H158.335V97.72C158.335 98.2213 158.421 98.7067 158.591 99.176C158.773 99.6347 159.023 100.061 159.343 100.456C159.674 100.851 160.063 101.197 160.511 101.496C160.959 101.795 161.45 102.029 161.983 102.2L161.343 103.256C160.735 103.053 160.181 102.771 159.679 102.408C159.178 102.045 158.746 101.624 158.383 101.144C158.021 100.664 157.738 100.136 157.535 99.56C157.333 98.9733 157.231 98.36 157.231 97.72V96.312ZM155.519 104.68H165.183V105.752H155.519V104.68ZM155.391 108.968H165.327V110.056H155.391V108.968ZM157.503 105.128H158.815V109.608H157.503V105.128ZM161.903 105.128H163.215V109.608H161.903V105.128ZM177.342 95.768H178.67V110.264H177.342V95.768ZM178.366 101.48H181.038V102.584H178.366V101.48ZM168.174 105.528H169.31C170.195 105.528 171.006 105.517 171.742 105.496C172.489 105.464 173.203 105.411 173.886 105.336C174.579 105.261 175.283 105.16 175.998 105.032L176.158 106.168C175.411 106.296 174.686 106.397 173.982 106.472C173.289 106.547 172.563 106.595 171.806 106.616C171.049 106.637 170.217 106.648 169.31 106.648H168.174V105.528ZM168.174 97.176H174.878V98.264H169.486V106.04H168.174V97.176ZM188.813 98.312H192.845V99.416H188.813V98.312ZM188.813 101.416H192.877V102.504H188.813V101.416ZM182.541 97.032H189.133V103.8H182.541V97.032ZM187.837 98.104H183.837V102.744H187.837V98.104ZM192.445 95.784H193.773V106.344H192.445V95.784ZM184.477 108.84H194.109V109.928H184.477V108.84ZM184.477 105.4H185.805V109.336H184.477V105.4ZM55.392 117.768H56.704V132.264H55.392V117.768ZM51.584 123.144H55.776V124.232H51.584V123.144ZM45.376 118.904H46.704V122.664H50.72V118.904H52.016V128.616H45.376V118.904ZM46.704 123.72V127.528H50.72V123.72H46.704ZM59.1028 125.784H72.1908V126.856H59.1028V125.784ZM60.7988 130.84H70.8148V131.928H60.7988V130.84ZM60.7988 127.912H62.1108V131.24H60.7988V127.912ZM60.8308 123.4H70.6548V124.44H60.8308V123.4ZM60.8308 118.312H70.5748V119.352H62.1588V123.8H60.8308V118.312ZM61.7588 120.84H70.1908V121.864H61.7588V120.84ZM79.9655 118.024C81.5655 118.024 82.8135 118.243 83.7095 118.68C84.6055 119.107 85.0535 119.72 85.0535 120.52C85.0535 121.331 84.6055 121.955 83.7095 122.392C82.8135 122.819 81.5655 123.032 79.9655 123.032C78.3762 123.032 77.1282 122.819 76.2215 122.392C75.3255 121.955 74.8775 121.331 74.8775 120.52C74.8775 119.72 75.3255 119.107 76.2215 118.68C77.1282 118.243 78.3762 118.024 79.9655 118.024ZM79.9655 119.016C79.1868 119.016 78.5202 119.075 77.9655 119.192C77.4108 119.309 76.9842 119.48 76.6855 119.704C76.3975 119.928 76.2535 120.2 76.2535 120.52C76.2535 120.84 76.3975 121.117 76.6855 121.352C76.9842 121.576 77.4108 121.747 77.9655 121.864C78.5202 121.971 79.1868 122.024 79.9655 122.024C80.7548 122.024 81.4268 121.971 81.9815 121.864C82.5362 121.747 82.9575 121.576 83.2455 121.352C83.5442 121.117 83.6935 120.84 83.6935 120.52C83.6935 120.2 83.5442 119.928 83.2455 119.704C82.9575 119.48 82.5362 119.309 81.9815 119.192C81.4268 119.075 80.7548 119.016 79.9655 119.016ZM73.4375 124.008H86.5095V125.08H73.4375V124.008ZM75.0215 126.312H84.8295V129.576H76.3495V131.32H75.0535V128.6H83.5335V127.336H75.0215V126.312ZM75.0535 131.048H85.2615V132.088H75.0535V131.048ZM93.5363 122.632H103.456V123.72H93.5363V122.632ZM91.8563 125.88H104.976V126.984H91.8563V125.88ZM97.6963 126.472H99.0243V132.248H97.6963V126.472ZM93.5363 118.504H94.8643V123.16H93.5363V118.504ZM106.175 129.32H119.295V130.424H106.175V129.32ZM107.775 118.872H117.663V123.272H109.119V126.152H107.807V122.2H116.351V119.96H107.775V118.872ZM107.807 125.608H117.999V126.68H107.807V125.608ZM121.886 119.224H131.198V120.312H121.886V119.224ZM120.494 129.112H133.566V130.216H120.494V129.112ZM125.582 123.944H126.894V129.672H125.582V123.944ZM130.686 119.224H132.014V120.648C132.014 121.245 132.003 121.875 131.982 122.536C131.971 123.197 131.928 123.923 131.854 124.712C131.79 125.501 131.667 126.381 131.486 127.352L130.142 127.192C130.419 125.805 130.579 124.589 130.622 123.544C130.664 122.488 130.686 121.523 130.686 120.648V119.224ZM141.505 126.808H150.817V132.056H141.505V126.808ZM149.521 127.88H142.801V130.968H149.521V127.88ZM139.761 118.632H141.073V124.648H139.761V118.632ZM139.761 124.056H140.865C141.633 124.056 142.369 124.04 143.073 124.008C143.777 123.976 144.47 123.917 145.153 123.832C145.846 123.747 146.55 123.629 147.265 123.48L147.425 124.616C146.699 124.755 145.979 124.867 145.265 124.952C144.561 125.037 143.846 125.101 143.121 125.144C142.406 125.176 141.654 125.192 140.865 125.192H139.761V124.056ZM149.489 117.768H150.817V126.104H149.489V117.768ZM145.393 120.488H149.809V121.576H145.393V120.488ZM157.087 118.888C157.791 118.888 158.415 119.096 158.959 119.512C159.503 119.917 159.925 120.499 160.223 121.256C160.533 122.013 160.687 122.904 160.687 123.928C160.687 124.952 160.533 125.843 160.223 126.6C159.925 127.357 159.503 127.944 158.959 128.36C158.415 128.776 157.791 128.984 157.087 128.984C156.394 128.984 155.77 128.776 155.215 128.36C154.671 127.944 154.245 127.357 153.935 126.6C153.637 125.843 153.487 124.952 153.487 123.928C153.487 122.904 153.637 122.013 153.935 121.256C154.245 120.499 154.671 119.917 155.215 119.512C155.77 119.096 156.394 118.888 157.087 118.888ZM157.087 120.072C156.629 120.072 156.223 120.232 155.871 120.552C155.519 120.861 155.242 121.309 155.039 121.896C154.847 122.472 154.751 123.149 154.751 123.928C154.751 124.707 154.847 125.389 155.039 125.976C155.242 126.552 155.519 127 155.871 127.32C156.223 127.64 156.629 127.8 157.087 127.8C157.557 127.8 157.967 127.64 158.319 127.32C158.671 127 158.943 126.552 159.135 125.976C159.338 125.389 159.439 124.707 159.439 123.928C159.439 123.149 159.338 122.472 159.135 121.896C158.943 121.309 158.671 120.861 158.319 120.552C157.967 120.232 157.557 120.072 157.087 120.072ZM163.823 117.768H165.135V132.264H163.823V117.768ZM160.255 123.288H164.415V124.36H160.255V123.288ZM177.342 117.768H178.67V132.232H177.342V117.768ZM178.318 123.64H180.974V124.744H178.318V123.64ZM173.646 119.32H174.942C174.942 120.696 174.718 122.013 174.27 123.272C173.822 124.52 173.118 125.677 172.158 126.744C171.198 127.8 169.934 128.717 168.366 129.496L167.63 128.472C168.974 127.8 170.089 127.016 170.974 126.12C171.87 125.213 172.537 124.211 172.974 123.112C173.422 122.003 173.646 120.808 173.646 119.528V119.32ZM168.302 119.32H174.318V120.424H168.302V119.32ZM183.533 124.536H193.469V125.608H183.533V124.536ZM181.869 129.32H194.989V130.424H181.869V129.32ZM187.741 125H189.053V129.752H187.741V125ZM183.533 118.92H193.325V120.024H184.861V125.016H183.533V118.92ZM203.36 124.824H204.624V128.232H203.36V124.824ZM200.304 129.128L200.112 128.008C200.624 128.008 201.189 128.008 201.808 128.008C202.437 127.997 203.088 127.981 203.76 127.96C204.432 127.928 205.098 127.891 205.76 127.848C206.421 127.805 207.034 127.747 207.6 127.672L207.68 128.648C206.901 128.776 206.064 128.877 205.168 128.952C204.272 129.027 203.397 129.075 202.544 129.096C201.701 129.117 200.954 129.128 200.304 129.128ZM211.232 117.768H212.512V132.248H211.232V117.768ZM209.04 123.784H211.632V124.872H209.04V123.784ZM208.256 118.088H209.504V131.48H208.256V118.088ZM200.864 124.008H207.104V125.08H200.864V124.008ZM200.864 119.24H206.976V120.328H202.16V124.344H200.864V119.24ZM217.822 125.224H219.134V129.544H217.822V125.224ZM223.166 125.224H224.494V129.544H223.166V125.224ZM214.606 129.288H227.726V130.392H214.606V129.288ZM221.134 118.68C222.158 118.68 223.065 118.835 223.854 119.144C224.644 119.453 225.262 119.885 225.71 120.44C226.169 120.995 226.398 121.651 226.398 122.408C226.398 123.155 226.169 123.811 225.71 124.376C225.262 124.931 224.644 125.363 223.854 125.672C223.065 125.971 222.158 126.12 221.134 126.12C220.121 126.12 219.214 125.971 218.414 125.672C217.625 125.363 217.006 124.931 216.558 124.376C216.11 123.811 215.886 123.155 215.886 122.408C215.886 121.651 216.11 120.995 216.558 120.44C217.006 119.885 217.625 119.453 218.414 119.144C219.214 118.835 220.121 118.68 221.134 118.68ZM221.134 119.736C220.366 119.736 219.684 119.848 219.086 120.072C218.489 120.296 218.02 120.611 217.678 121.016C217.337 121.411 217.166 121.875 217.166 122.408C217.166 122.941 217.337 123.411 217.678 123.816C218.02 124.211 218.489 124.52 219.086 124.744C219.684 124.968 220.366 125.08 221.134 125.08C221.913 125.08 222.601 124.968 223.198 124.744C223.796 124.52 224.265 124.211 224.606 123.816C224.948 123.411 225.118 122.941 225.118 122.408C225.118 121.875 224.948 121.411 224.606 121.016C224.265 120.611 223.796 120.296 223.198 120.072C222.601 119.848 221.913 119.736 221.134 119.736Z" fill="#8E8E93"/>
<path d="M179.293 207.875H207.709C208.211 207.877 208.702 208.028 209.119 208.309C209.536 208.59 209.86 208.989 210.05 209.454C210.241 209.919 210.289 210.43 210.189 210.923C210.089 211.415 209.845 211.867 209.488 212.221L195.305 226.404C195.069 226.642 194.788 226.831 194.478 226.96C194.168 227.089 193.836 227.156 193.501 227.156C193.165 227.156 192.833 227.089 192.523 226.96C192.213 226.831 191.932 226.642 191.696 226.404L177.514 212.221C177.157 211.867 176.913 211.415 176.813 210.923C176.713 210.43 176.761 209.919 176.951 209.454C177.142 208.989 177.466 208.59 177.883 208.309C178.299 208.028 178.79 207.877 179.293 207.875Z" fill="#3C3C3F"/>
</g>
<defs>
<filter id="filter0_bd_413_290" x="-52" y="-52" width="492" height="382" filterUnits="userSpaceOnUse" color-interpolation-filters="sRGB">
<feFlood flood-opacity="0" result="BackgroundImageFix"/>
<feGaussianBlur in="BackgroundImageFix" stdDeviation="30"/>
<feComposite in2="SourceAlpha" operator="in" result="effect1_backgroundBlur_413_290"/>
<feColorMatrix in="SourceAlpha" type="matrix" values="0 0 0 0 0 0 0 0 0 0 0 0 0 0 0 0 0 0 127 0" result="hardAlpha"/>
<feOffset/>
<feGaussianBlur stdDeviation="4"/>
<feComposite in2="hardAlpha" operator="out"/>
<feColorMatrix type="matrix" values="0 0 0 0 0 0 0 0 0 0 0 0 0 0 0 0 0 0 0.04 0"/>
<feBlend mode="normal" in2="effect1_backgroundBlur_413_290" result="effect2_dropShadow_413_290"/>
<feBlend mode="normal" in="SourceGraphic" in2="effect2_dropShadow_413_290" result="shape"/>
</filter>
<linearGradient id="paint0_linear_413_290" x1="194" y1="8" x2="194" y2="270" gradientUnits="userSpaceOnUse">
<stop stop-color="#E6E9FF"/>
<stop offset="1" stop-color="white"/>
</linearGradient>
</defs>
</svg>
