<svg width="388" height="344" viewBox="0 0 388 344" fill="none" xmlns="http://www.w3.org/2000/svg">
<g filter="url(#filter0_bd_413_282)">
<rect x="8" y="8" width="372" height="328" rx="10" fill="white" fill-opacity="0.6" shape-rendering="crispEdges"/>
<rect x="8" y="8" width="372" height="328" rx="10" fill="url(#paint0_linear_413_282)" shape-rendering="crispEdges"/>
<path d="M45.517 74V56.5455H57.2784V59.5881H49.2074V63.7472H56.6733V66.7898H49.2074V70.9574H57.3125V74H45.517ZM74.3318 56.5455V74H71.1443L63.5505 63.0142H63.4227V74H59.7324V56.5455H62.971L70.5051 67.5227H70.6585V56.5455H74.3318ZM76.236 59.5881V56.5455H90.5713V59.5881H85.2275V74H81.5798V59.5881H76.236ZM92.452 74V56.5455H104.213V59.5881H96.1424V63.7472H103.608V66.7898H96.1424V70.9574H104.248V74H92.452ZM106.667 74V56.5455H113.554C114.872 56.5455 115.997 56.7812 116.929 57.2528C117.866 57.7187 118.579 58.3807 119.068 59.2386C119.562 60.0909 119.809 61.0937 119.809 62.2472C119.809 63.4062 119.559 64.4034 119.059 65.2386C118.559 66.0682 117.835 66.7045 116.886 67.1477C115.943 67.5909 114.801 67.8125 113.46 67.8125H108.849V64.8466H112.863C113.568 64.8466 114.153 64.75 114.619 64.5568C115.085 64.3636 115.432 64.0739 115.659 63.6875C115.892 63.3011 116.008 62.821 116.008 62.2472C116.008 61.6676 115.892 61.179 115.659 60.7812C115.432 60.3835 115.082 60.0824 114.611 59.8778C114.145 59.6676 113.557 59.5625 112.846 59.5625H110.358V74H106.667ZM116.093 66.0568L120.432 74H116.358L112.113 66.0568H116.093ZM127.012 74V56.5455H130.702V64.2415H130.933L137.214 56.5455H141.637L135.16 64.3608L141.714 74H137.299L132.518 66.8239L130.702 69.0398V74H127.012ZM143.079 74V56.5455H154.84V59.5881H146.769V63.7472H154.235V66.7898H146.769V70.9574H154.874V74H143.079ZM156.272 56.5455H160.405L164.385 64.0625H164.556L168.536 56.5455H172.669L166.303 67.8295V74H162.638V67.8295L156.272 56.5455Z" fill="#3C3C3F"/>
<path d="M54.704 95.768H56.032V103.48H54.704V95.768ZM55.664 99.16H58.16V100.264H55.664V99.16ZM45.472 101.896H46.592C47.584 101.896 48.4533 101.885 49.2 101.864C49.9467 101.843 50.6347 101.795 51.264 101.72C51.8933 101.645 52.528 101.544 53.168 101.416L53.328 102.504C52.656 102.632 51.9947 102.733 51.344 102.808C50.704 102.883 50.0053 102.936 49.248 102.968C48.4907 102.989 47.6053 103 46.592 103H45.472V101.896ZM45.472 96.728H51.824V97.8H46.784V102.648H45.472V96.728ZM46.912 104.264H48.224V106.04H54.704V104.264H56.032V110.008H46.912V104.264ZM48.224 107.112V108.92H54.704V107.112H48.224ZM66.0308 98.424H70.1908V99.512H66.0308V98.424ZM66.0308 101.544H70.2228V102.632H66.0308V101.544ZM69.6948 95.784H71.0228V106.488H69.6948V95.784ZM61.7268 108.84H71.3588V109.928H61.7268V108.84ZM61.7268 105.448H63.0548V109.384H61.7268V105.448ZM59.8228 96.744H61.1508V99.288H65.0548V96.744H66.3668V104.024H59.8228V96.744ZM61.1508 100.328V102.952H65.0548V100.328H61.1508ZM79.9655 96.024C81.5655 96.024 82.8135 96.2427 83.7095 96.68C84.6055 97.1067 85.0535 97.72 85.0535 98.52C85.0535 99.3307 84.6055 99.9547 83.7095 100.392C82.8135 100.819 81.5655 101.032 79.9655 101.032C78.3762 101.032 77.1282 100.819 76.2215 100.392C75.3255 99.9547 74.8775 99.3307 74.8775 98.52C74.8775 97.72 75.3255 97.1067 76.2215 96.68C77.1282 96.2427 78.3762 96.024 79.9655 96.024ZM79.9655 97.016C79.1868 97.016 78.5202 97.0747 77.9655 97.192C77.4108 97.3093 76.9842 97.48 76.6855 97.704C76.3975 97.928 76.2535 98.2 76.2535 98.52C76.2535 98.84 76.3975 99.1173 76.6855 99.352C76.9842 99.576 77.4108 99.7467 77.9655 99.864C78.5202 99.9707 79.1868 100.024 79.9655 100.024C80.7548 100.024 81.4268 99.9707 81.9815 99.864C82.5362 99.7467 82.9575 99.576 83.2455 99.352C83.5442 99.1173 83.6935 98.84 83.6935 98.52C83.6935 98.2 83.5442 97.928 83.2455 97.704C82.9575 97.48 82.5362 97.3093 81.9815 97.192C81.4268 97.0747 80.7548 97.016 79.9655 97.016ZM73.4375 102.008H86.5095V103.08H73.4375V102.008ZM75.0215 104.312H84.8295V107.576H76.3495V109.32H75.0535V106.6H83.5335V105.336H75.0215V104.312ZM75.0535 109.048H85.2615V110.088H75.0535V109.048ZM102.384 95.768H103.712V103.544H102.384V95.768ZM94.4003 104.264H95.6963V106.008H102.4V104.264H103.712V110.056H94.4003V104.264ZM95.6963 107.064V108.968H102.4V107.064H95.6963ZM95.9523 96.456C96.6883 96.456 97.3389 96.6 97.9043 96.888C98.4696 97.1653 98.9123 97.5547 99.2323 98.056C99.5629 98.5573 99.7283 99.1387 99.7283 99.8C99.7283 100.451 99.5629 101.032 99.2323 101.544C98.9123 102.045 98.4696 102.435 97.9043 102.712C97.3389 102.989 96.6883 103.128 95.9523 103.128C95.2269 103.128 94.5763 102.989 94.0003 102.712C93.4349 102.435 92.9869 102.045 92.6563 101.544C92.3363 101.032 92.1763 100.451 92.1763 99.8C92.1763 99.1387 92.3363 98.5573 92.6563 98.056C92.9869 97.5547 93.4349 97.1653 94.0003 96.888C94.5763 96.6 95.2269 96.456 95.9523 96.456ZM95.9523 97.576C95.4723 97.576 95.0456 97.672 94.6723 97.864C94.2989 98.0453 94.0056 98.3067 93.7923 98.648C93.5789 98.9787 93.4723 99.3627 93.4723 99.8C93.4723 100.227 93.5789 100.611 93.7923 100.952C94.0056 101.283 94.2989 101.544 94.6723 101.736C95.0456 101.928 95.4723 102.024 95.9523 102.024C96.4323 102.024 96.8589 101.928 97.2323 101.736C97.6056 101.544 97.8989 101.283 98.1123 100.952C98.3256 100.611 98.4323 100.227 98.4323 99.8C98.4323 99.3627 98.3256 98.9787 98.1123 98.648C97.8989 98.3067 97.6056 98.0453 97.2323 97.864C96.8589 97.672 96.4323 97.576 95.9523 97.576ZM106.783 102.952H107.807C108.756 102.952 109.567 102.947 110.239 102.936C110.922 102.915 111.54 102.877 112.095 102.824C112.66 102.771 113.231 102.691 113.807 102.584L113.935 103.672C113.498 103.747 113.066 103.811 112.639 103.864C112.212 103.907 111.764 103.939 111.295 103.96C110.826 103.981 110.308 103.997 109.743 104.008C109.178 104.019 108.532 104.024 107.807 104.024H106.783V102.952ZM106.751 96.648H112.975V100.744H108.095V103.592H106.783V99.72H111.663V97.72H106.751V96.648ZM116.751 95.784H118.079V104.68H116.751V95.784ZM113.935 97.928H117.055V99H113.935V97.928ZM113.935 100.92H117.055V102.008H113.935V100.92ZM108.399 105.448H118.079V110.264H116.751V106.536H108.399V105.448ZM130.302 95.768H131.614V110.248H130.302V95.768ZM131.31 101.72H133.982V102.84H131.31V101.72ZM120.414 98.088H128.942V99.176H120.414V98.088ZM124.75 100.36C125.432 100.36 126.035 100.504 126.558 100.792C127.091 101.08 127.507 101.475 127.806 101.976C128.115 102.467 128.27 103.037 128.27 103.688C128.27 104.339 128.115 104.915 127.806 105.416C127.507 105.917 127.091 106.312 126.558 106.6C126.035 106.877 125.432 107.016 124.75 107.016C124.067 107.016 123.459 106.877 122.926 106.6C122.403 106.312 121.987 105.917 121.678 105.416C121.368 104.915 121.214 104.339 121.214 103.688C121.214 103.037 121.368 102.467 121.678 101.976C121.987 101.475 122.403 101.08 122.926 100.792C123.459 100.504 124.067 100.36 124.75 100.36ZM124.75 101.464C124.312 101.464 123.923 101.56 123.582 101.752C123.24 101.944 122.968 102.205 122.766 102.536C122.574 102.867 122.478 103.251 122.478 103.688C122.478 104.125 122.574 104.515 122.766 104.856C122.968 105.187 123.24 105.448 123.582 105.64C123.923 105.821 124.312 105.912 124.75 105.912C125.176 105.912 125.56 105.821 125.902 105.64C126.243 105.448 126.51 105.187 126.702 104.856C126.904 104.515 127.006 104.125 127.006 103.688C127.006 103.251 126.904 102.867 126.702 102.536C126.51 102.205 126.243 101.944 125.902 101.752C125.56 101.56 125.176 101.464 124.75 101.464ZM124.062 95.944H125.39V98.568H124.062V95.944ZM136.204 97.224H145.516V98.312H136.204V97.224ZM134.812 107.112H147.884V108.216H134.812V107.112ZM139.9 101.944H141.212V107.672H139.9V101.944ZM145.004 97.224H146.332V98.648C146.332 99.2453 146.322 99.8747 146.3 100.536C146.29 101.197 146.247 101.923 146.172 102.712C146.108 103.501 145.986 104.381 145.804 105.352L144.46 105.192C144.738 103.805 144.898 102.589 144.94 101.544C144.983 100.488 145.004 99.5227 145.004 98.648V97.224ZM153.84 109V97.3636H160.863V98.6136H155.249V102.545H160.499V103.795H155.249V107.75H160.954V109H153.84ZM172.23 97.3636V109H170.866L164.526 99.8636H164.412V109H163.003V97.3636H164.366L170.73 106.523H170.844V97.3636H172.23ZM174.013 98.6136V97.3636H182.741V98.6136H179.082V109H177.672V98.6136H174.013ZM184.515 109V97.3636H191.538V98.6136H185.924V102.545H191.174V103.795H185.924V107.75H191.629V109H184.515ZM193.678 109V97.3636H197.61C198.519 97.3636 199.265 97.5189 199.848 97.8295C200.432 98.1364 200.863 98.5587 201.144 99.0966C201.424 99.6345 201.564 100.246 201.564 100.932C201.564 101.617 201.424 102.225 201.144 102.756C200.863 103.286 200.434 103.703 199.854 104.006C199.274 104.305 198.534 104.455 197.632 104.455H194.451V103.182H197.587C198.208 103.182 198.708 103.091 199.087 102.909C199.47 102.727 199.746 102.47 199.916 102.136C200.091 101.799 200.178 101.398 200.178 100.932C200.178 100.466 200.091 100.059 199.916 99.7102C199.742 99.3617 199.464 99.0928 199.081 98.9034C198.699 98.7102 198.193 98.6136 197.564 98.6136H195.087V109H193.678ZM199.155 103.773L202.019 109H200.382L197.564 103.773H199.155ZM202.887 102.488H216.007V103.512H202.887V102.488ZM204.455 104.664H214.375V107.752H205.799V109.448H204.487V106.84H213.063V105.624H204.455V104.664ZM204.487 109.096H214.839V110.056H204.487V109.096ZM204.551 96.2H214.327V99.208H205.895V100.776H204.583V98.312H213.015V97.144H204.551V96.2ZM204.583 100.456H214.583V101.416H204.583V100.456ZM222.986 96.456H232.298V97.528H222.986V96.456ZM231.434 96.456H232.746V97.56C232.746 98.168 232.725 98.84 232.682 99.576C232.65 100.301 232.527 101.144 232.314 102.104L231.018 101.96C231.231 101.021 231.354 100.205 231.386 99.512C231.418 98.808 231.434 98.1573 231.434 97.56V96.456ZM231.818 98.888V99.832L222.81 100.232L222.634 99.176L231.818 98.888ZM221.338 101.688H234.378V102.76H221.338V101.688ZM222.858 104.12H232.842V107.496H224.202V109.448H222.89V106.504H231.53V105.16H222.858V104.12ZM222.89 109H233.354V110.056H222.89V109ZM246.169 95.784H247.497V104.616H246.169V95.784ZM237.833 105.4H247.497V110.248H246.169V106.504H237.833V105.4ZM236.393 102.712H237.561C238.435 102.712 239.246 102.701 239.993 102.68C240.75 102.659 241.486 102.616 242.201 102.552C242.915 102.477 243.657 102.381 244.425 102.264L244.585 103.352C243.785 103.48 243.017 103.576 242.281 103.64C241.555 103.704 240.809 103.752 240.041 103.784C239.283 103.805 238.457 103.816 237.561 103.816H236.393V102.712ZM236.361 96.632H242.921V100.648H237.689V103.256H236.393V99.608H241.625V97.72H236.361V96.632ZM259.767 95.768H261.079V110.248H259.767V95.768ZM260.775 101.72H263.447V102.84H260.775V101.72ZM249.879 98.088H258.407V99.176H249.879V98.088ZM254.215 100.36C254.898 100.36 255.501 100.504 256.023 100.792C256.557 101.08 256.973 101.475 257.271 101.976C257.581 102.467 257.735 103.037 257.735 103.688C257.735 104.339 257.581 104.915 257.271 105.416C256.973 105.917 256.557 106.312 256.023 106.6C255.501 106.877 254.898 107.016 254.215 107.016C253.533 107.016 252.925 106.877 252.391 106.6C251.869 106.312 251.453 105.917 251.143 105.416C250.834 104.915 250.679 104.339 250.679 103.688C250.679 103.037 250.834 102.467 251.143 101.976C251.453 101.475 251.869 101.08 252.391 100.792C252.925 100.504 253.533 100.36 254.215 100.36ZM254.215 101.464C253.778 101.464 253.389 101.56 253.047 101.752C252.706 101.944 252.434 102.205 252.231 102.536C252.039 102.867 251.943 103.251 251.943 103.688C251.943 104.125 252.039 104.515 252.231 104.856C252.434 105.187 252.706 105.448 253.047 105.64C253.389 105.821 253.778 105.912 254.215 105.912C254.642 105.912 255.026 105.821 255.367 105.64C255.709 105.448 255.975 105.187 256.167 104.856C256.37 104.515 256.471 104.125 256.471 103.688C256.471 103.251 256.37 102.867 256.167 102.536C255.975 102.205 255.709 101.944 255.367 101.752C255.026 101.56 254.642 101.464 254.215 101.464ZM253.527 95.944H254.855V98.568H253.527V95.944ZM271.222 98.312H275.254V99.416H271.222V98.312ZM271.222 101.416H275.286V102.504H271.222V101.416ZM264.95 97.032H271.542V103.8H264.95V97.032ZM270.246 98.104H266.246V102.744H270.246V98.104ZM274.854 95.784H276.182V106.344H274.854V95.784ZM266.886 108.84H276.518V109.928H266.886V108.84ZM266.886 105.4H268.214V109.336H266.886V105.4ZM54.592 117.768H55.92V132.264H54.592V117.768ZM55.616 123.48H58.288V124.584H55.616V123.48ZM45.424 127.528H46.56C47.4453 127.528 48.256 127.517 48.992 127.496C49.7387 127.464 50.4533 127.411 51.136 127.336C51.8293 127.261 52.5333 127.16 53.248 127.032L53.408 128.168C52.6613 128.296 51.936 128.397 51.232 128.472C50.5387 128.547 49.8133 128.595 49.056 128.616C48.2987 128.637 47.4667 128.648 46.56 128.648H45.424V127.528ZM45.424 119.176H52.128V120.264H46.736V128.04H45.424V119.176ZM65.6468 118.088C66.6921 118.088 67.5934 118.2 68.3508 118.424C69.1188 118.637 69.7054 118.947 70.1108 119.352C70.5268 119.757 70.7348 120.253 70.7348 120.84C70.7348 121.405 70.5268 121.896 70.1108 122.312C69.7054 122.717 69.1188 123.027 68.3508 123.24C67.5934 123.453 66.6921 123.56 65.6468 123.56C64.6121 123.56 63.7108 123.453 62.9428 123.24C62.1854 123.027 61.5988 122.717 61.1828 122.312C60.7668 121.896 60.5588 121.405 60.5588 120.84C60.5588 120.253 60.7668 119.757 61.1828 119.352C61.5988 118.947 62.1854 118.637 62.9428 118.424C63.7108 118.2 64.6121 118.088 65.6468 118.088ZM65.6468 119.144C64.8894 119.144 64.2281 119.213 63.6628 119.352C63.1081 119.48 62.6761 119.672 62.3668 119.928C62.0681 120.173 61.9188 120.477 61.9188 120.84C61.9188 121.181 62.0681 121.48 62.3668 121.736C62.6761 121.981 63.1081 122.173 63.6628 122.312C64.2281 122.44 64.8894 122.504 65.6468 122.504C66.4148 122.504 67.0761 122.44 67.6308 122.312C68.1961 122.173 68.6281 121.981 68.9268 121.736C69.2254 121.48 69.3748 121.181 69.3748 120.84C69.3748 120.477 69.2254 120.173 68.9268 119.928C68.6281 119.672 68.1961 119.48 67.6308 119.352C67.0761 119.213 66.4148 119.144 65.6468 119.144ZM60.7188 127.288H70.5908V132.056H60.7188V127.288ZM69.2948 128.36H62.0148V130.968H69.2948V128.36ZM59.1188 124.792H72.1908V125.88H59.1188V124.792ZM88.0655 117.768H89.3935V125.272H88.0655V117.768ZM80.0335 125.976H89.3935V129.448H81.3615V131.496H80.0815V128.472H88.0815V127.016H80.0335V125.976ZM80.0815 131.032H89.8895V132.088H80.0815V131.032ZM81.3935 119.048H82.4815V119.816C82.4815 120.659 82.3055 121.448 81.9535 122.184C81.6122 122.909 81.1322 123.544 80.5135 124.088C79.8948 124.621 79.1748 125.027 78.3535 125.304L77.7295 124.248C78.2735 124.077 78.7695 123.843 79.2175 123.544C79.6655 123.245 80.0495 122.899 80.3695 122.504C80.7002 122.109 80.9508 121.688 81.1215 121.24C81.3028 120.781 81.3935 120.307 81.3935 119.816V119.048ZM81.6655 119.048H82.7375V119.816C82.7375 120.275 82.8228 120.723 82.9935 121.16C83.1748 121.587 83.4308 121.981 83.7615 122.344C84.0922 122.707 84.4815 123.027 84.9295 123.304C85.3775 123.581 85.8682 123.8 86.4015 123.96L85.7615 125C84.9508 124.744 84.2362 124.365 83.6175 123.864C83.0095 123.352 82.5295 122.755 82.1775 122.072C81.8362 121.379 81.6655 120.627 81.6655 119.816V119.048ZM78.0815 118.584H86.0015V119.672H78.0815V118.584ZM91.8403 125.16H104.96V126.248H91.8403V125.16ZM97.8243 125.848H99.1523V129.176H97.8243V125.848ZM93.5363 118.456H103.248V123.528H93.5363V118.456ZM101.952 119.512H94.8323V122.472H101.952V119.512ZM93.5043 130.84H103.504V131.928H93.5043V130.84ZM93.5043 127.784H94.8323V131.208H93.5043V127.784ZM112.703 118.696C113.716 118.696 114.618 118.861 115.407 119.192C116.196 119.523 116.82 119.987 117.279 120.584C117.738 121.181 117.967 121.88 117.967 122.68C117.967 123.491 117.738 124.195 117.279 124.792C116.82 125.389 116.196 125.853 115.407 126.184C114.618 126.515 113.716 126.68 112.703 126.68C111.711 126.68 110.815 126.515 110.015 126.184C109.226 125.853 108.602 125.389 108.143 124.792C107.684 124.195 107.455 123.491 107.455 122.68C107.455 121.88 107.684 121.181 108.143 120.584C108.602 119.987 109.226 119.523 110.015 119.192C110.815 118.861 111.711 118.696 112.703 118.696ZM112.703 119.768C111.946 119.768 111.268 119.891 110.671 120.136C110.074 120.381 109.599 120.723 109.247 121.16C108.895 121.587 108.719 122.093 108.719 122.68C108.719 123.256 108.895 123.763 109.247 124.2C109.599 124.637 110.074 124.979 110.671 125.224C111.268 125.469 111.946 125.592 112.703 125.592C113.471 125.592 114.154 125.469 114.751 125.224C115.348 124.979 115.818 124.637 116.159 124.2C116.511 123.763 116.687 123.256 116.687 122.68C116.687 122.093 116.511 121.587 116.159 121.16C115.818 120.723 115.348 120.381 114.751 120.136C114.154 119.891 113.471 119.768 112.703 119.768ZM106.175 129.224H119.295V130.328H106.175V129.224ZM120.494 129.352H133.614V130.456H120.494V129.352ZM126.366 126.264H127.678V129.816H126.366V126.264ZM122.094 118.84H131.982V123.224H123.438V126.12H122.126V122.168H130.67V119.928H122.094V118.84ZM122.126 125.56H132.318V126.648H122.126V125.56ZM149.425 117.768H150.753V132.264H149.425V117.768ZM143.121 118.888C143.835 118.888 144.465 119.096 145.009 119.512C145.563 119.917 145.995 120.499 146.305 121.256C146.625 122.013 146.785 122.904 146.785 123.928C146.785 124.952 146.625 125.843 146.305 126.6C145.995 127.357 145.563 127.944 145.009 128.36C144.465 128.776 143.835 128.984 143.121 128.984C142.406 128.984 141.771 128.776 141.217 128.36C140.662 127.944 140.225 127.357 139.905 126.6C139.595 125.843 139.441 124.952 139.441 123.928C139.441 122.904 139.595 122.013 139.905 121.256C140.225 120.499 140.662 119.917 141.217 119.512C141.771 119.096 142.406 118.888 143.121 118.888ZM143.121 120.072C142.641 120.072 142.219 120.232 141.857 120.552C141.505 120.861 141.227 121.309 141.025 121.896C140.822 122.472 140.721 123.149 140.721 123.928C140.721 124.707 140.822 125.389 141.025 125.976C141.227 126.552 141.505 127 141.857 127.32C142.219 127.64 142.641 127.8 143.121 127.8C143.59 127.8 144.001 127.64 144.353 127.32C144.715 127 144.998 126.552 145.201 125.976C145.403 125.389 145.505 124.707 145.505 123.928C145.505 123.149 145.403 122.472 145.201 121.896C144.998 121.309 144.715 120.861 144.353 120.552C144.001 120.232 143.59 120.072 143.121 120.072ZM153.231 124.904H166.319V125.976H153.231V124.904ZM159.119 122.584H160.415V125.352H159.119V122.584ZM154.879 122.168H164.783V123.24H154.879V122.168ZM154.879 118.44H164.687V119.496H156.191V122.808H154.879V118.44ZM159.759 127.016C161.306 127.016 162.517 127.245 163.391 127.704C164.266 128.152 164.703 128.792 164.703 129.624C164.703 130.456 164.266 131.096 163.391 131.544C162.517 132.003 161.306 132.232 159.759 132.232C158.213 132.232 156.997 132.003 156.111 131.544C155.237 131.096 154.799 130.456 154.799 129.624C154.799 128.792 155.237 128.152 156.111 127.704C156.997 127.245 158.213 127.016 159.759 127.016ZM159.743 128.056C158.997 128.056 158.351 128.12 157.807 128.248C157.274 128.365 156.863 128.541 156.575 128.776C156.287 129 156.143 129.283 156.143 129.624C156.143 129.955 156.287 130.237 156.575 130.472C156.863 130.707 157.274 130.883 157.807 131C158.351 131.128 158.997 131.192 159.743 131.192C160.511 131.192 161.162 131.128 161.695 131C162.239 130.883 162.655 130.707 162.943 130.472C163.231 130.237 163.375 129.955 163.375 129.624C163.375 129.283 163.231 129 162.943 128.776C162.655 128.541 162.239 128.365 161.695 128.248C161.162 128.12 160.511 128.056 159.743 128.056ZM167.518 120.248H174.702V121.336H167.518V120.248ZM171.118 122.296C171.726 122.296 172.259 122.435 172.718 122.712C173.187 122.989 173.555 123.379 173.822 123.88C174.089 124.371 174.222 124.941 174.222 125.592C174.222 126.243 174.089 126.819 173.822 127.32C173.555 127.811 173.187 128.2 172.718 128.488C172.259 128.765 171.726 128.904 171.118 128.904C170.521 128.904 169.987 128.765 169.518 128.488C169.049 128.2 168.681 127.811 168.414 127.32C168.147 126.819 168.014 126.243 168.014 125.592C168.014 124.941 168.147 124.371 168.414 123.88C168.681 123.389 169.049 123.005 169.518 122.728C169.987 122.44 170.521 122.296 171.118 122.296ZM171.118 123.416C170.755 123.416 170.425 123.512 170.126 123.704C169.838 123.885 169.609 124.141 169.438 124.472C169.278 124.792 169.198 125.165 169.198 125.592C169.198 126.019 169.278 126.397 169.438 126.728C169.609 127.059 169.838 127.315 170.126 127.496C170.425 127.677 170.755 127.768 171.118 127.768C171.491 127.768 171.822 127.677 172.11 127.496C172.398 127.315 172.622 127.059 172.782 126.728C172.953 126.397 173.038 126.019 173.038 125.592C173.038 125.165 172.953 124.792 172.782 124.472C172.622 124.141 172.398 123.885 172.11 123.704C171.822 123.512 171.491 123.416 171.118 123.416ZM178.526 117.768H179.79V132.248H178.526V117.768ZM176.206 123.864H178.942V124.952H176.206V123.864ZM175.422 118.104H176.67V131.544H175.422V118.104ZM170.462 118.2H171.774V120.904H170.462V118.2ZM185.085 125.224H186.397V129.544H185.085V125.224ZM190.429 125.224H191.757V129.544H190.429V125.224ZM181.869 129.288H194.989V130.392H181.869V129.288ZM188.397 118.68C189.421 118.68 190.327 118.835 191.117 119.144C191.906 119.453 192.525 119.885 192.973 120.44C193.431 120.995 193.661 121.651 193.661 122.408C193.661 123.155 193.431 123.811 192.973 124.376C192.525 124.931 191.906 125.363 191.117 125.672C190.327 125.971 189.421 126.12 188.397 126.12C187.383 126.12 186.477 125.971 185.677 125.672C184.887 125.363 184.269 124.931 183.821 124.376C183.373 123.811 183.149 123.155 183.149 122.408C183.149 121.651 183.373 120.995 183.821 120.44C184.269 119.885 184.887 119.453 185.677 119.144C186.477 118.835 187.383 118.68 188.397 118.68ZM188.397 119.736C187.629 119.736 186.946 119.848 186.349 120.072C185.751 120.296 185.282 120.611 184.941 121.016C184.599 121.411 184.429 121.875 184.429 122.408C184.429 122.941 184.599 123.411 184.941 123.816C185.282 124.211 185.751 124.52 186.349 124.744C186.946 124.968 187.629 125.08 188.397 125.08C189.175 125.08 189.863 124.968 190.461 124.744C191.058 124.52 191.527 124.211 191.869 123.816C192.21 123.411 192.381 122.941 192.381 122.408C192.381 121.875 192.21 121.411 191.869 121.016C191.527 120.611 191.058 120.296 190.461 120.072C189.863 119.848 189.175 119.736 188.397 119.736Z" fill="#8E8E93"/>
<g filter="url(#filter1_d_413_282)">
<path d="M244 180H176.547C171.024 180 166.547 184.477 166.547 190V219.99C166.547 225.513 162.07 229.99 156.547 229.99H119C113.477 229.99 109 234.467 109 239.99V287.3C109 292.823 113.477 297.3 119 297.3H244C249.523 297.3 254 292.823 254 287.3V190C254 184.477 249.523 180 244 180Z" fill="#F2F2F7"/>
<path d="M183.358 222V209.636H191.11V211.242H185.224V215.009H190.705V216.609H185.224V220.394H191.182V222H183.358ZM203.156 209.636V222H201.441L195.157 212.933H195.042V222H193.176V209.636H194.903L201.194 218.716H201.308V209.636H203.156ZM204.842 211.242V209.636H214.41V211.242H210.553V222H208.694V211.242H204.842ZM216.1 222V209.636H223.851V211.242H217.965V215.009H223.447V216.609H217.965V220.394H223.924V222H216.1ZM225.918 222V209.636H230.325C231.283 209.636 232.078 209.801 232.71 210.131C233.346 210.461 233.82 210.918 234.134 211.502C234.448 212.081 234.605 212.751 234.605 213.512C234.605 214.269 234.446 214.935 234.128 215.51C233.814 216.082 233.339 216.527 232.704 216.844C232.072 217.162 231.277 217.321 230.319 217.321H226.981V215.716H230.15C230.754 215.716 231.245 215.629 231.623 215.456C232.005 215.283 232.285 215.031 232.462 214.701C232.639 214.371 232.728 213.975 232.728 213.512C232.728 213.045 232.637 212.641 232.456 212.299C232.279 211.957 231.999 211.695 231.617 211.514C231.239 211.329 230.742 211.236 230.126 211.236H227.783V222H225.918ZM232.021 216.422L235.076 222H232.951L229.957 216.422H232.021Z" fill="#8E8E93"/>
<path d="M210.844 243C210.844 242.448 210.396 242 209.844 242C209.291 242 208.844 242.448 208.844 243H210.844ZM159.293 265.243C158.902 265.633 158.902 266.267 159.293 266.657L165.657 273.021C166.047 273.412 166.681 273.412 167.071 273.021C167.462 272.631 167.462 271.997 167.071 271.607L161.414 265.95L167.071 260.293C167.462 259.903 167.462 259.269 167.071 258.879C166.681 258.488 166.047 258.488 165.657 258.879L159.293 265.243ZM208.844 243V264.95H210.844V243H208.844ZM208.844 264.95H160V266.95H208.844V264.95ZM208.844 264.95V264.95V266.95C209.948 266.95 210.844 266.055 210.844 264.95H208.844Z" fill="#8E8E93"/>
</g>
</g>
<defs>
<filter id="filter0_bd_413_282" x="-52" y="-52" width="492" height="448" filterUnits="userSpaceOnUse" color-interpolation-filters="sRGB">
<feFlood flood-opacity="0" result="BackgroundImageFix"/>
<feGaussianBlur in="BackgroundImageFix" stdDeviation="30"/>
<feComposite in2="SourceAlpha" operator="in" result="effect1_backgroundBlur_413_282"/>
<feColorMatrix in="SourceAlpha" type="matrix" values="0 0 0 0 0 0 0 0 0 0 0 0 0 0 0 0 0 0 127 0" result="hardAlpha"/>
<feOffset/>
<feGaussianBlur stdDeviation="4"/>
<feComposite in2="hardAlpha" operator="out"/>
<feColorMatrix type="matrix" values="0 0 0 0 0 0 0 0 0 0 0 0 0 0 0 0 0 0 0.04 0"/>
<feBlend mode="normal" in2="effect1_backgroundBlur_413_282" result="effect2_dropShadow_413_282"/>
<feBlend mode="normal" in="SourceGraphic" in2="effect2_dropShadow_413_282" result="shape"/>
</filter>
<filter id="filter1_d_413_282" x="101" y="172" width="161" height="133.3" filterUnits="userSpaceOnUse" color-interpolation-filters="sRGB">
<feFlood flood-opacity="0" result="BackgroundImageFix"/>
<feColorMatrix in="SourceAlpha" type="matrix" values="0 0 0 0 0 0 0 0 0 0 0 0 0 0 0 0 0 0 127 0" result="hardAlpha"/>
<feOffset/>
<feGaussianBlur stdDeviation="4"/>
<feComposite in2="hardAlpha" operator="out"/>
<feColorMatrix type="matrix" values="0 0 0 0 0.478431 0 0 0 0 0.537255 0 0 0 0 0.941176 0 0 0 1 0"/>
<feBlend mode="normal" in2="BackgroundImageFix" result="effect1_dropShadow_413_282"/>
<feBlend mode="normal" in="SourceGraphic" in2="effect1_dropShadow_413_282" result="shape"/>
</filter>
<linearGradient id="paint0_linear_413_282" x1="194" y1="8" x2="194" y2="336" gradientUnits="userSpaceOnUse">
<stop stop-color="#E5F3FF"/>
<stop offset="1" stop-color="white"/>
</linearGradient>
</defs>
</svg>
