<svg width="388" height="278" viewBox="0 0 388 278" fill="none" xmlns="http://www.w3.org/2000/svg">
<g filter="url(#filter0_bd_413_295)">
<path d="M8 18C8 12.4772 12.4772 8 18 8H370C375.523 8 380 12.4772 380 18V260C380 265.523 375.523 270 370 270H18C12.4771 270 8 265.523 8 260V18Z" fill="white" fill-opacity="0.6" shape-rendering="crispEdges"/>
<path d="M8 18C8 12.4772 12.4772 8 18 8H370C375.523 8 380 12.4772 380 18V260C380 265.523 375.523 270 370 270H18C12.4771 270 8 265.523 8 260V18Z" fill="url(#paint0_linear_413_295)" shape-rendering="crispEdges"/>
<path d="M49.976 55.616H52.544V58.832C52.544 60.208 52.424 61.552 52.184 62.864C51.944 64.16 51.568 65.368 51.056 66.488C50.56 67.608 49.928 68.608 49.16 69.488C48.392 70.352 47.488 71.04 46.448 71.552L44.528 68.984C45.472 68.552 46.28 67.976 46.952 67.256C47.64 66.536 48.208 65.72 48.656 64.808C49.104 63.896 49.432 62.936 49.64 61.928C49.864 60.904 49.976 59.872 49.976 58.832V55.616ZM50.6 55.616H53.168V58.832C53.168 59.84 53.264 60.832 53.456 61.808C53.664 62.784 53.976 63.712 54.392 64.592C54.824 65.456 55.36 66.232 56 66.92C56.64 67.608 57.408 68.176 58.304 68.624L56.36 71.168C55.368 70.656 54.504 69.984 53.768 69.152C53.048 68.304 52.456 67.336 51.992 66.248C51.528 65.144 51.176 63.968 50.936 62.72C50.712 61.456 50.6 60.16 50.6 58.832V55.616ZM59.168 53.912H62.384V76.136H59.168V53.912ZM61.688 62.456H65.6V65.096H61.688V62.456ZM71.0941 61.328H74.2621V65.408H71.0941V61.328ZM78.8941 61.328H82.0861V65.408H78.8941V61.328ZM66.5581 64.448H86.6701V66.944H66.5581V64.448ZM76.5661 68.072C78.9661 68.072 80.8541 68.424 82.2301 69.128C83.6061 69.816 84.2941 70.808 84.2941 72.104C84.2941 73.384 83.6061 74.376 82.2301 75.08C80.8541 75.784 78.9661 76.136 76.5661 76.136C74.1661 76.136 72.2781 75.784 70.9021 75.08C69.5421 74.376 68.8621 73.384 68.8621 72.104C68.8621 70.808 69.5421 69.816 70.9021 69.128C72.2781 68.424 74.1661 68.072 76.5661 68.072ZM76.5661 70.472C75.5741 70.472 74.7421 70.536 74.0701 70.664C73.4141 70.776 72.9181 70.952 72.5821 71.192C72.2461 71.432 72.0781 71.736 72.0781 72.104C72.0781 72.472 72.2461 72.784 72.5821 73.04C72.9181 73.28 73.4141 73.456 74.0701 73.568C74.7421 73.68 75.5741 73.736 76.5661 73.736C77.5581 73.736 78.3821 73.68 79.0381 73.568C79.7101 73.456 80.2141 73.28 80.5501 73.04C80.8861 72.784 81.0541 72.472 81.0541 72.104C81.0541 71.736 80.8861 71.432 80.5501 71.192C80.2141 70.952 79.7101 70.776 79.0381 70.664C78.3821 70.536 77.5581 70.472 76.5661 70.472ZM76.6141 54.224C78.2621 54.224 79.6861 54.4 80.8861 54.752C82.1021 55.088 83.0381 55.576 83.6941 56.216C84.3501 56.856 84.6781 57.616 84.6781 58.496C84.6781 59.376 84.3501 60.136 83.6941 60.776C83.0381 61.4 82.1021 61.888 80.8861 62.24C79.6861 62.576 78.2621 62.744 76.6141 62.744C74.9981 62.744 73.5821 62.576 72.3661 62.24C71.1501 61.888 70.2141 61.4 69.5581 60.776C68.9021 60.136 68.5741 59.376 68.5741 58.496C68.5741 57.616 68.9021 56.856 69.5581 56.216C70.2141 55.576 71.1501 55.088 72.3661 54.752C73.5821 54.4 74.9981 54.224 76.6141 54.224ZM76.6141 56.648C75.6221 56.648 74.7661 56.72 74.0461 56.864C73.3261 56.992 72.7821 57.192 72.4141 57.464C72.0621 57.736 71.8861 58.08 71.8861 58.496C71.8861 58.896 72.0621 59.232 72.4141 59.504C72.7821 59.776 73.3261 59.984 74.0461 60.128C74.7661 60.256 75.6221 60.32 76.6141 60.32C77.6381 60.32 78.5021 60.256 79.2061 60.128C79.9101 59.984 80.4461 59.776 80.8141 59.504C81.1821 59.232 81.3661 58.896 81.3661 58.496C81.3661 58.08 81.1821 57.736 80.8141 57.464C80.4461 57.192 79.9101 56.992 79.2061 56.864C78.5021 56.72 77.6381 56.648 76.6141 56.648ZM89.0923 55.04H92.2603V57.848H96.4843V55.04H99.6283V65.432H89.0923V55.04ZM92.2603 60.272V62.864H96.4843V60.272H92.2603ZM98.9083 58.952H104.308V61.544H98.9083V58.952ZM103.564 53.912H106.78V66.08H103.564V53.912ZM92.0203 67.016H95.1883V68.984H103.612V67.016H106.756V75.848H92.0203V67.016ZM95.1883 71.456V73.328H103.612V71.456H95.1883ZM125.018 53.864H128.21V76.16H125.018V53.864ZM116.234 55.424C117.37 55.424 118.378 55.752 119.258 56.408C120.138 57.048 120.826 57.968 121.322 59.168C121.834 60.352 122.09 61.752 122.09 63.368C122.09 65 121.834 66.416 121.322 67.616C120.826 68.8 120.138 69.72 119.258 70.376C118.378 71.016 117.37 71.336 116.234 71.336C115.114 71.336 114.114 71.016 113.234 70.376C112.354 69.72 111.658 68.8 111.146 67.616C110.65 66.416 110.402 65 110.402 63.368C110.402 61.752 110.65 60.352 111.146 59.168C111.658 57.968 112.354 57.048 113.234 56.408C114.114 55.752 115.114 55.424 116.234 55.424ZM116.234 58.328C115.69 58.328 115.21 58.52 114.794 58.904C114.378 59.288 114.05 59.856 113.81 60.608C113.586 61.344 113.474 62.264 113.474 63.368C113.474 64.456 113.586 65.384 113.81 66.152C114.05 66.904 114.378 67.472 114.794 67.856C115.21 68.24 115.69 68.432 116.234 68.432C116.794 68.432 117.282 68.24 117.698 67.856C118.114 67.472 118.434 66.904 118.658 66.152C118.898 65.384 119.018 64.456 119.018 63.368C119.018 62.264 118.898 61.344 118.658 60.608C118.434 59.856 118.114 59.288 117.698 58.904C117.282 58.52 116.794 58.328 116.234 58.328ZM138.923 54.68H152.987V57.224H138.923V54.68ZM136.451 62.384H156.587V64.904H136.451V62.384ZM144.899 64.136H148.067V68.576H144.899V64.136ZM151.067 54.68H154.211V56.456C154.211 57.4 154.179 58.448 154.115 59.6C154.067 60.752 153.867 62.056 153.515 63.512L150.395 63.2C150.731 61.76 150.923 60.512 150.971 59.456C151.035 58.384 151.067 57.384 151.067 56.456V54.68ZM146.483 67.568C148.899 67.568 150.803 67.944 152.195 68.696C153.603 69.448 154.307 70.496 154.307 71.84C154.307 73.2 153.603 74.256 152.195 75.008C150.803 75.776 148.899 76.16 146.483 76.16C144.067 76.16 142.163 75.776 140.771 75.008C139.379 74.256 138.683 73.2 138.683 71.84C138.683 70.496 139.379 69.448 140.771 68.696C142.163 67.944 144.067 67.568 146.483 67.568ZM146.483 70.088C145.475 70.088 144.627 70.152 143.939 70.28C143.267 70.408 142.755 70.6 142.403 70.856C142.051 71.112 141.875 71.44 141.875 71.84C141.875 72.24 142.051 72.576 142.403 72.848C142.755 73.104 143.267 73.296 143.939 73.424C144.627 73.552 145.475 73.616 146.483 73.616C147.491 73.616 148.331 73.552 149.003 73.424C149.691 73.296 150.211 73.104 150.563 72.848C150.915 72.576 151.091 72.24 151.091 71.84C151.091 71.44 150.915 71.112 150.563 70.856C150.211 70.6 149.691 70.408 149.003 70.28C148.331 70.152 147.491 70.088 146.483 70.088ZM160.521 54.896H174.585V57.416H160.521V54.896ZM158.049 62.888H178.185V65.408H158.049V62.888ZM172.665 54.896H175.809V56.672C175.809 57.616 175.785 58.632 175.737 59.72C175.689 60.808 175.497 62.072 175.161 63.512L171.969 63.488C172.321 62.032 172.521 60.768 172.569 59.696C172.633 58.624 172.665 57.616 172.665 56.672V54.896ZM160.401 67.736H175.713V75.896H160.401V67.736ZM172.593 70.232H163.545V73.376H172.593V70.232ZM193.879 53.912H197.071V76.136H193.879V53.912ZM196.351 62.576H200.263V65.216H196.351V62.576ZM179.527 57.176H192.487V59.72H179.527V57.176ZM186.055 60.992C187.127 60.992 188.087 61.224 188.935 61.688C189.783 62.136 190.447 62.752 190.927 63.536C191.423 64.32 191.671 65.232 191.671 66.272C191.671 67.312 191.423 68.232 190.927 69.032C190.447 69.816 189.783 70.44 188.935 70.904C188.103 71.352 187.143 71.576 186.055 71.576C184.983 71.576 184.015 71.352 183.151 70.904C182.303 70.44 181.631 69.816 181.135 69.032C180.655 68.232 180.415 67.312 180.415 66.272C180.415 65.232 180.655 64.32 181.135 63.536C181.631 62.752 182.303 62.136 183.151 61.688C184.015 61.224 184.983 60.992 186.055 60.992ZM186.055 63.584C185.543 63.584 185.095 63.688 184.711 63.896C184.327 64.104 184.023 64.408 183.799 64.808C183.575 65.208 183.463 65.696 183.463 66.272C183.463 66.832 183.575 67.32 183.799 67.736C184.023 68.136 184.327 68.448 184.711 68.672C185.095 68.88 185.543 68.984 186.055 68.984C186.551 68.984 186.991 68.88 187.375 68.672C187.759 68.448 188.063 68.136 188.287 67.736C188.511 67.32 188.623 66.832 188.623 66.272C188.623 65.696 188.511 65.208 188.287 64.808C188.063 64.408 187.759 64.104 187.375 63.896C186.991 63.688 186.551 63.584 186.055 63.584ZM184.423 54.272H187.639V58.16H184.423V54.272ZM215.43 53.864H218.646V76.16H215.43V53.864ZM217.95 62.096H221.862V64.736H217.95V62.096ZM202.086 68.192H203.958C205.222 68.192 206.406 68.176 207.51 68.144C208.614 68.096 209.686 68.024 210.726 67.928C211.766 67.816 212.83 67.664 213.918 67.472L214.23 70.112C213.11 70.304 212.006 70.456 210.918 70.568C209.846 70.68 208.742 70.752 207.606 70.784C206.47 70.816 205.254 70.832 203.958 70.832H202.086V68.192ZM202.086 55.928H212.454V58.496H205.278V69.44H202.086V55.928ZM233.572 57.392H239.164V59.936H233.572V57.392ZM233.572 62.168H239.26V64.712H233.572V62.168ZM223.732 55.688H234.244V66.56H223.732V55.688ZM231.124 58.184H226.876V64.04H231.124V58.184ZM238.228 53.912H241.444V70.088H238.228V53.912ZM226.732 73.184H241.924V75.752H226.732V73.184ZM226.732 68.576H229.924V74.528H226.732V68.576ZM248.026 68.767V68.4773C248.032 67.483 248.12 66.6903 248.29 66.0994C248.466 65.5085 248.722 65.0312 249.057 64.6676C249.392 64.304 249.796 63.9744 250.267 63.679C250.62 63.4517 250.935 63.2159 251.213 62.9716C251.492 62.7273 251.713 62.4574 251.878 62.1619C252.043 61.8608 252.125 61.5256 252.125 61.1562C252.125 60.7642 252.032 60.4205 251.844 60.125C251.657 59.8295 251.404 59.6023 251.086 59.4432C250.773 59.2841 250.427 59.2045 250.046 59.2045C249.677 59.2045 249.327 59.2869 248.998 59.4517C248.668 59.6108 248.398 59.8494 248.188 60.1676C247.978 60.4801 247.864 60.8693 247.847 61.3352H244.37C244.398 60.1989 244.671 59.2614 245.188 58.5227C245.705 57.7784 246.39 57.2244 247.242 56.8608C248.094 56.4915 249.035 56.3068 250.063 56.3068C251.194 56.3068 252.194 56.4943 253.063 56.8693C253.932 57.2386 254.614 57.7756 255.108 58.4801C255.603 59.1847 255.85 60.0341 255.85 61.0284C255.85 61.6932 255.739 62.2841 255.517 62.8011C255.302 63.3125 254.998 63.767 254.606 64.1648C254.213 64.5568 253.75 64.9119 253.216 65.2301C252.767 65.4972 252.398 65.7756 252.108 66.0653C251.824 66.3551 251.611 66.6903 251.469 67.071C251.333 67.4517 251.262 67.9205 251.256 68.4773V68.767H248.026ZM249.713 74.2216C249.145 74.2216 248.66 74.0227 248.256 73.625C247.858 73.2216 247.662 72.7386 247.668 72.1761C247.662 71.6193 247.858 71.142 248.256 70.7443C248.66 70.3466 249.145 70.1477 249.713 70.1477C250.253 70.1477 250.728 70.3466 251.137 70.7443C251.546 71.142 251.753 71.6193 251.759 72.1761C251.753 72.5511 251.654 72.8949 251.461 73.2074C251.273 73.5142 251.026 73.7614 250.719 73.9489C250.412 74.1307 250.077 74.2216 249.713 74.2216Z" fill="#3C3C3F"/>
<path d="M48.656 96.888C49.36 96.888 49.984 97.096 50.528 97.512C51.072 97.9173 51.4933 98.4987 51.792 99.256C52.1013 100.013 52.256 100.904 52.256 101.928C52.256 102.952 52.1013 103.843 51.792 104.6C51.4933 105.357 51.072 105.944 50.528 106.36C49.984 106.776 49.36 106.984 48.656 106.984C47.9627 106.984 47.3387 106.776 46.784 106.36C46.24 105.944 45.8133 105.357 45.504 104.6C45.2053 103.843 45.056 102.952 45.056 101.928C45.056 100.904 45.2053 100.013 45.504 99.256C45.8133 98.4987 46.24 97.9173 46.784 97.512C47.3387 97.096 47.9627 96.888 48.656 96.888ZM48.656 98.072C48.1973 98.072 47.792 98.232 47.44 98.552C47.088 98.8613 46.8107 99.3093 46.608 99.896C46.416 100.472 46.32 101.149 46.32 101.928C46.32 102.707 46.416 103.389 46.608 103.976C46.8107 104.552 47.088 105 47.44 105.32C47.792 105.64 48.1973 105.8 48.656 105.8C49.1253 105.8 49.536 105.64 49.888 105.32C50.24 105 50.512 104.552 50.704 103.976C50.9067 103.389 51.008 102.707 51.008 101.928C51.008 101.149 50.9067 100.472 50.704 99.896C50.512 99.3093 50.24 98.8613 49.888 98.552C49.536 98.232 49.1253 98.072 48.656 98.072ZM55.392 95.768H56.704V110.264H55.392V95.768ZM51.824 101.288H55.984V102.36H51.824V101.288ZM61.1028 104.392H71.4228V105.432H61.1028V104.392ZM66.2548 106.104C67.5454 106.104 68.5481 106.285 69.2628 106.648C69.9881 107 70.3508 107.507 70.3508 108.168C70.3508 108.84 69.9881 109.352 69.2628 109.704C68.5481 110.056 67.5454 110.232 66.2548 110.232C64.9641 110.232 63.9561 110.056 63.2308 109.704C62.5161 109.352 62.1588 108.84 62.1588 108.168C62.1588 107.507 62.5161 107 63.2308 106.648C63.9561 106.285 64.9641 106.104 66.2548 106.104ZM66.2548 107.048C65.4121 107.048 64.7508 107.144 64.2708 107.336C63.7908 107.528 63.5508 107.805 63.5508 108.168C63.5508 108.531 63.7908 108.808 64.2708 109C64.7508 109.192 65.4121 109.288 66.2548 109.288C67.0974 109.288 67.7534 109.192 68.2228 109C68.7028 108.808 68.9428 108.531 68.9428 108.168C68.9428 107.805 68.7028 107.528 68.2228 107.336C67.7534 107.144 67.0974 107.048 66.2548 107.048ZM65.6148 103.016H66.9428V105.08H65.6148V103.016ZM59.4868 101.384H60.1268C60.4148 101.384 60.7241 101.379 61.0548 101.368C61.3854 101.347 61.7374 101.315 62.1108 101.272C62.4948 101.229 62.8948 101.16 63.3108 101.064L63.4388 102.136C62.9908 102.232 62.5694 102.301 62.1748 102.344C61.7908 102.387 61.4281 102.413 61.0868 102.424C60.7561 102.435 60.4361 102.44 60.1268 102.44H59.4868V101.384ZM59.4868 96.488H63.1188V97.544H60.7988V102.12H59.4868V96.488ZM63.9188 101.384H64.6388C65.1614 101.384 65.6308 101.379 66.0468 101.368C66.4628 101.347 66.8628 101.315 67.2468 101.272C67.6414 101.219 68.0468 101.144 68.4628 101.048L68.5908 102.12C68.1641 102.216 67.7481 102.291 67.3428 102.344C66.9374 102.387 66.5214 102.413 66.0948 102.424C65.6681 102.435 65.1828 102.44 64.6388 102.44H63.9188V101.384ZM63.9188 96.488H67.9188V97.544H65.2308V102.12H63.9188V96.488ZM69.8548 95.768H71.1668V103.464H69.8548V95.768ZM67.2628 98.776H70.5588V99.816H67.2628V98.776ZM84.4615 95.768H85.7415V110.248H84.4615V95.768ZM78.1735 101.688H81.8215V102.76H78.1735V101.688ZM81.4535 96.152H82.7015V109.512H81.4535V96.152ZM78.3495 97.608H79.6295C79.6295 98.8667 79.4482 100.077 79.0855 101.24C78.7335 102.392 78.1575 103.469 77.3575 104.472C76.5575 105.464 75.5068 106.349 74.2055 107.128L73.4375 106.168C74.5682 105.485 75.4962 104.717 76.2215 103.864C76.9468 103 77.4802 102.067 77.8215 101.064C78.1735 100.051 78.3495 98.9787 78.3495 97.848V97.608ZM74.0615 97.608H78.8455V98.696H74.0615V97.608ZM95.3923 97.016H96.4803V99.608C96.4803 100.408 96.3789 101.192 96.1763 101.96C95.9843 102.728 95.7069 103.448 95.3443 104.12C94.9816 104.792 94.5549 105.389 94.0643 105.912C93.5736 106.435 93.0403 106.851 92.4643 107.16L91.6483 106.088C92.1816 105.821 92.6723 105.464 93.1203 105.016C93.5789 104.557 93.9789 104.035 94.3203 103.448C94.6616 102.861 94.9229 102.243 95.1043 101.592C95.2963 100.931 95.3923 100.269 95.3923 99.608V97.016ZM95.6323 97.016H96.7043V99.608C96.7043 100.248 96.7949 100.883 96.9763 101.512C97.1683 102.141 97.4349 102.733 97.7763 103.288C98.1176 103.843 98.5069 104.339 98.9443 104.776C99.3923 105.213 99.8723 105.56 100.384 105.816L99.5683 106.872C99.0029 106.584 98.4803 106.189 98.0003 105.688C97.5309 105.187 97.1149 104.616 96.7523 103.976C96.4003 103.325 96.1229 102.632 95.9203 101.896C95.7283 101.149 95.6323 100.387 95.6323 99.608V97.016ZM101.648 95.768H102.976V110.248H101.648V95.768ZM102.672 101.624H105.344V102.76H102.672V101.624ZM109.391 100.68H110.719V103.4H109.391V100.68ZM114.703 100.68H116.015V103.4H114.703V100.68ZM106.175 102.92H119.247V103.992H106.175V102.92ZM112.703 105.096C114.25 105.096 115.46 105.315 116.335 105.752C117.21 106.189 117.647 106.819 117.647 107.64C117.647 108.472 117.21 109.107 116.335 109.544C115.46 109.992 114.25 110.216 112.703 110.216C111.156 110.216 109.94 109.992 109.055 109.544C108.18 109.107 107.743 108.472 107.743 107.64C107.743 106.819 108.18 106.189 109.055 105.752C109.94 105.315 111.156 105.096 112.703 105.096ZM112.703 106.12C111.946 106.12 111.295 106.179 110.751 106.296C110.218 106.413 109.807 106.589 109.519 106.824C109.231 107.048 109.087 107.32 109.087 107.64C109.087 107.981 109.231 108.269 109.519 108.504C109.807 108.728 110.218 108.899 110.751 109.016C111.295 109.133 111.946 109.192 112.703 109.192C113.46 109.192 114.106 109.133 114.639 109.016C115.183 108.899 115.599 108.728 115.887 108.504C116.175 108.269 116.319 107.981 116.319 107.64C116.319 107.32 116.175 107.048 115.887 106.824C115.599 106.589 115.183 106.413 114.639 106.296C114.106 106.179 113.46 106.12 112.703 106.12ZM112.703 96.04C113.748 96.04 114.65 96.1467 115.407 96.36C116.175 96.5733 116.762 96.8827 117.167 97.288C117.583 97.6827 117.791 98.1627 117.791 98.728C117.791 99.2827 117.583 99.7627 117.167 100.168C116.762 100.573 116.175 100.883 115.407 101.096C114.65 101.299 113.748 101.4 112.703 101.4C111.658 101.4 110.751 101.299 109.983 101.096C109.226 100.883 108.639 100.573 108.223 100.168C107.818 99.7627 107.615 99.2827 107.615 98.728C107.615 98.1627 107.818 97.6827 108.223 97.288C108.639 96.8827 109.226 96.5733 109.983 96.36C110.751 96.1467 111.658 96.04 112.703 96.04ZM112.703 97.08C111.946 97.08 111.284 97.144 110.719 97.272C110.164 97.4 109.732 97.5867 109.423 97.832C109.124 98.0773 108.975 98.376 108.975 98.728C108.975 99.0693 109.124 99.368 109.423 99.624C109.732 99.8693 110.164 100.056 110.719 100.184C111.284 100.312 111.946 100.376 112.703 100.376C113.482 100.376 114.148 100.312 114.703 100.184C115.258 100.056 115.684 99.8693 115.983 99.624C116.282 99.368 116.431 99.0693 116.431 98.728C116.431 98.376 116.282 98.0773 115.983 97.832C115.684 97.5867 115.258 97.4 114.703 97.272C114.148 97.144 113.482 97.08 112.703 97.08ZM120.462 98.248H127.646V99.336H120.462V98.248ZM124.062 100.296C124.67 100.296 125.203 100.435 125.662 100.712C126.131 100.989 126.499 101.379 126.766 101.88C127.032 102.371 127.166 102.941 127.166 103.592C127.166 104.243 127.032 104.819 126.766 105.32C126.499 105.811 126.131 106.2 125.662 106.488C125.203 106.765 124.67 106.904 124.062 106.904C123.464 106.904 122.931 106.765 122.462 106.488C121.992 106.2 121.624 105.811 121.358 105.32C121.091 104.819 120.958 104.243 120.958 103.592C120.958 102.941 121.091 102.371 121.358 101.88C121.624 101.389 121.992 101.005 122.462 100.728C122.931 100.44 123.464 100.296 124.062 100.296ZM124.062 101.416C123.699 101.416 123.368 101.512 123.07 101.704C122.782 101.885 122.552 102.141 122.382 102.472C122.222 102.792 122.142 103.165 122.142 103.592C122.142 104.019 122.222 104.397 122.382 104.728C122.552 105.059 122.782 105.315 123.07 105.496C123.368 105.677 123.699 105.768 124.062 105.768C124.435 105.768 124.766 105.677 125.054 105.496C125.342 105.315 125.566 105.059 125.726 104.728C125.896 104.397 125.982 104.019 125.982 103.592C125.982 103.165 125.896 102.792 125.726 102.472C125.566 102.141 125.342 101.885 125.054 101.704C124.766 101.512 124.435 101.416 124.062 101.416ZM131.47 95.768H132.734V110.248H131.47V95.768ZM129.15 101.864H131.886V102.952H129.15V101.864ZM128.366 96.104H129.614V109.544H128.366V96.104ZM123.406 96.2H124.718V98.904H123.406V96.2ZM138.652 96.888C139.367 96.888 139.996 97.096 140.54 97.512C141.084 97.9173 141.511 98.4987 141.82 99.256C142.13 100.013 142.284 100.904 142.284 101.928C142.284 102.952 142.13 103.843 141.82 104.6C141.511 105.357 141.084 105.944 140.54 106.36C139.996 106.776 139.367 106.984 138.652 106.984C137.948 106.984 137.319 106.776 136.764 106.36C136.22 105.944 135.794 105.357 135.484 104.6C135.175 103.843 135.02 102.952 135.02 101.928C135.02 100.904 135.175 100.013 135.484 99.256C135.794 98.4987 136.22 97.9173 136.764 97.512C137.319 97.096 137.948 96.888 138.652 96.888ZM138.652 98.072C138.194 98.072 137.783 98.232 137.42 98.552C137.068 98.8613 136.791 99.3093 136.588 99.896C136.386 100.472 136.284 101.149 136.284 101.928C136.284 102.707 136.386 103.389 136.588 103.976C136.791 104.552 137.068 105 137.42 105.32C137.783 105.64 138.199 105.8 138.668 105.8C139.127 105.8 139.532 105.64 139.884 105.32C140.247 105 140.524 104.552 140.716 103.976C140.919 103.389 141.02 102.707 141.02 101.928C141.02 101.149 140.919 100.472 140.716 99.896C140.524 99.3093 140.247 98.8613 139.884 98.552C139.532 98.232 139.122 98.072 138.652 98.072ZM145.564 99.4H148.236V100.52H145.564V99.4ZM145.564 103.72H148.236V104.824H145.564V103.72ZM144.604 95.768H145.932V110.248H144.604V95.768ZM159.035 95.72H160.363V103.72H159.035V95.72ZM159.787 99.208H162.507V100.312H159.787V99.208ZM151.163 104.456H160.363V107.688H152.507V109.432H151.211V106.728H159.051V105.448H151.163V104.456ZM151.211 109.064H160.875V110.088H151.211V109.064ZM149.163 97.08H157.707V98.12H149.163V97.08ZM153.435 98.76C154.481 98.76 155.318 98.9733 155.947 99.4C156.577 99.816 156.891 100.392 156.891 101.128C156.891 101.853 156.577 102.429 155.947 102.856C155.318 103.283 154.481 103.496 153.435 103.496C152.379 103.496 151.537 103.283 150.907 102.856C150.278 102.429 149.963 101.853 149.963 101.128C149.963 100.392 150.278 99.816 150.907 99.4C151.537 98.9733 152.379 98.76 153.435 98.76ZM153.435 99.736C152.774 99.736 152.241 99.864 151.835 100.12C151.441 100.365 151.243 100.701 151.243 101.128C151.243 101.555 151.441 101.896 151.835 102.152C152.241 102.397 152.774 102.52 153.435 102.52C154.107 102.52 154.641 102.397 155.035 102.152C155.43 101.896 155.627 101.555 155.627 101.128C155.627 100.701 155.43 100.365 155.035 100.12C154.641 99.864 154.107 99.736 153.435 99.736ZM152.779 95.624H154.107V97.8H152.779V95.624ZM167.274 97.848H168.362V100.184C168.362 100.952 168.255 101.709 168.042 102.456C167.829 103.192 167.53 103.891 167.146 104.552C166.773 105.203 166.335 105.779 165.834 106.28C165.333 106.781 164.794 107.176 164.218 107.464L163.45 106.408C163.973 106.152 164.463 105.805 164.922 105.368C165.391 104.931 165.802 104.429 166.154 103.864C166.506 103.299 166.778 102.701 166.97 102.072C167.173 101.443 167.274 100.813 167.274 100.184V97.848ZM167.546 97.848H168.618V100.184C168.618 100.792 168.714 101.4 168.906 102.008C169.109 102.605 169.386 103.171 169.738 103.704C170.101 104.227 170.511 104.691 170.97 105.096C171.439 105.501 171.941 105.821 172.474 106.056L171.738 107.112C171.151 106.835 170.602 106.461 170.09 105.992C169.578 105.523 169.13 104.984 168.746 104.376C168.373 103.757 168.079 103.096 167.866 102.392C167.653 101.677 167.546 100.941 167.546 100.184V97.848ZM163.914 97.256H171.994V98.36H163.914V97.256ZM173.962 95.768H175.29V110.248H173.962V95.768ZM183.261 97.224H192.573V98.312H183.261V97.224ZM181.869 107.112H194.941V108.216H181.869V107.112ZM186.957 101.944H188.269V107.672H186.957V101.944ZM192.061 97.224H193.389V98.648C193.389 99.2453 193.378 99.8747 193.357 100.536C193.346 101.197 193.303 101.923 193.229 102.712C193.165 103.501 193.042 104.381 192.861 105.352L191.517 105.192C191.794 103.805 191.954 102.589 191.997 101.544C192.039 100.488 192.061 99.5227 192.061 98.648V97.224ZM196.939 97.032H203.691V103.768H196.939V97.032ZM202.395 98.104H198.235V102.696H202.395V98.104ZM206.715 95.784H208.043V106.184H206.715V95.784ZM198.747 108.68H208.491V109.768H198.747V108.68ZM198.747 105.192H200.075V109.128H198.747V105.192ZM211.866 100.504H218.842V101.576H211.866V100.504ZM214.65 101.16H215.978V104.04H214.65V101.16ZM211.866 96.712H218.73V97.8H213.194V100.968H211.866V96.712ZM221.018 95.784H222.346V106.6H221.018V95.784ZM212.986 108.84H222.826V109.928H212.986V108.84ZM212.986 105.88H214.314V109.304H212.986V105.88ZM210.762 104.776L210.57 103.688C211.498 103.677 212.49 103.661 213.546 103.64C214.602 103.619 215.669 103.581 216.746 103.528C217.824 103.464 218.858 103.379 219.85 103.272L219.946 104.248C218.922 104.387 217.872 104.499 216.794 104.584C215.728 104.659 214.677 104.712 213.642 104.744C212.618 104.765 211.658 104.776 210.762 104.776ZM234.617 95.768H235.945V110.264H234.617V95.768ZM235.641 101.48H238.313V102.584H235.641V101.48ZM225.449 105.528H226.585C227.47 105.528 228.281 105.517 229.017 105.496C229.764 105.464 230.478 105.411 231.161 105.336C231.854 105.261 232.558 105.16 233.273 105.032L233.433 106.168C232.686 106.296 231.961 106.397 231.257 106.472C230.564 106.547 229.838 106.595 229.081 106.616C228.324 106.637 227.492 106.648 226.585 106.648H225.449V105.528ZM225.449 97.176H232.153V98.264H226.761V106.04H225.449V97.176ZM246.088 98.312H250.12V99.416H246.088V98.312ZM246.088 101.416H250.152V102.504H246.088V101.416ZM239.816 97.032H246.408V103.8H239.816V97.032ZM245.112 98.104H241.112V102.744H245.112V98.104ZM249.72 95.784H251.048V106.344H249.72V95.784ZM241.752 108.84H251.384V109.928H241.752V108.84ZM241.752 105.4H243.08V109.336H241.752V105.4ZM54.592 117.768H55.92V132.264H54.592V117.768ZM55.616 123.48H58.288V124.584H55.616V123.48ZM45.424 127.528H46.56C47.4453 127.528 48.256 127.517 48.992 127.496C49.7387 127.464 50.4533 127.411 51.136 127.336C51.8293 127.261 52.5333 127.16 53.248 127.032L53.408 128.168C52.6613 128.296 51.936 128.397 51.232 128.472C50.5387 128.547 49.8133 128.595 49.056 128.616C48.2987 128.637 47.4667 128.648 46.56 128.648H45.424V127.528ZM45.424 119.176H52.128V120.264H46.736V128.04H45.424V119.176ZM69.9508 119.928H72.4468V121.032H69.9508V119.928ZM69.9508 123.016H72.4468V124.12H69.9508V123.016ZM63.1508 118.632C63.8868 118.632 64.5374 118.776 65.1028 119.064C65.6681 119.352 66.1108 119.752 66.4308 120.264C66.7614 120.776 66.9268 121.368 66.9268 122.04C66.9268 122.723 66.7614 123.32 66.4308 123.832C66.1108 124.333 65.6681 124.728 65.1028 125.016C64.5374 125.304 63.8868 125.448 63.1508 125.448C62.4361 125.448 61.7908 125.304 61.2148 125.016C60.6494 124.728 60.2014 124.333 59.8708 123.832C59.5401 123.32 59.3748 122.723 59.3748 122.04C59.3748 121.368 59.5401 120.776 59.8708 120.264C60.2014 119.752 60.6494 119.352 61.2148 119.064C61.7908 118.776 62.4361 118.632 63.1508 118.632ZM63.1508 119.752C62.6814 119.752 62.2601 119.853 61.8868 120.056C61.5134 120.248 61.2148 120.515 60.9908 120.856C60.7774 121.197 60.6708 121.592 60.6708 122.04C60.6708 122.499 60.7774 122.899 60.9908 123.24C61.2148 123.581 61.5134 123.848 61.8868 124.04C62.2601 124.232 62.6814 124.328 63.1508 124.328C63.6308 124.328 64.0574 124.232 64.4308 124.04C64.8041 123.848 65.0974 123.581 65.3108 123.24C65.5348 122.899 65.6468 122.499 65.6468 122.04C65.6468 121.592 65.5348 121.197 65.3108 120.856C65.0974 120.515 64.8041 120.248 64.4308 120.056C64.0574 119.853 63.6308 119.752 63.1508 119.752ZM69.0228 117.768H70.3508V126.344H69.0228V117.768ZM65.7428 126.792C66.7134 126.792 67.5561 126.904 68.2708 127.128C68.9854 127.341 69.5348 127.651 69.9188 128.056C70.3028 128.451 70.4948 128.936 70.4948 129.512C70.4948 130.077 70.3028 130.563 69.9188 130.968C69.5348 131.363 68.9854 131.667 68.2708 131.88C67.5561 132.104 66.7134 132.216 65.7428 132.216C64.7614 132.216 63.9134 132.104 63.1988 131.88C62.4841 131.667 61.9348 131.363 61.5508 130.968C61.1668 130.563 60.9748 130.077 60.9748 129.512C60.9748 128.936 61.1668 128.451 61.5508 128.056C61.9348 127.651 62.4841 127.341 63.1988 127.128C63.9134 126.904 64.7614 126.792 65.7428 126.792ZM65.7428 127.864C65.0281 127.864 64.4094 127.928 63.8868 128.056C63.3748 128.184 62.9801 128.371 62.7028 128.616C62.4254 128.861 62.2868 129.16 62.2868 129.512C62.2868 129.853 62.4254 130.147 62.7028 130.392C62.9801 130.637 63.3748 130.824 63.8868 130.952C64.4094 131.08 65.0281 131.144 65.7428 131.144C66.4574 131.144 67.0708 131.08 67.5828 130.952C68.0948 130.824 68.4894 130.637 68.7668 130.392C69.0441 130.147 69.1828 129.853 69.1828 129.512C69.1828 129.16 69.0441 128.861 68.7668 128.616C68.4894 128.371 68.0948 128.184 67.5828 128.056C67.0708 127.928 66.4574 127.864 65.7428 127.864ZM83.3415 117.784H84.6695V128.632H83.3415V117.784ZM84.2535 122.536H86.7975V123.64H84.2535V122.536ZM73.4695 119.544H82.0135V120.616H73.4695V119.544ZM77.7415 121.4C78.4242 121.4 79.0268 121.517 79.5495 121.752C80.0722 121.976 80.4775 122.291 80.7655 122.696C81.0535 123.091 81.1975 123.56 81.1975 124.104C81.1975 124.648 81.0535 125.123 80.7655 125.528C80.4775 125.923 80.0722 126.232 79.5495 126.456C79.0268 126.68 78.4242 126.792 77.7415 126.792C77.0588 126.792 76.4562 126.68 75.9335 126.456C75.4108 126.232 75.0002 125.923 74.7015 125.528C74.4135 125.123 74.2695 124.648 74.2695 124.104C74.2695 123.56 74.4135 123.091 74.7015 122.696C75.0002 122.291 75.4108 121.976 75.9335 121.752C76.4562 121.517 77.0588 121.4 77.7415 121.4ZM77.7415 122.44C77.0908 122.44 76.5628 122.595 76.1575 122.904C75.7522 123.203 75.5495 123.603 75.5495 124.104C75.5495 124.605 75.7522 125.005 76.1575 125.304C76.5628 125.603 77.0908 125.752 77.7415 125.752C78.4028 125.752 78.9308 125.603 79.3255 125.304C79.7308 125.005 79.9335 124.605 79.9335 124.104C79.9335 123.603 79.7308 123.203 79.3255 122.904C78.9308 122.595 78.4028 122.44 77.7415 122.44ZM77.0855 117.784H78.4135V120.088H77.0855V117.784ZM75.6615 130.84H85.3095V131.928H75.6615V130.84ZM75.6615 127.768H76.9735V131.288H75.6615V127.768ZM102.384 117.768H103.712V125.544H102.384V117.768ZM94.4003 126.264H95.6963V128.008H102.4V126.264H103.712V132.056H94.4003V126.264ZM95.6963 129.064V130.968H102.4V129.064H95.6963ZM95.9523 118.456C96.6883 118.456 97.3389 118.6 97.9043 118.888C98.4696 119.165 98.9123 119.555 99.2323 120.056C99.5629 120.557 99.7283 121.139 99.7283 121.8C99.7283 122.451 99.5629 123.032 99.2323 123.544C98.9123 124.045 98.4696 124.435 97.9043 124.712C97.3389 124.989 96.6883 125.128 95.9523 125.128C95.2269 125.128 94.5763 124.989 94.0003 124.712C93.4349 124.435 92.9869 124.045 92.6563 123.544C92.3363 123.032 92.1763 122.451 92.1763 121.8C92.1763 121.139 92.3363 120.557 92.6563 120.056C92.9869 119.555 93.4349 119.165 94.0003 118.888C94.5763 118.6 95.2269 118.456 95.9523 118.456ZM95.9523 119.576C95.4723 119.576 95.0456 119.672 94.6723 119.864C94.2989 120.045 94.0056 120.307 93.7923 120.648C93.5789 120.979 93.4723 121.363 93.4723 121.8C93.4723 122.227 93.5789 122.611 93.7923 122.952C94.0056 123.283 94.2989 123.544 94.6723 123.736C95.0456 123.928 95.4723 124.024 95.9523 124.024C96.4323 124.024 96.8589 123.928 97.2323 123.736C97.6056 123.544 97.8989 123.283 98.1123 122.952C98.3256 122.611 98.4323 122.227 98.4323 121.8C98.4323 121.363 98.3256 120.979 98.1123 120.648C97.8989 120.307 97.6056 120.045 97.2323 119.864C96.8589 119.672 96.4323 119.576 95.9523 119.576ZM106.783 124.952H107.807C108.756 124.952 109.567 124.947 110.239 124.936C110.922 124.915 111.54 124.877 112.095 124.824C112.66 124.771 113.231 124.691 113.807 124.584L113.935 125.672C113.498 125.747 113.066 125.811 112.639 125.864C112.212 125.907 111.764 125.939 111.295 125.96C110.826 125.981 110.308 125.997 109.743 126.008C109.178 126.019 108.532 126.024 107.807 126.024H106.783V124.952ZM106.751 118.648H112.975V122.744H108.095V125.592H106.783V121.72H111.663V119.72H106.751V118.648ZM116.751 117.784H118.079V126.68H116.751V117.784ZM113.935 119.928H117.055V121H113.935V119.928ZM113.935 122.92H117.055V124.008H113.935V122.92ZM108.399 127.448H118.079V132.264H116.751V128.536H108.399V127.448ZM130.354 121.272H133.186V122.36H130.354V121.272ZM130.354 125.672H133.186V126.776H130.354V125.672ZM135.618 117.768H136.898V132.248H135.618V117.768ZM132.77 118.072H134.034V131.512H132.77V118.072ZM127.842 118.984C128.471 118.984 129.015 119.187 129.474 119.592C129.943 119.997 130.306 120.579 130.562 121.336C130.818 122.093 130.946 122.984 130.946 124.008C130.946 125.043 130.818 125.939 130.562 126.696C130.306 127.453 129.943 128.04 129.474 128.456C129.015 128.861 128.471 129.064 127.842 129.064C127.234 129.064 126.695 128.861 126.226 128.456C125.767 128.04 125.41 127.453 125.154 126.696C124.898 125.939 124.77 125.043 124.77 124.008C124.77 122.984 124.898 122.093 125.154 121.336C125.41 120.579 125.767 119.997 126.226 119.592C126.695 119.187 127.234 118.984 127.842 118.984ZM127.842 120.216C127.468 120.216 127.138 120.371 126.85 120.68C126.572 120.989 126.359 121.427 126.21 121.992C126.06 122.557 125.986 123.229 125.986 124.008C125.986 124.787 126.06 125.464 126.21 126.04C126.359 126.605 126.572 127.043 126.85 127.352C127.138 127.661 127.468 127.816 127.842 127.816C128.236 127.816 128.572 127.661 128.85 127.352C129.127 127.043 129.34 126.605 129.49 126.04C129.65 125.464 129.73 124.787 129.73 124.008C129.73 123.229 129.65 122.557 129.49 121.992C129.34 121.427 129.127 120.989 128.85 120.68C128.572 120.371 128.236 120.216 127.842 120.216ZM142.721 119.016H143.825V121.608C143.825 122.44 143.718 123.251 143.505 124.04C143.302 124.819 143.009 125.549 142.625 126.232C142.251 126.904 141.809 127.501 141.297 128.024C140.795 128.536 140.246 128.941 139.649 129.24L138.833 128.136C139.377 127.891 139.883 127.539 140.353 127.08C140.822 126.621 141.233 126.104 141.585 125.528C141.937 124.941 142.214 124.312 142.417 123.64C142.619 122.968 142.721 122.291 142.721 121.608V119.016ZM142.945 119.016H144.049V121.608C144.049 122.269 144.145 122.92 144.337 123.56C144.539 124.2 144.817 124.808 145.169 125.384C145.531 125.949 145.942 126.451 146.401 126.888C146.87 127.315 147.371 127.651 147.905 127.896L147.105 128.952C146.518 128.675 145.974 128.285 145.473 127.784C144.971 127.283 144.529 126.707 144.145 126.056C143.771 125.405 143.478 124.701 143.265 123.944C143.051 123.187 142.945 122.408 142.945 121.608V119.016ZM149.425 117.768H150.753V132.264H149.425V117.768ZM153.215 124.488H166.335V125.512H153.215V124.488ZM154.783 126.664H164.703V129.752H156.127V131.448H154.815V128.84H163.391V127.624H154.783V126.664ZM154.815 131.096H165.167V132.056H154.815V131.096ZM154.879 118.2H164.655V121.208H156.223V122.776H154.911V120.312H163.343V119.144H154.879V118.2ZM154.911 122.456H164.911V123.416H154.911V122.456ZM175.442 124.568H176.754V126.408H175.442V124.568ZM181.538 117.784H182.866V127.48H181.538V117.784ZM182.306 122.152H184.978V123.256H182.306V122.152ZM171.73 127.064L171.57 125.992C172.434 125.992 173.378 125.987 174.402 125.976C175.437 125.955 176.493 125.912 177.57 125.848C178.647 125.784 179.682 125.683 180.674 125.544L180.77 126.488C179.746 126.669 178.695 126.803 177.618 126.888C176.551 126.963 175.511 127.011 174.498 127.032C173.495 127.053 172.573 127.064 171.73 127.064ZM173.346 128.216H182.866V132.248H181.538V129.272H173.346V128.216ZM171.938 119.08H180.242V120.088H171.938V119.08ZM176.082 120.632C177.106 120.632 177.922 120.824 178.53 121.208C179.149 121.592 179.458 122.115 179.458 122.776C179.458 123.437 179.149 123.96 178.53 124.344C177.922 124.728 177.106 124.92 176.082 124.92C175.069 124.92 174.253 124.728 173.634 124.344C173.015 123.96 172.706 123.437 172.706 122.776C172.706 122.115 173.015 121.592 173.634 121.208C174.253 120.824 175.069 120.632 176.082 120.632ZM176.082 121.56C175.442 121.56 174.93 121.667 174.546 121.88C174.162 122.093 173.97 122.392 173.97 122.776C173.97 123.139 174.162 123.437 174.546 123.672C174.93 123.896 175.442 124.008 176.082 124.008C176.722 124.008 177.234 123.896 177.618 123.672C178.002 123.437 178.194 123.139 178.194 122.776C178.194 122.392 178.002 122.093 177.618 121.88C177.234 121.667 176.722 121.56 176.082 121.56ZM175.442 117.656H176.754V119.576H175.442V117.656ZM196.497 117.784H197.825V128.344H196.497V117.784ZM188.529 130.84H198.273V131.928H188.529V130.84ZM188.529 127.272H189.857V131.208H188.529V127.272ZM190.065 118.792C190.79 118.792 191.435 118.941 192.001 119.24C192.566 119.539 193.014 119.96 193.345 120.504C193.675 121.037 193.841 121.651 193.841 122.344C193.841 123.037 193.675 123.656 193.345 124.2C193.014 124.733 192.566 125.155 192.001 125.464C191.435 125.763 190.79 125.912 190.065 125.912C189.35 125.912 188.705 125.763 188.129 125.464C187.563 125.155 187.115 124.733 186.785 124.2C186.454 123.656 186.289 123.037 186.289 122.344C186.289 121.651 186.454 121.037 186.785 120.504C187.115 119.96 187.563 119.539 188.129 119.24C188.705 118.941 189.35 118.792 190.065 118.792ZM190.065 119.944C189.595 119.944 189.174 120.045 188.801 120.248C188.427 120.451 188.129 120.733 187.905 121.096C187.691 121.459 187.585 121.875 187.585 122.344C187.585 122.824 187.691 123.245 187.905 123.608C188.129 123.96 188.427 124.237 188.801 124.44C189.174 124.643 189.595 124.744 190.065 124.744C190.534 124.744 190.955 124.643 191.329 124.44C191.713 124.237 192.011 123.96 192.225 123.608C192.438 123.245 192.545 122.824 192.545 122.344C192.545 121.875 192.438 121.459 192.225 121.096C192.011 120.733 191.713 120.451 191.329 120.248C190.955 120.045 190.534 119.944 190.065 119.944ZM200.256 120.248H207.44V121.336H200.256V120.248ZM203.856 122.296C204.464 122.296 204.997 122.435 205.456 122.712C205.925 122.989 206.293 123.379 206.56 123.88C206.826 124.371 206.96 124.941 206.96 125.592C206.96 126.243 206.826 126.819 206.56 127.32C206.293 127.811 205.925 128.2 205.456 128.488C204.997 128.765 204.464 128.904 203.856 128.904C203.258 128.904 202.725 128.765 202.256 128.488C201.786 128.2 201.418 127.811 201.152 127.32C200.885 126.819 200.752 126.243 200.752 125.592C200.752 124.941 200.885 124.371 201.152 123.88C201.418 123.389 201.786 123.005 202.256 122.728C202.725 122.44 203.258 122.296 203.856 122.296ZM203.856 123.416C203.493 123.416 203.162 123.512 202.864 123.704C202.576 123.885 202.346 124.141 202.176 124.472C202.016 124.792 201.936 125.165 201.936 125.592C201.936 126.019 202.016 126.397 202.176 126.728C202.346 127.059 202.576 127.315 202.864 127.496C203.162 127.677 203.493 127.768 203.856 127.768C204.229 127.768 204.56 127.677 204.848 127.496C205.136 127.315 205.36 127.059 205.52 126.728C205.69 126.397 205.776 126.019 205.776 125.592C205.776 125.165 205.69 124.792 205.52 124.472C205.36 124.141 205.136 123.885 204.848 123.704C204.56 123.512 204.229 123.416 203.856 123.416ZM211.264 117.768H212.528V132.248H211.264V117.768ZM208.944 123.864H211.68V124.952H208.944V123.864ZM208.16 118.104H209.408V131.544H208.16V118.104ZM203.2 118.2H204.512V120.904H203.2V118.2ZM214.606 129.304H227.726V130.408H214.606V129.304ZM220.478 125.832H221.79V129.624H220.478V125.832ZM216.142 118.792H217.47V121.368H224.83V118.792H226.142V126.2H216.142V118.792ZM217.47 122.456V125.112H224.83V122.456H217.47ZM234.621 122.952H237.405V124.056H234.621V122.952ZM231.933 119.128H232.973V121.896C232.973 122.643 232.893 123.379 232.733 124.104C232.584 124.829 232.36 125.512 232.061 126.152C231.773 126.792 231.421 127.368 231.005 127.88C230.589 128.392 230.12 128.808 229.597 129.128L228.765 128.136C229.256 127.837 229.698 127.464 230.093 127.016C230.488 126.568 230.818 126.067 231.085 125.512C231.362 124.947 231.57 124.36 231.709 123.752C231.858 123.133 231.933 122.515 231.933 121.896V119.128ZM232.189 119.128H233.213V121.848C233.213 122.424 233.277 123.005 233.405 123.592C233.544 124.168 233.736 124.723 233.981 125.256C234.237 125.779 234.552 126.259 234.925 126.696C235.298 127.133 235.72 127.496 236.189 127.784L235.437 128.808C234.914 128.488 234.45 128.083 234.045 127.592C233.64 127.091 233.298 126.531 233.021 125.912C232.744 125.283 232.536 124.621 232.397 123.928C232.258 123.235 232.189 122.541 232.189 121.848V119.128ZM239.949 117.768H241.229V132.248H239.949V117.768ZM237.005 118.072H238.253V131.512H237.005V118.072ZM246.46 125.224H247.772V129.544H246.46V125.224ZM251.804 125.224H253.132V129.544H251.804V125.224ZM243.244 129.288H256.364V130.392H243.244V129.288ZM249.772 118.68C250.796 118.68 251.702 118.835 252.492 119.144C253.281 119.453 253.9 119.885 254.348 120.44C254.806 120.995 255.036 121.651 255.036 122.408C255.036 123.155 254.806 123.811 254.348 124.376C253.9 124.931 253.281 125.363 252.492 125.672C251.702 125.971 250.796 126.12 249.772 126.12C248.758 126.12 247.852 125.971 247.052 125.672C246.262 125.363 245.644 124.931 245.196 124.376C244.748 123.811 244.524 123.155 244.524 122.408C244.524 121.651 244.748 120.995 245.196 120.44C245.644 119.885 246.262 119.453 247.052 119.144C247.852 118.835 248.758 118.68 249.772 118.68ZM249.772 119.736C249.004 119.736 248.321 119.848 247.724 120.072C247.126 120.296 246.657 120.611 246.316 121.016C245.974 121.411 245.804 121.875 245.804 122.408C245.804 122.941 245.974 123.411 246.316 123.816C246.657 124.211 247.126 124.52 247.724 124.744C248.321 124.968 249.004 125.08 249.772 125.08C250.55 125.08 251.238 124.968 251.836 124.744C252.433 124.52 252.902 124.211 253.244 123.816C253.585 123.411 253.756 122.941 253.756 122.408C253.756 121.875 253.585 121.411 253.244 121.016C252.902 120.611 252.433 120.296 251.836 120.072C251.238 119.848 250.55 119.736 249.772 119.736Z" fill="#8E8E93"/>
<g filter="url(#filter1_d_413_295)">
<path d="M62 184C62 178.477 66.4772 174 72 174H317C322.523 174 327 178.477 327 184V270H62V184Z" fill="white"/>
<rect width="52" height="8" transform="translate(89 205)" fill="#F2F2F7"/>
<rect width="212" height="8" transform="translate(89 227)" fill="#F2F2F7"/>
<rect width="192" height="8" transform="translate(89 245)" fill="#F2F2F7"/>
</g>
</g>
<defs>
<filter id="filter0_bd_413_295" x="-52" y="-52" width="492" height="382" filterUnits="userSpaceOnUse" color-interpolation-filters="sRGB">
<feFlood flood-opacity="0" result="BackgroundImageFix"/>
<feGaussianBlur in="BackgroundImageFix" stdDeviation="30"/>
<feComposite in2="SourceAlpha" operator="in" result="effect1_backgroundBlur_413_295"/>
<feColorMatrix in="SourceAlpha" type="matrix" values="0 0 0 0 0 0 0 0 0 0 0 0 0 0 0 0 0 0 127 0" result="hardAlpha"/>
<feOffset/>
<feGaussianBlur stdDeviation="4"/>
<feComposite in2="hardAlpha" operator="out"/>
<feColorMatrix type="matrix" values="0 0 0 0 0 0 0 0 0 0 0 0 0 0 0 0 0 0 0.04 0"/>
<feBlend mode="normal" in2="effect1_backgroundBlur_413_295" result="effect2_dropShadow_413_295"/>
<feBlend mode="normal" in="SourceGraphic" in2="effect2_dropShadow_413_295" result="shape"/>
</filter>
<filter id="filter1_d_413_295" x="54" y="166" width="281" height="112" filterUnits="userSpaceOnUse" color-interpolation-filters="sRGB">
<feFlood flood-opacity="0" result="BackgroundImageFix"/>
<feColorMatrix in="SourceAlpha" type="matrix" values="0 0 0 0 0 0 0 0 0 0 0 0 0 0 0 0 0 0 127 0" result="hardAlpha"/>
<feOffset/>
<feGaussianBlur stdDeviation="4"/>
<feComposite in2="hardAlpha" operator="out"/>
<feColorMatrix type="matrix" values="0 0 0 0 0.478431 0 0 0 0 0.537255 0 0 0 0 0.941176 0 0 0 1 0"/>
<feBlend mode="normal" in2="BackgroundImageFix" result="effect1_dropShadow_413_295"/>
<feBlend mode="normal" in="SourceGraphic" in2="effect1_dropShadow_413_295" result="shape"/>
</filter>
<linearGradient id="paint0_linear_413_295" x1="194" y1="8" x2="194" y2="270" gradientUnits="userSpaceOnUse">
<stop stop-color="#E5F3FF"/>
<stop offset="1" stop-color="white"/>
</linearGradient>
</defs>
</svg>
