<svg width="140" height="34" viewBox="0 0 140 34" fill="none" xmlns="http://www.w3.org/2000/svg">
<mask id="path-1-inside-1_413_436" fill="white">
<path fill-rule="evenodd" clip-rule="evenodd" d="M6 0C2.68629 0 0 2.68629 0 6V20C0 23.3137 2.6863 26 6 26H29.9372L36.0606 34L42.184 26H134C137.314 26 140 23.3137 140 20V6C140 2.68629 137.314 0 134 0H6Z"/>
</mask>
<path fill-rule="evenodd" clip-rule="evenodd" d="M6 0C2.68629 0 0 2.68629 0 6V20C0 23.3137 2.6863 26 6 26H29.9372L36.0606 34L42.184 26H134C137.314 26 140 23.3137 140 20V6C140 2.68629 137.314 0 134 0H6Z" fill="#3C3C3F"/>
<path d="M29.9372 26L30.7313 25.3922L30.4311 25H29.9372V26ZM36.0606 34L35.2665 34.6078L36.0606 35.6452L36.8547 34.6078L36.0606 34ZM42.184 26V25H41.6901L41.3899 25.3922L42.184 26ZM1 6C1 3.23858 3.23858 1 6 1V-1C2.13401 -1 -1 2.13401 -1 6H1ZM1 20V6H-1V20H1ZM6 25C3.23858 25 1 22.7614 1 20H-1C-1 23.866 2.13401 27 6 27V25ZM29.9372 25H6V27H29.9372V25ZM29.1431 26.6078L35.2665 34.6078L36.8547 33.3922L30.7313 25.3922L29.1431 26.6078ZM36.8547 34.6078L42.9781 26.6078L41.3899 25.3922L35.2665 33.3922L36.8547 34.6078ZM134 25H42.184V27H134V25ZM139 20C139 22.7614 136.761 25 134 25V27C137.866 27 141 23.866 141 20H139ZM139 6V20H141V6H139ZM134 1C136.761 1 139 3.23858 139 6H141C141 2.13401 137.866 -1 134 -1V1ZM6 1H134V-1H6V1Z" fill="url(#paint0_linear_413_436)" mask="url(#path-1-inside-1_413_436)"/>
<path d="M14.39 9.3H15.05V10.51C15.05 10.9567 14.9667 11.4 14.8 11.84C14.6333 12.28 14.3933 12.6767 14.08 13.03C13.7733 13.3833 13.3967 13.66 12.95 13.86L12.5 13.22C12.8933 13.0467 13.23 12.8133 13.51 12.52C13.7967 12.22 14.0133 11.8933 14.16 11.54C14.3133 11.1867 14.39 10.8433 14.39 10.51V9.3ZM14.53 9.3H15.19V10.51C15.19 10.8367 15.26 11.1633 15.4 11.49C15.5467 11.81 15.7567 12.1 16.03 12.36C16.31 12.6133 16.64 12.8167 17.02 12.97L16.58 13.61C16.1467 13.4367 15.7767 13.19 15.47 12.87C15.1633 12.55 14.93 12.1867 14.77 11.78C14.61 11.3733 14.53 10.95 14.53 10.51V9.3ZM19.33 8.74H20.12V14.32H19.33V8.74ZM17.89 11.16H19.59V11.84H17.89V11.16ZM17.39 8.91H18.17V14.03H17.39V8.91ZM17.15 14.52C17.77 14.52 18.3033 14.5833 18.75 14.71C19.2033 14.8367 19.5533 15.0233 19.8 15.27C20.0467 15.51 20.17 15.8 20.17 16.14C20.17 16.48 20.0467 16.77 19.8 17.01C19.5533 17.2567 19.2033 17.4433 18.75 17.57C18.3033 17.6967 17.77 17.76 17.15 17.76C16.53 17.76 15.9933 17.6967 15.54 17.57C15.0867 17.4433 14.7367 17.2567 14.49 17.01C14.25 16.77 14.13 16.48 14.13 16.14C14.13 15.8 14.25 15.51 14.49 15.27C14.7367 15.0233 15.0867 14.8367 15.54 14.71C15.9933 14.5833 16.53 14.52 17.15 14.52ZM17.15 15.16C16.47 15.16 15.9333 15.2467 15.54 15.42C15.1467 15.5933 14.95 15.8333 14.95 16.14C14.95 16.4467 15.1467 16.6867 15.54 16.86C15.9333 17.0333 16.47 17.12 17.15 17.12C17.6033 17.12 17.9933 17.08 18.32 17C18.6467 16.9267 18.8967 16.8167 19.07 16.67C19.25 16.5233 19.34 16.3467 19.34 16.14C19.34 15.8333 19.1433 15.5933 18.75 15.42C18.3633 15.2467 17.83 15.16 17.15 15.16ZM23.7292 9.24H24.4192V10.17C24.4192 10.7567 24.3126 11.2967 24.0992 11.79C23.8926 12.2833 23.5992 12.7167 23.2192 13.09C22.8459 13.4567 22.3992 13.7367 21.8792 13.93L21.4392 13.26C21.9059 13.0933 22.3092 12.8567 22.6492 12.55C22.9892 12.2433 23.2526 11.8867 23.4392 11.48C23.6326 11.0667 23.7292 10.63 23.7292 10.17V9.24ZM23.8792 9.24H24.5492V10.14C24.5492 10.5667 24.6426 10.97 24.8292 11.35C25.0159 11.73 25.2726 12.0667 25.5992 12.36C25.9326 12.6467 26.3192 12.8633 26.7592 13.01L26.3092 13.66C25.8226 13.4733 25.3959 13.21 25.0292 12.87C24.6626 12.53 24.3792 12.1267 24.1792 11.66C23.9792 11.1933 23.8792 10.6867 23.8792 10.14V9.24ZM28.0592 8.73H28.8892V14.08H28.0592V8.73ZM25.9092 14.35C26.8426 14.35 27.5759 14.5 28.1092 14.8C28.6492 15.1 28.9192 15.52 28.9192 16.06C28.9192 16.5933 28.6492 17.01 28.1092 17.31C27.5759 17.61 26.8426 17.76 25.9092 17.76C24.9759 17.76 24.2392 17.61 23.6992 17.31C23.1659 17.01 22.8992 16.5933 22.8992 16.06C22.8992 15.52 23.1659 15.1 23.6992 14.8C24.2392 14.5 24.9759 14.35 25.9092 14.35ZM25.9092 15.01C25.4559 15.01 25.0659 15.0533 24.7392 15.14C24.4126 15.22 24.1592 15.34 23.9792 15.5C23.8059 15.6533 23.7192 15.84 23.7192 16.06C23.7192 16.2733 23.8059 16.46 23.9792 16.62C24.1592 16.7733 24.4126 16.8933 24.7392 16.98C25.0659 17.06 25.4559 17.1 25.9092 17.1C26.3692 17.1 26.7592 17.06 27.0792 16.98C27.4059 16.8933 27.6559 16.7733 27.8292 16.62C28.0092 16.46 28.0992 16.2733 28.0992 16.06C28.0992 15.84 28.0092 15.6533 27.8292 15.5C27.6559 15.34 27.4059 15.22 27.0792 15.14C26.7592 15.0533 26.3692 15.01 25.9092 15.01ZM26.0892 10.64H28.2292V11.33H26.0892V10.64ZM31.2484 11.69H35.6084V12.36H31.2484V11.69ZM32.9884 12.1H33.8184V13.9H32.9884V12.1ZM31.2484 9.32H35.5384V10H32.0784V11.98H31.2484V9.32ZM36.9684 8.74H37.7984V15.5H36.9684V8.74ZM31.9484 16.9H38.0984V17.58H31.9484V16.9ZM31.9484 15.05H32.7784V17.19H31.9484V15.05ZM30.5584 14.36L30.4384 13.68C31.0184 13.6733 31.6384 13.6633 32.2984 13.65C32.9584 13.6367 33.6251 13.6133 34.2984 13.58C34.9718 13.54 35.6184 13.4867 36.2384 13.42L36.2984 14.03C35.6584 14.1167 35.0018 14.1867 34.3284 14.24C33.6618 14.2867 33.0051 14.32 32.3584 14.34C31.7184 14.3533 31.1184 14.36 30.5584 14.36ZM42.2302 9.78H45.6802V15.35H42.2302V9.78ZM44.9002 10.44H43.0102V14.69H44.9002V10.44ZM48.8002 8.73H49.6002V17.78H48.8002V8.73ZM45.2702 12.14H47.3502V12.82H45.2702V12.14ZM47.0002 8.92H47.7902V17.32H47.0002V8.92ZM53.3994 9.06C53.8527 9.06 54.2527 9.14667 54.5994 9.32C54.9527 9.48667 55.2294 9.72 55.4294 10.02C55.6294 10.32 55.7294 10.67 55.7294 11.07C55.7294 11.4633 55.6294 11.8133 55.4294 12.12C55.2294 12.42 54.9527 12.6533 54.5994 12.82C54.2527 12.9867 53.8527 13.07 53.3994 13.07C52.9527 13.07 52.5527 12.9867 52.1994 12.82C51.846 12.6533 51.566 12.42 51.3594 12.12C51.1594 11.8133 51.0594 11.4633 51.0594 11.07C51.0594 10.67 51.1594 10.32 51.3594 10.02C51.566 9.72 51.846 9.48667 52.1994 9.32C52.5527 9.14667 52.9527 9.06 53.3994 9.06ZM53.3994 9.75C53.106 9.75 52.8427 9.80667 52.6094 9.92C52.3827 10.0267 52.2027 10.18 52.0694 10.38C51.936 10.58 51.8694 10.81 51.8694 11.07C51.8694 11.33 51.936 11.56 52.0694 11.76C52.2027 11.9533 52.3827 12.1067 52.6094 12.22C52.8427 12.3333 53.106 12.39 53.3994 12.39C53.6927 12.39 53.9527 12.3333 54.1794 12.22C54.4127 12.1067 54.596 11.9533 54.7294 11.76C54.8627 11.56 54.9294 11.33 54.9294 11.07C54.9294 10.81 54.8627 10.58 54.7294 10.38C54.596 10.18 54.4127 10.0267 54.1794 9.92C53.9527 9.80667 53.6927 9.75 53.3994 9.75ZM57.4394 8.73H58.2694V13.36H57.4394V8.73ZM52.4194 13.81H58.2694V16H53.2494V17.36H52.4494V15.38H57.4494V14.47H52.4194V13.81ZM52.4494 16.99H58.5794V17.66H52.4494V16.99ZM63.8886 8.89C64.8886 8.89 65.6686 9.02667 66.2286 9.3C66.7886 9.56667 67.0686 9.95 67.0686 10.45C67.0686 10.9567 66.7886 11.3467 66.2286 11.62C65.6686 11.8867 64.8886 12.02 63.8886 12.02C62.8953 12.02 62.1153 11.8867 61.5486 11.62C60.9886 11.3467 60.7086 10.9567 60.7086 10.45C60.7086 9.95 60.9886 9.56667 61.5486 9.3C62.1153 9.02667 62.8953 8.89 63.8886 8.89ZM63.8886 9.51C63.4019 9.51 62.9853 9.54667 62.6386 9.62C62.2919 9.69333 62.0253 9.8 61.8386 9.94C61.6586 10.08 61.5686 10.25 61.5686 10.45C61.5686 10.65 61.6586 10.8233 61.8386 10.97C62.0253 11.11 62.2919 11.2167 62.6386 11.29C62.9853 11.3567 63.4019 11.39 63.8886 11.39C64.3819 11.39 64.8019 11.3567 65.1486 11.29C65.4953 11.2167 65.7586 11.11 65.9386 10.97C66.1253 10.8233 66.2186 10.65 66.2186 10.45C66.2186 10.25 66.1253 10.08 65.9386 9.94C65.7586 9.8 65.4953 9.69333 65.1486 9.62C64.8019 9.54667 64.3819 9.51 63.8886 9.51ZM59.8086 12.63H67.9786V13.3H59.8086V12.63ZM60.7986 14.07H66.9286V16.11H61.6286V17.2H60.8186V15.5H66.1186V14.71H60.7986V14.07ZM60.8186 17.03H67.1986V17.68H60.8186V17.03ZM73.6903 12.98H74.5103V14.13H73.6903V12.98ZM77.5003 8.74H78.3303V14.8H77.5003V8.74ZM77.9803 11.47H79.6503V12.16H77.9803V11.47ZM71.3703 14.54L71.2703 13.87C71.8103 13.87 72.4003 13.8667 73.0403 13.86C73.687 13.8467 74.347 13.82 75.0203 13.78C75.6936 13.74 76.3403 13.6767 76.9603 13.59L77.0203 14.18C76.3803 14.2933 75.7236 14.3767 75.0503 14.43C74.3836 14.4767 73.7336 14.5067 73.1003 14.52C72.4736 14.5333 71.897 14.54 71.3703 14.54ZM72.3803 15.26H78.3303V17.78H77.5003V15.92H72.3803V15.26ZM71.5003 9.55H76.6903V10.18H71.5003V9.55ZM74.0903 10.52C74.7303 10.52 75.2403 10.64 75.6203 10.88C76.007 11.12 76.2003 11.4467 76.2003 11.86C76.2003 12.2733 76.007 12.6 75.6203 12.84C75.2403 13.08 74.7303 13.2 74.0903 13.2C73.457 13.2 72.947 13.08 72.5603 12.84C72.1736 12.6 71.9803 12.2733 71.9803 11.86C71.9803 11.4467 72.1736 11.12 72.5603 10.88C72.947 10.64 73.457 10.52 74.0903 10.52ZM74.0903 11.1C73.6903 11.1 73.3703 11.1667 73.1303 11.3C72.8903 11.4333 72.7703 11.62 72.7703 11.86C72.7703 12.0867 72.8903 12.2733 73.1303 12.42C73.3703 12.56 73.6903 12.63 74.0903 12.63C74.4903 12.63 74.8103 12.56 75.0503 12.42C75.2903 12.2733 75.4103 12.0867 75.4103 11.86C75.4103 11.62 75.2903 11.4333 75.0503 11.3C74.8103 11.1667 74.4903 11.1 74.0903 11.1ZM73.6903 8.66H74.5103V9.86H73.6903V8.66ZM86.8495 8.74H87.6795V15.34H86.8495V8.74ZM81.8695 16.9H87.9595V17.58H81.8695V16.9ZM81.8695 14.67H82.6995V17.13H81.8695V14.67ZM82.8295 9.37C83.2829 9.37 83.6862 9.46333 84.0395 9.65C84.3929 9.83667 84.6729 10.1 84.8795 10.44C85.0862 10.7733 85.1895 11.1567 85.1895 11.59C85.1895 12.0233 85.0862 12.41 84.8795 12.75C84.6729 13.0833 84.3929 13.3467 84.0395 13.54C83.6862 13.7267 83.2829 13.82 82.8295 13.82C82.3829 13.82 81.9795 13.7267 81.6195 13.54C81.2662 13.3467 80.9862 13.0833 80.7795 12.75C80.5729 12.41 80.4695 12.0233 80.4695 11.59C80.4695 11.1567 80.5729 10.7733 80.7795 10.44C80.9862 10.1 81.2662 9.83667 81.6195 9.65C81.9795 9.46333 82.3829 9.37 82.8295 9.37ZM82.8295 10.09C82.5362 10.09 82.2729 10.1533 82.0395 10.28C81.8062 10.4067 81.6195 10.5833 81.4795 10.81C81.3462 11.0367 81.2795 11.2967 81.2795 11.59C81.2795 11.89 81.3462 12.1533 81.4795 12.38C81.6195 12.6 81.8062 12.7733 82.0395 12.9C82.2729 13.0267 82.5362 13.09 82.8295 13.09C83.1229 13.09 83.3862 13.0267 83.6195 12.9C83.8595 12.7733 84.0462 12.6 84.1795 12.38C84.3129 12.1533 84.3795 11.89 84.3795 11.59C84.3795 11.2967 84.3129 11.0367 84.1795 10.81C84.0462 10.5833 83.8595 10.4067 83.6195 10.28C83.3862 10.1533 83.1229 10.09 82.8295 10.09ZM89.1988 10.28H93.6888V10.96H89.1988V10.28ZM91.4488 11.56C91.8288 11.56 92.1621 11.6467 92.4488 11.82C92.7421 11.9933 92.9721 12.2367 93.1388 12.55C93.3054 12.8567 93.3888 13.2133 93.3888 13.62C93.3888 14.0267 93.3054 14.3867 93.1388 14.7C92.9721 15.0067 92.7421 15.25 92.4488 15.43C92.1621 15.6033 91.8288 15.69 91.4488 15.69C91.0754 15.69 90.7421 15.6033 90.4488 15.43C90.1554 15.25 89.9254 15.0067 89.7588 14.7C89.5921 14.3867 89.5088 14.0267 89.5088 13.62C89.5088 13.2133 89.5921 12.8567 89.7588 12.55C89.9254 12.2433 90.1554 12.0033 90.4488 11.83C90.7421 11.65 91.0754 11.56 91.4488 11.56ZM91.4488 12.26C91.2221 12.26 91.0154 12.32 90.8288 12.44C90.6488 12.5533 90.5054 12.7133 90.3988 12.92C90.2988 13.12 90.2488 13.3533 90.2488 13.62C90.2488 13.8867 90.2988 14.1233 90.3988 14.33C90.5054 14.5367 90.6488 14.6967 90.8288 14.81C91.0154 14.9233 91.2221 14.98 91.4488 14.98C91.6821 14.98 91.8888 14.9233 92.0688 14.81C92.2488 14.6967 92.3888 14.5367 92.4888 14.33C92.5954 14.1233 92.6488 13.8867 92.6488 13.62C92.6488 13.3533 92.5954 13.12 92.4888 12.92C92.3888 12.7133 92.2488 12.5533 92.0688 12.44C91.8888 12.32 91.6821 12.26 91.4488 12.26ZM96.0788 8.73H96.8688V17.78H96.0788V8.73ZM94.6288 12.54H96.3388V13.22H94.6288V12.54ZM94.1388 8.94H94.9188V17.34H94.1388V8.94ZM91.0388 9H91.8588V10.69H91.0388V9ZM100.73 15.94H108.93V16.63H100.73V15.94ZM104.4 13.77H105.22V16.14H104.4V13.77ZM101.69 9.37H102.52V10.98H107.12V9.37H107.94V14H101.69V9.37ZM102.52 11.66V13.32H107.12V11.66H102.52ZM113.24 11.97H114.98V12.66H113.24V11.97ZM111.56 9.58H112.21V11.31C112.21 11.7767 112.16 12.2367 112.06 12.69C111.966 13.1433 111.826 13.57 111.64 13.97C111.46 14.37 111.24 14.73 110.98 15.05C110.72 15.37 110.426 15.63 110.1 15.83L109.58 15.21C109.886 15.0233 110.163 14.79 110.41 14.51C110.656 14.23 110.863 13.9167 111.03 13.57C111.203 13.2167 111.333 12.85 111.42 12.47C111.513 12.0833 111.56 11.6967 111.56 11.31V9.58ZM111.72 9.58H112.36V11.28C112.36 11.64 112.4 12.0033 112.48 12.37C112.566 12.73 112.686 13.0767 112.84 13.41C113 13.7367 113.196 14.0367 113.43 14.31C113.663 14.5833 113.926 14.81 114.22 14.99L113.75 15.63C113.423 15.43 113.133 15.1767 112.88 14.87C112.626 14.5567 112.413 14.2067 112.24 13.82C112.066 13.4267 111.936 13.0133 111.85 12.58C111.763 12.1467 111.72 11.7133 111.72 11.28V9.58ZM116.57 8.73H117.37V17.78H116.57V8.73ZM114.73 8.92H115.51V17.32H114.73V8.92ZM120.639 13.39H121.459V16.09H120.639V13.39ZM123.979 13.39H124.809V16.09H123.979V13.39ZM118.629 15.93H126.829V16.62H118.629V15.93ZM122.709 9.3C123.349 9.3 123.916 9.39667 124.409 9.59C124.902 9.78333 125.289 10.0533 125.569 10.4C125.856 10.7467 125.999 11.1567 125.999 11.63C125.999 12.0967 125.856 12.5067 125.569 12.86C125.289 13.2067 124.902 13.4767 124.409 13.67C123.916 13.8567 123.349 13.95 122.709 13.95C122.076 13.95 121.509 13.8567 121.009 13.67C120.516 13.4767 120.129 13.2067 119.849 12.86C119.569 12.5067 119.429 12.0967 119.429 11.63C119.429 11.1567 119.569 10.7467 119.849 10.4C120.129 10.0533 120.516 9.78333 121.009 9.59C121.509 9.39667 122.076 9.3 122.709 9.3ZM122.709 9.96C122.229 9.96 121.802 10.03 121.429 10.17C121.056 10.31 120.762 10.5067 120.549 10.76C120.336 11.0067 120.229 11.2967 120.229 11.63C120.229 11.9633 120.336 12.2567 120.549 12.51C120.762 12.7567 121.056 12.95 121.429 13.09C121.802 13.23 122.229 13.3 122.709 13.3C123.196 13.3 123.626 13.23 123.999 13.09C124.372 12.95 124.666 12.7567 124.879 12.51C125.092 12.2567 125.199 11.9633 125.199 11.63C125.199 11.2967 125.092 11.0067 124.879 10.76C124.666 10.5067 124.372 10.31 123.999 10.17C123.626 10.03 123.196 9.96 122.709 9.96Z" fill="white"/>
<defs>
<linearGradient id="paint0_linear_413_436" x1="0" y1="17" x2="184.545" y2="17" gradientUnits="userSpaceOnUse">
<stop stop-color="#6AB9F2"/>
<stop offset="1" stop-color="#7380EF"/>
</linearGradient>
</defs>
</svg>
