<svg width="25" height="24" viewBox="0 0 25 24" fill="none" xmlns="http://www.w3.org/2000/svg">
<g clip-path="url(#clip0_908_1502)">
<path d="M4.69531 5.77778H20.6953C21.2453 5.77778 21.6953 5.37778 21.6953 4.88889C21.6953 4.4 21.2453 4 20.6953 4H4.69531C4.14531 4 3.69531 4.4 3.69531 4.88889C3.69531 5.37778 4.14531 5.77778 4.69531 5.77778Z" fill="black"/>
<path d="M20.6953 18.2222H4.69531C4.14531 18.2222 3.69531 18.6222 3.69531 19.1111C3.69531 19.5999 4.14531 19.9999 4.69531 19.9999H20.6953C21.2453 19.9999 21.6953 19.5999 21.6953 19.1111C21.6953 18.6222 21.2453 18.2222 20.6953 18.2222Z" fill="black"/>
<path d="M20.6953 11.1113H4.69531C4.14531 11.1113 3.69531 11.5113 3.69531 12.0002C3.69531 12.4891 4.14531 12.8891 4.69531 12.8891H20.6953C21.2453 12.8891 21.6953 12.4891 21.6953 12.0002C21.6953 11.5113 21.2453 11.1113 20.6953 11.1113Z" fill="black"/>
</g>
<defs>
<clipPath id="clip0_908_1502">
<rect width="24" height="24" fill="white" transform="translate(0.347656)"/>
</clipPath>
</defs>
</svg>
