<svg width="233" height="34" viewBox="0 0 233 34" fill="none" xmlns="http://www.w3.org/2000/svg">
<path d="M156.072 14.336H159.6V16.904H156.072V14.336ZM150.912 12.08H153.312V12.656C153.312 17.288 151.968 21.92 148.416 23.96L146.616 21.56C149.784 19.712 150.912 16.064 150.912 12.656V12.08ZM151.536 12.08H153.936V12.656C153.936 16.016 155.088 19.4 158.232 21.08L156.504 23.432C152.904 21.56 151.536 17.216 151.536 12.656V12.08ZM147.456 9.632H157.368V12.2H147.456V9.632ZM150.912 6.656H153.936V11.72H150.912V6.656ZM163.08 5.912H166.104V28.136H163.08V5.912ZM158.592 6.272H161.568V27.128H158.592V6.272ZM184.03 5.912H187.222V19.328H184.03V5.912ZM181.246 12.416H185.326V15.008H181.246V12.416ZM172.414 20.264H187.222V27.896H172.414V20.264ZM184.102 22.784H175.558V25.376H184.102V22.784ZM168.694 7.832H181.678V10.352H168.694V7.832ZM175.198 11.072C178.294 11.072 180.502 12.728 180.502 15.08C180.502 17.456 178.294 19.064 175.198 19.064C172.102 19.064 169.87 17.456 169.87 15.08C169.87 12.728 172.102 11.072 175.198 11.072ZM175.198 13.448C173.83 13.448 172.918 14 172.918 15.08C172.918 16.16 173.83 16.736 175.198 16.736C176.542 16.736 177.454 16.16 177.454 15.08C177.454 14 176.542 13.448 175.198 13.448ZM173.59 5.72H176.782V9.632H173.59V5.72ZM204.476 5.912H207.644V28.136H204.476V5.912ZM206.924 14.576H210.86V17.24H206.924V14.576ZM190.124 9.2H203.06V11.744H190.124V9.2ZM196.628 12.992C199.868 12.992 202.268 15.2 202.268 18.296C202.268 21.392 199.868 23.6 196.628 23.6C193.388 23.6 190.988 21.392 190.988 18.296C190.988 15.2 193.388 12.992 196.628 12.992ZM196.628 15.584C195.116 15.584 194.036 16.592 194.036 18.296C194.036 20 195.116 21.008 196.628 21.008C198.14 21.008 199.22 20 199.22 18.296C199.22 16.592 198.14 15.584 196.628 15.584ZM195.02 6.272H198.212V10.16H195.02V6.272ZM227.13 5.912H230.346V28.136H227.13V5.912ZM220.578 8.216H223.746C223.746 15.008 221.442 20.576 213.546 24.392L211.89 21.848C218.274 18.776 220.578 14.744 220.578 8.792V8.216ZM213.066 8.216H222.09V10.736H213.066V8.216Z" fill="#6F6F71"/>
<path d="M16.7472 8.98742L13.0142 25.3101C10.8224 25.6545 9.65787 25.7577 8.15097 25.7577C2.70559 25.7577 0 23.5883 0 19.2838C0 15.7369 1.88364 12.6032 5.13718 10.7092C7.39754 9.40068 10.0346 8.78083 13.3909 8.78083C14.5211 8.78083 15.5485 8.84963 16.7472 8.98742ZM8.8702 21.7287L10.925 13.0164C10.8908 13.0164 10.8565 13.0164 10.8224 13.0164L10.5141 12.982C7.63728 12.8787 5.10294 15.6335 5.10294 18.905C5.10294 20.7646 5.99337 21.6944 7.80851 21.6944C8.15097 21.6944 8.35652 21.6944 8.8702 21.7287Z" fill="#7A89F0"/>
<path d="M16.093 25.5511L21.4802 0H26.6302L21.2091 25.5511H16.093ZM22.6028 34L27.8206 9.3006C29.5147 9.02805 31.0055 8.89178 32.598 8.89178C38.0191 8.89178 41.0346 11.6172 41.0346 16.523C41.0346 22.0421 37.3415 25.7555 31.8526 25.7555C31.0394 25.7555 30.4634 25.6874 29.5147 25.517L27.719 34H22.6028ZM32.1236 13.0481L30.3618 21.4629C30.9378 21.7014 31.2427 21.7355 31.7848 21.7355C34.2921 21.7355 35.9862 19.5892 35.9862 16.3186C35.9862 14.1042 34.9358 12.9118 33.0385 12.9118C32.7335 12.9118 32.4963 12.9118 32.1236 13.0481ZM41.0769 25.5511L46.4642 0H51.6142L49.6152 9.47094C50.9705 8.89178 51.7836 8.72144 52.9695 8.72144C55.9511 8.72144 57.7807 10.4248 57.7807 13.2525C57.7807 14.0361 57.6791 14.8878 57.5097 15.7054L55.4429 25.5511H50.3267L52.529 15.1263C52.6646 14.8196 52.7323 14.479 52.7323 14.2064C52.7323 13.3206 52.0208 12.8437 50.8688 12.8437C50.1573 12.8437 49.6491 12.9459 48.802 13.2866L46.1931 25.5511H41.0769ZM75.2651 9.16433L71.572 25.3126C69.4036 25.6533 68.2516 25.7555 66.7608 25.7555C61.3735 25.7555 58.6969 23.6092 58.6969 19.3507C58.6969 15.8417 60.5604 12.7415 63.7791 10.8677C66.0154 9.57314 68.6243 8.95992 71.9447 8.95992C73.0628 8.95992 74.0793 9.02806 75.2651 9.16433ZM67.4723 21.7695L69.5052 13.1503C69.4713 13.1503 69.4374 13.1503 69.4036 13.1503L69.0986 13.1162C66.2525 13.014 63.7453 15.7395 63.7453 18.976C63.7453 20.8156 64.6262 21.7355 66.4219 21.7355C66.7608 21.7355 66.9641 21.7355 67.4723 21.7695Z" fill="#3C3C3F"/>
<path d="M79.0093 26.0243L82.3636 10.1826C84.7692 9.50127 86.7683 9.19465 88.7673 9.19465C90.6986 9.19465 92.02 9.53534 93.3411 10.353C95.374 9.53534 96.9665 9.19465 98.8638 9.19465C102.455 9.19465 104.624 10.7618 104.624 13.385C104.624 14.1005 104.522 14.884 104.353 15.6676L102.184 26.0243H97.0342L99.2704 15.4632C99.3043 15.1566 99.3382 14.8159 99.3382 14.5774C99.3382 13.6916 98.7283 13.2147 97.5763 13.2147C96.8987 13.2147 96.3227 13.351 95.6451 13.6235C95.6451 13.7939 95.6451 13.8961 95.6451 13.9983C95.6451 14.373 95.5773 15.0203 95.5095 15.3951L93.2394 26.0243H88.1236L90.3598 15.4973C90.3598 15.1566 90.3598 14.85 90.3598 14.6115C90.3598 13.6916 89.7499 13.2147 88.5301 13.2147C87.988 13.2147 87.4798 13.2828 86.7683 13.5213L84.1255 26.0243H79.0093Z" fill="#3C3C3F"/>
<path d="M122.158 8.98759L118.425 25.3103C116.233 25.6547 115.068 25.7579 113.562 25.7579C108.117 25.7579 105.411 23.5884 105.411 19.2839C105.411 15.7371 107.294 12.6034 110.548 10.7094C112.809 9.40086 115.446 8.781 118.802 8.781C119.932 8.781 120.959 8.8498 122.158 8.98759ZM114.281 21.7289L116.336 13.0166C116.301 13.0166 116.267 13.0166 116.233 13.0166L115.925 12.9822C113.048 12.8788 110.514 15.6337 110.514 18.9052C110.514 20.7648 111.404 21.6945 113.219 21.6945C113.561 21.6945 113.768 21.6945 114.281 21.7289Z" fill="#6AB9F2"/>
<path d="M121.255 26.0243L124.779 9.43314H129.895L126.371 26.0243H121.255ZM125.321 6.80989L126.473 1.42713H131.589L130.437 6.80989H125.321ZM129.463 26.0243L134.85 0.473222H140L134.579 26.0243H129.463Z" fill="#3C3C3F"/>
</svg>
