<svg width="233" height="34" viewBox="0 0 233 34" fill="none" xmlns="http://www.w3.org/2000/svg">
<path d="M151.944 6.656H154.56V8.072C154.56 9.48 154.336 10.808 153.888 12.056C153.44 13.288 152.752 14.36 151.824 15.272C150.896 16.168 149.712 16.848 148.272 17.312L146.736 14.768C147.968 14.384 148.968 13.848 149.736 13.16C150.504 12.472 151.064 11.696 151.416 10.832C151.768 9.952 151.944 9.032 151.944 8.072V6.656ZM152.592 6.656H155.184V8C155.184 8.912 155.352 9.784 155.688 10.616C156.04 11.432 156.584 12.16 157.32 12.8C158.072 13.424 159.032 13.912 160.2 14.264L158.616 16.736C157.24 16.304 156.104 15.664 155.208 14.816C154.328 13.968 153.672 12.96 153.24 11.792C152.808 10.624 152.592 9.36 152.592 8V6.656ZM161.328 5.912H164.52V17.312H161.328V5.912ZM163.248 10.232H167.448V12.824H163.248V10.232ZM149.856 18.152H164.52V24.176H153.048V26.864H149.88V21.848H161.376V20.624H149.856V18.152ZM149.88 25.496H165.168V27.992H149.88V25.496ZM169.102 7.76H181.27V10.328H169.102V7.76ZM168.862 23.24L168.55 20.672C169.814 20.672 171.198 20.664 172.702 20.648C174.222 20.616 175.766 20.56 177.334 20.48C178.918 20.4 180.422 20.28 181.846 20.12L182.014 22.424C180.542 22.664 179.038 22.848 177.502 22.976C175.966 23.104 174.454 23.184 172.966 23.216C171.494 23.232 170.126 23.24 168.862 23.24ZM170.95 9.944H174.046V21.152H170.95V9.944ZM176.23 9.944H179.326V21.152H176.23V9.944ZM184.102 5.912H187.294V28.136H184.102V5.912ZM180.958 11.432H186.526V13.952H180.958V11.432ZM180.958 16.328H186.526V18.872H180.958V16.328ZM190.244 22.952H210.38V25.544H190.244V22.952ZM198.692 18.2H201.86V23.576H198.692V18.2ZM192.356 7.304H195.548V10.736H205.004V7.304H208.172V18.872H192.356V7.304ZM195.548 13.232V16.328H205.004V13.232H195.548ZM227.154 5.888H230.346V28.112H227.154V5.888ZM220.602 8.192H223.746C223.746 9.888 223.578 11.512 223.242 13.064C222.922 14.6 222.378 16.048 221.61 17.408C220.858 18.768 219.818 20.032 218.49 21.2C217.178 22.352 215.538 23.408 213.57 24.368L211.89 21.848C214.034 20.808 215.738 19.664 217.002 18.416C218.282 17.152 219.202 15.728 219.762 14.144C220.322 12.544 220.602 10.752 220.602 8.768V8.192ZM213.09 8.192H222.09V10.736H213.09V8.192Z" fill="#6F6F71"/>
<path d="M16.7472 8.98742L13.0142 25.3101C10.8224 25.6545 9.65787 25.7577 8.15097 25.7577C2.70559 25.7577 0 23.5883 0 19.2838C0 15.7369 1.88364 12.6032 5.13718 10.7092C7.39754 9.40068 10.0346 8.78083 13.3909 8.78083C14.5211 8.78083 15.5485 8.84963 16.7472 8.98742ZM8.8702 21.7287L10.925 13.0164C10.8908 13.0164 10.8565 13.0164 10.8224 13.0164L10.5141 12.982C7.63728 12.8787 5.10294 15.6335 5.10294 18.905C5.10294 20.7646 5.99337 21.6944 7.80851 21.6944C8.15097 21.6944 8.35652 21.6944 8.8702 21.7287Z" fill="#7A89F0"/>
<path d="M16.093 25.5511L21.4802 0H26.6302L21.2091 25.5511H16.093ZM22.6028 34L27.8206 9.3006C29.5147 9.02806 31.0055 8.89178 32.598 8.89178C38.0191 8.89178 41.0346 11.6172 41.0346 16.523C41.0346 22.0421 37.3415 25.7555 31.8526 25.7555C31.0394 25.7555 30.4634 25.6874 29.5147 25.517L27.719 34H22.6028ZM32.1236 13.0481L30.3618 21.4629C30.9378 21.7014 31.2427 21.7355 31.7848 21.7355C34.2921 21.7355 35.9862 19.5892 35.9862 16.3186C35.9862 14.1042 34.9358 12.9118 33.0385 12.9118C32.7335 12.9118 32.4963 12.9118 32.1236 13.0481ZM41.0769 25.5511L46.4642 0H51.6142L49.6152 9.47094C50.9705 8.89178 51.7836 8.72144 52.9695 8.72144C55.9511 8.72144 57.7807 10.4248 57.7807 13.2525C57.7807 14.0361 57.6791 14.8878 57.5097 15.7054L55.4429 25.5511H50.3267L52.529 15.1263C52.6646 14.8196 52.7323 14.479 52.7323 14.2064C52.7323 13.3206 52.0208 12.8437 50.8688 12.8437C50.1573 12.8437 49.6491 12.9459 48.802 13.2866L46.1931 25.5511H41.0769ZM75.2651 9.16433L71.572 25.3126C69.4036 25.6533 68.2516 25.7555 66.7608 25.7555C61.3735 25.7555 58.6969 23.6092 58.6969 19.3507C58.6969 15.8417 60.5604 12.7415 63.7791 10.8677C66.0154 9.57314 68.6243 8.95992 71.9447 8.95992C73.0628 8.95992 74.0793 9.02806 75.2651 9.16433ZM67.4723 21.7695L69.5052 13.1503C69.4713 13.1503 69.4374 13.1503 69.4036 13.1503L69.0986 13.1162C66.2525 13.014 63.7453 15.7395 63.7453 18.976C63.7453 20.8156 64.6262 21.7355 66.4219 21.7355C66.7608 21.7355 66.9641 21.7355 67.4723 21.7695Z" fill="#3C3C3F"/>
<path d="M79.0093 26.0243L82.3636 10.1826C84.7692 9.50127 86.7683 9.19465 88.7673 9.19465C90.6986 9.19465 92.02 9.53534 93.3411 10.353C95.374 9.53534 96.9665 9.19465 98.8638 9.19465C102.455 9.19465 104.624 10.7618 104.624 13.385C104.624 14.1005 104.522 14.884 104.353 15.6676L102.184 26.0243H97.0342L99.2704 15.4632C99.3043 15.1566 99.3382 14.8159 99.3382 14.5774C99.3382 13.6916 98.7283 13.2147 97.5763 13.2147C96.8987 13.2147 96.3227 13.351 95.6451 13.6235C95.6451 13.7939 95.6451 13.8961 95.6451 13.9983C95.6451 14.373 95.5773 15.0203 95.5095 15.3951L93.2394 26.0243H88.1236L90.3598 15.4973C90.3598 15.1566 90.3598 14.85 90.3598 14.6115C90.3598 13.6916 89.7499 13.2147 88.5301 13.2147C87.988 13.2147 87.4798 13.2828 86.7683 13.5213L84.1255 26.0243H79.0093Z" fill="#3C3C3F"/>
<path d="M122.158 8.98759L118.425 25.3103C116.233 25.6547 115.068 25.7579 113.562 25.7579C108.117 25.7579 105.411 23.5884 105.411 19.2839C105.411 15.7371 107.294 12.6034 110.548 10.7094C112.809 9.40086 115.446 8.781 118.802 8.781C119.932 8.781 120.959 8.8498 122.158 8.98759ZM114.281 21.7289L116.336 13.0166C116.301 13.0166 116.267 13.0166 116.233 13.0166L115.925 12.9822C113.048 12.8788 110.514 15.6337 110.514 18.9052C110.514 20.7648 111.404 21.6945 113.219 21.6945C113.561 21.6945 113.768 21.6945 114.281 21.7289Z" fill="#6AB9F2"/>
<path d="M121.255 26.0243L124.779 9.43314H129.895L126.371 26.0243H121.255ZM125.321 6.80989L126.473 1.42713H131.589L130.437 6.80989H125.321ZM129.463 26.0243L134.85 0.473222H140L134.579 26.0243H129.463Z" fill="#3C3C3F"/>
</svg>
