<svg width="20" height="21" viewBox="0 0 20 21" fill="none" xmlns="http://www.w3.org/2000/svg">
<path d="M19.0442 1.45663C18.4776 0.890959 17.7098 0.573242 16.9092 0.573242C16.1086 0.573242 15.3407 0.890959 14.7742 1.45663L1.22085 15.01C0.832722 15.3959 0.524981 15.855 0.315428 16.3606C0.105874 16.8663 -0.00133165 17.4084 1.24844e-05 17.9558V19.6666C1.24844e-05 19.8876 0.0878099 20.0996 0.24409 20.2559C0.40037 20.4122 0.612332 20.5 0.833346 20.5H2.54418C3.09148 20.5015 3.63365 20.3945 4.13931 20.1851C4.64496 19.9756 5.10406 19.668 5.49001 19.28L19.0442 5.72579C19.6096 5.15929 19.9271 4.3916 19.9271 3.59121C19.9271 2.79082 19.6096 2.02313 19.0442 1.45663ZM4.31168 18.1016C3.84168 18.5685 3.20665 18.8314 2.54418 18.8333H1.66668V17.9558C1.66584 17.6274 1.73014 17.3021 1.85588 16.9987C1.98161 16.6953 2.16628 16.4198 2.39918 16.1883L12.685 5.90246L14.6017 7.81913L4.31168 18.1016ZM17.865 4.54746L15.7767 6.63663L13.86 4.72413L15.9492 2.63496C16.075 2.50938 16.2244 2.40983 16.3887 2.34197C16.553 2.27411 16.7291 2.23929 16.9069 2.23948C17.0847 2.23967 17.2607 2.27488 17.4249 2.3431C17.5891 2.41131 17.7382 2.51119 17.8638 2.63704C17.9893 2.76289 18.0889 2.91225 18.1568 3.07657C18.2246 3.2409 18.2594 3.41698 18.2592 3.59477C18.2591 3.77255 18.2238 3.94856 18.1556 4.11274C18.0874 4.27692 17.9875 4.42605 17.8617 4.55163L17.865 4.54746Z" fill="#3C3C3F"/>
</svg>
