<svg width="480" height="480" viewBox="0 0 480 480" fill="none" xmlns="http://www.w3.org/2000/svg">
<g clip-path="url(#clip0_552_106)">
<rect width="480" height="480" fill="url(#paint0_linear_552_106)"/>
<circle cx="51.5" cy="27.5" r="268.5" fill="url(#paint1_radial_552_106)"/>
<ellipse cx="429" cy="27.5" rx="268" ry="268.5" fill="url(#paint2_radial_552_106)"/>
<g filter="url(#filter0_dii_552_106)">
<path d="M108.098 229.899L98.7725 270.504C93.2975 271.361 90.3886 271.618 86.6245 271.618C73.0221 271.618 66.2637 266.221 66.2637 255.513C66.2637 246.689 70.9689 238.894 79.0961 234.182C84.7425 230.927 91.3298 229.385 99.7136 229.385C102.537 229.385 105.103 229.556 108.098 229.899ZM88.4211 261.595L93.554 239.922C93.4685 239.922 93.3829 239.922 93.2975 239.922L92.5276 239.836C85.3413 239.579 79.0106 246.432 79.0106 254.571C79.0106 259.197 81.2349 261.509 85.769 261.509C86.6245 261.509 87.1379 261.509 88.4211 261.595Z" fill="#7A89F0"/>
</g>
<path d="M106.462 271.104L119.919 207.542H132.784L119.242 271.104H106.462ZM122.723 292.122L135.757 230.678C139.989 230 143.713 229.661 147.691 229.661C161.233 229.661 168.765 236.441 168.765 248.645C168.765 262.375 159.54 271.612 145.829 271.612C143.798 271.612 142.359 271.443 139.989 271.019L135.503 292.122H122.723ZM146.506 240.001L142.105 260.934C143.544 261.527 144.305 261.612 145.66 261.612C151.923 261.612 156.154 256.273 156.154 248.137C156.154 242.628 153.531 239.662 148.791 239.662C148.029 239.662 147.437 239.662 146.506 240.001ZM168.871 271.104L182.328 207.542H195.193L190.199 231.102C193.585 229.661 195.616 229.238 198.578 229.238C206.026 229.238 210.596 233.475 210.596 240.509C210.596 242.458 210.342 244.577 209.919 246.611L204.756 271.104H191.976L197.478 245.17C197.816 244.408 197.986 243.56 197.986 242.882C197.986 240.679 196.208 239.492 193.331 239.492C191.553 239.492 190.284 239.747 188.168 240.594L181.651 271.104H168.871ZM254.272 230.339L245.046 270.511C239.63 271.358 236.752 271.612 233.028 271.612C219.571 271.612 212.885 266.273 212.885 255.68C212.885 246.95 217.54 239.238 225.58 234.577C231.166 231.356 237.683 229.831 245.977 229.831C248.77 229.831 251.309 230 254.272 230.339ZM234.805 261.697L239.884 240.255C239.799 240.255 239.714 240.255 239.63 240.255L238.868 240.17C231.759 239.916 225.496 246.696 225.496 254.747C225.496 259.324 227.696 261.612 232.182 261.612C233.028 261.612 233.536 261.612 234.805 261.697Z" fill="#3C3C3F"/>
<path d="M263.626 272.281L272.005 232.873C278.014 231.178 283.008 230.415 288.001 230.415C292.825 230.415 296.126 231.262 299.426 233.296C304.504 231.262 308.482 230.415 313.222 230.415C322.193 230.415 327.61 234.313 327.61 240.839C327.61 242.619 327.356 244.568 326.933 246.517L321.516 272.281H308.651L314.237 246.009C314.322 245.246 314.407 244.399 314.407 243.805C314.407 241.602 312.883 240.415 310.006 240.415C308.313 240.415 306.874 240.754 305.181 241.432C305.181 241.856 305.181 242.11 305.181 242.365C305.181 243.297 305.012 244.907 304.843 245.839L299.172 272.281H286.393L291.979 246.094C291.979 245.246 291.979 244.483 291.979 243.89C291.979 241.602 290.456 240.415 287.409 240.415C286.054 240.415 284.785 240.585 283.008 241.178L276.406 272.281H263.626Z" fill="#3C3C3F"/>
<g filter="url(#filter1_dii_552_106)">
<path d="M371.41 229.899L362.086 270.505C356.61 271.361 353.7 271.618 349.936 271.618C336.335 271.618 329.576 266.221 329.576 255.513C329.576 246.69 334.281 238.894 342.408 234.183C348.055 230.927 354.642 229.385 363.026 229.385C365.85 229.385 368.415 229.557 371.41 229.899ZM351.732 261.595L356.867 239.922C356.78 239.922 356.695 239.922 356.61 239.922L355.839 239.837C348.652 239.58 342.323 246.433 342.323 254.571C342.323 259.197 344.547 261.51 349.08 261.51C349.936 261.51 350.451 261.51 351.732 261.595Z" fill="#6AB9F2"/>
</g>
<path d="M369.154 272.281L377.956 231.008H390.736L381.934 272.281H369.154ZM379.311 224.482L382.188 211.092H394.968L392.091 224.482H379.311ZM389.657 272.281L403.114 208.719H415.979L402.437 272.281H389.657Z" fill="#3C3C3F"/>
<path d="M132.532 171.448H138.052V180.376H132.532V171.448ZM136.804 172.504H133.78V179.32H136.804V172.504ZM143.028 169.784H144.308V184.248H143.028V169.784ZM137.38 175.224H140.708V176.328H137.38V175.224ZM140.164 170.088H141.428V183.528H140.164V170.088ZM150.467 170.312C152.627 170.312 154.211 171.624 154.211 173.528C154.211 175.416 152.627 176.728 150.467 176.728C148.323 176.728 146.739 175.416 146.739 173.528C146.739 171.624 148.323 170.312 150.467 170.312ZM150.467 171.4C149.075 171.4 148.019 172.28 148.019 173.528C148.019 174.776 149.075 175.64 150.467 175.64C151.875 175.64 152.915 174.776 152.915 173.528C152.915 172.28 151.875 171.4 150.467 171.4ZM156.931 169.784H158.275V177.192H156.931V169.784ZM148.915 177.896H158.275V181.416H150.243V183.592H148.947V180.424H156.963V178.968H148.915V177.896ZM148.947 183H158.755V184.056H148.947V183ZM168.284 171.272H169.372V172.44C169.372 175.096 167.772 177.304 165.356 178.168L164.652 177.128C166.844 176.36 168.284 174.504 168.284 172.44V171.272ZM168.524 171.272H169.612V172.424C169.612 174.344 171.004 176.12 173.132 176.84L172.444 177.88C170.06 177.048 168.524 174.92 168.524 172.424V171.272ZM165.068 170.792H172.796V171.88H165.068V170.792ZM174.62 169.784H175.948V178.488H174.62V169.784ZM175.58 173.592H178.092V174.696H175.58V173.592ZM166.556 179.256H175.948V184.248H174.62V180.36H166.556V179.256ZM182.763 170.6H183.867V172.088C183.867 174.888 182.283 177.176 179.803 178.104L179.115 177.016C181.323 176.232 182.763 174.296 182.763 172.088V170.6ZM183.003 170.6H184.091V172.04C184.091 174.088 185.499 175.896 187.611 176.632L186.891 177.672C184.555 176.792 183.003 174.664 183.003 172.04V170.6ZM189.691 169.784H191.019V178.344H189.691V169.784ZM186.267 178.76C189.243 178.76 191.083 179.768 191.083 181.496C191.083 183.224 189.243 184.216 186.267 184.216C183.275 184.216 181.435 183.224 181.435 181.496C181.435 179.768 183.275 178.76 186.267 178.76ZM186.267 179.816C184.091 179.816 182.763 180.44 182.763 181.496C182.763 182.552 184.091 183.176 186.267 183.176C188.443 183.176 189.771 182.552 189.771 181.496C189.771 180.44 188.443 179.816 186.267 179.816ZM186.555 172.84H189.979V173.944H186.555V172.84ZM199.385 175.4H202.121V176.504H199.385V175.4ZM204.537 169.784H205.817V184.248H204.537V169.784ZM201.673 170.088H202.937V183.528H201.673V170.088ZM196.777 170.984C198.649 170.984 199.865 172.92 199.865 176.024C199.865 179.128 198.649 181.064 196.777 181.064C194.905 181.064 193.705 179.128 193.705 176.024C193.705 172.92 194.905 170.984 196.777 170.984ZM196.777 172.216C195.641 172.216 194.921 173.688 194.921 176.024C194.921 178.36 195.641 179.832 196.777 179.832C197.929 179.832 198.649 178.36 198.649 176.024C198.649 173.688 197.929 172.216 196.777 172.216ZM222.835 169.784H224.115V184.248H222.835V169.784ZM220.387 175.576H223.171V176.68H220.387V175.576ZM219.555 170.104H220.803V183.512H219.555V170.104ZM212.355 179.576H213.299C215.411 179.576 216.851 179.496 218.531 179.144L218.659 180.248C216.931 180.616 215.475 180.68 213.299 180.68H212.355V179.576ZM212.355 171.544H217.731V172.632H213.667V180.072H212.355V171.544ZM236.129 169.8H237.457V180.648H236.129V169.8ZM237.041 174.536H239.601V175.656H237.041V174.536ZM226.273 171.544H234.817V172.616H226.273V171.544ZM230.545 173.416C232.593 173.416 234.001 174.488 234.001 176.12C234.001 177.736 232.593 178.808 230.545 178.808C228.481 178.808 227.073 177.736 227.073 176.12C227.073 174.488 228.481 173.416 230.545 173.416ZM230.545 174.456C229.233 174.456 228.337 175.112 228.337 176.12C228.337 177.112 229.233 177.768 230.545 177.768C231.841 177.768 232.737 177.112 232.737 176.12C232.737 175.112 231.841 174.456 230.545 174.456ZM229.873 169.784H231.201V172.104H229.873V169.784ZM228.449 182.84H238.113V183.928H228.449V182.84ZM228.449 179.784H229.777V183.304H228.449V179.784ZM245.93 171.224H255.242V172.328H245.93V171.224ZM244.554 181.128H257.626V182.232H244.554V181.128ZM249.626 175.96H250.954V181.672H249.626V175.96ZM254.746 171.224H256.058V172.664C256.058 174.456 256.058 176.44 255.53 179.368L254.202 179.192C254.746 176.424 254.746 174.392 254.746 172.664V171.224ZM259.705 171.032H266.441V177.768H259.705V171.032ZM265.161 172.104H260.985V176.696H265.161V172.104ZM269.465 169.8H270.809V180.184H269.465V169.8ZM261.513 182.68H271.241V183.784H261.513V182.68ZM261.513 179.192H262.825V183.128H261.513V179.192ZM279.88 170.024C283.064 170.024 284.968 170.92 284.968 172.536C284.968 174.152 283.064 175.048 279.88 175.048C276.68 175.048 274.792 174.152 274.792 172.536C274.792 170.92 276.68 170.024 279.88 170.024ZM279.88 171.032C277.512 171.032 276.152 171.576 276.152 172.536C276.152 173.496 277.512 174.04 279.88 174.04C282.232 174.04 283.592 173.496 283.592 172.536C283.592 171.576 282.232 171.032 279.88 171.032ZM273.336 176.008H286.408V177.08H273.336V176.008ZM274.92 178.312H284.744V181.576H276.264V183.336H274.952V180.616H283.432V179.336H274.92V178.312ZM274.952 183.048H285.176V184.088H274.952V183.048ZM292.449 175.848H293.521C296.305 175.848 297.937 175.784 299.825 175.416L299.969 176.456C298.017 176.824 296.353 176.92 293.521 176.92H292.449V175.848ZM292.449 170.632H299.025V171.704H293.745V176.488H292.449V170.632ZM298.177 172.984H302.593V174.008H298.177V172.984ZM302.225 169.784H303.553V177.416H302.225V169.784ZM294.241 178.12H303.553V181.512H295.569V183.688H294.273V180.504H302.241V179.16H294.241V178.12ZM294.273 183H304.081V184.056H294.273V183ZM309.92 170.888C312.016 170.888 313.52 172.856 313.52 175.928C313.52 179.016 312.016 180.984 309.92 180.984C307.808 180.984 306.32 179.016 306.32 175.928C306.32 172.856 307.808 170.888 309.92 170.888ZM309.92 172.088C308.528 172.088 307.584 173.592 307.584 175.928C307.584 178.28 308.528 179.816 309.92 179.816C311.312 179.816 312.256 178.28 312.256 175.928C312.256 173.592 311.312 172.088 309.92 172.088ZM316.656 169.768H317.968V184.264H316.656V169.768ZM313.088 175.288H317.232V176.376H313.088V175.288ZM326.255 171.208H327.407V171.816C327.407 174.408 324.655 176.312 321.743 176.808L321.231 175.752C323.775 175.384 326.255 173.72 326.255 171.816V171.208ZM326.591 171.208H327.727V171.816C327.727 173.72 330.223 175.384 332.751 175.752L332.255 176.808C329.327 176.312 326.591 174.408 326.591 171.816V171.208ZM326.303 178.728H327.615V184.248H326.303V178.728ZM320.463 178.024H333.535V179.112H320.463V178.024ZM321.679 170.68H332.271V171.752H321.679V170.68ZM336.621 174.12H346.445V175.208H336.621V174.12ZM334.845 177.144H347.965V178.232H334.845V177.144ZM336.621 170.312H337.933V174.664H336.621V170.312ZM336.525 182.808H346.525V183.896H336.525V182.808ZM336.525 179.672H337.837V183.096H336.525V179.672Z" fill="#6F6F71"/>
</g>
<defs>
<filter id="filter0_dii_552_106" x="65.3028" y="228.424" width="44.0514" height="44.4504" filterUnits="userSpaceOnUse" color-interpolation-filters="sRGB">
<feFlood flood-opacity="0" result="BackgroundImageFix"/>
<feColorMatrix in="SourceAlpha" type="matrix" values="0 0 0 0 0 0 0 0 0 0 0 0 0 0 0 0 0 0 127 0" result="hardAlpha"/>
<feOffset dx="0.14783" dy="0.14783"/>
<feGaussianBlur stdDeviation="0.55436"/>
<feComposite in2="hardAlpha" operator="out"/>
<feColorMatrix type="matrix" values="0 0 0 0 0 0 0 0 0 0 0 0 0 0 0 0 0 0 0.25 0"/>
<feBlend mode="normal" in2="BackgroundImageFix" result="effect1_dropShadow_552_106"/>
<feBlend mode="normal" in="SourceGraphic" in2="effect1_dropShadow_552_106" result="shape"/>
<feColorMatrix in="SourceAlpha" type="matrix" values="0 0 0 0 0 0 0 0 0 0 0 0 0 0 0 0 0 0 127 0" result="hardAlpha"/>
<feOffset dx="0.517403" dy="0.739148"/>
<feGaussianBlur stdDeviation="0.850019"/>
<feComposite in2="hardAlpha" operator="arithmetic" k2="-1" k3="1"/>
<feColorMatrix type="matrix" values="0 0 0 0 1 0 0 0 0 1 0 0 0 0 1 0 0 0 0.3 0"/>
<feBlend mode="normal" in2="shape" result="effect2_innerShadow_552_106"/>
<feColorMatrix in="SourceAlpha" type="matrix" values="0 0 0 0 0 0 0 0 0 0 0 0 0 0 0 0 0 0 127 0" result="hardAlpha"/>
<feOffset dx="-0.14783" dy="-0.14783"/>
<feGaussianBlur stdDeviation="0.739148"/>
<feComposite in2="hardAlpha" operator="arithmetic" k2="-1" k3="1"/>
<feColorMatrix type="matrix" values="0 0 0 0 0 0 0 0 0 0 0 0 0 0 0 0 0 0 0.2 0"/>
<feBlend mode="normal" in2="effect2_innerShadow_552_106" result="effect3_innerShadow_552_106"/>
</filter>
<filter id="filter1_dii_552_106" x="328.615" y="228.425" width="44.0514" height="44.4504" filterUnits="userSpaceOnUse" color-interpolation-filters="sRGB">
<feFlood flood-opacity="0" result="BackgroundImageFix"/>
<feColorMatrix in="SourceAlpha" type="matrix" values="0 0 0 0 0 0 0 0 0 0 0 0 0 0 0 0 0 0 127 0" result="hardAlpha"/>
<feOffset dx="0.14783" dy="0.14783"/>
<feGaussianBlur stdDeviation="0.55436"/>
<feComposite in2="hardAlpha" operator="out"/>
<feColorMatrix type="matrix" values="0 0 0 0 0 0 0 0 0 0 0 0 0 0 0 0 0 0 0.25 0"/>
<feBlend mode="normal" in2="BackgroundImageFix" result="effect1_dropShadow_552_106"/>
<feBlend mode="normal" in="SourceGraphic" in2="effect1_dropShadow_552_106" result="shape"/>
<feColorMatrix in="SourceAlpha" type="matrix" values="0 0 0 0 0 0 0 0 0 0 0 0 0 0 0 0 0 0 127 0" result="hardAlpha"/>
<feOffset dx="0.517403" dy="0.739148"/>
<feGaussianBlur stdDeviation="0.850019"/>
<feComposite in2="hardAlpha" operator="arithmetic" k2="-1" k3="1"/>
<feColorMatrix type="matrix" values="0 0 0 0 1 0 0 0 0 1 0 0 0 0 1 0 0 0 0.3 0"/>
<feBlend mode="normal" in2="shape" result="effect2_innerShadow_552_106"/>
<feColorMatrix in="SourceAlpha" type="matrix" values="0 0 0 0 0 0 0 0 0 0 0 0 0 0 0 0 0 0 127 0" result="hardAlpha"/>
<feOffset dx="-0.14783" dy="-0.14783"/>
<feGaussianBlur stdDeviation="0.739148"/>
<feComposite in2="hardAlpha" operator="arithmetic" k2="-1" k3="1"/>
<feColorMatrix type="matrix" values="0 0 0 0 0 0 0 0 0 0 0 0 0 0 0 0 0 0 0.2 0"/>
<feBlend mode="normal" in2="effect2_innerShadow_552_106" result="effect3_innerShadow_552_106"/>
</filter>
<linearGradient id="paint0_linear_552_106" x1="240" y1="0" x2="240" y2="480" gradientUnits="userSpaceOnUse">
<stop stop-color="#DAE9FF"/>
<stop offset="1" stop-color="#F5F9FF"/>
</linearGradient>
<radialGradient id="paint1_radial_552_106" cx="0" cy="0" r="1" gradientUnits="userSpaceOnUse" gradientTransform="translate(51.5 27.5) rotate(90) scale(268.5)">
<stop stop-color="#A5B0FC"/>
<stop offset="1" stop-color="#A5B0FC" stop-opacity="0"/>
</radialGradient>
<radialGradient id="paint2_radial_552_106" cx="0" cy="0" r="1" gradientUnits="userSpaceOnUse" gradientTransform="translate(429 27.5) rotate(90) scale(268.5 268)">
<stop stop-color="#9CD4FC"/>
<stop offset="1" stop-color="#9CD4FC" stop-opacity="0"/>
</radialGradient>
<clipPath id="clip0_552_106">
<rect width="480" height="480" fill="white"/>
</clipPath>
</defs>
</svg>
