<svg width="453" height="120" viewBox="0 0 453 120" fill="none" xmlns="http://www.w3.org/2000/svg">
<path d="M41.5956 42.52L32.8756 80.44C27.7556 81.24 25.0356 81.48 21.5156 81.48C8.79563 81.48 2.47563 76.44 2.47563 66.44C2.47563 58.2 6.87563 50.92 14.4756 46.52C19.7556 43.48 25.9156 42.04 33.7556 42.04C36.3956 42.04 38.7956 42.2 41.5956 42.52ZM23.1956 72.12L27.9956 51.88C27.9156 51.88 27.8356 51.88 27.7556 51.88L27.0356 51.8C20.3156 51.56 14.3956 57.96 14.3956 65.56C14.3956 69.88 16.4756 72.04 20.7156 72.04C21.5156 72.04 21.9956 72.04 23.1956 72.12Z" fill="#7A89F0"/>
<path d="M42.6631 81L55.3831 21H67.5431L54.7431 81H42.6631ZM60.8337 100.84L73.1538 42.84C77.1538 42.2 80.6738 41.88 84.4338 41.88C97.2338 41.88 104.354 48.28 104.354 59.8C104.354 72.76 95.6338 81.48 82.6738 81.48C80.7538 81.48 79.3938 81.32 77.1538 80.92L72.9138 100.84H60.8337ZM83.3138 51.64L79.1538 71.4C80.5138 71.96 81.2338 72.04 82.5138 72.04C88.4338 72.04 92.4338 67 92.4338 59.32C92.4338 54.12 89.9538 51.32 85.4738 51.32C84.7538 51.32 84.1938 51.32 83.3138 51.64ZM107.254 81L119.974 21H132.134L127.414 43.24C130.614 41.88 132.534 41.48 135.334 41.48C142.374 41.48 146.694 45.48 146.694 52.12C146.694 53.96 146.454 55.96 146.054 57.88L141.174 81H129.094L134.294 56.52C134.614 55.8 134.774 55 134.774 54.36C134.774 52.28 133.094 51.16 130.374 51.16C128.694 51.16 127.494 51.4 125.494 52.2L119.334 81H107.254ZM190.777 42.52L182.057 80.44C176.937 81.24 174.217 81.48 170.697 81.48C157.977 81.48 151.657 76.44 151.657 66.44C151.657 58.2 156.057 50.92 163.657 46.52C168.937 43.48 175.097 42.04 182.937 42.04C185.577 42.04 187.977 42.2 190.777 42.52ZM172.377 72.12L177.177 51.88C177.097 51.88 177.017 51.88 176.937 51.88L176.217 51.8C169.497 51.56 163.577 57.96 163.577 65.56C163.577 69.88 165.657 72.04 169.897 72.04C170.697 72.04 171.177 72.04 172.377 72.12Z" fill="#3C3C3F"/>
<path d="M200.836 81L208.756 43.8C214.436 42.2 219.156 41.48 223.876 41.48C228.436 41.48 231.556 42.28 234.676 44.2C239.476 42.28 243.236 41.48 247.716 41.48C256.196 41.48 261.316 45.16 261.316 51.32C261.316 53 261.076 54.84 260.676 56.68L255.556 81H243.396L248.676 56.2C248.756 55.48 248.836 54.68 248.836 54.12C248.836 52.04 247.396 50.92 244.676 50.92C243.076 50.92 241.716 51.24 240.116 51.88C240.116 52.28 240.116 52.52 240.116 52.76C240.116 53.64 239.956 55.16 239.796 56.04L234.436 81H222.356L227.636 56.28C227.636 55.48 227.636 54.76 227.636 54.2C227.636 52.04 226.196 50.92 223.316 50.92C222.036 50.92 220.836 51.08 219.156 51.64L212.916 81H200.836ZM306.053 81L314.373 42.04H326.453L318.133 81H306.053ZM315.653 35.88L318.373 23.24H330.453L327.733 35.88H315.653ZM328.233 81L340.953 21H353.113L340.313 81H328.233Z" fill="#3C3C3F"/>
<path d="M305.066 42.52L296.346 80.44C291.226 81.24 288.506 81.48 284.986 81.48C272.266 81.48 265.946 76.44 265.946 66.44C265.946 58.2 270.346 50.92 277.946 46.52C283.226 43.48 289.386 42.04 297.226 42.04C299.866 42.04 302.266 42.2 305.066 42.52ZM286.666 72.12L291.466 51.88C291.386 51.88 291.306 51.88 291.226 51.88L290.506 51.8C283.786 51.56 277.866 57.96 277.866 65.56C277.866 69.88 279.946 72.04 284.186 72.04C284.986 72.04 285.466 72.04 286.666 72.12Z" fill="#6AB9F2"/>
<path d="M369.096 69.312H372.6V71.904H369.096V69.312ZM363.912 67.08H366.336V67.656C366.336 68.808 366.24 69.952 366.048 71.088C365.872 72.208 365.584 73.272 365.184 74.28C364.8 75.272 364.296 76.176 363.672 76.992C363.064 77.792 362.312 78.448 361.416 78.96L359.64 76.56C360.424 76.096 361.088 75.536 361.632 74.88C362.176 74.208 362.616 73.48 362.952 72.696C363.304 71.896 363.552 71.072 363.696 70.224C363.84 69.36 363.912 68.504 363.912 67.656V67.08ZM364.536 67.08H366.96V67.656C366.96 68.472 367.032 69.296 367.176 70.128C367.336 70.96 367.584 71.744 367.92 72.48C368.256 73.216 368.696 73.896 369.24 74.52C369.784 75.128 370.448 75.64 371.232 76.056L369.504 78.432C368.32 77.808 367.36 76.944 366.624 75.84C365.888 74.72 365.352 73.456 365.016 72.048C364.696 70.624 364.536 69.16 364.536 67.656V67.08ZM360.456 64.632H370.368V67.2H360.456V64.632ZM363.912 61.632H366.96V66.696H363.912V61.632ZM376.08 60.888H379.128V83.112H376.08V60.888ZM371.592 61.248H374.568V82.104H371.592V61.248ZM397.03 60.912H400.246V74.328H397.03V60.912ZM394.27 67.392H398.326V69.984H394.27V67.392ZM385.414 75.264H400.246V82.896H385.414V75.264ZM397.102 77.76H388.558V80.376H397.102V77.76ZM381.694 62.832H394.678V65.352H381.694V62.832ZM388.198 66.072C389.238 66.072 390.158 66.24 390.958 66.576C391.758 66.912 392.382 67.384 392.83 67.992C393.294 68.584 393.526 69.28 393.526 70.08C393.526 70.864 393.294 71.56 392.83 72.168C392.382 72.76 391.758 73.224 390.958 73.56C390.158 73.896 389.238 74.064 388.198 74.064C387.174 74.064 386.254 73.896 385.438 73.56C384.638 73.224 384.006 72.76 383.542 72.168C383.094 71.56 382.87 70.864 382.87 70.08C382.87 69.28 383.094 68.584 383.542 67.992C384.006 67.384 384.638 66.912 385.438 66.576C386.254 66.24 387.174 66.072 388.198 66.072ZM388.222 68.424C387.758 68.424 387.35 68.488 386.998 68.616C386.662 68.744 386.398 68.928 386.206 69.168C386.014 69.408 385.918 69.704 385.918 70.056C385.918 70.424 386.014 70.736 386.206 70.992C386.398 71.232 386.67 71.416 387.022 71.544C387.374 71.672 387.766 71.736 388.198 71.736C388.662 71.736 389.062 71.672 389.398 71.544C389.734 71.416 389.998 71.232 390.19 70.992C390.382 70.736 390.478 70.424 390.478 70.056C390.478 69.704 390.382 69.408 390.19 69.168C389.998 68.928 389.734 68.744 389.398 68.616C389.062 68.488 388.67 68.424 388.222 68.424ZM386.614 60.72H389.782V64.608H386.614V60.72ZM417.476 60.912H420.668V83.136H417.476V60.912ZM419.948 69.576H423.86V72.216H419.948V69.576ZM403.124 64.176H416.084V66.72H403.124V64.176ZM409.652 67.992C410.724 67.992 411.684 68.224 412.532 68.688C413.38 69.136 414.044 69.752 414.524 70.536C415.02 71.32 415.268 72.232 415.268 73.272C415.268 74.312 415.02 75.232 414.524 76.032C414.044 76.816 413.38 77.44 412.532 77.904C411.7 78.352 410.74 78.576 409.652 78.576C408.58 78.576 407.612 78.352 406.748 77.904C405.9 77.44 405.228 76.816 404.732 76.032C404.252 75.232 404.012 74.312 404.012 73.272C404.012 72.232 404.252 71.32 404.732 70.536C405.228 69.752 405.9 69.136 406.748 68.688C407.612 68.224 408.58 67.992 409.652 67.992ZM409.652 70.584C409.14 70.584 408.692 70.688 408.308 70.896C407.924 71.104 407.62 71.408 407.396 71.808C407.172 72.208 407.06 72.696 407.06 73.272C407.06 73.832 407.172 74.32 407.396 74.736C407.62 75.136 407.924 75.448 408.308 75.672C408.692 75.88 409.14 75.984 409.652 75.984C410.148 75.984 410.588 75.88 410.972 75.672C411.356 75.448 411.66 75.136 411.884 74.736C412.108 74.32 412.22 73.832 412.22 73.272C412.22 72.696 412.108 72.208 411.884 71.808C411.66 71.408 411.356 71.104 410.972 70.896C410.588 70.688 410.148 70.584 409.652 70.584ZM408.02 61.272H411.236V65.16H408.02V61.272ZM440.154 60.888H443.346V83.112H440.154V60.888ZM433.602 63.192H436.746C436.746 64.888 436.578 66.512 436.242 68.064C435.922 69.6 435.378 71.048 434.61 72.408C433.858 73.768 432.818 75.032 431.49 76.2C430.178 77.352 428.538 78.408 426.57 79.368L424.89 76.848C427.034 75.808 428.738 74.664 430.002 73.416C431.282 72.152 432.202 70.728 432.762 69.144C433.322 67.544 433.602 65.752 433.602 63.768V63.192ZM426.09 63.192H435.09V65.736H426.09V63.192Z" fill="#6F6F71"/>
</svg>
