<svg width="1097" height="409" viewBox="0 0 1097 409" fill="none" xmlns="http://www.w3.org/2000/svg">
<path d="M356.09 8.04037L288.378 77.299L281.608 58.8674L264.333 64.7315L268.051 39.1328L247.699 24.9466L356.09 8.04037Z" fill="white"/>
<path d="M276.531 45.0437L298.774 34.1785M276.531 45.0437L268.051 39.1328M276.531 45.0437L281.608 58.8674M356.09 8.04037L288.378 77.299L281.608 58.8674M356.09 8.04037L247.699 24.9466L268.051 39.1328M356.09 8.04037L306.144 31.1507M268.051 39.1328L264.333 64.7315L281.608 58.8674" stroke="#3C3C3F" stroke-width="3" stroke-linecap="round" stroke-linejoin="round"/>
<path d="M219.201 83.1763C210.319 84.7986 192.22 92.7492 190.885 111.574C189.216 135.104 217.976 123.63 210.513 112.966C203.05 102.301 175.84 91.9253 154 168.079" stroke="#3C3C3F" stroke-width="3" stroke-linecap="round" stroke-linejoin="round"/>
<path d="M21.5 149V163M21.5 163L37 158.8M21.5 163L30.7031 177M21.5 163L11.6364 177M21.5 163L6 158.8" stroke="#3C3C3F" stroke-width="11" stroke-linecap="round"/>
<path d="M826 79V88M826 88L836 85.3M826 88L831.938 97M826 88L819.636 97M826 88L816 85.3" stroke="#3C3C3F" stroke-width="6" stroke-linecap="round"/>
<path d="M626 347V356M626 356L636 353.3M626 356L631.938 365M626 356L619.636 365M626 356L616 353.3" stroke="#3C3C3F" stroke-width="6" stroke-linecap="round"/>
<path d="M247 273V282M247 282L257 279.3M247 282L252.938 291M247 282L240.636 291M247 282L237 279.3" stroke="#3C3C3F" stroke-width="6" stroke-linecap="round"/>
<path d="M980.398 254.207C975.857 241.155 972.328 248.768 970.436 254.207C957.721 254 962.06 260.137 966.223 263.152C963.498 277.208 971.142 273.192 975.305 269.427C985.295 277.459 985.522 268.59 984.387 263.152C992.561 255.12 984.939 253.789 980.398 254.207Z" fill="#6AB9F2" stroke="#3C3C3F" stroke-width="3"/>
<path d="M969.33 56.4411L988.018 62.1763L970.687 78.669L951.999 72.9338L969.33 56.4411Z" fill="#7A89F0" stroke="black" stroke-width="3" stroke-linejoin="round"/>
<path d="M1071.3 317.329L1078.46 300L1092.64 318.034L1085.48 335.364L1071.3 317.329Z" fill="#7A89F0" stroke="black" stroke-width="3" stroke-linejoin="round"/>
<path d="M70.9468 356.854L79.9922 373.278L57.0462 373.072L48.0008 356.649L70.9468 356.854Z" fill="#6AB9F2" stroke="black" stroke-width="3" stroke-linejoin="round"/>
<path d="M905.381 398.869L888.338 406.686L890.225 383.817L907.268 376L905.381 398.869Z" fill="#6AB9F2" stroke="black" stroke-width="3" stroke-linejoin="round"/>
<path d="M322.683 168.28H337.283V192.28H322.683V168.28ZM332.363 172.44H327.643V188.16H332.363V172.44ZM348.363 164.48H353.443V201.52H348.363V164.48ZM334.603 177.96H342.923V182.24H334.603V177.96ZM340.843 165.08H345.803V199.88H340.843V165.08ZM368.04 165.56C369.96 165.56 371.653 165.933 373.12 166.68C374.613 167.4 375.787 168.4 376.64 169.68C377.52 170.933 377.96 172.387 377.96 174.04C377.96 175.693 377.52 177.16 376.64 178.44C375.787 179.693 374.613 180.68 373.12 181.4C371.653 182.12 369.96 182.48 368.04 182.48C366.173 182.48 364.493 182.12 363 181.4C361.507 180.68 360.32 179.693 359.44 178.44C358.587 177.16 358.16 175.693 358.16 174.04C358.16 172.387 358.587 170.92 359.44 169.64C360.32 168.36 361.507 167.36 363 166.64C364.493 165.92 366.173 165.56 368.04 165.56ZM368.08 169.88C367.173 169.88 366.36 170.053 365.64 170.4C364.92 170.72 364.347 171.187 363.92 171.8C363.52 172.413 363.32 173.16 363.32 174.04C363.32 174.92 363.52 175.68 363.92 176.32C364.347 176.933 364.907 177.4 365.6 177.72C366.32 178.04 367.147 178.2 368.08 178.2C368.987 178.2 369.787 178.04 370.48 177.72C371.2 177.4 371.76 176.933 372.16 176.32C372.587 175.68 372.8 174.92 372.8 174.04C372.8 173.16 372.587 172.413 372.16 171.8C371.76 171.187 371.2 170.72 370.48 170.4C369.76 170.053 368.96 169.88 368.08 169.88ZM383.08 164.52H388.4V183.04H383.08V164.52ZM363.72 184.56H388.4V194.68H369V199.2H363.76V190.84H383.12V188.64H363.72V184.56ZM363.76 197H389.32V201.16H363.76V197ZM410.335 168.28H414.695V170.6C414.695 172.947 414.308 175.16 413.535 177.24C412.788 179.32 411.641 181.147 410.095 182.72C408.575 184.267 406.641 185.427 404.295 186.2L401.535 182.08C403.588 181.387 405.255 180.44 406.535 179.24C407.841 178.04 408.801 176.693 409.415 175.2C410.028 173.68 410.335 172.147 410.335 170.6V168.28ZM411.375 168.28H415.695V170.6C415.695 172.04 415.988 173.48 416.575 174.92C417.161 176.333 418.081 177.613 419.335 178.76C420.615 179.88 422.241 180.76 424.215 181.4L421.535 185.56C419.215 184.813 417.308 183.68 415.815 182.16C414.321 180.64 413.201 178.893 412.455 176.92C411.735 174.92 411.375 172.813 411.375 170.6V168.28ZM402.935 166.68H422.975V170.92H402.935V166.68ZM425.895 164.52H431.215V186.8H425.895V164.52ZM429.775 173.44H436.135V177.84H429.775V173.44ZM406.495 188.44H431.215V201.56H425.895V192.68H406.495V188.44ZM446.692 166.44H451.092V169.72C451.092 172.2 450.705 174.533 449.932 176.72C449.185 178.907 448.038 180.813 446.492 182.44C444.945 184.067 442.958 185.293 440.532 186.12L437.732 181.84C439.865 181.173 441.585 180.213 442.892 178.96C444.198 177.707 445.158 176.28 445.772 174.68C446.385 173.08 446.692 171.427 446.692 169.72V166.44ZM447.772 166.44H452.092V169.48C452.092 171.107 452.372 172.68 452.932 174.2C453.492 175.693 454.385 177.027 455.612 178.2C456.838 179.347 458.425 180.24 460.372 180.88L457.612 185.04C455.345 184.24 453.478 183.08 452.012 181.56C450.572 180.04 449.505 178.253 448.812 176.2C448.118 174.12 447.772 171.88 447.772 169.48V166.44ZM463.732 164.52H469.092V186.2H463.732V164.52ZM456.532 187.16C460.452 187.16 463.545 187.8 465.812 189.08C468.078 190.333 469.212 192.08 469.212 194.32C469.212 196.613 468.078 198.387 465.812 199.64C463.545 200.92 460.452 201.56 456.532 201.56C452.612 201.56 449.518 200.92 447.252 199.64C444.985 198.387 443.852 196.613 443.852 194.32C443.852 192.08 444.985 190.333 447.252 189.08C449.518 187.8 452.612 187.16 456.532 187.16ZM456.532 191.28C454.932 191.28 453.585 191.387 452.492 191.6C451.398 191.813 450.558 192.16 449.972 192.64C449.412 193.093 449.132 193.653 449.132 194.32C449.132 195.013 449.412 195.6 449.972 196.08C450.558 196.533 451.398 196.88 452.492 197.12C453.585 197.333 454.932 197.44 456.532 197.44C458.132 197.44 459.478 197.333 460.572 197.12C461.665 196.88 462.492 196.533 463.052 196.08C463.612 195.6 463.892 195.013 463.892 194.32C463.892 193.653 463.612 193.093 463.052 192.64C462.492 192.16 461.665 191.813 460.572 191.6C459.478 191.387 458.132 191.28 456.532 191.28ZM456.972 171.24H464.532V175.56H456.972V171.24ZM488.888 178.12H494.968V182.4H488.888V178.12ZM500.808 164.48H505.888V201.52H500.808V164.48ZM493.288 165.08H498.248V199.88H493.288V165.08ZM482.408 167.08C484.035 167.08 485.448 167.627 486.648 168.72C487.875 169.787 488.808 171.333 489.448 173.36C490.115 175.36 490.448 177.76 490.448 180.56C490.448 183.333 490.115 185.733 489.448 187.76C488.808 189.787 487.875 191.347 486.648 192.44C485.448 193.507 484.022 194.04 482.368 194.04C480.768 194.04 479.355 193.507 478.128 192.44C476.928 191.347 475.995 189.787 475.328 187.76C474.688 185.733 474.368 183.333 474.368 180.56C474.368 177.76 474.688 175.36 475.328 173.36C475.995 171.333 476.928 169.787 478.128 168.72C479.355 167.627 480.782 167.08 482.408 167.08ZM482.408 172.12C481.742 172.12 481.168 172.427 480.688 173.04C480.208 173.653 479.835 174.587 479.568 175.84C479.328 177.067 479.208 178.64 479.208 180.56C479.208 182.427 479.328 183.987 479.568 185.24C479.835 186.493 480.208 187.44 480.688 188.08C481.168 188.693 481.742 189 482.408 189C483.075 189 483.648 188.693 484.128 188.08C484.635 187.44 485.008 186.493 485.248 185.24C485.488 183.987 485.608 182.427 485.608 180.56C485.608 178.64 485.488 177.067 485.248 175.84C485.008 174.587 484.635 173.653 484.128 173.04C483.648 172.427 483.075 172.12 482.408 172.12ZM545.263 164.48H550.343V201.52H545.263V164.48ZM540.343 178.76H546.503V183.04H540.343V178.76ZM536.983 165.12H541.903V199.8H536.983V165.12ZM519.583 188.8H522.143C523.69 188.8 525.156 188.787 526.543 188.76C527.93 188.707 529.303 188.613 530.663 188.48C532.05 188.32 533.463 188.12 534.903 187.88L535.343 192.2C533.85 192.467 532.396 192.68 530.983 192.84C529.57 193 528.143 193.107 526.703 193.16C525.263 193.187 523.743 193.2 522.143 193.2H519.583V188.8ZM519.583 168.8H533.223V173.08H524.823V190.92H519.583V168.8ZM578.34 164.52H583.66V192.2H578.34V164.52ZM582.18 175.8H588.58V180.2H582.18V175.8ZM554.54 168.4H576.3V172.56H554.54V168.4ZM565.42 173.88C567.207 173.88 568.78 174.187 570.14 174.8C571.527 175.387 572.607 176.227 573.38 177.32C574.153 178.387 574.54 179.613 574.54 181C574.54 182.413 574.153 183.667 573.38 184.76C572.607 185.827 571.527 186.667 570.14 187.28C568.78 187.867 567.207 188.16 565.42 188.16C563.66 188.16 562.087 187.867 560.7 187.28C559.313 186.667 558.233 185.827 557.46 184.76C556.687 183.667 556.3 182.413 556.3 181C556.3 179.613 556.687 178.387 557.46 177.32C558.233 176.227 559.313 175.387 560.7 174.8C562.087 174.187 563.66 173.88 565.42 173.88ZM565.42 177.92C564.247 177.92 563.287 178.187 562.54 178.72C561.793 179.253 561.42 180.027 561.42 181.04C561.42 182.027 561.793 182.787 562.54 183.32C563.287 183.853 564.247 184.12 565.42 184.12C566.62 184.12 567.58 183.853 568.3 183.32C569.047 182.787 569.42 182.027 569.42 181.04C569.42 180.027 569.047 179.253 568.3 178.72C567.58 178.187 566.62 177.92 565.42 177.92ZM562.78 164.48H568.06V170.4H562.78V164.48ZM559.78 196.64H584.98V200.92H559.78V196.64ZM559.78 190.12H565.14V198.48H559.78V190.12ZM602.435 167.64H625.875V171.88H602.435V167.64ZM598.995 192.76H632.515V197.08H598.995V192.76ZM610.835 180.04H616.195V194.92H610.835V180.04ZM623.955 167.64H629.315V171.16C629.315 172.707 629.288 174.347 629.235 176.08C629.208 177.813 629.088 179.733 628.875 181.84C628.688 183.947 628.341 186.307 627.835 188.92L622.515 188.36C623.261 184.653 623.688 181.427 623.795 178.68C623.901 175.907 623.955 173.4 623.955 171.16V167.64ZM636.832 167.4H654.792V185.36H636.832V167.4ZM649.592 171.64H642.072V181.12H649.592V171.64ZM660.432 164.52H665.752V190.84H660.432V164.52ZM641.072 196.52H666.712V200.76H641.072V196.52ZM641.072 188.48H646.392V198.4H641.072V188.48ZM670.948 183.4H704.468V187.6H670.948V183.4ZM675.028 196.64H700.708V200.92H675.028V196.64ZM675.028 190.08H680.348V198H675.028V190.08ZM687.708 165.6C690.402 165.6 692.748 165.907 694.748 166.52C696.775 167.133 698.348 168.013 699.468 169.16C700.588 170.307 701.148 171.653 701.148 173.2C701.148 174.773 700.588 176.133 699.468 177.28C698.348 178.427 696.775 179.307 694.748 179.92C692.748 180.533 690.402 180.84 687.708 180.84C685.042 180.84 682.695 180.533 680.668 179.92C678.668 179.307 677.108 178.427 675.988 177.28C674.868 176.133 674.308 174.773 674.308 173.2C674.308 171.653 674.868 170.307 675.988 169.16C677.108 168.013 678.668 167.133 680.668 166.52C682.695 165.907 685.042 165.6 687.708 165.6ZM687.708 169.8C686.082 169.8 684.668 169.933 683.468 170.2C682.268 170.467 681.362 170.853 680.748 171.36C680.135 171.84 679.828 172.453 679.828 173.2C679.828 173.947 680.135 174.573 680.748 175.08C681.362 175.587 682.268 175.973 683.468 176.24C684.668 176.507 686.082 176.64 687.708 176.64C689.388 176.64 690.815 176.507 691.988 176.24C693.162 175.973 694.055 175.587 694.668 175.08C695.308 174.573 695.628 173.947 695.628 173.2C695.628 172.453 695.308 171.84 694.668 171.36C694.055 170.853 693.162 170.467 691.988 170.2C690.815 169.933 689.388 169.8 687.708 169.8ZM717.403 178.96H720.283C722.71 178.96 724.803 178.947 726.563 178.92C728.323 178.867 729.923 178.773 731.363 178.64C732.803 178.507 734.243 178.307 735.683 178.04L736.163 182.08C734.696 182.373 733.216 182.6 731.723 182.76C730.23 182.893 728.563 182.987 726.723 183.04C724.91 183.067 722.763 183.08 720.283 183.08H717.403V178.96ZM717.403 166.32H734.043V170.4H722.683V181.6H717.403V166.32ZM732.323 172.2H742.443V176.16H732.323V172.2ZM741.083 164.48H746.403V183.56H741.083V164.48ZM721.923 185.08H746.403V194.92H727.243V199.64H722.003V191.12H741.163V189.2H721.923V185.08ZM722.003 197H747.483V201.16H722.003V197ZM754.88 167.64H778.32V171.88H754.88V167.64ZM751.44 192.76H784.96V197.08H751.44V192.76ZM763.28 180.04H768.64V194.92H763.28V180.04ZM776.4 167.64H781.76V171.16C781.76 172.707 781.733 174.347 781.68 176.08C781.653 177.813 781.533 179.733 781.32 181.84C781.133 183.947 780.787 186.307 780.28 188.92L774.96 188.36C775.707 184.653 776.133 181.427 776.24 178.68C776.347 175.907 776.4 173.4 776.4 171.16V167.64ZM794.788 194.023L794.632 195.585C794.509 196.835 794.272 198.08 793.922 199.321C793.581 200.571 793.221 201.703 792.842 202.716C792.473 203.729 792.175 204.525 791.947 205.102H788.027C788.169 204.544 788.363 203.762 788.609 202.759C788.856 201.764 789.088 200.647 789.305 199.406C789.523 198.166 789.661 196.902 789.717 195.614L789.788 194.023H794.788ZM348.746 244.32H351.746C353.933 244.32 355.893 244.293 357.626 244.24C359.386 244.187 361.053 244.093 362.626 243.96C364.199 243.8 365.786 243.573 367.386 243.28L367.906 247.6C366.226 247.893 364.573 248.12 362.946 248.28C361.346 248.44 359.639 248.547 357.826 248.6C356.039 248.653 354.013 248.68 351.746 248.68H348.746V244.32ZM348.746 223.76H365.506V228H354.066V246H348.746V223.76ZM372.746 220.48H378.066V257.64H372.746V220.48ZM363.706 233.28H375.026V237.6H363.706V233.28ZM405.521 239.12H410.801V245.64H405.521V239.12ZM391.401 237.32H424.921V241.56H391.401V237.32ZM408.081 244.16C412.081 244.16 415.227 244.747 417.521 245.92C419.814 247.067 420.961 248.72 420.961 250.88C420.961 252.987 419.814 254.627 417.521 255.8C415.227 256.973 412.081 257.56 408.081 257.56C404.081 257.56 400.934 256.973 398.641 255.8C396.374 254.627 395.241 252.987 395.241 250.88C395.241 248.72 396.374 247.067 398.641 245.92C400.934 244.747 404.081 244.16 408.081 244.16ZM408.081 248.2C406.427 248.2 405.041 248.293 403.921 248.48C402.827 248.667 402.001 248.96 401.441 249.36C400.881 249.733 400.601 250.24 400.601 250.88C400.601 251.467 400.881 251.96 401.441 252.36C402.001 252.76 402.827 253.053 403.921 253.24C405.041 253.427 406.427 253.52 408.081 253.52C409.734 253.52 411.107 253.427 412.201 253.24C413.321 253.053 414.161 252.76 414.721 252.36C415.281 251.96 415.561 251.467 415.561 250.88C415.561 250.24 415.281 249.733 414.721 249.36C414.161 248.96 413.321 248.667 412.201 248.48C411.107 248.293 409.734 248.2 408.081 248.2ZM404.521 224H409.241V224.88C409.241 226 409.041 227.067 408.641 228.08C408.241 229.093 407.641 230.04 406.841 230.92C406.067 231.773 405.094 232.547 403.921 233.24C402.747 233.933 401.387 234.507 399.841 234.96C398.294 235.413 396.574 235.733 394.681 235.92L392.841 231.72C394.467 231.587 395.907 231.36 397.161 231.04C398.441 230.72 399.534 230.333 400.441 229.88C401.374 229.4 402.134 228.893 402.721 228.36C403.334 227.8 403.787 227.227 404.081 226.64C404.374 226.053 404.521 225.467 404.521 224.88V224ZM407.121 224H411.801V224.88C411.801 225.467 411.947 226.067 412.241 226.68C412.534 227.267 412.974 227.827 413.561 228.36C414.174 228.893 414.934 229.4 415.841 229.88C416.774 230.333 417.867 230.72 419.121 231.04C420.401 231.36 421.854 231.587 423.481 231.72L421.641 235.92C419.747 235.733 418.027 235.413 416.481 234.96C414.934 234.507 413.574 233.947 412.401 233.28C411.254 232.587 410.281 231.813 409.481 230.96C408.707 230.08 408.121 229.133 407.721 228.12C407.321 227.08 407.121 226 407.121 224.88V224ZM394.481 222.04H421.921V226.24H394.481V222.04ZM434.798 239.32H440.118V249.68H434.798V239.32ZM448.238 239.32H453.558V249.68H448.238V239.32ZM427.438 248.92H460.998V253.24H427.438V248.92ZM444.158 222.32C446.824 222.32 449.198 222.733 451.278 223.56C453.384 224.387 455.024 225.547 456.198 227.04C457.398 228.507 457.998 230.253 457.998 232.28C457.998 234.28 457.398 236.027 456.198 237.52C455.024 238.987 453.384 240.133 451.278 240.96C449.198 241.787 446.824 242.2 444.158 242.2C441.518 242.2 439.144 241.787 437.038 240.96C434.958 240.133 433.318 238.987 432.118 237.52C430.918 236.027 430.318 234.28 430.318 232.28C430.318 230.253 430.918 228.507 432.118 227.04C433.318 225.547 434.958 224.387 437.038 223.56C439.144 222.733 441.518 222.32 444.158 222.32ZM444.158 226.44C442.451 226.44 440.944 226.68 439.638 227.16C438.358 227.613 437.358 228.267 436.638 229.12C435.918 229.973 435.558 231.027 435.558 232.28C435.558 233.48 435.918 234.52 436.638 235.4C437.358 236.253 438.358 236.92 439.638 237.4C440.944 237.853 442.451 238.08 444.158 238.08C445.891 238.08 447.398 237.853 448.678 237.4C449.984 236.92 450.984 236.253 451.678 235.4C452.398 234.52 452.758 233.48 452.758 232.28C452.758 231.027 452.398 229.973 451.678 229.12C450.984 228.267 449.984 227.613 448.678 227.16C447.398 226.68 445.891 226.44 444.158 226.44ZM487.235 220.52H492.555V248.2H487.235V220.52ZM491.075 231.8H497.475V236.2H491.075V231.8ZM463.435 224.4H485.195V228.56H463.435V224.4ZM474.315 229.88C476.101 229.88 477.675 230.187 479.035 230.8C480.421 231.387 481.501 232.227 482.275 233.32C483.048 234.387 483.435 235.613 483.435 237C483.435 238.413 483.048 239.667 482.275 240.76C481.501 241.827 480.421 242.667 479.035 243.28C477.675 243.867 476.101 244.16 474.315 244.16C472.555 244.16 470.981 243.867 469.595 243.28C468.208 242.667 467.128 241.827 466.355 240.76C465.581 239.667 465.195 238.413 465.195 237C465.195 235.613 465.581 234.387 466.355 233.32C467.128 232.227 468.208 231.387 469.595 230.8C470.981 230.187 472.555 229.88 474.315 229.88ZM474.315 233.92C473.141 233.92 472.181 234.187 471.435 234.72C470.688 235.253 470.315 236.027 470.315 237.04C470.315 238.027 470.688 238.787 471.435 239.32C472.181 239.853 473.141 240.12 474.315 240.12C475.515 240.12 476.475 239.853 477.195 239.32C477.941 238.787 478.315 238.027 478.315 237.04C478.315 236.027 477.941 235.253 477.195 234.72C476.475 234.187 475.515 233.92 474.315 233.92ZM471.675 220.48H476.955V226.4H471.675V220.48ZM468.675 252.64H493.875V256.92H468.675V252.64ZM468.675 246.12H474.035V254.48H468.675V246.12ZM518.289 221.56C520.209 221.56 521.903 221.933 523.369 222.68C524.863 223.4 526.036 224.4 526.889 225.68C527.769 226.933 528.209 228.387 528.209 230.04C528.209 231.693 527.769 233.16 526.889 234.44C526.036 235.693 524.863 236.68 523.369 237.4C521.903 238.12 520.209 238.48 518.289 238.48C516.423 238.48 514.743 238.12 513.249 237.4C511.756 236.68 510.569 235.693 509.689 234.44C508.836 233.16 508.409 231.693 508.409 230.04C508.409 228.387 508.836 226.92 509.689 225.64C510.569 224.36 511.756 223.36 513.249 222.64C514.743 221.92 516.423 221.56 518.289 221.56ZM518.329 225.88C517.423 225.88 516.609 226.053 515.889 226.4C515.169 226.72 514.596 227.187 514.169 227.8C513.769 228.413 513.569 229.16 513.569 230.04C513.569 230.92 513.769 231.68 514.169 232.32C514.596 232.933 515.156 233.4 515.849 233.72C516.569 234.04 517.396 234.2 518.329 234.2C519.236 234.2 520.036 234.04 520.729 233.72C521.449 233.4 522.009 232.933 522.409 232.32C522.836 231.68 523.049 230.92 523.049 230.04C523.049 229.16 522.836 228.413 522.409 227.8C522.009 227.187 521.449 226.72 520.729 226.4C520.009 226.053 519.209 225.88 518.329 225.88ZM533.329 220.52H538.649V239.04H533.329V220.52ZM513.969 240.56H538.649V250.68H519.249V255.2H514.009V246.84H533.369V244.64H513.969V240.56ZM514.009 253H539.569V257.16H514.009V253ZM558.686 234.12H564.766V238.4H558.686V234.12ZM570.606 220.48H575.686V257.52H570.606V220.48ZM563.086 221.08H568.046V255.88H563.086V221.08ZM552.206 223.08C553.833 223.08 555.246 223.627 556.446 224.72C557.673 225.787 558.606 227.333 559.246 229.36C559.913 231.36 560.246 233.76 560.246 236.56C560.246 239.333 559.913 241.733 559.246 243.76C558.606 245.787 557.673 247.347 556.446 248.44C555.246 249.507 553.819 250.04 552.166 250.04C550.566 250.04 549.153 249.507 547.926 248.44C546.726 247.347 545.793 245.787 545.126 243.76C544.486 241.733 544.166 239.333 544.166 236.56C544.166 233.76 544.486 231.36 545.126 229.36C545.793 227.333 546.726 225.787 547.926 224.72C549.153 223.627 550.579 223.08 552.206 223.08ZM552.206 228.12C551.539 228.12 550.966 228.427 550.486 229.04C550.006 229.653 549.633 230.587 549.366 231.84C549.126 233.067 549.006 234.64 549.006 236.56C549.006 238.427 549.126 239.987 549.366 241.24C549.633 242.493 550.006 243.44 550.486 244.08C550.966 244.693 551.539 245 552.206 245C552.873 245 553.446 244.693 553.926 244.08C554.433 243.44 554.806 242.493 555.046 241.24C555.286 239.987 555.406 238.427 555.406 236.56C555.406 234.64 555.286 233.067 555.046 231.84C554.806 230.587 554.433 229.653 553.926 229.04C553.446 228.427 552.873 228.12 552.206 228.12ZM597.301 223.68H601.661V225.96C601.661 228.173 601.274 230.28 600.501 232.28C599.754 234.28 598.594 236.013 597.021 237.48C595.474 238.947 593.501 240.053 591.101 240.8L588.461 236.64C590.007 236.187 591.327 235.587 592.421 234.84C593.541 234.067 594.461 233.213 595.181 232.28C595.901 231.32 596.434 230.307 596.781 229.24C597.127 228.147 597.301 227.053 597.301 225.96V223.68ZM598.421 223.68H602.741V225.96C602.741 227 602.914 228.027 603.261 229.04C603.607 230.027 604.127 230.973 604.821 231.88C605.541 232.787 606.447 233.6 607.541 234.32C608.634 235.013 609.941 235.587 611.461 236.04L608.821 240.16C606.501 239.467 604.567 238.427 603.021 237.04C601.474 235.627 600.314 233.96 599.541 232.04C598.794 230.12 598.421 228.093 598.421 225.96V223.68ZM589.901 222.48H610.061V226.68H589.901V222.48ZM613.781 220.52H619.101V240.6H613.781V220.52ZM594.501 242.2H599.741V245.56H613.821V242.2H619.101V257.16H594.501V242.2ZM599.741 249.64V252.88H613.821V249.64H599.741ZM638.418 239.12H643.698V245.64H638.418V239.12ZM624.298 237.32H657.818V241.56H624.298V237.32ZM640.978 244.16C644.978 244.16 648.124 244.747 650.418 245.92C652.711 247.067 653.858 248.72 653.858 250.88C653.858 252.987 652.711 254.627 650.418 255.8C648.124 256.973 644.978 257.56 640.978 257.56C636.978 257.56 633.831 256.973 631.538 255.8C629.271 254.627 628.138 252.987 628.138 250.88C628.138 248.72 629.271 247.067 631.538 245.92C633.831 244.747 636.978 244.16 640.978 244.16ZM640.978 248.2C639.324 248.2 637.938 248.293 636.818 248.48C635.724 248.667 634.898 248.96 634.338 249.36C633.778 249.733 633.498 250.24 633.498 250.88C633.498 251.467 633.778 251.96 634.338 252.36C634.898 252.76 635.724 253.053 636.818 253.24C637.938 253.427 639.324 253.52 640.978 253.52C642.631 253.52 644.004 253.427 645.098 253.24C646.218 253.053 647.058 252.76 647.618 252.36C648.178 251.96 648.458 251.467 648.458 250.88C648.458 250.24 648.178 249.733 647.618 249.36C647.058 248.96 646.218 248.667 645.098 248.48C644.004 248.293 642.631 248.2 640.978 248.2ZM637.418 224H642.138V224.88C642.138 226 641.938 227.067 641.538 228.08C641.138 229.093 640.538 230.04 639.738 230.92C638.964 231.773 637.991 232.547 636.818 233.24C635.644 233.933 634.284 234.507 632.738 234.96C631.191 235.413 629.471 235.733 627.578 235.92L625.738 231.72C627.364 231.587 628.804 231.36 630.058 231.04C631.338 230.72 632.431 230.333 633.338 229.88C634.271 229.4 635.031 228.893 635.618 228.36C636.231 227.8 636.684 227.227 636.978 226.64C637.271 226.053 637.418 225.467 637.418 224.88V224ZM640.018 224H644.698V224.88C644.698 225.467 644.844 226.067 645.138 226.68C645.431 227.267 645.871 227.827 646.458 228.36C647.071 228.893 647.831 229.4 648.738 229.88C649.671 230.333 650.764 230.72 652.018 231.04C653.298 231.36 654.751 231.587 656.378 231.72L654.538 235.92C652.644 235.733 650.924 235.413 649.378 234.96C647.831 234.507 646.471 233.947 645.298 233.28C644.151 232.587 643.178 231.813 642.378 230.96C641.604 230.08 641.018 229.133 640.618 228.12C640.218 227.08 640.018 226 640.018 224.88V224ZM627.378 222.04H654.818V226.24H627.378V222.04ZM684.055 220.52H689.375V257.56H684.055V220.52ZM688.175 234.96H694.695V239.36H688.175V234.96ZM660.135 225.96H681.735V230.2H660.135V225.96ZM671.015 232.32C672.801 232.32 674.401 232.707 675.815 233.48C677.228 234.227 678.335 235.253 679.135 236.56C679.961 237.867 680.375 239.387 680.375 241.12C680.375 242.853 679.961 244.387 679.135 245.72C678.335 247.027 677.228 248.067 675.815 248.84C674.428 249.587 672.828 249.96 671.015 249.96C669.228 249.96 667.615 249.587 666.175 248.84C664.761 248.067 663.641 247.027 662.815 245.72C662.015 244.387 661.615 242.853 661.615 241.12C661.615 239.387 662.015 237.867 662.815 236.56C663.641 235.253 664.761 234.227 666.175 233.48C667.615 232.707 669.228 232.32 671.015 232.32ZM671.015 236.64C670.161 236.64 669.415 236.813 668.775 237.16C668.135 237.507 667.628 238.013 667.255 238.68C666.881 239.347 666.695 240.16 666.695 241.12C666.695 242.053 666.881 242.867 667.255 243.56C667.628 244.227 668.135 244.747 668.775 245.12C669.415 245.467 670.161 245.64 671.015 245.64C671.841 245.64 672.575 245.467 673.215 245.12C673.855 244.747 674.361 244.227 674.735 243.56C675.108 242.867 675.295 242.053 675.295 241.12C675.295 240.16 675.108 239.347 674.735 238.68C674.361 238.013 673.855 237.507 673.215 237.16C672.575 236.813 671.841 236.64 671.015 236.64ZM668.295 221.12H673.655V227.6H668.295V221.12ZM710.891 232.96H717.051V237.28H710.891V232.96ZM703.011 223.72H707.051V229.92C707.051 232.027 706.905 234.093 706.611 236.12C706.318 238.147 705.838 240.053 705.171 241.84C704.531 243.627 703.678 245.24 702.611 246.68C701.571 248.093 700.305 249.253 698.811 250.16L695.611 246.16C696.998 245.333 698.158 244.32 699.091 243.12C700.025 241.92 700.785 240.6 701.371 239.16C701.958 237.72 702.371 236.227 702.611 234.68C702.878 233.107 703.011 231.52 703.011 229.92V223.72ZM704.171 223.72H708.131V229.68C708.131 231.2 708.238 232.707 708.451 234.2C708.691 235.693 709.065 237.12 709.571 238.48C710.078 239.84 710.745 241.093 711.571 242.24C712.425 243.387 713.491 244.373 714.771 245.2L711.851 249.36C710.411 248.453 709.185 247.307 708.171 245.92C707.185 244.507 706.398 242.92 705.811 241.16C705.225 239.4 704.798 237.547 704.531 235.6C704.291 233.653 704.171 231.68 704.171 229.68V223.72ZM723.051 220.48H728.131V257.52H723.051V220.48ZM715.531 221.08H720.491V255.88H715.531V221.08ZM739.688 239.32H745.008V249.68H739.688V239.32ZM753.128 239.32H758.448V249.68H753.128V239.32ZM732.328 248.92H765.888V253.24H732.328V248.92ZM749.048 222.32C751.715 222.32 754.088 222.733 756.168 223.56C758.275 224.387 759.915 225.547 761.088 227.04C762.288 228.507 762.888 230.253 762.888 232.28C762.888 234.28 762.288 236.027 761.088 237.52C759.915 238.987 758.275 240.133 756.168 240.96C754.088 241.787 751.715 242.2 749.048 242.2C746.408 242.2 744.035 241.787 741.928 240.96C739.848 240.133 738.208 238.987 737.008 237.52C735.808 236.027 735.208 234.28 735.208 232.28C735.208 230.253 735.808 228.507 737.008 227.04C738.208 225.547 739.848 224.387 741.928 223.56C744.035 222.733 746.408 222.32 749.048 222.32ZM749.048 226.44C747.342 226.44 745.835 226.68 744.528 227.16C743.248 227.613 742.248 228.267 741.528 229.12C740.808 229.973 740.448 231.027 740.448 232.28C740.448 233.48 740.808 234.52 741.528 235.4C742.248 236.253 743.248 236.92 744.528 237.4C745.835 237.853 747.342 238.08 749.048 238.08C750.782 238.08 752.288 237.853 753.568 237.4C754.875 236.92 755.875 236.253 756.568 235.4C757.288 234.52 757.648 233.48 757.648 232.28C757.648 231.027 757.288 229.973 756.568 229.12C755.875 228.267 754.875 227.613 753.568 227.16C752.288 226.68 750.782 226.44 749.048 226.44ZM776.33 224.909L775.776 245.278H770.577L770.009 224.909H776.33ZM773.177 254.369C772.239 254.369 771.434 254.038 770.762 253.375C770.09 252.703 769.758 251.898 769.768 250.96C769.758 250.032 770.09 249.237 770.762 248.574C771.434 247.911 772.239 247.58 773.177 247.58C774.076 247.58 774.867 247.911 775.549 248.574C776.231 249.237 776.576 250.032 776.586 250.96C776.576 251.585 776.411 252.158 776.089 252.679C775.776 253.19 775.364 253.602 774.853 253.915C774.341 254.218 773.783 254.369 773.177 254.369Z" fill="#6F6F71"/>
</svg>
